<?xml version="1.0" encoding="utf-8"?>
<!-- Generator: Adobe Illustrator 24.0.2, SVG Export Plug-In . SVG Version: 6.00 Build 0)  -->
<svg version="1.1" id="Capa_1" xmlns="http://www.w3.org/2000/svg" xmlns:xlink="http://www.w3.org/1999/xlink" x="0px" y="0px"
	 viewBox="0 0 85.4 85.4" style="enable-background:new 0 0 85.4 85.4;" xml:space="preserve">
<style type="text/css">
	.st0{fill:none;}
	.st1{fill:#1E407F;}
</style>
<circle id="Ciculo" class="st0" cx="42.7" cy="42.7" r="40.3"/>
<path class="st1" d="M59.8,55.9l2-15.3h2.1c0.6,0,1-0.5,1-1v-4c0-0.6-0.5-1-1-1h-4v-3c0-0.3-0.1-0.5-0.3-0.7l-4.7-4.7V23l1.5-1.2
	L59,27l1.8-0.9L58,20.4l1.2-1h3.7c0.6,0,1-0.5,1-1v-4c0-0.6-0.5-1-1-1H52.8c-5,0-9.1,4.1-9.1,9.1c0,0.6,0.5,1,1,1h2v2.6L44,28.8
	c-0.2,0.2-0.3,0.4-0.3,0.7v5h-2v-8.1c0-0.1,0-0.2-0.1-0.4c0,0,0-0.1-0.1-0.1c0-0.1-0.1-0.1-0.1-0.2l-3.8-4.8v-6.7c0-0.6-0.5-1-1-1
	h-6c-0.6,0-1,0.5-1,1v6.7l-3.8,4.8c0,0-0.1,0.1-0.1,0.2c0,0,0,0.1-0.1,0.1c0,0.1-0.1,0.2-0.1,0.4v8.1h-4c-0.6,0-1,0.5-1,1v4
	c0,0.6,0.5,1,1,1h2.1L27.6,71c0.1,0.5,0.5,0.9,1,0.9h23.7c2.6,0.3,3.9-0.5,4.4-0.9c0.9-0.8,1.3-2.8,2-6.9c0.1-0.6,0.3-1.7,0.5-3
	c0.1-0.8,0.2-1.4,0.2-1.9C59.5,58,59.7,57,59.8,55.9z M59.9,15.4h2v2h-2V15.4z M62.9,36.6v2H48.8v-2H62.9z M45.8,21.5
	c0.5-3.5,3.5-6,7-6h5V18l-4.4,3.5H45.8z M52.8,23.5v2h-4v-2H52.8z M45.7,29.9l2.4-2.4h5.2l4.5,4.5v2.6H45.7V29.9z M44.7,36.6h2v7.1
	c0,0.4,0.2,0.7,0.6,0.9l6,3c0.3,0.1,0.5,0.4,0.6,0.7c0.1,0.3,0.1,0.7-0.1,1c-0.3,0.6-1,0.8-1.6,0.5c0,0,0,0,0,0l-4.1-2
	c-0.5-0.2-1.1,0-1.3,0.5c-0.1,0.1-0.1,0.3-0.1,0.4v10.1c0,1.1-0.9,2-2,2v-9.1h-2v9.1h-2v-9.1h-2v9.1h-2v-9.1h-2v9.1
	c-1.1,0-2-0.9-2-2V36.6H44.7z M31.6,15.4h4v5h-4V15.4z M31.1,22.5h5.1l2.4,3h-9.9L31.1,22.5z M27.6,27.5h12.1v7.1H27.6V27.5z
	 M22.6,38.6v-2h8.1v2H22.6z M56.4,64.7c-0.2,0.6-0.2,0.5-0.4,1.4c-0.2,0.7-0.3,1.1-0.4,1.6c0,0.1-0.1,0.2-0.2,0.5
	c-0.1,0.2-0.1,0.4-0.1,0.6c0,0.2-0.1,0.3-0.1,0.5c-0.1,0.3-0.1,0.4-0.1,0.4c0,0.1-0.1,0.2-0.3,0.4C54.6,70,54.5,70,54,70
	c-0.5,0-0.7,0-0.9-0.1c-0.1,0-0.2,0-1,0c-0.3,0-0.6,0-1.1,0c-7.2,0-14.3,0-21.5-0.1l-3.8-29.2h4.9v18.1c0,2.2,1.8,4,4,4h10.1
	c2.2,0,4-1.8,4-4v-8.5l2.6,1.3c1.6,0.8,3.5,0.1,4.3-1.5c0,0,0,0,0,0c0.4-0.8,0.5-1.7,0.2-2.5c-0.3-0.8-0.9-1.5-1.6-1.9L48.8,43v-2.4
	h11l-2,15.1c-0.1,0.6-0.2,1.2-0.3,1.8c0,0.3,0,0.7-0.1,1.3c-0.1,0.7-0.2,1.3-0.3,2c-0.1,0.4-0.1,0.3-0.4,2
	C56.5,64.1,56.5,64.3,56.4,64.7z"/>
</svg>
