<?xml version="1.0" encoding="utf-8"?>
<!-- Generator: Adobe Illustrator 24.0.2, SVG Export Plug-In . SVG Version: 6.00 Build 0)  -->
<svg version="1.1" id="Capa_1" xmlns="http://www.w3.org/2000/svg" xmlns:xlink="http://www.w3.org/1999/xlink" x="0px" y="0px"
	 viewBox="0 0 85.4 85.4" style="enable-background:new 0 0 85.4 85.4;" xml:space="preserve">
<style type="text/css">
	.st0{fill:#00A7B5;stroke:#00A7B5;stroke-miterlimit:10;}
	.st1{fill:#FFFFFF;}
</style>
<circle id="Ciculo" class="st0" cx="42.7" cy="42.7" r="40.3"/>
<g id="outline">
	<path class="st1" d="M54.8,20.6h-8v-4c0-2.2-1.7-4-3.8-4c-0.1,0-0.1,0-0.2,0h-6c-2.2,0-4,1.7-4,3.8c0,0.1,0,0.1,0,0.2v4.6L26.9,28
		c-2.2,2.4-3.3,5.5-3.3,8.7v33.1c0,0.8,0.3,1.6,0.9,2.2s1.3,0.8,2.1,0.8h32.1c1.6,0.1,2.9-1.1,3-2.7c0-0.1,0-0.2,0-0.3V27.6
		C61.8,23.7,58.6,20.6,54.8,20.6z M34.7,16.6c0-1.1,0.8-2,1.9-2h0.1h6c1.1,0,2,0.8,2,1.9v0.1v4h-2v-2h-2v2h-2v-2h-2v2h-2V16.6z
		 M25.7,49.7h9v-2h-9v-8h24.1v18.1h-11c-0.6,0-1,0.4-1,1v5h-12V49.7H25.7z M49.7,59.7v4h-2v-4H49.7z M45.7,59.7v4h-2v-4H45.7z
		 M41.7,59.7v4h-2v-4H41.7z M59.8,69.8c0.1,0.5-0.3,0.9-0.8,1c-0.1,0-0.2,0-0.3,0h-32c-0.3,0-0.5-0.1-0.7-0.2
		c-0.2-0.2-0.3-0.5-0.3-0.8v-4h25.1c0.6,0,1-0.4,1-1V38.7c0-0.6-0.4-1-1-1H25.7v-1c-0.1-2.7,0.9-5.4,2.8-7.4l5.7-6.7h20.6
		c2.8,0,5,2.2,5,5C59.8,27.6,59.8,69.8,59.8,69.8z"/>
	<path class="st1" d="M53.8,24.6h-5c-0.6,0-1,0.4-1,1c0,0.2,0.1,0.4,0.2,0.6l8,11c0.3,0.4,1,0.5,1.4,0.2c0.3-0.2,0.4-0.5,0.4-0.8
		v-8.1C57.8,26.4,56,24.6,53.8,24.6L53.8,24.6z M55.8,33.6l-5.1-7h3.1c1.1,0,2,0.9,2,2V33.6z"/>
	<path class="st1" d="M27.7,41.7h18.1v2H27.7V41.7z"/>
	<path class="st1" d="M35.7,51.7h8v2h-8V51.7z"/>
</g>
</svg>
