<?xml version="1.0" encoding="utf-8"?>
<!-- Generator: Adobe Illustrator 24.0.2, SVG Export Plug-In . SVG Version: 6.00 Build 0)  -->
<svg version="1.1" id="Capa_1" xmlns="http://www.w3.org/2000/svg" xmlns:xlink="http://www.w3.org/1999/xlink" x="0px" y="0px"
	 viewBox="0 0 85.4 85.4" style="enable-background:new 0 0 85.4 85.4;" xml:space="preserve">
<style type="text/css">
	.st0{fill:#00A7B5;stroke:#00A7B5;stroke-miterlimit:10;}
	.st1{fill:#1E407F;}
	.st2{fill:#FFFFFF;}
</style>
<circle id="Ciculo" class="st0" cx="42.7" cy="42.7" r="40.3"/>
<path d="M67.3,45.2"/>
<path class="st1" d="M73.4,37.8"/>
<g>
	<g>
		<g>
			<path class="st2" d="M16,52.5l-2.7-3.1c-2.7-3.1-4.2-7-4.3-11.1c0-0.7-0.6-1.2-1.2-1.2c-0.7,0-1.2,0.6-1.2,1.2
				c0.2,4.6,1.9,9.1,4.9,12.6l2.7,3.1c0.2,0.3,0.5,0.4,0.8,0.4c0.3,0,0.6-0.1,0.9-0.3C16.4,53.7,16.4,53,16,52.5z"/>
		</g>
	</g>
	<g>
		<g>
			<path class="st2" d="M52.2,39c-0.4-0.5-1.2-0.6-1.7-0.2l-5.8,4.4c-0.5,0.4-0.6,1.2-0.2,1.7c0.2,0.3,0.5,0.4,0.8,0.5
				c0.3,0,0.6,0,0.9-0.2l5.8-4.4C52.5,40.3,52.6,39.5,52.2,39z"/>
		</g>
	</g>
	<g>
		<g>
			<path class="st2" d="M56.4,43.9c-0.4-0.5-1.2-0.6-1.7-0.2l-9.4,7.1c-0.5,0.4-0.6,1.2-0.2,1.7c0.2,0.3,0.5,0.4,0.8,0.5
				c0.3,0,0.6,0,0.9-0.2l9.4-7.1C56.7,45.2,56.8,44.4,56.4,43.9z"/>
		</g>
	</g>
	<g>
		<g>
			<path class="st2" d="M78.4,35.7c-0.6-0.2-1.3,0.2-1.5,0.9c-1,4-3.3,7.5-6.5,9.9L53.9,59.1c-0.4,0.3-0.9,0.4-1.4,0.4
				c-0.5-0.1-0.9-0.3-1.2-0.7c-0.3-0.4-0.4-0.9-0.4-1.4c0.1-0.5,0.3-0.9,0.7-1.2c0,0,0,0,0,0l10.6-8c0.5-0.4,0.6-1.2,0.2-1.7
				c-0.4-0.5-1.2-0.6-1.7-0.2l-12.5,9.4c-0.1-0.6-0.4-1.2-0.8-1.7l-4.8-6.3l3.3-2.5c0.5-0.4,0.6-1.2,0.2-1.7
				c-0.4-0.5-1.2-0.6-1.7-0.2l-3.2,2.5l-7.9-10.4c0,0-0.1-0.1,0-0.2c0.1-0.1,0.1-0.1,0.2-0.1l5.1,0.7c2.4,0.3,4.7-1.4,5-3.8
				c0.3-2.4-1.4-4.7-3.8-5c0,0,0,0,0,0L20,24.2c-0.7-0.1-1.3,0.4-1.4,1c-0.1,0.7,0.4,1.3,1,1.4c0,0,0,0,0,0l19.9,2.7c0,0,0,0,0,0
				c1.1,0.2,1.9,1.2,1.8,2.3c-0.2,1.1-1.2,1.9-2.3,1.8l-5.1-0.7c-1-0.1-2,0.3-2.6,1.2c-0.5,0.9-0.5,2,0.2,2.8l14.1,18.6
				c0.6,0.8,0.5,2-0.3,2.6l0,0c0,0,0,0,0,0c-0.4,0.3-0.9,0.4-1.4,0.4c-0.5-0.1-0.9-0.3-1.2-0.7l-12.1-16c-0.4-0.5-1.2-0.6-1.7-0.2
				c-0.5,0.4-0.6,1.2-0.2,1.7l14.5,19.1c0.6,0.8,0.5,2-0.4,2.6c-0.4,0.3-0.9,0.4-1.4,0.4s-0.9-0.3-1.2-0.7L26.3,46.1
				c-0.4-0.5-1.2-0.6-1.7-0.2S24,47,24.4,47.5l11,14.5c0.6,0.8,0.5,2-0.4,2.6c-0.8,0.6-2,0.5-2.6-0.4L20.7,48.7
				c-0.4-0.5-1.2-0.6-1.7-0.2c-0.5,0.4-0.6,1.2-0.2,1.7l8,10.6c0.6,0.8,0.5,2-0.4,2.6c-0.4,0.3-0.9,0.4-1.4,0.4s-0.9-0.3-1.2-0.7
				l-7.4-9.8c-0.4-0.5-1.2-0.6-1.7-0.2c-0.5,0.4-0.6,1.2-0.2,1.7l7.4,9.8c0.7,0.9,1.7,1.5,2.8,1.6s2.2-0.1,3.1-0.8
				c0.5-0.4,0.9-0.9,1.2-1.4l1.4,1.9c0.7,0.9,1.7,1.5,2.8,1.6c1.1,0.1,2.2-0.1,3.1-0.8c0.5-0.4,0.9-0.9,1.2-1.4l0.6,0.7
				c0.7,0.9,1.7,1.5,2.8,1.6c1.1,0.2,2.2-0.1,3.1-0.8c1.9-1.4,2.2-4.1,0.8-5.9l0,0c0.6-0.1,1.2-0.4,1.7-0.8c0,0,0,0,0,0l1.8-1.4
				c0.1,0.6,0.4,1.2,0.8,1.7c0.7,0.9,1.7,1.5,2.8,1.6c1.1,0.2,2.2-0.1,3.1-0.8l16.5-12.5c3.7-2.8,6.3-6.8,7.4-11.3
				C79.4,36.6,79,35.9,78.4,35.7z"/>
		</g>
	</g>
	<g>
		<g>
			<path class="st2" d="M67.3,35.8c-0.1-0.7-0.7-1.1-1.4-1c-2,0.3-4,0.1-5.8-0.7c-0.6-0.3-1.3,0-1.6,0.6c-0.3,0.6,0,1.3,0.6,1.6
				c0.9,0.4,1.7,0.7,2.6,0.8c1.5,0.3,3,0.3,4.5,0.1C67,37.1,67.5,36.5,67.3,35.8z"/>
		</g>
	</g>
	<g>
		<g>
			<path class="st2" d="M68,22.7L48,20c0,0,0,0,0,0c-2.4-0.3-4.7,1.4-5,3.8l0,0.1c-0.2,1.2,0.1,2.3,0.9,3.3c0.7,0.9,1.8,1.6,2.9,1.7
				l5.5,0.8l-12.4,9.4c-0.3,0.2-0.6,0.4-0.8,0.5c-0.2,0.1-0.2,0.1-0.5,0.3c-0.3,0.2-0.5,0.3-0.7,0.4c-0.6,0.3-0.5,0.3-0.6,0.4
				c-0.5,0.3-0.9,0.2-0.9,0.4c0,0.1,0.5,0.1,0.7,0.5c0.2,0.2,0.1,0.4,0.2,0.8c0,0.1,0.2,0.9,0.7,1c0.2,0,0.3-0.1,0.9-0.6
				c0.3-0.2,0.6-0.5,1.4-1c0.6-0.4,1-0.6,1.1-0.7c4.5-3.4,8.9-6.8,13.4-10.2c0.8,2,2.1,3.7,3.8,5.1c0.2,0.1,0.4,0.2,0.6,0.3
				c0.4,0.1,0.8-0.1,1.1-0.4c0.4-0.5,0.3-1.3-0.2-1.7c-1.7-1.4-2.9-3.3-3.5-5.5c0,0,0,0,0,0c-0.1-0.5-0.5-0.8-1-0.9l-8.4-1.2
				c-0.5-0.1-1-0.4-1.3-0.8c-0.3-0.4-0.5-1-0.4-1.5l0-0.1c0.2-1.1,1.2-1.9,2.3-1.7c0,0,0,0,0,0l20,2.8c0,0,0,0,0,0
				c0.7,0.1,1.3-0.4,1.4-1C69.1,23.4,68.6,22.8,68,22.7z"/>
		</g>
	</g>
</g>
</svg>
