<?xml version="1.0" encoding="utf-8"?>
<!-- Generator: Adobe Illustrator 24.0.2, SVG Export Plug-In . SVG Version: 6.00 Build 0)  -->
<svg version="1.1" id="Capa_1" xmlns="http://www.w3.org/2000/svg" xmlns:xlink="http://www.w3.org/1999/xlink" x="0px" y="0px"
	 viewBox="0 0 85.4 85.4" style="enable-background:new 0 0 85.4 85.4;" xml:space="preserve">
<style type="text/css">
	.st0{fill:none;}
	.st1{fill:#1E407F;}
</style>
<circle id="Ciculo" class="st0" cx="42.7" cy="42.7" r="40.3"/>
<path class="st1" d="M73.4,23L57.9,7.6c-0.3-0.3-0.6-0.4-0.8-0.3H33.9c-2.8,0-5.2,2.2-5.2,5v24.3L11.4,50.5c0,0,0,0.1-0.1,0.1
	c-1.3,1.3-2,3.1-2,4.9c0,3.2,0,6.5,0,9.7c0.1,0.1,0.2,0.3,0.3,0.4c0.1,0.2,0.3,0.4,0.4,0.6c0.1,0.2,0.4,0.6,0.7,1
	c0.1,0.2,0.3,0.4,0.3,0.4c0.1,0.1,0.2,0.3,0.3,0.4c0.1,0.1,0.2,0.3,0.3,0.4c0.1,0.1,0.2,0.3,0.4,0.4c0-4.5,0-8.9,0-13.4
	c0-1.1,0.4-2.2,1.3-3.1l15.7-12.6V50L18,58.6c-0.6,0.4-0.6,1.3-0.1,1.8c0.4,0.6,1.3,0.6,1.8,0.1l13-10.3l0.3,0.3
	c1.3,1.3,1.3,3.2,0,4.3L26.8,61c-0.3,0.3-0.3,0.6-0.4,0.8l-0.1,1.4c0,0,0,0,0,0.1c0,1,0.3,2.1,0.7,2.9c1,2.1,0.8,4.5-0.6,6.4
	c-0.1,0.1-0.3,0.4-0.3,0.7v2.9c0,0.7,0.6,1.3,1.3,1.3c0.7,0,1.3-0.6,1.3-1.3v-2.5c1.5-2.5,1.8-5.9,0.4-8.5c-0.3-0.6-0.4-1.3-0.4-2
	v-0.8l0.1-0.1c0,2.8,2.2,5.2,5.2,5.2h3.8v5.7c0,0.3-0.1,0.7-0.1,1c-0.1,0.5-0.3,1.3-1,2.1c-0.7,0.7-1.7,1.2-2.6,1.3
	c-0.4,0-0.5,0-0.8,0.1c-0.7,0.2-1.1,0.8-1.4,1.3c0,0.8,0,1.6,0,2.5c0.4,0.1,0.8,0.2,1,0.3c0.6,0.1,0.7,0.2,0.9,0.2
	c0.1,0,0.2,0,0.3,0.1c0,0,0.1,0,0.1,0c0,0,0-0.1,0-0.1v-1.7c3.4-0.6,5.9-3.5,5.9-7v-5.9h22.7c2.5,0,4.5-0.7,5.6-1.1
	c1.8-0.7,2.7-1.5,2.9-1.8c1-1.1,1.5-2.2,1.7-2.8c0.1-0.2,0.1-0.5,0.3-1c0.2-0.7,0.3-1.2,0.4-1.6c0-0.4,0.1-0.8,0.1-1.3
	c0.1-0.8,0.1-1.6,0.1-2.3V23.8C73.8,23.5,73.7,23.1,73.4,23z M69.5,22.6h-8.5c-1.4,0-2.5-1.3-2.5-2.7l-0.1-8.5L69.5,22.6z
	 M71.3,52.6c0,3.2,0,4.1-0.1,5.5c-0.3,2.1-0.4,3.2-1.1,4.2c-1.1,1.5-3.1,2.1-4.2,2.5c-1.5,0.1-2.8,0.1-3.6,0.1H33.9
	c-1.4,0-2.7-1.3-2.7-2.7v-2.5l3.2-3.2c2.2-2.2,2.2-5.7,0-8l-1-1c-0.4-0.4-1.1-0.4-1.7-0.1l-0.4,0.4V12.2c0-1.4,1.1-2.5,2.7-2.5h21.8
	V20c0,2.8,2.2,5.2,5,5.2h10.3V52.6z"/>
<path class="st1" d="M68.8,99.1"/>
<g id="surface1">
	<path class="st1" d="M67.7,56.4c0-0.1-0.6-4.7-2.9-6.5c-1.5-1.1-4.9-2.2-7.2-2.9C57.5,47,57.4,47,57.3,47c-0.6-0.1-1.2-0.3-1.5-0.4
		v-1.3c1.8-1.3,2.9-3.4,2.9-5.6v-0.3c-0.4,0-0.8,0-1.2,0.1c0,0.1-0.1,0.3-0.1,0.4c0,0.2-0.1,0.5-0.1,0.7c-0.4,2.8-2.8,4.9-5.6,4.9
		h-1.7c-3.1,0-5.6-2.4-5.7-5.5c-0.1-0.1-0.1-0.3-0.1-0.4c0,0,0,0,0-0.1c0-0.1,0-0.1,0-0.3c-0.4,0.1-0.8,0.1-1.2,0.1v0.3
		c0,2.2,1,4.3,2.9,5.6v1.3c-1.7,0.4-7,2-9.1,3.4c-2.3,1.7-2.9,6.3-2.9,6.5l-1.1,8.8l1.3,0.1l1.1-8.8c0.2-1.6,0.7-3.1,1.5-4.5
		c0.9,1.5,2.9,5.8,2.9,13.2h1.3c0-8.4-2.4-12.9-3.3-14.3l0.1-0.1c1.3-1,4.3-2,6.5-2.6l2.9,6.3c0.1,0.3,0.5,0.5,0.8,0.3l0.1-0.1
		l0.9-0.5l0.3,0.8l-1.5,10.1c-0.1,0.3,0.2,0.7,0.6,0.7h4.9c0.3,0,0.6-0.3,0.6-0.6c0-0.1,0-0.1,0-0.1l-1.5-9.9l0.3-0.8l0.9,0.5
		c0.3,0.1,0.7,0.1,0.8-0.3v-0.1l3-6.3c2.2,0.6,5.2,1.7,6.5,2.6l0.1,0.1c-0.9,1.4-3.3,5.9-3.3,14.3h1.3c0-7.5,2-11.7,2.9-13.2
		c0.8,1.5,1.3,2.9,1.5,4.5l1.4,8.8l1.3-0.1L67.7,56.4z M47,46c0.9,0.4,1.9,0.6,2.9,0.6h1.7c1,0,2-0.2,2.9-0.6v0.8l-3.7,4.7L47,46.9
		C47,46.9,47,46,47,46z M51.7,53.8l-0.3,0.7h-1.2l-0.3-0.6l0.9-0.5L51.7,53.8z M47.8,53.5l-2.6-5.4l0.9-0.3l3.7,4.7L47.8,53.5z
		 M52.4,64.8h-3.3l1.3-9.1h0.9L52.4,64.8z M53.7,53.5l-2-1.1l3.6-4.7l1,0.3L53.7,53.5z"/>
	<path class="st1" d="M42.1,32.5v0.6c0.1,2.9,0.3,5,0.3,5.9c0.1,0.4,0.2,1,0.3,1.5c0,0.1,0.1,0.3,0.2,0.7c0.1,0.5,0.2,0.6,0.3,0.6
		c0.3,0.1,0.8-0.5,0.9-0.6c-0.3-2.9-0.6-5.7-0.8-8.6h1l1.3,0.1h10.1h1.3h1v0.3c-0.1,1-0.1,2-0.2,3c-0.1,0.7-0.1,1.3-0.2,2
		c-0.1,0.6-0.1,1.1-0.1,1.5c-0.1,0.8-0.1,0.8-0.1,1c-0.1,0.1-0.1,0.2-0.1,0.3c0.1,0.2,0.6,0.2,0.8,0.1c0.5-0.3,0.5-1,0.5-1
		c0.2-2.4,0.5-4.7,0.7-7.2c0.8-0.1,1.4-0.8,1.3-1.7c-0.1-0.7-0.7-1.3-1.3-1.3v-1.2c0-0.1,0-4.1-2.6-6.7c-0.3-0.3-0.6-0.6-1-0.8
		c-0.3-0.5-0.5-0.6-0.6-0.7c-1.3-0.7-2.9-1.1-4.3-1c-1.5-0.1-3,0.3-4.3,1c-0.3,0.1-0.3,0.1-0.6,0.3c-0.3,0.3-0.7,0.6-1,0.8
		c-2.6,2.6-2.6,6.6-2.6,6.7v1.2c-0.8,0.1-1.5,0.8-1.4,1.5C40.9,31.9,41.4,32.5,42.1,32.5z M43.5,28.4c0-0.1,0-3.6,2.2-5.9
		c0.3-0.3,0.6-0.6,1-0.8c1.3,0.3,1.5,2.3,1.5,2.4v3.4c0,0.3,0.3,0.6,0.6,0.6s0.6-0.3,0.6-0.6v-3.5c-0.1-0.8-0.4-2.2-1.3-3
		c1.7-0.5,3.5-0.5,5.2,0c-0.9,0.8-1.3,2.2-1.3,3v3.4c0,0.3,0.3,0.6,0.6,0.6c0.3,0,0.6-0.3,0.6-0.6v-3.4c0,0,0.1-2.1,1.5-2.4
		c0.3,0.2,0.7,0.5,1,0.8c2.2,2.2,2.2,5.9,2.2,5.9v1.2H43.5V28.4z M42.3,30.9h16.8c0.1,0,0.2,0.1,0.2,0.2c0,0.1-0.1,0.2-0.2,0.2H42.3
		c-0.1,0-0.2-0.1-0.2-0.2C42.1,31,42.1,30.9,42.3,30.9z"/>
	<path class="st1" d="M48.3,58.8h4.7v1.1h-4.7V58.8z"/>
</g>
</svg>
