<?xml version="1.0" encoding="utf-8"?>
<!-- Generator: Adobe Illustrator 24.0.2, SVG Export Plug-In . SVG Version: 6.00 Build 0)  -->
<svg version="1.1" id="Capa_1" xmlns="http://www.w3.org/2000/svg" xmlns:xlink="http://www.w3.org/1999/xlink" x="0px" y="0px"
	 viewBox="0 0 85.4 85.4" style="enable-background:new 0 0 85.4 85.4;" xml:space="preserve">
<style type="text/css">
	.st0{fill:none;}
	.st1{fill:#1E407F;}
</style>
<circle id="Ciculo" class="st0" cx="42.7" cy="42.7" r="40.3"/>
<path class="st1" d="M73.4,23L57.9,7.6c-0.3-0.3-0.6-0.4-0.8-0.3H33.9c-2.8,0-5.2,2.2-5.2,5v24.3L11.4,50.5c0,0,0,0.1-0.1,0.1
	c-1.3,1.3-2,3.1-2,4.9c0,3.2,0,6.5,0,9.7c0.1,0.1,0.2,0.3,0.3,0.4c0.1,0.2,0.3,0.4,0.4,0.6c0.1,0.2,0.4,0.6,0.7,1
	c0.1,0.2,0.3,0.4,0.3,0.4c0.1,0.1,0.2,0.3,0.3,0.4c0.1,0.1,0.2,0.3,0.3,0.4c0.1,0.1,0.2,0.3,0.4,0.4c0-4.5,0-8.9,0-13.4
	c0-1.1,0.4-2.2,1.3-3.1l15.7-12.6V50L18,58.6c-0.6,0.4-0.6,1.3-0.1,1.8c0.4,0.6,1.3,0.6,1.8,0.1l13-10.3l0.3,0.3
	c1.3,1.3,1.3,3.2,0,4.3L26.8,61c-0.3,0.3-0.3,0.6-0.4,0.8l-0.1,1.4c0,0,0,0,0,0.1c0,1,0.3,2.1,0.7,2.9c1,2.1,0.8,4.5-0.6,6.4
	c-0.1,0.1-0.3,0.4-0.3,0.7v2.9c0,0.7,0.6,1.3,1.3,1.3c0.7,0,1.3-0.6,1.3-1.3v-2.5c1.5-2.5,1.8-5.9,0.4-8.5c-0.3-0.6-0.4-1.3-0.4-2
	v-0.8l0.1-0.1c0,2.8,2.2,5.2,5.2,5.2h3.8v5.7c0,0.3-0.1,0.7-0.1,1c-0.1,0.5-0.3,1.3-1,2.1c-0.7,0.7-1.7,1.2-2.6,1.3
	c-0.4,0-0.5,0-0.8,0.1c-0.7,0.2-1.1,0.8-1.4,1.3c0,0.8,0,1.6,0,2.5c0.4,0.1,0.8,0.2,1,0.3c0.6,0.1,0.7,0.2,0.9,0.2
	c0.1,0,0.2,0,0.3,0.1c0,0,0.1,0,0.1,0c0,0,0-0.1,0-0.1v-1.7c3.4-0.6,5.9-3.5,5.9-7v-5.9h22.7c2.5,0,4.5-0.7,5.6-1.1
	c1.8-0.7,2.7-1.5,2.9-1.8c1-1.1,1.5-2.2,1.7-2.8c0.1-0.2,0.1-0.5,0.3-1c0.2-0.7,0.3-1.2,0.4-1.6c0-0.4,0.1-0.8,0.1-1.3
	c0.1-0.8,0.1-1.6,0.1-2.3V23.8C73.8,23.5,73.7,23.1,73.4,23z M69.5,22.6h-8.5c-1.4,0-2.5-1.3-2.5-2.7l-0.1-8.5L69.5,22.6z
	 M71.3,52.6c0,3.2,0,4.1-0.1,5.5c-0.3,2.1-0.4,3.2-1.1,4.2c-1.1,1.5-3.1,2.1-4.2,2.5c-1.5,0.1-2.8,0.1-3.6,0.1H33.9
	c-1.4,0-2.7-1.3-2.7-2.7v-2.5l3.2-3.2c2.2-2.2,2.2-5.7,0-8l-1-1c-0.4-0.4-1.1-0.4-1.7-0.1l-0.4,0.4V12.2c0-1.4,1.1-2.5,2.7-2.5h21.8
	V20c0,2.8,2.2,5.2,5,5.2h10.3V52.6z"/>
<g>
	<g>
		<path class="st1" d="M64.2,47.1c-2.5-2.5-2.3-2.3-2.4-2.4l-6.5-4.8l2.5-2.5c2,0.7,4.3,0.2,5.9-1.3c1.7-1.7,2.1-4.3,1.1-6.4
			c-0.2-0.5-0.9-0.6-1.3-0.2l-2.1,2.1c-0.3,0.3-0.8,0.3-1.1,0c-0.3-0.3-0.3-0.8,0-1.1l2.1-2.1c0.4-0.4,0.3-1.1-0.2-1.3
			c-2.2-1-4.7-0.6-6.4,1.1c-1.6,1.6-2.1,3.9-1.3,5.9l-2.9,2.9c-0.6-0.5,0.2,0.3-5.4-5.6l0.6-0.6c0.4-0.4,0.3-1-0.2-1.3l-4.3-2.6
			c-1.1-0.7-2.6-0.5-3.5,0.4c-0.9,0.9-1.1,2.4-0.4,3.5l2.6,4.3c0.3,0.5,0.9,0.5,1.3,0.2l0.6-0.6c5.6,5.9,4.8,5.1,5.3,5.7
			c0,0,0,0,0,0L45.4,43c-2-0.7-4.3-0.2-5.9,1.3c-1.7,1.7-2.1,4.3-1.1,6.4c0.2,0.5,0.9,0.6,1.3,0.2l2.1-2.1c0.3-0.3,0.8-0.3,1.1,0
			c0.3,0.3,0.3,0.8,0,1.1l-2.1,2.1c-0.4,0.4-0.3,1.1,0.2,1.3c0.8,0.4,1.6,0.6,2.4,0.6c1.5,0,2.9-0.6,4-1.7c1.6-1.6,2.1-3.9,1.3-5.9
			l2.2-2.2l5.2,6.3c0,0-0.1-0.1,2.2,2.2c0.8,0.8,2,1.3,3,1.3c0.8,0,1.6-0.2,2.3-0.7C65.8,51.8,66,48.9,64.2,47.1z M43.3,33
			c-0.3-0.3-0.8-0.3-1.2,0l-0.4,0.4l-2.1-3.4c-0.3-0.5-0.2-1.1,0.2-1.5c0.4-0.4,1-0.5,1.5-0.2l3.4,2.1l-0.4,0.4
			c-0.3,0.3-0.3,0.8,0,1.1c6.4,6.8,5.4,5.8,6,6.2l-1.2,1.2C48.7,38.7,49.7,39.8,43.3,33z M47.3,45.7c-0.2,0.2-0.3,0.6-0.2,0.9
			c0.7,1.5,0.4,3.4-0.8,4.6c-0.8,0.8-1.8,1.2-2.9,1.2c-0.2,0-0.4,0-0.6,0l1.1-1.1c0.9-0.9,0.9-2.5,0-3.4c-0.9-0.9-2.5-0.9-3.4,0
			l-1.1,1.1c-0.2-1.2,0.2-2.5,1.1-3.4c1.2-1.2,3.1-1.5,4.6-0.8c0.3,0.1,0.7,0.1,0.9-0.2l9.8-9.8c0.2-0.2,0.3-0.6,0.2-0.9
			c-0.7-1.5-0.4-3.4,0.8-4.6c0.9-0.9,2.2-1.3,3.4-1.1l-1.1,1.1c-0.5,0.5-0.7,1.1-0.7,1.7c0,0.6,0.3,1.3,0.7,1.7
			c0.9,0.9,2.5,0.9,3.4,0l1.1-1.1c0.2,1.2-0.2,2.5-1.1,3.4c-1.2,1.2-3.1,1.5-4.6,0.8c-0.3-0.1-0.7-0.1-0.9,0.2L47.3,45.7z
			 M52.2,43.1l2-2l2,1.5L53.8,45C52.1,43,52.2,43.1,52.2,43.1z M62.8,51.9c-0.9,0.7-2.3,0.5-3.2-0.4l-2.1-2.1l-2.6-3.2l2.7-2.7
			l3.3,2.5l2.2,2.2C64.1,49.3,64.1,51,62.8,51.9z"/>
	</g>
</g>
<path class="st1" d="M68.8,99.1"/>
</svg>
