<?xml version="1.0" encoding="utf-8"?>
<!-- Generator: Adobe Illustrator 24.0.2, SVG Export Plug-In . SVG Version: 6.00 Build 0)  -->
<svg version="1.1" id="Capa_1" xmlns="http://www.w3.org/2000/svg" xmlns:xlink="http://www.w3.org/1999/xlink" x="0px" y="0px"
	 viewBox="0 0 85.4 85.4" style="enable-background:new 0 0 85.4 85.4;" xml:space="preserve">
<style type="text/css">
	.st0{fill:none;}
	.st1{fill:#1E407F;}
</style>
<circle id="Ciculo" class="st0" cx="42.7" cy="42.7" r="40.3"/>
<path class="st1" d="M73.4,23L57.9,7.6c-0.3-0.3-0.6-0.4-0.8-0.3H33.9c-2.8,0-5.2,2.2-5.2,5v24.3L11.4,50.5c0,0,0,0.1-0.1,0.1
	c-1.3,1.3-2,3.1-2,4.9c0,3.2,0,6.5,0,9.7c0.1,0.1,0.2,0.3,0.3,0.4c0.1,0.2,0.3,0.4,0.4,0.6c0.1,0.2,0.4,0.6,0.7,1
	c0.1,0.2,0.3,0.4,0.3,0.4c0.1,0.1,0.2,0.3,0.3,0.4c0.1,0.1,0.2,0.3,0.3,0.4c0.1,0.1,0.2,0.3,0.4,0.4c0-4.5,0-8.9,0-13.4
	c0-1.1,0.4-2.2,1.3-3.1l15.7-12.6V50L18,58.6c-0.6,0.4-0.6,1.3-0.1,1.8c0.4,0.6,1.3,0.6,1.8,0.1l13-10.3l0.3,0.3
	c1.3,1.3,1.3,3.2,0,4.3L26.8,61c-0.3,0.3-0.3,0.6-0.4,0.8l-0.1,1.4c0,0,0,0,0,0.1c0,1,0.3,2.1,0.7,2.9c1,2.1,0.8,4.5-0.6,6.4
	c-0.1,0.1-0.3,0.4-0.3,0.7v2.9c0,0.7,0.6,1.3,1.3,1.3c0.7,0,1.3-0.6,1.3-1.3v-2.5c1.5-2.5,1.8-5.9,0.4-8.5c-0.3-0.6-0.4-1.3-0.4-2
	v-0.8l0.1-0.1c0,2.8,2.2,5.2,5.2,5.2h3.8v5.7c0,0.3-0.1,0.7-0.1,1c-0.1,0.5-0.3,1.3-1,2.1c-0.7,0.7-1.7,1.2-2.6,1.3
	c-0.4,0-0.5,0-0.8,0.1c-0.7,0.2-1.1,0.8-1.4,1.3c0,0.8,0,1.6,0,2.5c0.4,0.1,0.8,0.2,1,0.3c0.6,0.1,0.7,0.2,0.9,0.2
	c0.1,0,0.2,0,0.3,0.1c0,0,0.1,0,0.1,0c0,0,0-0.1,0-0.1v-1.7c3.4-0.6,5.9-3.5,5.9-7v-5.9h22.7c2.5,0,4.5-0.7,5.6-1.1
	c1.8-0.7,2.7-1.5,2.9-1.8c1-1.1,1.5-2.2,1.7-2.8c0.1-0.2,0.1-0.5,0.3-1c0.2-0.7,0.3-1.2,0.4-1.6c0-0.4,0.1-0.8,0.1-1.3
	c0.1-0.8,0.1-1.6,0.1-2.3V23.8C73.8,23.5,73.7,23.1,73.4,23z M69.5,22.6h-8.5c-1.4,0-2.5-1.3-2.5-2.7l-0.1-8.5L69.5,22.6z
	 M71.3,52.6c0,3.2,0,4.1-0.1,5.5c-0.3,2.1-0.4,3.2-1.1,4.2c-1.1,1.5-3.1,2.1-4.2,2.5c-1.5,0.1-2.8,0.1-3.6,0.1H33.9
	c-1.4,0-2.7-1.3-2.7-2.7v-2.5l3.2-3.2c2.2-2.2,2.2-5.7,0-8l-1-1c-0.4-0.4-1.1-0.4-1.7-0.1l-0.4,0.4V12.2c0-1.4,1.1-2.5,2.7-2.5h21.8
	V20c0,2.8,2.2,5.2,5,5.2h10.3V52.6z"/>
<path class="st1" d="M68.8,99.1"/>
<path class="st1" d="M67.2,48.7L67.2,48.7c1.9-6.5-0.3-13.5-5.6-17.7c0.2-0.9-0.4-1.8-1.2-2.1l-7-2.4c-0.9-0.3-1.8,0.1-2.2,0.9
	c-6.8,0.1-12.8,4.3-15.3,10.6l0,0c-1-0.3-2,0.2-2.3,1.1l-0.4,1.2c-0.3,1,0.2,2,1.1,2.3l31.3,10.6c1,0.3,2-0.2,2.3-1.1l0.4-1.2
	C68.6,50,68.1,49,67.2,48.7z M50.7,28.7l-3.4,10c-0.1,0.3,0.1,0.7,0.4,0.8c0.3,0.1,0.7-0.1,0.8-0.4l3.7-11c0.1-0.3,0.5-0.5,0.8-0.4
	l2.9,1l-4.3,12.7c-0.1,0.3,0.1,0.7,0.4,0.8s0.7-0.1,0.8-0.4L57,29.1l2.9,1c0.3,0.1,0.5,0.5,0.4,0.8l-3.7,11
	c-0.1,0.3,0.1,0.7,0.4,0.8c0.3,0.1,0.7-0.1,0.8-0.4l3.4-10c4.7,3.9,6.6,10.2,4.9,16.1L37,38.4C39.2,32.7,44.6,28.9,50.7,28.7z
	 M66.7,51.8c-0.1,0.3-0.5,0.5-0.8,0.4L34.7,41.5c-0.3-0.1-0.5-0.5-0.4-0.8l0.4-1.2c0.1-0.3,0.5-0.5,0.8-0.4l31.3,10.6
	c0.3,0.1,0.5,0.5,0.4,0.8L66.7,51.8z"/>
</svg>
