<?xml version="1.0" encoding="utf-8"?>
<!-- Generator: Adobe Illustrator 24.0.2, SVG Export Plug-In . SVG Version: 6.00 Build 0)  -->
<svg version="1.1" id="Capa_1" xmlns="http://www.w3.org/2000/svg" xmlns:xlink="http://www.w3.org/1999/xlink" x="0px" y="0px"
	 viewBox="0 0 85.4 85.4" style="enable-background:new 0 0 85.4 85.4;" xml:space="preserve">
<style type="text/css">
	.st0{fill:none;}
	.st1{fill:#24407F;}
	.st2{fill:#24407F;stroke:#24407F;stroke-width:3;stroke-miterlimit:10;}
	.st3{fill:#FFFFFF;stroke:#FFFFFF;stroke-width:3;stroke-miterlimit:10;}
</style>
<circle id="Ciculo" class="st0" cx="42.7" cy="42.7" r="40.3"/>
<g>
	<path class="st1" d="M65.1,31.3h-2.9l-2.1-6.6c-0.4-1.4-1.7-2.4-3.2-2.4H28.3c-1.5,0-2.8,1-3.2,2.4l-2,6.6h-2.9
		c-0.8,0-1.4,0.6-1.4,1.4v21.5c0,0.8,0.6,1.4,1.4,1.4h3.6l-1.1,5.7c-0.1,0.4,0,0.9,0.3,1.2c0.3,0.3,0.7,0.5,1.1,0.5h37
		c0.4,0,0.8-0.2,1.1-0.5c0.3-0.3,0.4-0.8,0.3-1.2l-1.1-5.7h3.6c0.8,0,1.4-0.6,1.4-1.4V32.7C66.6,31.9,65.9,31.3,65.1,31.3z
		 M27.9,25.5c0.1-0.2,0.2-0.3,0.5-0.3H57c0.2,0,0.4,0.1,0.5,0.3l1.8,5.8H26.2L27.9,25.5z M59.5,60.2H25.9l2.1-11.5h29.2L59.5,60.2z
		 M63.7,52.8H61L59.9,47c-0.1-0.7-0.7-1.2-1.4-1.2H26.9c-0.7,0-1.3,0.5-1.4,1.2l-1.1,5.8h-2.7V34.2h2.5c0,0,0,0,0,0h36.9
		c0,0,0,0,0,0c0,0,0,0,0,0h2.5V52.8z"/>
	<path class="st1" d="M60.6,36.6h-4.3c-0.8,0-1.4,0.6-1.4,1.4c0,0.8,0.6,1.4,1.4,1.4h4.3c0.8,0,1.4-0.6,1.4-1.4
		C62,37.3,61.4,36.6,60.6,36.6z"/>
	<path class="st1" d="M53.2,55.2h-21c-0.8,0-1.4,0.6-1.4,1.4s0.6,1.4,1.4,1.4h21c0.8,0,1.4-0.6,1.4-1.4S54,55.2,53.2,55.2z"/>
</g>
<line class="st2" x1="21.7" y1="18" x2="68.9" y2="64.7"/>
<line class="st3" x1="19.6" y1="20.2" x2="66.7" y2="66.8"/>
</svg>
