<?xml version="1.0" encoding="utf-8"?>
<!-- Generator: Adobe Illustrator 24.0.2, SVG Export Plug-In . SVG Version: 6.00 Build 0)  -->
<svg version="1.1" id="Capa_1" xmlns="http://www.w3.org/2000/svg" xmlns:xlink="http://www.w3.org/1999/xlink" x="0px" y="0px"
	 viewBox="0 0 85.4 85.4" style="enable-background:new 0 0 85.4 85.4;" xml:space="preserve">
<style type="text/css">
	.st0{fill:none;}
	.st1{fill:#23407F;}
</style>
<circle id="Ciculo" class="st0" cx="42.7" cy="42.7" r="40.3"/>
<g>
	<g>
		<g>
			<path class="st1" d="M51.4,56.7c-1.4,0-2.6,1.2-2.6,2.6S50,62,51.4,62s2.6-1.2,2.6-2.6S52.8,56.7,51.4,56.7z M51.4,60.2
				c-0.5,0-0.9-0.4-0.9-0.9s0.4-0.9,0.9-0.9s0.9,0.4,0.9,0.9S51.9,60.2,51.4,60.2z"/>
		</g>
	</g>
	<g>
		<g>
			<path class="st1" d="M34,56.7c-1.4,0-2.6,1.2-2.6,2.6S32.6,62,34,62c1.4,0,2.6-1.2,2.6-2.6S35.4,56.7,34,56.7z M34,60.2
				c-0.5,0-0.9-0.4-0.9-0.9s0.4-0.9,0.9-0.9c0.5,0,0.9,0.4,0.9,0.9S34.5,60.2,34,60.2z"/>
		</g>
	</g>
	<g>
		<g>
			<path class="st1" d="M46.2,56.7h-7c-0.5,0-0.9,0.4-0.9,0.9v3.5c0,0.5,0.4,0.9,0.9,0.9h7c0.5,0,0.9-0.4,0.9-0.9v-3.5
				C47.1,57.1,46.7,56.7,46.2,56.7z M45.3,60.2h-5.2v-1.7h5.2V60.2z"/>
		</g>
	</g>
	<g>
		<g>
			<path class="st1" d="M62.7,13.8C62.7,13.8,62.7,13.7,62.7,13.8C62.7,13.7,62.7,13.7,62.7,13.8c0-0.1,0-0.1,0-0.1c0,0,0,0,0,0
				c0,0,0,0,0,0c0,0,0,0,0,0c0,0,0,0,0,0c0,0,0,0,0,0c0,0,0,0,0,0c0,0,0,0,0,0c0,0,0,0,0,0c0,0,0,0,0,0c0,0,0,0,0-0.1c0,0,0,0,0,0
				c0,0,0,0,0,0c0,0,0,0-0.1,0c0,0,0,0,0,0c0,0,0,0,0,0c0,0,0,0,0,0c0,0,0,0,0,0c0,0,0,0,0,0c0,0,0,0,0,0c0,0,0,0,0,0c0,0,0,0,0,0
				c0,0,0,0,0,0c0,0,0,0,0,0c0,0,0,0,0,0c0,0,0,0,0,0c0,0,0,0-0.1,0c0,0,0,0,0,0H23.5c0,0,0,0,0,0c0,0,0,0-0.1,0c0,0,0,0,0,0
				c0,0,0,0,0,0c0,0,0,0,0,0c0,0,0,0,0,0c0,0,0,0,0,0c0,0,0,0,0,0c0,0,0,0,0,0c0,0,0,0,0,0c0,0,0,0,0,0c0,0,0,0,0,0c0,0,0,0,0,0
				c0,0,0,0,0,0c0,0,0,0-0.1,0c0,0,0,0,0,0c0,0,0,0,0,0c0,0,0,0,0,0.1c0,0,0,0,0,0c0,0,0,0,0,0c0,0,0,0,0,0c0,0,0,0,0,0c0,0,0,0,0,0
				c0,0,0,0,0,0c0,0,0,0,0,0c0,0,0,0,0,0c0,0,0,0,0,0c0,0,0,0,0,0c0,0,0,0,0,0c0,0,0,0,0,0c0,0,0,0.1,0,0.1v52.5
				c0,0.5,0.4,0.9,0.9,0.9h7.8v2.6c0,1.4,1.2,2.6,2.6,2.6s2.6-1.2,2.6-2.6v-2.6h12.2v2.6c0,1.4,1.2,2.6,2.6,2.6s2.6-1.2,2.6-2.6
				v-2.6h7.8c0.5,0,0.9-0.4,0.9-0.9L62.7,13.8C62.7,13.8,62.7,13.8,62.7,13.8z M24.4,16.1c1.5,1.8,2.6,3.7,3.5,5.8
				c0,0,1.7,4.2,1.7,8.7c0,0.3,0,0.9,0,1.7c0,0.2,0,0.4,0,0.8c0,0.5-0.1,0.7-0.1,0.9c0,0.8,0.5,1.8,1,1.8c0.5,0,0.8-1.6,0.8-1.8
				c0-0.2,0.1-0.5,0-2c0-0.4,0-1.2,0-1.5c-0.3-5.5-1.8-9.3-1.8-9.3c-1-2.4-2.3-4.6-4-6.6h34.3c-3.8,4.4-5.8,10-5.8,15.9v20.9H31.4
				V34.2c0-0.5-0.4-0.9-0.9-0.9s-0.9,0.4-0.9,0.9v17.4h-5.2V16.1z M34.9,69.8c0,0.5-0.4,0.9-0.9,0.9c-0.5,0-0.9-0.4-0.9-0.9v-2.6
				h1.7V69.8z M52.3,69.8c0,0.5-0.4,0.9-0.9,0.9s-0.9-0.4-0.9-0.9v-2.6h1.7V69.8z M61,65.4H24.4V53.3H61V65.4z M61,51.5h-5.2V30.7
				c0-5.4,1.8-10.5,5.2-14.6V51.5z"/>
		</g>
	</g>
</g>
</svg>
