<?xml version="1.0" encoding="utf-8"?>
<!-- Generator: Adobe Illustrator 24.0.2, SVG Export Plug-In . SVG Version: 6.00 Build 0)  -->
<svg version="1.1" id="Capa_1" xmlns="http://www.w3.org/2000/svg" xmlns:xlink="http://www.w3.org/1999/xlink" x="0px" y="0px"
	 viewBox="0 0 85.4 85.4" style="enable-background:new 0 0 85.4 85.4;" xml:space="preserve">
<style type="text/css">
	.st0{fill:#00A7B5;stroke:#00A7B5;stroke-miterlimit:10;}
	.st1{fill:#FFFFFF;}
</style>
<circle id="Ciculo" class="st0" cx="42.7" cy="42.7" r="40.3"/>
<g>
	<g>
		<g>
			<path class="st1" d="M74.9,22.8H10.5c-0.6,0-1.1,0.5-1.1,1.1v39.4c0,0.6,0.5,1.1,1.1,1.1h45.8v0.9c0,0.4,0.2,0.8,0.6,1
				c0.2,0.1,0.3,0.1,0.5,0.1c0.2,0,0.5-0.1,0.7-0.2l2.6-1.9l2.6,1.9c0.3,0.2,0.8,0.3,1.2,0.1c0.4-0.2,0.6-0.6,0.6-1v-0.9h9.6
				c0.6,0,1.1-0.5,1.1-1.1V23.9C76,23.3,75.5,22.8,74.9,22.8z M72.1,25l-1.5,1.5H14.8L13.3,25H72.1z M68.4,49.2
				c-0.1-0.2-0.3-0.4-0.3-0.5c0-0.1-0.1-0.4-0.1-0.6c0-0.6,0-1.3-0.5-1.9c-0.5-0.6-1.1-0.9-1.6-1.1c-0.2-0.1-0.5-0.2-0.6-0.3
				c-0.1-0.1-0.3-0.3-0.4-0.5c-0.4-0.4-0.8-1-1.5-1.2c-0.7-0.2-1.4,0-1.9,0.1c-0.2,0.1-0.5,0.1-0.6,0.1s-0.4-0.1-0.6-0.1
				c-0.5-0.2-1.2-0.3-1.9-0.1c-0.7,0.2-1.2,0.8-1.5,1.2c-0.1,0.2-0.3,0.4-0.4,0.5c-0.1,0.1-0.3,0.2-0.6,0.3
				c-0.5,0.2-1.2,0.4-1.6,1.1c-0.4,0.6-0.5,1.3-0.5,1.9c0,0.2,0,0.5-0.1,0.6c0,0.1-0.2,0.3-0.3,0.5c-0.3,0.5-0.7,1.1-0.7,1.9
				c0,0.8,0.4,1.4,0.7,1.9c0.1,0.2,0.3,0.4,0.3,0.5c0,0.1,0.1,0.4,0.1,0.6c0,0.6,0,1.3,0.5,1.9c0.5,0.6,1.1,0.9,1.6,1.1
				c0.2,0.1,0.5,0.2,0.6,0.3c0,0,0,0,0.1,0.1v1.1H15.4V28.8H70v29.6h-4.8v-1.1c0,0,0,0,0.1-0.1c0.1-0.1,0.3-0.2,0.6-0.3
				c0.5-0.2,1.2-0.4,1.6-1.1c0.4-0.6,0.5-1.3,0.5-1.9c0-0.2,0-0.5,0.1-0.6c0-0.1,0.2-0.3,0.3-0.5c0.3-0.5,0.7-1.1,0.7-1.9
				C69.1,50.2,68.7,49.6,68.4,49.2z M13.2,59.1l-1.5,1.5V26.6l1.5,1.5C13.2,28.1,13.2,59.1,13.2,59.1z M56.3,62.1H13.3l1.5-1.5h41.6
				V62.1z M63,63l-1.5-1.1c-0.4-0.3-0.9-0.3-1.3,0L58.6,63V59c0.1,0,0.2,0,0.3,0c0.4,0,0.9-0.1,1.2-0.2c0.2-0.1,0.5-0.1,0.6-0.1
				c0.2,0,0.4,0.1,0.6,0.1c0.4,0.1,1,0.3,1.5,0.2V63z M65.1,54.8c-0.4,0.1-0.8,0.3-1.1,0.5c-0.4,0.3-0.6,0.6-0.9,0.9
				c-0.1,0.2-0.3,0.4-0.4,0.5c-0.1,0-0.4-0.1-0.6-0.1c-0.4-0.1-0.8-0.2-1.3-0.2s-0.9,0.1-1.3,0.2c-0.2,0.1-0.5,0.1-0.6,0.1
				c-0.1-0.1-0.3-0.3-0.4-0.5c-0.2-0.3-0.5-0.6-0.9-0.9c-0.4-0.3-0.8-0.4-1.1-0.5c-0.2-0.1-0.5-0.2-0.6-0.3c0-0.1-0.1-0.4-0.1-0.6
				c0-0.4,0-0.8-0.2-1.2c-0.1-0.4-0.4-0.8-0.6-1.1c-0.1-0.2-0.3-0.5-0.3-0.6c0-0.1,0.2-0.4,0.3-0.6c0.2-0.3,0.4-0.7,0.6-1.1
				c0.1-0.4,0.2-0.9,0.2-1.2c0-0.2,0-0.5,0.1-0.6c0.1-0.1,0.4-0.2,0.6-0.3c0.4-0.1,0.8-0.3,1.1-0.5c0.4-0.3,0.6-0.6,0.9-0.9
				c0.1-0.2,0.3-0.4,0.4-0.5c0.1,0,0.4,0.1,0.6,0.1c0.4,0.1,0.8,0.2,1.3,0.2s0.9-0.1,1.3-0.2c0.2-0.1,0.5-0.1,0.6-0.1
				c0.1,0.1,0.3,0.3,0.4,0.5c0.2,0.3,0.5,0.6,0.9,0.9c0.4,0.3,0.8,0.4,1.1,0.5c0.2,0.1,0.5,0.2,0.6,0.3c0,0.1,0.1,0.4,0.1,0.6
				c0,0.4,0,0.8,0.2,1.2c0.1,0.4,0.4,0.8,0.6,1.1c0.1,0.2,0.3,0.5,0.3,0.6c0,0.1-0.2,0.4-0.3,0.6c-0.2,0.3-0.4,0.7-0.6,1.1
				c-0.1,0.4-0.2,0.9-0.2,1.2c0,0.2,0,0.5-0.1,0.6C65.6,54.6,65.3,54.8,65.1,54.8z M65.2,62.1v-1.5h5.4l1.5,1.5H65.2z M73.7,60.6
				l-1.5-1.5V28.1l1.5-1.5V60.6z"/>
		</g>
	</g>
	<g>
		<g>
			<path class="st1" d="M63.8,48c-1.7-1.7-4.3-1.7-6,0c-1.7,1.7-1.7,4.3,0,6c0.8,0.8,1.9,1.2,3,1.2c1.1,0,2.2-0.4,3-1.2
				C65.4,52.3,65.4,49.7,63.8,48z M62.2,52.4c-0.8,0.8-2,0.8-2.8,0c-0.8-0.8-0.8-2,0-2.8c0.4-0.4,0.9-0.6,1.4-0.6
				c0.5,0,1,0.2,1.4,0.6C63,50.4,63,51.6,62.2,52.4z"/>
		</g>
	</g>
	<g>
		<g>
			<path class="st1" d="M52.8,32.9H32.6c-0.6,0-1.1,0.5-1.1,1.1s0.5,1.1,1.1,1.1h20.1c0.6,0,1.1-0.5,1.1-1.1
				C53.9,33.4,53.4,32.9,52.8,32.9z"/>
		</g>
	</g>
	<g>
		<g>
			<path class="st1" d="M49.6,41.6H35.8c-0.6,0-1.1,0.5-1.1,1.1s0.5,1.1,1.1,1.1h13.8c0.6,0,1.1-0.5,1.1-1.1S50.2,41.6,49.6,41.6z"
				/>
		</g>
	</g>
	<g>
		<g>
			<path class="st1" d="M56.7,37.1H28.7c-0.6,0-1.1,0.5-1.1,1.1c0,0.6,0.5,1.1,1.1,1.1h27.9c0.6,0,1.1-0.5,1.1-1.1
				C57.8,37.6,57.3,37.1,56.7,37.1z"/>
		</g>
	</g>
	<g>
		<g>
			<path class="st1" d="M37.6,51.9h-8.9c-0.6,0-1.1,0.5-1.1,1.1c0,0.6,0.5,1.1,1.1,1.1h8.9c0.6,0,1.1-0.5,1.1-1.1
				C38.7,52.4,38.2,51.9,37.6,51.9z"/>
		</g>
	</g>
</g>
</svg>
