<?xml version="1.0" encoding="utf-8"?>
<!-- Generator: Adobe Illustrator 24.0.2, SVG Export Plug-In . SVG Version: 6.00 Build 0)  -->
<svg version="1.1" id="Capa_1" xmlns="http://www.w3.org/2000/svg" xmlns:xlink="http://www.w3.org/1999/xlink" x="0px" y="0px"
	 viewBox="0 0 85.4 85.4" style="enable-background:new 0 0 85.4 85.4;" xml:space="preserve">
<style type="text/css">
	.st0{fill:none;}
	.st1{fill:#1E407F;}
</style>
<circle id="Ciculo" class="st0" cx="42.7" cy="42.7" r="40.3"/>
<path class="st1" d="M61.4,21.8c0-2.8-2.3-5.1-5.1-5.1H13.9c-2.8,0-5.1,2.3-5.1,5.1c0,2.3,1.5,4.2,3.5,4.8v4.7
	c0,5.9,4.8,10.8,10.8,10.8H47c5.9,0,10.8-4.8,10.8-10.8v-4.7C59.9,26,61.4,24.1,61.4,21.8L61.4,21.8z M23.1,39
	c-4.2,0-7.7-3.5-7.7-7.7v-4.4h39.3v4.4c0,4.2-3.5,7.7-7.7,7.7H23.1z M56.3,23.8H13.9c-1.1,0-2-0.9-2-2s0.9-2,2-2h42.4
	c1.1,0,2,0.9,2,2S57.4,23.8,56.3,23.8L56.3,23.8z"/>
<g>
	<g>
		<path class="st1" d="M71.8,68.2L66,62.3c0,0,0,0,0,0c0,0,0,0,0,0l-2.1-2.1c-0.7-0.7-1.9-0.7-2.6,0l-0.3,0.3l-0.9-0.9
			c1.7-2.1,2.8-4.7,2.8-7.6c0-6.6-5.4-11.9-11.9-11.9S39.1,45.4,39.1,52S44.5,63.9,51,63.9c2.9,0,5.6-1,7.6-2.8l0.9,0.9l-0.3,0.3
			c-0.7,0.7-0.7,1.9,0,2.6l7.9,7.9c0.7,0.7,1.9,0.7,2.6,0l2-2C72.5,70,72.5,68.9,71.8,68.2z M51,61.7c-5.4,0-9.8-4.4-9.8-9.8
			s4.4-9.8,9.8-9.8s9.8,4.4,9.8,9.8S56.4,61.7,51,61.7z M61.1,63.6l1.5-1.5l1.1,1.1l-1.5,1.5L61.1,63.6z M68.5,71l-4.8-4.8l1.5-1.5
			l4.8,4.8L68.5,71z"/>
	</g>
</g>
</svg>
