<?xml version="1.0" encoding="utf-8"?>
<!-- Generator: Adobe Illustrator 24.0.2, SVG Export Plug-In . SVG Version: 6.00 Build 0)  -->
<svg version="1.1" id="Capa_1" xmlns="http://www.w3.org/2000/svg" xmlns:xlink="http://www.w3.org/1999/xlink" x="0px" y="0px"
	 viewBox="0 0 85.4 85.4" style="enable-background:new 0 0 85.4 85.4;" xml:space="preserve">
<style type="text/css">
	.st0{fill:none;}
	.st1{fill:#20407F;}
</style>
<circle id="Ciculo" class="st0" cx="42.7" cy="42.7" r="40.3"/>
<g>
	<path class="st1" d="M66.4,16H19c-2,0-3.6,1.6-3.6,3.6v46.2c0,2,1.6,3.6,3.6,3.6h47.4c2,0,3.6-1.6,3.6-3.6V19.6
		C70,17.6,68.4,16,66.4,16z M67.6,65.8c0,0.7-0.5,1.2-1.2,1.2H19c-0.7,0-1.2-0.5-1.2-1.2V19.6c0-0.7,0.5-1.2,1.2-1.2h47.4
		c0.7,0,1.2,0.5,1.2,1.2L67.6,65.8L67.6,65.8z"/>
	<path class="st1" d="M28.5,24.9c0-2.3-1.9-4.1-4.1-4.1s-4.1,1.9-4.1,4.1s1.9,4.1,4.1,4.1C26.6,29.1,28.5,27.2,28.5,24.9z
		 M22.6,24.9c0-1,0.8-1.8,1.8-1.8c1,0,1.8,0.8,1.8,1.8c0,1-0.8,1.8-1.8,1.8C23.3,26.7,22.6,25.9,22.6,24.9z"/>
	<path class="st1" d="M61.1,20.8c-2.3,0-4.1,1.9-4.1,4.1s1.9,4.1,4.1,4.1c2.3,0,4.1-1.9,4.1-4.1S63.4,20.8,61.1,20.8z M61.1,26.7
		c-1,0-1.8-0.8-1.8-1.9c0-0.9,0.8-1.6,1.7-1.7c1,0,1.9,0.8,1.9,1.8C62.8,25.9,62.1,26.7,61.1,26.7z"/>
	<path class="st1" d="M59.3,35H26.1c-2,0-3.6,1.6-3.6,3.6v21.3c0,2,1.6,3.6,3.6,3.6h33.2c2,0,3.6-1.6,3.6-3.6V38.6
		C62.8,36.6,61.3,35,59.3,35z M60.5,59.9c0,0.7-0.5,1.2-1.2,1.2H26.1c-0.7,0-1.2-0.5-1.2-1.2V38.6c0-0.7,0.5-1.2,1.2-1.2h33.2
		c0.7,0,1.2,0.5,1.2,1.2L60.5,59.9L60.5,59.9z"/>
	<path class="st1" d="M34.4,29.1H51c0.7,0,1.2-0.5,1.2-1.2s-0.5-1.2-1.2-1.2H34.4c-0.7,0-1.2,0.5-1.2,1.2S33.8,29.1,34.4,29.1z"/>
	<path class="st1" d="M40.1,44.3c0.5-0.4,0.6-1.1,0.2-1.7c-0.4-0.5-1.1-0.6-1.6-0.3c-1.2,0.9-2.8,3.5-0.3,7.5c0.6,1,0.8,1.8,0.6,2.5
		c-0.3,1.1-1.5,1.6-1.5,1.6c-0.6,0.3-0.9,1-0.6,1.6c0.3,0.6,1,0.9,1.6,0.6c0.2-0.1,2.1-1,2.7-3.1c0.4-1.4,0.1-2.9-0.9-4.5
		C38.6,45.6,39.9,44.4,40.1,44.3z"/>
	<path class="st1" d="M47.2,44.3c0.5-0.4,0.6-1.1,0.2-1.7c-0.4-0.5-1.1-0.6-1.7-0.2c-1.2,0.8-2.7,3.5-0.3,7.4c0.6,1,0.8,1.8,0.6,2.6
		c-0.3,1.1-1.4,1.6-1.4,1.6c-0.6,0.3-0.8,1-0.5,1.6c0.2,0.4,0.6,0.7,1.1,0.7c0.2,0,0.3,0,0.5-0.1c0.2-0.1,2.1-1,2.7-3.1
		c0.4-1.4,0.1-2.9-0.8-4.5C45.7,45.7,47,44.4,47.2,44.3z"/>
</g>
</svg>
