<svg xmlns="http://www.w3.org/2000/svg" width="78.655" height="70.275" viewBox="0 0 78.655 70.275"><defs><style>.a{fill:#1D4F91;}</style></defs><path class="a" d="M225.188,63.365v2.361a7.084,7.084,0,0,0,14.168,0V63.365a1.181,1.181,0,0,0,0-2.361h-2.361a1.181,1.181,0,0,0,0,2.361v2.361a4.723,4.723,0,0,1-9.445,0V63.365a1.181,1.181,0,0,0,0-2.361h-2.361a1.181,1.181,0,1,0,0,2.361Zm0,0" transform="translate(-186.597 -53.802)"/><path class="a" d="M17.854,69.844a1.581,1.581,0,0,0,2.172,0l4.717-4.535a6.684,6.684,0,0,0,2.063-5.541L28.5,58.2a7.281,7.281,0,0,1,4.969-1.929H53.693A14.042,14.042,0,0,0,63.336,52.5a1.407,1.407,0,0,0,.109-.113L77.207,36.5a5.758,5.758,0,0,0-.73-8.327,6.336,6.336,0,0,0-8.623.661l-1.486,1.478V1.477A1.508,1.508,0,0,0,64.831,0H25.348a1.508,1.508,0,0,0-1.536,1.477V34.565A18.375,18.375,0,0,0,10.6,44.5a7.253,7.253,0,0,0-5.409,2L.452,51.045a1.437,1.437,0,0,0,0,2.092ZM63.295,2.954V33.367l-4.446,4.419a6.27,6.27,0,0,0-4.772-2.194H36.265a.878.878,0,0,1-.313-.063,20.551,20.551,0,0,0-7.531-1.413c-.514,0-1.027.018-1.536.05V2.954ZM25.569,37.263a18.108,18.108,0,0,1,9.23,1,4.046,4.046,0,0,0,1.467.28H54.077a2.956,2.956,0,1,1,0,5.907H40.711a1.478,1.478,0,1,0,0,2.954H54.077A6.036,6.036,0,0,0,60.222,41.5a5.746,5.746,0,0,0-.055-.775c.32-.316,9.606-9.548,9.928-9.868.023-.024.047-.048.068-.073a3.169,3.169,0,0,1,4.331-.352,2.881,2.881,0,0,1,.358,4.171L61.136,50.437a10.922,10.922,0,0,1-7.443,2.877H33.466a10.4,10.4,0,0,0-7.1,2.757l-.677.629a6.935,6.935,0,0,0-.943-1.117l-9.436-9.071a7.163,7.163,0,0,0-1.695-1.205A15.374,15.374,0,0,1,25.569,37.263ZM7.364,48.6a4.19,4.19,0,0,1,5.77,0l9.437,9.071a3.811,3.811,0,0,1,0,5.547l-3.633,3.492L3.712,52.093Zm0,0" transform="translate(0)"/></svg>