<?xml version="1.0" encoding="utf-8"?>
<!-- Generator: Adobe Illustrator 24.0.2, SVG Export Plug-In . SVG Version: 6.00 Build 0)  -->
<svg version="1.1" id="Capa_1" xmlns="http://www.w3.org/2000/svg" xmlns:xlink="http://www.w3.org/1999/xlink" x="0px" y="0px"
	 viewBox="0 0 85.4 85.4" style="enable-background:new 0 0 85.4 85.4;" xml:space="preserve">
<style type="text/css">
	.st0{fill:none;}
	.st1{fill:#1E407F;}
</style>
<circle id="Ciculo" class="st0" cx="42.7" cy="42.7" r="40.3"/>
<g>
	<path class="st1" d="M18.8,70c0,0.5,0.4,1,1,1h47.2c0.5,0,1-0.4,1-1V16.9c0-2.7-2.2-4.9-4.9-4.9H19.8c-0.5,0-1,0.4-1,1V70z
		 M66,16.9v2.9H62V16c0-0.7-0.2-1.4-0.5-2H63C64.6,14,66,15.3,66,16.9z M20.7,14h37.4c1.1,0,2,0.9,2,2v4.9c0,0.5,0.4,1,1,1H66V69
		H20.7V14z"/>
	<path class="st1" d="M61,61.2h-7.9c-0.5,0-1,0.4-1,1s0.4,1,1,1H61c0.5,0,1-0.4,1-1S61.6,61.2,61,61.2z"/>
	<path class="st1" d="M61,65.1H45.3c-0.5,0-1,0.4-1,1c0,0.5,0.4,1,1,1H61c0.5,0,1-0.4,1-1C62,65.5,61.6,65.1,61,65.1z"/>
	<path class="st1" d="M32.5,22.8c0.5,0,1,0.4,1,1c0,0.5,0.4,1,1,1s1-0.4,1-1c0-1.3-0.8-2.4-2-2.8v-0.2c0-0.5-0.4-1-1-1s-1,0.4-1,1
		V21c-1.5,0.5-2.3,2.2-1.8,3.8c0.4,1.2,1.5,2,2.8,2c0.5,0,1,0.4,1,1s-0.4,1-1,1s-1-0.4-1-1s-0.4-1-1-1s-1,0.4-1,1
		c0,1.3,0.8,2.4,2,2.8v0.2c0,0.5,0.4,1,1,1s1-0.4,1-1v-0.2c1.5-0.5,2.3-2.2,1.8-3.8c-0.4-1.2-1.5-2-2.8-2c-0.5,0-1-0.4-1-1
		C31.6,23.3,32,22.8,32.5,22.8z"/>
	<path class="st1" d="M42.4,25.8c0-5.4-4.4-9.8-9.8-9.8s-9.8,4.4-9.8,9.8s4.4,9.8,9.8,9.8C38,35.6,42.4,31.2,42.4,25.8z M32.5,33.6
		c-4.3,0-7.9-3.5-7.9-7.9s3.5-7.9,7.9-7.9s7.9,3.5,7.9,7.9S36.9,33.6,32.5,33.6z"/>
	<path class="st1" d="M29.6,39.5h-3.9c-0.5,0-1,0.4-1,1s0.4,1,1,1h3.9c0.5,0,1-0.4,1-1S30.1,39.5,29.6,39.5z"/>
	<path class="st1" d="M51.2,39.5H35.5c-0.5,0-1,0.4-1,1s0.4,1,1,1h15.7c0.5,0,1-0.4,1-1S51.8,39.5,51.2,39.5z"/>
	<path class="st1" d="M61,39.5h-2c-0.5,0-1,0.4-1,1s0.4,1,1,1h2c0.5,0,1-0.4,1-1S61.6,39.5,61,39.5z"/>
	<path class="st1" d="M29.6,43.5h-3.9c-0.5,0-1,0.4-1,1s0.4,1,1,1h3.9c0.5,0,1-0.4,1-1S30.1,43.5,29.6,43.5z"/>
	<path class="st1" d="M51.2,43.5H35.5c-0.5,0-1,0.4-1,1s0.4,1,1,1h15.7c0.5,0,1-0.4,1-1S51.8,43.5,51.2,43.5z"/>
	<path class="st1" d="M61,43.5h-2c-0.5,0-1,0.4-1,1s0.4,1,1,1h2c0.5,0,1-0.4,1-1S61.6,43.5,61,43.5z"/>
	<path class="st1" d="M29.6,47.4h-3.9c-0.5,0-1,0.4-1,1c0,0.5,0.4,1,1,1h3.9c0.5,0,1-0.4,1-1C30.6,47.9,30.1,47.4,29.6,47.4z"/>
	<path class="st1" d="M51.2,47.4H35.5c-0.5,0-1,0.4-1,1c0,0.5,0.4,1,1,1h15.7c0.5,0,1-0.4,1-1C52.2,47.9,51.8,47.4,51.2,47.4z"/>
	<path class="st1" d="M61,47.4h-2c-0.5,0-1,0.4-1,1c0,0.5,0.4,1,1,1h2c0.5,0,1-0.4,1-1C62,47.9,61.6,47.4,61,47.4z"/>
	<path class="st1" d="M29.6,51.3h-3.9c-0.5,0-1,0.4-1,1c0,0.5,0.4,1,1,1h3.9c0.5,0,1-0.4,1-1C30.6,51.8,30.1,51.3,29.6,51.3z"/>
	<path class="st1" d="M51.2,51.3H35.5c-0.5,0-1,0.4-1,1c0,0.5,0.4,1,1,1h15.7c0.5,0,1-0.4,1-1C52.2,51.8,51.8,51.3,51.2,51.3z"/>
	<path class="st1" d="M61,51.3h-2c-0.5,0-1,0.4-1,1c0,0.5,0.4,1,1,1h2c0.5,0,1-0.4,1-1C62,51.8,61.6,51.3,61,51.3z"/>
	<path class="st1" d="M29.6,55.3h-3.9c-0.5,0-1,0.4-1,1s0.4,1,1,1h3.9c0.5,0,1-0.4,1-1S30.1,55.3,29.6,55.3z"/>
	<path class="st1" d="M52.2,56.3c0-0.5-0.4-1-1-1H35.5c-0.5,0-1,0.4-1,1s0.4,1,1,1h15.7C51.8,57.2,52.2,56.8,52.2,56.3z"/>
	<path class="st1" d="M61,55.3h-2c-0.5,0-1,0.4-1,1s0.4,1,1,1h2c0.5,0,1-0.4,1-1S61.6,55.3,61,55.3z"/>
	<path class="st1" d="M61,25.8h-9.8c-0.5,0-1,0.4-1,1c0,0.5,0.4,1,1,1H61c0.5,0,1-0.4,1-1C62,26.2,61.6,25.8,61,25.8z"/>
	<path class="st1" d="M61,29.7H46.3c-0.5,0-1,0.4-1,1s0.4,1,1,1H61c0.5,0,1-0.4,1-1S61.6,29.7,61,29.7z"/>
	<path class="st1" d="M61,33.6H46.3c-0.5,0-1,0.4-1,1s0.4,1,1,1H61c0.5,0,1-0.4,1-1S61.6,33.6,61,33.6z"/>
</g>
</svg>
