<?xml version="1.0" encoding="utf-8"?>
<!-- Generator: Adobe Illustrator 24.0.2, SVG Export Plug-In . SVG Version: 6.00 Build 0)  -->
<svg version="1.1" id="Capa_1" xmlns="http://www.w3.org/2000/svg" xmlns:xlink="http://www.w3.org/1999/xlink" x="0px" y="0px"
	 viewBox="0 0 85.4 85.4" style="enable-background:new 0 0 85.4 85.4;" xml:space="preserve">
<style type="text/css">
	.st0{fill:none;}
	.st1{fill:#1E407F;}
</style>
<g>
	<g>
		<path class="st0" d="M42.8,2.4C23.4,2.4,10,19.5,8.7,34.5c-0.6,6.8,1.4,12.4,2.9,15.8c0.9,1.6,1.9,3.1,2.8,4.7
			c1.1,1.8,2.2,2.9,3.8,4.6c1.5,1.6,2.6,2.8,5,5.2c1.8,1.9,3.4,3.4,4.5,4.5c2.2,2.1,2.1,2,3.2,3.1c2.5,2.5,2.8,3,5.1,5.3
			c4.7,4.8,5.6,4.8,6.1,4.7c0.7-0.2,1.8-1.2,4-3.1c0,0,0.2-0.2,0.4-0.3c2-1.9,3.5-3.5,3.8-3.8c1.6-1.8,1.7-1.5,5.8-5.5
			c1.5-1.5,4.5-4.4,6-5.9c0.1-0.1,0.2-0.2,0.4-0.4c1-1,1.7-1.8,2.2-2.2c1.5-1.7,3-3.5,3.4-4c1.3-1.7,3.1-4.1,4.7-7.3
			c3.6-7.2,4.1-13.6,4.1-15.3C76.9,16.8,61.6,2.4,42.8,2.4z"/>
	</g>
</g>
<path class="st1" d="M23.2,38.2c-1.1,0-2.9-0.2-4.7-1.2c-1.8-1-2.8-2.3-3.6-3.3c-0.7-0.9-1.2-1.6-1.7-2.8c-1-2.6-0.3-4.9,0-6
	c0.2-0.9,0.8-2.8,2.5-4.5c0.6-0.6,1.9-1.9,3.9-2.4c1.8-0.4,3.7-0.2,4.5,0.3c0.7,0.4,1,0.6,1,0.6c0.5,0.4,0.7,0.6,0.9,0.6
	c0.3,0,0.5-0.4,0.8-0.9c0.6-0.9,1.1-1.7,1.2-1.8c0.8-1.1,2.2-1.5,3.1-1.8c1.1-0.3,2.1-0.3,2.6-0.3c0.7,0,2,0.1,3.4,0.7
	c0.5,0.2,1.2,0.6,2,1.2c0.6,0.5,1,0.8,1.3,1.3c0.4,0.6,0.6,1.2,0.6,1.2c0.2,0.5,0.2,0.7,0.4,0.8c0.3,0,0.4-0.8,0.9-1.5
	c0.7-0.8,1.7-1,2.3-1.2c1.4-0.3,2.6,0.1,3.3,0.3c1.9,0.7,3,1.9,3.4,2.4c0.8,0.9,1.2,1.8,1.7,2.9c0.4,1,1,2.2,1.2,4
	c0.1,1,0.4,3.5-0.9,6.2c-0.3,0.6-0.9,1.9-2.3,3c-0.5,0.4-1.5,1.2-3.1,1.6c-2,0.5-3.5-0.2-3.9,0.6c0,0.1-0.1,0.4-0.1,1.2
	c0,1,0,1.5,0,1.5c0,1.2,0,2.1,0,3.3c0.1,3.1,0,2,0,2.2c0,1.4,0,1.8,0,2.3c0,0.5-0.1,0.9,0,1.2c0,0.2,0,0.3,0,0.5c0,0.1,0,0.2,0,0.2
	c-0.1,0.1-0.2,0.1-0.3,0.1c-0.2,0-0.4,0-0.7,0c-0.5-0.1-1.1,0-1.7,0c-0.6,0-1.2,0-3.5,0c-2.1,0-3.3,0-3.3,0
	c-5.2,0.1-5.2,0.1-6.5,0.1c-1.2,0-3,0-5.2-0.2"/>
<g>
	<path class="st1" d="M56.8,40.1c-5.7,0-10.4,4.6-10.4,10.4S51,60.8,56.8,60.8s10.4-4.6,10.4-10.4S62.5,40.1,56.8,40.1z M56.8,58.9
		c-4.7,0-8.5-3.8-8.5-8.5s3.8-8.5,8.5-8.5s8.5,3.8,8.5,8.5S61.4,58.9,56.8,58.9z"/>
	<path class="st1" d="M60.6,46.8l-5.3,5.3l-2.4-2.4c-0.4-0.4-1-0.4-1.3,0c-0.4,0.4-0.4,1,0,1.3l3.1,3.1c0.2,0.2,0.4,0.3,0.7,0.3
		c0,0,0,0,0,0c0.2,0,0.5-0.1,0.7-0.3l6-6c0.4-0.4,0.4-1,0-1.3S61,46.4,60.6,46.8z"/>
</g>
</svg>
