<?xml version="1.0" encoding="utf-8"?>
<!-- Generator: Adobe Illustrator 24.0.2, SVG Export Plug-In . SVG Version: 6.00 Build 0)  -->
<svg version="1.1" id="Capa_1" xmlns="http://www.w3.org/2000/svg" xmlns:xlink="http://www.w3.org/1999/xlink" x="0px" y="0px"
	 viewBox="0 0 85.4 85.4" style="enable-background:new 0 0 85.4 85.4;" xml:space="preserve">
<style type="text/css">
	.st0{fill:#00A7B5;stroke:#00A7B5;stroke-miterlimit:10;}
	.st1{fill:#FFFFFF;}
</style>
<circle id="Ciculo" class="st0" cx="42.7" cy="42.7" r="40.3"/>
<path class="st1" d="M8,35L8,35l4.3,0c-0.5,0.3-0.9,0.7-1.2,1.1c-1.2,1.4-1.8,3.2-1.8,5.1c0,0,0,0.1,0,0.1l1.9,14.7
	c0,2.1,1.6,3.9,3.6,4.1V65c0,1.5,1.1,2.7,2.6,2.7h4.8c1.5,0,2.7-1.2,2.7-2.7v-4.6H46c0.3,0,0.6-0.2,0.9-0.5v9.9c0,0.6,0.4,1.1,1,1.1
	h4c0.6,0,1-0.4,1.1-1l0.5-5.3c2.2-0.6,4.4-1.5,6.3-2.7l4.1,3.3c0.4,0.4,1.1,0.3,1.4-0.1l5.7-5.7c0.4-0.4,0.4-1,0.1-1.4l-3.4-4
	c1.2-2,2.1-4.1,2.7-6.3l5.3-0.5c0.6,0,1-0.5,1-1.1V38c0-0.6-0.4-1-1-1.1l-5.3-0.5c-0.6-2.2-1.5-4.4-2.7-6.3l3.3-4.1
	c0.4-0.4,0.3-1.1-0.1-1.4l-5.7-5.7c-0.4-0.4-1-0.4-1.4-0.1l-4,3.3c-2-1.2-4.1-2.1-6.3-2.7L53,14.2c0-0.6-0.5-1-1.1-1h-4
	c-0.6,0-1,0.5-1,1.1v1.9c-0.2-0.1-0.3-0.1-0.5-0.1H30.2c-3.5,0-6.7,2.4-8.9,6.9l-2.7,4.8c-1.3,0-4.2,0-5.8,0c-2.6,0-4.7,1.3-5.3,3.3
	C7.2,32,7,33,6.9,33.9c0,0.3,0.1,0.6,0.3,0.8C7.4,34.9,7.7,35,8,35z M49,27.4c7.5,0.6,13.7,7,13.7,14.7S56.5,56.3,49,56.8V27.4z
	 M49,59c8.8-0.6,15.8-7.9,15.8-16.9S57.8,25.8,49,25.2v-9.8h1.9l0.5,5.1c0,0.5,0.4,0.9,0.8,1c2.5,0.6,4.9,1.6,7,3
	c0.4,0.3,0.9,0.2,1.3-0.1l3.9-3.2l4.4,4.4l-3.2,3.9c-0.3,0.4-0.3,0.9-0.1,1.3c1.4,2.2,2.4,4.5,3,7.1c0.1,0.5,0.5,0.8,1,0.8l5.1,0.5
	v6.2l-5.1,0.5c-0.5,0-0.8,0.4-1,0.8c-0.5,2.5-1.6,4.9-3,7.1c-0.3,0.4-0.2,0.9,0.1,1.3l3.2,3.9l-4.3,4.4l-3.9-3.2
	c-0.4-0.3-0.9-0.3-1.3-0.1c-2.2,1.4-4.5,2.4-7.1,3c-0.5,0.1-0.8,0.5-0.8,1l-0.5,5.1H49V59z M22.7,65c0,0.3-0.2,0.5-0.5,0.6h-4.8
	c-0.3,0-0.5-0.3-0.5-0.6v-4.7h5.8V65z M46.9,47.3c-0.2-0.1-0.3-0.1-0.5-0.1H32.2l0.6-1.7c0.4-1.2,1.9-2.3,3.1-2.3h10.5
	c0.2,0,0.3,0,0.5,0V47.3z M46.9,41.2c-0.2-0.1-0.3-0.1-0.5-0.2H35.9c-2.2,0-4.5,1.7-5.2,3.8l-1,3.1c-0.1,0.3,0,0.7,0.2,1
	c0.2,0.3,0.5,0.4,0.9,0.4h15.7c0.2,0,0.4,0,0.5-0.1v2.1c-0.2,0-0.3-0.1-0.5-0.1H27.6c-0.6,0-1.1,0.5-1.1,1.1c0,0.6,0.5,1.1,1.1,1.1
	h18.8c0.2,0,0.4-0.1,0.5-0.1v5.2c-0.2-0.2-0.6-0.3-0.9-0.3H15.3c-1.2,0-2.1-1-2.1-2.2c0,0,0-0.1,0-0.2l-1.9-14.7
	c0-3.1,2.2-5,4.3-5.1c0.1,0,0.1,0,0.2,0h30.5c0.2,0,0.4,0,0.5-0.1V41.2z M23.3,24.1C23.3,24,23.3,24,23.3,24.1
	c1.1-2.2,3.3-5.8,7-5.8h16.1c0.2,0,0.4,0,0.5-0.1V34c-0.2-0.1-0.3-0.1-0.5-0.1H17.7L23.3,24.1z M9.5,31.8c0.4-1.1,1.7-1.8,3.3-1.8
	c1.2,0,3.2,0,4.6,0l-1.7,2.9H9.2C9.3,32.5,9.4,32.2,9.5,31.8z"/>
</svg>
