<?xml version="1.0" encoding="utf-8"?>
<!-- Generator: Adobe Illustrator 24.0.2, SVG Export Plug-In . SVG Version: 6.00 Build 0)  -->
<svg version="1.1" id="Capa_1" xmlns="http://www.w3.org/2000/svg" xmlns:xlink="http://www.w3.org/1999/xlink" x="0px" y="0px"
	 viewBox="0 0 85.4 85.4" style="enable-background:new 0 0 85.4 85.4;" xml:space="preserve">
<style type="text/css">
	.st0{fill:none;}
	.st1{fill:#1E407F;}
</style>
<circle id="Ciculo" class="st0" cx="42.7" cy="42.7" r="40.3"/>
<g>
	<g>
		<path class="st1" d="M56.8,30.1c-1.8-3.8-4.2-7.6-7.3-11.2C44.2,12.7,39,9.2,38.8,9c-0.3-0.2-0.7-0.2-1,0
			c-0.2,0.1-3.5,2.4-7.6,6.4c0.6,0.3,1.1,0.7,1.4,1.2c3-3,5.6-5,6.7-5.7c1.4,1,5.6,4.2,9.8,9.1c3,3.5,5.4,7.1,7.1,10.8
			c0,0,0,0,0,0.1c0.7,0,1.4,0.1,2.1,0.2c0,0,0,0,0,0C57.1,30.8,56.9,30.4,56.8,30.1z"/>
		<path class="st1" d="M52.1,59.2C52,59.2,52,59.2,52.1,59.2c-3.6,3.4-8.5,5.5-13.8,5.5c-11,0-20-9-20-20c0-4.6,1.1-9.3,3.2-13.8
			c1-2.2,2.3-4.5,3.8-6.6c-0.6-0.3-1-0.8-1.4-1.3c-1.6,2.3-3,4.7-4.1,7.1c-2.2,4.8-3.4,9.8-3.4,14.7c0,12.1,9.8,21.9,21.9,21.9
			c6.5,0,12.4-2.9,16.4-7.4c-0.7,0.1-1.4,0.3-2.1,0.3C52.3,59.5,52.2,59.4,52.1,59.2z"/>
		<path class="st1" d="M21.5,47.8c0.5-0.1,1,0.2,1.1,0.7c1.1,4.4,4,8.2,8,10.4c0.5,0.2,0.6,0.8,0.4,1.3c-0.2,0.3-0.5,0.5-0.8,0.5
			c-0.1,0-0.3,0-0.4-0.1c-4.5-2.4-7.8-6.6-9-11.6C20.7,48.4,21,47.9,21.5,47.8z"/>
	</g>
	<g>
		<path class="st1" d="M72.5,58.8l-6.7-6.7c1.1-2.1,1.6-4.5,1.6-6.9c0-8.6-7-15.5-15.5-15.5c-8.6,0-15.5,7-15.5,15.5
			c0,8.6,7,15.5,15.5,15.5c2,0,4-0.4,5.8-1.1l7,7c1,1,2.4,1.6,3.9,1.6c1.5,0,2.8-0.6,3.9-1.6C74.7,64.4,74.7,60.9,72.5,58.8z
			 M38.3,45.2c0-7.5,6.1-13.6,13.6-13.6s13.6,6.1,13.6,13.6c0,2.3-0.6,4.6-1.7,6.6c-0.2,0.3-0.3,0.6-0.5,0.8
			c-1.2,1.9-2.9,3.4-4.9,4.5c-2,1.1-4.2,1.6-6.4,1.6C44.4,58.7,38.3,52.6,38.3,45.2z M71.2,65.2c-0.7,0.7-1.6,1-2.5,1
			c-0.9,0-1.8-0.4-2.5-1l-6.6-6.6c0.1-0.1,0.3-0.2,0.4-0.3c0.1-0.1,0.2-0.1,0.3-0.2c0.3-0.2,0.6-0.4,0.8-0.6c0,0,0,0,0.1-0.1
			c0.2-0.2,0.5-0.4,0.7-0.6c0.1-0.1,0.2-0.1,0.2-0.2c0.2-0.2,0.3-0.3,0.5-0.5c0.1-0.1,0.2-0.2,0.3-0.3c0.2-0.2,0.3-0.3,0.5-0.5
			c0.1-0.1,0.2-0.2,0.2-0.3c0.2-0.2,0.4-0.4,0.5-0.7c0,0,0.1-0.1,0.1-0.1c0.2-0.2,0.4-0.5,0.5-0.8l6.4,6.4
			C72.6,61.6,72.6,63.8,71.2,65.2z"/>
	</g>
	<g>
		<g>
			<path class="st1" d="M33.8,18.6l-3.5-3.2l-1.9-5.9c-0.3-0.9-1.2-0.9-1.5,0L25,15.4l-3.5,3.2c-0.3,0.2-0.4,0.7-0.4,1.2
				c0,0.5,0.2,1,0.4,1.2l3.5,3.2l1.9,5.9c0.1,0.4,0.4,0.7,0.7,0.7c0.3,0,0.6-0.3,0.7-0.7l1.9-5.9l3.5-3.2c0.3-0.2,0.4-0.7,0.4-1.2
				C34.2,19.3,34.1,18.9,33.8,18.6z M29.3,22c-0.1,0.1-0.3,0.3-0.3,0.5l-1.3,4l-1.3-4c-0.1-0.2-0.2-0.4-0.3-0.5l-2.4-2.2l2.4-2.2
				c0.1-0.1,0.3-0.3,0.3-0.5l1.3-4l1.3,4c0.1,0.2,0.2,0.4,0.3,0.5l2.4,2.2L29.3,22z"/>
		</g>
	</g>
	<path class="st1" d="M56.8,40.5l-6.7,6.7L47,44.2c-0.5-0.5-1.2-0.5-1.7,0c-0.5,0.5-0.5,1.2,0,1.7l3.9,3.9c0.2,0.2,0.5,0.3,0.8,0.3
		c0,0,0,0,0,0c0.3,0,0.6-0.1,0.8-0.3l7.6-7.6c0.5-0.5,0.5-1.2,0-1.7C58.1,40.1,57.3,40.1,56.8,40.5z"/>
</g>
</svg>
