<?xml version="1.0" encoding="utf-8"?>
<!-- Generator: Adobe Illustrator 24.0.2, SVG Export Plug-In . SVG Version: 6.00 Build 0)  -->
<svg version="1.1" id="Capa_1" xmlns="http://www.w3.org/2000/svg" xmlns:xlink="http://www.w3.org/1999/xlink" x="0px" y="0px"
	 viewBox="0 0 85.4 85.4" style="enable-background:new 0 0 85.4 85.4;" xml:space="preserve">
<style type="text/css">
	.st0{fill:#00A7B5;stroke:#00A7B5;stroke-miterlimit:10;}
	.st1{fill:#FFFFFF;}
</style>
<circle id="Ciculo" class="st0" cx="42.7" cy="42.7" r="40.3"/>
<g>
	<path class="st1" d="M65.4,57.7c-0.5,0-1,0.4-1,1v12.9c0,1.3-1.1,2.4-2.4,2.4H23.3c-1.3,0-2.4-1.1-2.4-2.4V13.9
		c0-1.3,1.1-2.4,2.4-2.4h7.1c0.5,0,1-0.4,1-1s-0.4-1-1-1h-7.1c-2.4,0-4.3,1.9-4.3,4.3v57.7c0,2.4,1.9,4.3,4.3,4.3h38.7
		c2.4,0,4.3-1.9,4.3-4.3V58.6C66.4,58.1,65.9,57.7,65.4,57.7z"/>
	<path class="st1" d="M62.1,9.5c-10.6,0-21.3,0-31.9,0c0,0.3,0,0.6,0,0.9c0,0.4,0,0.7-0.1,1c10.7,0,21.3,0,32,0
		c1.3,0,2.4,1.1,2.4,2.4V54c0,0.6,0,1.6,0,2.7c0,1.6,0,1.6,0,2c0.1,1.9,0.6,4.3,1,4.3c0.5,0,0.9-3.1,0.9-4.3c0-0.1,0-0.4,0-0.7
		c0-0.9,0-1.4,0-1.8c0-0.5,0-1.3,0-2.2c0-13.4,0-26.7,0-40.1c0-0.3,0-1.8-1.3-3C63.9,9.6,62.3,9.5,62.1,9.5z"/>
	<path class="st1" d="M61,64.6V16.7c0-0.9-0.7-1.6-1.6-1.6H26c-0.9,0-1.6,0.7-1.6,1.6v47.8c0,0.9,0.7,1.6,1.6,1.6h33.3
		C60.2,66.2,61,65.5,61,64.6z M59,64.2H26.4V17H59V64.2z"/>
	<circle class="st1" cx="42.7" cy="70.1" r="1.9"/>
	<path class="st1" d="M55.7,43.4H52l-1.6-4.2c-0.1-0.4-0.5-0.6-0.9-0.6s-0.8,0.2-0.9,0.6L46.3,45l-3.4-8.9c-0.1-0.4-0.5-0.6-0.9-0.6
		s-0.8,0.2-0.9,0.6l-4.6,12L35,44c-0.1-0.4-0.5-0.6-0.9-0.6h-4.2c-0.5,0-1,0.4-1,1c0,0.5,0.4,1,1,1h3.5l2.2,5.8
		c0.1,0.4,0.5,0.6,0.9,0.6s0.8-0.2,0.9-0.6l4.6-12l3.4,8.9c0.1,0.4,0.5,0.6,0.9,0.6s0.8-0.2,0.9-0.6l2.2-5.8l0.9,2.4
		c0.1,0.4,0.5,0.6,0.9,0.6h4.4c0.5,0,1-0.4,1-1C56.7,43.8,56.3,43.4,55.7,43.4z"/>
	<path class="st1" d="M30.2,33.3H55c0.8,0,1.4-0.6,1.4-1.4v-2.6c0-0.8-0.6-1.4-1.4-1.4h-5v-5c0-0.8-0.6-1.4-1.4-1.4H43
		c-0.8,0-1.4,0.6-1.4,1.4v1.8h-4.5c-0.1-0.7-0.7-1.2-1.4-1.2h-5.6c-0.8,0-1.4,0.6-1.4,1.4v7C28.8,32.7,29.5,33.3,30.2,33.3z
		 M54.5,30v1.4H50V30H54.5z M43.6,23.6h4.5v7.8h-4.5v-5.6L43.6,23.6z M41.6,31.4h-4.5v-4.6h4.5V31.4z M30.8,25.6h4.5v0.2v5.6h-4.5
		V25.6z"/>
	<path class="st1" d="M32.1,61.5c2.2,0,4-1.8,4-4s-1.8-4-4-4s-4,1.8-4,4S29.9,61.5,32.1,61.5z M32.1,55.4c1.2,0,2.1,0.9,2.1,2.1
		c0,1.2-0.9,2.1-2.1,2.1c-1.2,0-2.1-0.9-2.1-2.1C30,56.3,30.9,55.4,32.1,55.4z"/>
	<path class="st1" d="M46.3,53.4c-2.2,0-4,1.8-4,4s1.8,4,4,4c2.2,0,4-1.8,4-4S48.5,53.4,46.3,53.4L46.3,53.4z M46.3,59.6
		c-1.2,0-2.1-0.9-2.1-2.1c0-1.2,0.9-2.1,2.1-2.1c1.2,0,2.1,0.9,2.1,2.1C48.4,58.6,47.4,59.6,46.3,59.6z"/>
	<path class="st1" d="M39.7,54.7h-2.1c-0.5,0-1,0.4-1,1c0,0.5,0.4,1,1,1h2.1c0.5,0,1-0.4,1-1C40.6,55.2,40.2,54.7,39.7,54.7z"/>
	<path class="st1" d="M39.7,58.6h-2.1c-0.5,0-1,0.4-1,1s0.4,1,1,1h2.1c0.5,0,1-0.4,1-1C40.6,59,40.2,58.6,39.7,58.6z"/>
	<path class="st1" d="M53.8,54.7h-2.1c-0.5,0-1,0.4-1,1c0,0.5,0.4,1,1,1h2.1c0.5,0,1-0.4,1-1C54.8,55.2,54.4,54.7,53.8,54.7z"/>
	<path class="st1" d="M53.8,58.6h-2.1c-0.5,0-1,0.4-1,1s0.4,1,1,1h2.1c0.5,0,1-0.4,1-1C54.8,59,54.4,58.6,53.8,58.6z"/>
</g>
</svg>
