<?xml version="1.0" encoding="utf-8"?>
<!-- Generator: Adobe Illustrator 24.0.2, SVG Export Plug-In . SVG Version: 6.00 Build 0)  -->
<svg version="1.1" id="Capa_1" xmlns="http://www.w3.org/2000/svg" xmlns:xlink="http://www.w3.org/1999/xlink" x="0px" y="0px"
	 viewBox="0 0 85.4 85.4" style="enable-background:new 0 0 85.4 85.4;" xml:space="preserve">
<style type="text/css">
	.st0{fill:#00A7B5;stroke:#00A7B5;stroke-miterlimit:10;}
	.st1{fill:#FFFFFF;}
</style>
<circle id="Ciculo" class="st0" cx="42.7" cy="42.7" r="40.3"/>
<g>
	<path class="st1" d="M64.1,26.4c0-0.3-0.1-0.5-0.3-0.7l-9.5-9.5c-0.2-0.2-0.5-0.3-0.7-0.3v0H24.1c-0.6,0-1.1,0.5-1.1,1.1v49.4
		c0,0.6,0.5,1.1,1.1,1.1H63c0.6,0,1.1-0.5,1.1-1.1L64.1,26.4L64.1,26.4z M54.6,19.5l5.9,5.9h-5.9V19.5z M25.1,65.4V18h27.4v8.4
		c0,0.6,0.5,1.1,1.1,1.1H62v37.9H25.1z"/>
	<rect x="28.3" y="31.7" class="st1" width="30.5" height="2.1"/>
	<rect x="28.3" y="36.9" class="st1" width="30.5" height="2.1"/>
	<rect x="28.3" y="42.1" class="st1" width="30.5" height="2.1"/>
	<rect x="28.3" y="47.4" class="st1" width="30.5" height="2.1"/>
	<rect x="28.3" y="52.6" class="st1" width="24.2" height="2.1"/>
</g>
</svg>
