<?xml version="1.0" encoding="utf-8"?>
<!-- Generator: Adobe Illustrator 24.0.2, SVG Export Plug-In . SVG Version: 6.00 Build 0)  -->
<svg version="1.1" id="Capa_1" xmlns="http://www.w3.org/2000/svg" xmlns:xlink="http://www.w3.org/1999/xlink" x="0px" y="0px"
	 viewBox="0 0 85.4 85.4" style="enable-background:new 0 0 85.4 85.4;" xml:space="preserve">
<style type="text/css">
	.st0{fill:#00A7B5;stroke:#00A7B5;stroke-miterlimit:10;}
	.st1{fill:#FFFFFF;}
</style>
<circle id="Ciculo" class="st0" cx="42.7" cy="42.7" r="40.3"/>
<g>
	<path class="st1" d="M23,49.5h4.1v9.6c0,2.3,1.8,4.1,4.1,4.1s4.1-1.8,4.1-4.1c0-0.8,0.6-1.4,1.4-1.4h1.2c0.1,0.6,0.1,1.1,0.1,1.7
		v14.2c0,2.3,1.8,4.1,4.1,4.1H53c0.8,0,1.4-0.6,1.4-1.4c0-3.3-2.4-6.1-5.5-6.7V59.4c0-0.6,0-1.1,0.1-1.7h4c3.8,0,6.8-3.1,6.8-6.8
		c0-2,0-7.6,0-9.6h2.5c0.8,0,1.4-0.6,1.4-1.4c0-0.8-0.6-1.4-1.4-1.4c-2.8,0-8.6,0-10.7,0v-6.8c0-1.5-0.5-3-1.4-4.1l0,0
		c0.8,0,1.4-0.6,1.4-1.4V11.7c0-2.3-1.8-4.1-4.1-4.1H42c-3.8,0-6.8,3.1-6.8,6.8v10.4h-5.5v-6.3h1.4c0.8,0,1.4-0.6,1.4-1.4
		s-0.6-1.4-1.4-1.4h-5.5c-0.8,0-1.4,0.6-1.4,1.4s0.6,1.4,1.4,1.4H27v6.3h-4c-0.8,0-1.4,0.6-1.4,1.4v21.9
		C21.6,48.9,22.3,49.5,23,49.5L23,49.5z M24.4,33.1h5.5v2.7h-5.5V33.1z M32.6,59.1c0,0.8-0.6,1.4-1.4,1.4s-1.4-0.6-1.4-1.4v-9.6h5.6
		c0.2,1.6,0.7,3.2,1.4,4.7c0.1,0.2,0.2,0.5,0.3,0.8h-0.5C34.4,55,32.6,56.8,32.6,59.1z M47.8,53c-1,2-1.5,4.2-1.5,6.4v3.8h-5.5v-3.8
		c0-2.1-0.5-4.4-1.5-6.4c-0.8-1.6-1.2-3.4-1.2-5.2v-2.4c1.1,0.9,2.6,1.4,4.1,1.4H49v1C49,49.6,48.6,51.4,47.8,53L47.8,53z M51.5,75
		h-9.3c-0.8,0-1.4-0.6-1.4-1.4v-7.7h5.5v4.9c0,0.8,0.6,1.4,1.4,1.4C49.4,72.2,51,73.4,51.5,75z M53.1,55h-3.2
		c0.1-0.3,0.2-0.5,0.3-0.8c1-2,1.5-4.2,1.5-6.4v-1h5.5v4.1C57.2,53.2,55.4,55,53.1,55z M49,31.7v6.8h-1.4c-0.8,0-1.4-0.6-1.4-1.4
		v-5.5c0-0.8-0.6-1.4-1.4-1.4s-1.4,0.6-1.4,1.4v5.5c0,2.3,1.8,4.1,4.1,4.1h9.6V44H42.2c-2.3,0-4.1-1.8-4.1-4.1c0-1.5,0-11,0-12.3
		h6.8C47.2,27.6,49,29.5,49,31.7z M46.3,20.8v-4.9H49v8.8C47.4,24.1,46.3,22.6,46.3,20.8z M38.1,14.5c0-2.3,1.8-4.1,4.1-4.1h5.5
		c0.8,0,1.4,0.6,1.4,1.4v1.4H45c-0.8,0-1.4,0.6-1.4,1.4v6.3c0,1.5,0.5,3,1.4,4.1h-6.8V14.5H38.1z M35.3,27.6v19.2H24.4v-8.2h6.8
		c0.8,0,1.4-0.6,1.4-1.4v-5.5c0-0.8-0.6-1.4-1.4-1.4h-6.8v-2.7H35.3z"/>
</g>
</svg>
