<?xml version="1.0" encoding="utf-8"?>
<!-- Generator: Adobe Illustrator 24.0.2, SVG Export Plug-In . SVG Version: 6.00 Build 0)  -->
<svg version="1.1" id="Capa_1" xmlns="http://www.w3.org/2000/svg" xmlns:xlink="http://www.w3.org/1999/xlink" x="0px" y="0px"
	 viewBox="0 0 85.4 85.4" style="enable-background:new 0 0 85.4 85.4;" xml:space="preserve">
<style type="text/css">
	.st0{fill:none;}
	.st1{fill:#1E407F;}
</style>
<circle id="Ciculo" class="st0" cx="42.7" cy="42.7" r="40.3"/>
<path class="st1" d="M62.5,64.3c-0.7,0-1.3,0.7-1.3,1.5v2.7c0,2.5-1.8,4.5-4,4.5H26.7c-2.2,0-4-2-4-4.5V18c0-2.5,1.8-4.5,4-4.5h20
	v8.7c0,4.1,3,7.4,6.7,7.4h7.8v7.9c0,0.8,0.6,1.5,1.3,1.5c0.7,0,1.3-0.7,1.3-1.5v-9.4c0-0.4-0.1-0.8-0.4-1.1L49,11l0,0
	c-0.3-0.3-0.6-0.5-1-0.4c0,0-0.1,0-0.1,0H26.7C23,10.6,20,13.9,20,18v50.4c0,4.1,3,7.4,6.7,7.4h30.5c3.7,0,6.7-3.3,6.7-7.4v-2.7
	c0-0.4-0.1-0.8-0.4-1.1C63.2,64.4,62.8,64.3,62.5,64.3z M49.3,22.2v-6.6l9.9,11h-5.9C51.1,26.6,49.3,24.7,49.3,22.2z"/>
<path class="st1" d="M70.4,37.9c-0.2-0.3-0.6-0.5-0.9-0.5c-0.4,0-0.7,0.1-1,0.4L51,54.8c-0.2,0.2-0.4,0.5-0.4,0.8L49.2,63
	c-0.1,0.5,0,0.9,0.3,1.3c0.3,0.3,0.6,0.5,1,0.5h0.1l6.9-0.4c0.3,0,0.6-0.1,0.8-0.4l17.5-17.1c0.3-0.3,0.4-0.6,0.5-1
	c0-0.4-0.1-0.8-0.3-1.1L70.4,37.9z M56.8,61.4l-4.7,0.3l1-5L69.2,41l3.7,4.7L56.8,61.4z"/>
</svg>
