<?xml version="1.0" encoding="utf-8"?>
<!-- Generator: Adobe Illustrator 24.0.2, SVG Export Plug-In . SVG Version: 6.00 Build 0)  -->
<svg version="1.1" id="Capa_1" xmlns="http://www.w3.org/2000/svg" xmlns:xlink="http://www.w3.org/1999/xlink" x="0px" y="0px"
	 viewBox="0 0 85.4 85.4" style="enable-background:new 0 0 85.4 85.4;" xml:space="preserve">
<style type="text/css">
	.st0{fill:none;}
	.st1{fill:#23407F;}
</style>
<circle id="Ciculo" class="st0" cx="42.7" cy="42.7" r="40.3"/>
<g id="Electric_Plug">
	<path class="st1" d="M49.2,62.3h6.5c1.5,0,2.8-1.3,2.8-2.8v-7.6c1.6-0.4,2.8-1.9,2.8-3.6v-1.9c5.3-0.5,9.3-4.9,9.3-10.2v-7.5
		c0-1.5-1.3-2.8-2.8-2.8H67v-7.5c0-2.1-1.7-3.7-3.7-3.7c-2.1,0-3.7,1.7-3.7,3.7v7.5h-3.7v-7.5c0-2.1-1.7-3.7-3.7-3.7
		c-2.1,0-3.7,1.7-3.7,3.7v7.5h-0.9c-1.5,0-2.8,1.3-2.8,2.8v7.5c0,5.3,4,9.7,9.3,10.2v1.9c0,1.7,1.2,3.2,2.8,3.6v7.6
		c0,0.5-0.4,0.9-0.9,0.9h-6.5c-1.5,0-2.8,1.3-2.8,2.8c0,0.2,0,0.5,0.1,0.7c0.3,1.3,1.5,2.1,2.8,2.1h18.6c0.5,0,0.9,0.4,0.9,0.9v0.9
		c0,0.5-0.4,0.9-0.9,0.9H34.3c-3.6,0-6.5-2.9-6.5-6.5V44.6h8.4c1.5,0,2.8-1.3,2.8-2.8V17.5c0-1.5-1.3-2.8-2.8-2.8H17.5
		c-1.5,0-2.8,1.3-2.8,2.8v24.3c0,1.5,1.3,2.8,2.8,2.8h8.4v17.7c0,4.6,3.8,8.4,8.4,8.4h33.6c1.5,0,2.8-1.3,2.8-2.8V67
		c0-1.5-1.3-2.8-2.8-2.8H49.3c-0.5,0-0.9-0.3-1-0.7c-0.1-0.3,0-0.7,0.3-0.9C48.8,62.4,49,62.3,49.2,62.3z M61.4,18.4
		c0-1,0.8-1.9,1.9-1.9s1.9,0.8,1.9,1.9v10.3h-3.7V18.4z M50.2,18.4c0-1,0.8-1.9,1.9-1.9c1,0,1.9,0.8,1.9,1.9v10.3h-3.7V18.4z
		 M53.9,44.5c-4.3-0.5-7.5-4.1-7.5-8.3v-7.5c0-0.5,0.4-0.9,0.9-0.9h0.9v1.9c0,0.5,0.4,0.9,0.9,0.9h5.6c0.5,0,0.9-0.4,0.9-0.9v-1.9
		h3.7v1.9c0,0.5,0.4,0.9,0.9,0.9H66c0.5,0,0.9-0.4,0.9-0.9v-1.9h0.9c0.5,0,0.9,0.4,0.9,0.9v7.5c0,4.3-3.2,7.9-7.5,8.3
		c0-2.1-1.7-3.7-3.7-3.7C55.6,40.8,53.9,42.5,53.9,44.5L53.9,44.5z M55.8,48.3v-3.7c0-1,0.8-1.9,1.9-1.9c1,0,1.9,0.8,1.9,1.9v3.7
		c0,1-0.8,1.9-1.9,1.9C56.6,50.2,55.8,49.3,55.8,48.3z M17.5,42.7c-0.5,0-0.9-0.4-0.9-0.9V17.5c0-0.5,0.4-0.9,0.9-0.9h18.7
		c0.5,0,0.9,0.4,0.9,0.9v24.3c0,0.5-0.4,0.9-0.9,0.9H17.5z"/>
	<path class="st1" d="M33.2,27.3c-0.2-0.3-0.5-0.4-0.8-0.4h-4.7v-6.5c0-0.4-0.3-0.8-0.7-0.9c-0.4-0.1-0.9,0.1-1,0.5l-5.6,11.2
		c-0.2,0.5,0,1,0.4,1.3c0.1,0.1,0.3,0.1,0.4,0.1h4.7V39c0,0.4,0.3,0.8,0.7,0.9c0.1,0,0.1,0,0.2,0c0.4,0,0.7-0.2,0.8-0.5l5.6-11.2
		C33.4,27.9,33.4,27.6,33.2,27.3z M27.8,35v-3.5c0-0.5-0.4-0.9-0.9-0.9h-4.1l3.2-6.3v3.5c0,0.5,0.4,0.9,0.9,0.9h4.1L27.8,35z"/>
</g>
</svg>
