<?xml version="1.0" encoding="utf-8"?>
<!-- Generator: Adobe Illustrator 24.0.2, SVG Export Plug-In . SVG Version: 6.00 Build 0)  -->
<svg version="1.1" id="Capa_1" xmlns="http://www.w3.org/2000/svg" xmlns:xlink="http://www.w3.org/1999/xlink" x="0px" y="0px"
	 viewBox="0 0 85.4 85.4" style="enable-background:new 0 0 85.4 85.4;" xml:space="preserve">
<style type="text/css">
	.st0{fill:#00A7B5;stroke:#00A7B5;stroke-miterlimit:10;}
	.st1{fill:#FFFFFF;stroke:#FFFFFF;stroke-miterlimit:10;}
	.st2{fill:#FFFFFF;}
</style>
<circle id="Ciculo" class="st0" cx="42.7" cy="42.7" r="40.3"/>
<path class="st1" d="M27.1,63.3c0.1-0.1-4.1-3.6-4.9-9.3c-0.4-3.5,0.6-6.2,1.6-8.6c0.5-1.5,3.1-7.7,8.9-11.5c2.4-1.7,5.2-2.7,6.1-3
	c0.8-0.3,2-0.6,3.1-1l0,0c0.3-0.1,0.7-0.2,0.8-0.2c0.2,0,0.7-0.2,1.3-0.1c0.3,0,0.4,0.1,0.5,0.2c0.1,0.1,0.3,0.3,0.3,0.9
	C45,31,45,31.2,45,31.4c0,1.5-0.3,8.5,0.4,13.1c0.3,1.3,0.7,3.8,2.5,6.6c0.7,1.1,2,3.1,4.5,4.5c3.1,1.8,7.3,2.3,11,0.7
	c4.5-2,6.3-6.3,7.1-8.3c3.5-8.6-0.9-17.3-2-19.4c-1-2.2-5.2-9.9-14.6-13.5C46,11.8,39,13.5,36.6,14c-4.6,1.1-7.8,3.1-8.8,3.8
	c-5.7,3.8-8.6,8.8-9.7,11.3c-1.5,3.1-4.1,10.1-2,18.5C18.8,58.1,26.9,63.4,27.1,63.3z"/>
<g>
	<path class="st2" d="M57.4,72.6h9.8c0.6,0,1.2-0.6,1.2-1.2l0,0V63l2.2-2.2c0.4-0.4,0.4-1.2,0-1.6c-0.4-0.4-1.2-0.4-1.6,0l-1.2,1.2
		c-0.2-0.2-0.4-0.2-0.6-0.2h-9.8c-0.6,0-1.2,0.6-1.2,1.2v10.2C56.2,72,56.8,72.6,57.4,72.6z M58.4,62.4h7.4L62.4,66l-0.8-1
		c-0.4-0.4-1.2-0.4-1.6,0c-0.4,0.4-0.4,1.2,0,1.6l1.6,1.6c0.4,0.4,1.2,0.4,1.6,0l0,0l3-3.2v5.2h-7.6L58.4,62.4L58.4,62.4z"/>
</g>
</svg>
