<?xml version="1.0" encoding="utf-8"?>
<!-- Generator: Adobe Illustrator 24.0.2, SVG Export Plug-In . SVG Version: 6.00 Build 0)  -->
<svg version="1.1" id="Capa_1" xmlns="http://www.w3.org/2000/svg" xmlns:xlink="http://www.w3.org/1999/xlink" x="0px" y="0px"
	 viewBox="0 0 85.4 85.4" style="enable-background:new 0 0 85.4 85.4;" xml:space="preserve">
<style type="text/css">
	.st0{fill:#00A7B5;stroke:#00A7B5;stroke-miterlimit:10;}
	.st1{fill:#FFFFFF;stroke:#FFFFFF;stroke-miterlimit:10;}
	.st2{stroke:#FFFFFF;stroke-miterlimit:10;}
</style>
<circle id="Ciculo" class="st0" cx="42.7" cy="42.7" r="40.3"/>
<path class="st1" d="M27.1,63.3c0.1-0.1-4.1-3.6-4.9-9.3c-0.4-3.5,0.6-6.2,1.6-8.6c0.5-1.5,3.1-7.7,8.9-11.5c2.4-1.7,5.2-2.7,6.1-3
	c0.8-0.3,2-0.6,3.1-1l0,0c0.3-0.1,0.7-0.2,0.8-0.2c0.2,0,0.7-0.2,1.3-0.1c0.3,0,0.4,0.1,0.5,0.2c0.1,0.1,0.3,0.3,0.3,0.9
	C45,31,45,31.2,45,31.4c0,1.5-0.3,8.5,0.4,13.1c0.3,1.3,0.7,3.8,2.5,6.6c0.7,1.1,2,3.1,4.5,4.5c3.1,1.8,7.3,2.3,11,0.7
	c4.5-2,6.3-6.3,7.1-8.3c3.5-8.6-0.9-17.3-2-19.4c-1-2.2-5.2-9.9-14.6-13.5C46,11.8,39,13.5,36.6,14c-4.6,1.1-7.8,3.1-8.8,3.8
	c-5.7,3.8-8.6,8.8-9.7,11.3c-1.5,3.1-4.1,10.1-2,18.5C18.8,58.1,26.9,63.4,27.1,63.3z"/>
<g>
	<g>
		<path class="st2" d="M68,60.3h-7.8c-1,0-1.8,0.8-1.8,1.8V70c0,1,0.8,1.8,1.8,1.8H68c1,0,1.8-0.8,1.8-1.8v-7.8
			C69.8,61.1,69,60.3,68,60.3z M69.1,70c0,0.6-0.5,1.2-1.2,1.2h-7.8c-0.6,0-1.2-0.5-1.2-1.2v-7.8c0-0.6,0.5-1.2,1.2-1.2H68
			c0.6,0,1.2,0.5,1.2,1.2V70z"/>
		<path class="st2" d="M64.3,63.2c-0.1-0.1-0.3-0.1-0.5,0l-1.7,1.7c-0.1,0.1-0.1,0.3,0,0.5c0.1,0.1,0.3,0.1,0.5,0l1.2-1.2v4.5
			c0,0.2,0.1,0.3,0.3,0.3c0.2,0,0.3-0.1,0.3-0.3v-4.5l1.2,1.2c0.1,0.1,0.1,0.1,0.2,0.1s0.2,0,0.2-0.1c0.1-0.1,0.1-0.3,0-0.5
			L64.3,63.2z"/>
	</g>
</g>
</svg>
