<?xml version="1.0" encoding="utf-8"?>
<!-- Generator: Adobe Illustrator 24.0.2, SVG Export Plug-In . SVG Version: 6.00 Build 0)  -->
<svg version="1.1" id="Capa_1" xmlns="http://www.w3.org/2000/svg" xmlns:xlink="http://www.w3.org/1999/xlink" x="0px" y="0px"
	 viewBox="0 0 85.4 85.4" style="enable-background:new 0 0 85.4 85.4;" xml:space="preserve">
<style type="text/css">
	.st0{fill:none;}
	.st1{fill:#1E407F;stroke:#1E407F;stroke-miterlimit:10;}
	.st2{fill:#1E407F;}
</style>
<circle id="Ciculo" class="st0" cx="42.7" cy="42.7" r="40.3"/>
<path class="st1" d="M19.6,65.3c0.1-0.1-4.7-4.1-5.6-10.7c-0.5-4,0.7-7.1,1.8-9.9c0.6-1.7,3.6-8.8,10.2-13.2c2.8-1.9,6-3.1,7-3.4
	c0.9-0.3,2.3-0.7,3.6-1.1c0,0,0,0,0,0c0.4-0.1,0.8-0.2,0.9-0.2c0.2,0,0.8-0.2,1.5-0.1c0.3,0,0.5,0.1,0.6,0.2c0.1,0.1,0.3,0.3,0.4,1
	c0.1,0.4,0.1,0.6,0.1,0.9c0,1.7-0.4,9.7,0.5,15c0.3,1.5,0.8,4.4,2.9,7.5c0.8,1.3,2.3,3.5,5.1,5.1c3.6,2.1,8.4,2.6,12.6,0.8
	c5.2-2.3,7.2-7.2,8.1-9.5c4-9.9-1-19.8-2.3-22.2c-1.2-2.3-6-11.1-16.8-15.3c-9.1-3.6-17.1-1.7-19.8-1.1c-5.3,1.3-8.9,3.6-10.1,4.4
	c-6.5,4.3-9.8,10.1-11.1,12.9c-1.7,3.6-4.7,11.6-2.3,21.2C10.1,59.3,19.4,65.4,19.6,65.3z"/>
<g>
	<rect x="63" y="58.2" class="st2" width="2.9" height="14.4"/>
	<rect x="57.2" y="64" class="st2" width="14.4" height="2.9"/>
</g>
</svg>
