<?xml version="1.0" encoding="utf-8"?>
<!-- Generator: Adobe Illustrator 24.0.2, SVG Export Plug-In . SVG Version: 6.00 Build 0)  -->
<svg version="1.1" id="Capa_1" xmlns="http://www.w3.org/2000/svg" xmlns:xlink="http://www.w3.org/1999/xlink" x="0px" y="0px"
	 viewBox="0 0 85.4 85.4" style="enable-background:new 0 0 85.4 85.4;" xml:space="preserve">
<style type="text/css">
	.st0{fill:none;}
	.st1{fill:#1E407F;stroke:#1E407F;stroke-miterlimit:10;}
	.st2{fill:#1E407F;stroke:#1E407F;stroke-width:0.75;stroke-miterlimit:10;}
</style>
<circle id="Ciculo" class="st0" cx="42.7" cy="42.7" r="40.3"/>
<path class="st1" d="M19.6,65.3c0.1-0.1-4.7-4.1-5.6-10.7c-0.5-4,0.7-7.1,1.8-9.9c0.6-1.7,3.6-8.8,10.2-13.2c2.8-1.9,6-3.1,7-3.4
	c0.9-0.3,2.3-0.7,3.6-1.1c0,0,0,0,0,0c0.4-0.1,0.8-0.2,0.9-0.2c0.2,0,0.8-0.2,1.5-0.1c0.3,0,0.5,0.1,0.6,0.2c0.1,0.1,0.3,0.3,0.4,1
	c0.1,0.4,0.1,0.6,0.1,0.9c0,1.7-0.4,9.7,0.5,15c0.3,1.5,0.8,4.4,2.9,7.5c0.8,1.3,2.3,3.5,5.1,5.1c3.6,2.1,8.4,2.6,12.6,0.8
	c5.2-2.3,7.2-7.2,8.1-9.5c4-9.9-1-19.8-2.3-22.2c-1.2-2.3-6-11.1-16.8-15.3c-9.1-3.6-17.1-1.7-19.8-1.1c-5.3,1.3-8.9,3.6-10.1,4.4
	c-6.5,4.3-9.8,10.1-11.1,12.9c-1.7,3.6-4.7,11.6-2.3,21.2C10.1,59.3,19.4,65.4,19.6,65.3z"/>
<g>
	<path class="st2" d="M56.3,67.3c0.5-2.8,2.5-5.1,5-6l-0.1,0.2c-0.2,0.3-0.1,0.7,0.2,0.8c0.1,0.1,0.2,0.1,0.3,0.1
		c0.2,0,0.4-0.1,0.5-0.3l0.8-1.5c0.1-0.1,0.1-0.3,0.1-0.5c0-0.2-0.1-0.3-0.3-0.4L61.5,59c-0.3-0.2-0.7-0.1-0.8,0.2
		c-0.2,0.3-0.1,0.7,0.2,0.8l0.2,0.1c-3,1.1-5.3,3.7-5.9,7c-0.3,1.6-0.1,3.2,0.4,4.7c0.1,0.2,0.3,0.4,0.6,0.4c0.1,0,0.1,0,0.2,0
		c0.3-0.1,0.5-0.5,0.4-0.8C56.2,70,56.1,68.6,56.3,67.3z"/>
	<path class="st2" d="M70.9,73.6c-0.3-0.2-0.6-0.2-0.9,0.1c-1.8,2.1-4.6,3.2-7.3,2.7c-1.3-0.2-2.6-0.8-3.6-1.7h0.2
		c0.3,0,0.6-0.3,0.6-0.6s-0.3-0.6-0.6-0.6h-1.6c-0.2,0-0.3,0-0.5,0.1C57,73.7,57,73.8,57,74c0,0,0,0,0,0c0,0,0,0,0,0c0,0,0,0,0,0.1
		c0,0,0,0,0,0l0,1.7c0,0.3,0.3,0.6,0.6,0.6h0c0.3,0,0.6-0.3,0.6-0.6l0-0.2c1.2,1,2.7,1.7,4.3,2c0.5,0.1,1,0.1,1.6,0.1
		c2.6,0,5.2-1.2,6.9-3.2C71.2,74.2,71.1,73.8,70.9,73.6z"/>
	<path class="st2" d="M73.9,70.5c-0.2-0.3-0.5-0.4-0.8-0.2l-0.2,0.1c0,0,0-0.1,0-0.1c0.4-2.4-0.1-4.8-1.5-6.8
		c-1.4-2-3.5-3.3-5.8-3.7c-0.3-0.1-0.7,0.2-0.7,0.5c-0.1,0.3,0.2,0.7,0.5,0.7c2.1,0.4,3.8,1.5,5,3.2c1.2,1.7,1.7,3.8,1.3,5.8
		l-0.1-0.2c-0.2-0.3-0.5-0.4-0.8-0.2c-0.3,0.2-0.4,0.5-0.2,0.8l0.8,1.5c0.1,0.1,0.2,0.2,0.4,0.3c0.1,0,0.1,0,0.2,0
		c0.1,0,0.2,0,0.3-0.1l1.5-0.8C74,71.1,74.1,70.7,73.9,70.5z"/>
</g>
</svg>
