<?xml version="1.0" encoding="utf-8"?>
<!-- Generator: Adobe Illustrator 24.0.2, SVG Export Plug-In . SVG Version: 6.00 Build 0)  -->
<svg version="1.1" id="Capa_1" xmlns="http://www.w3.org/2000/svg" xmlns:xlink="http://www.w3.org/1999/xlink" x="0px" y="0px"
	 viewBox="0 0 85.4 85.4" style="enable-background:new 0 0 85.4 85.4;" xml:space="preserve">
<style type="text/css">
	.st0{fill:none;}
	.st1{fill:#1E407F;stroke:#1E407F;stroke-miterlimit:10;}
	.st2{fill:#1E407F;}
</style>
<circle id="Ciculo" class="st0" cx="42.7" cy="42.7" r="40.3"/>
<path class="st1" d="M19.6,65.3c0.1-0.1-4.7-4.1-5.6-10.7c-0.5-4,0.7-7.1,1.8-9.9c0.6-1.7,3.6-8.8,10.2-13.2c2.8-1.9,6-3.1,7-3.4
	c0.9-0.3,2.3-0.7,3.6-1.1c0,0,0,0,0,0c0.4-0.1,0.8-0.2,0.9-0.2c0.2,0,0.8-0.2,1.5-0.1c0.3,0,0.5,0.1,0.6,0.2c0.1,0.1,0.3,0.3,0.4,1
	c0.1,0.4,0.1,0.6,0.1,0.9c0,1.7-0.4,9.7,0.5,15c0.3,1.5,0.8,4.4,2.9,7.5c0.8,1.3,2.3,3.5,5.1,5.1c3.6,2.1,8.4,2.6,12.6,0.8
	c5.2-2.3,7.2-7.2,8.1-9.5c4-9.9-1-19.8-2.3-22.2c-1.2-2.3-6-11.1-16.8-15.3c-9.1-3.6-17.1-1.7-19.8-1.1c-5.3,1.3-8.9,3.6-10.1,4.4
	c-6.5,4.3-9.8,10.1-11.1,12.9c-1.7,3.6-4.7,11.6-2.3,21.2C10.1,59.3,19.4,65.4,19.6,65.3z"/>
<g>
	<path class="st2" d="M71.1,58.3c-0.2-0.2-0.5-0.2-0.8-0.2c-0.3,0-0.6,0.2-0.9,0.5l-1,1l0,0c-0.2,0.3-0.3,0.6-0.2,0.9l-2.2,2.8
		L65.6,63c0.2-1.2-0.1-2.8-1.2-3.7c-0.8-0.7-1.8-0.9-2.8-0.8c-0.4,0-0.8,0.2-1.1,0.3c-0.2,0.1-0.3,0.2-0.3,0.4c0,0.2,0,0.4,0.2,0.5
		l1.6,1.5l0.1,1l-1.1,0.3L59,61.3c-0.2-0.1-0.3-0.1-0.5,0s-0.3,0.2-0.3,0.4c-0.3,1.3,0.3,2.6,1.5,3.6c0.7,0.5,1.6,0.7,2.6,0.6
		c0.1,0,0.2,0,0.2,0c0,0-0.1,0.1-0.1,0.1l-2.7,3.5c-0.8,1-0.6,2.4,0.4,3.1l0.6,0.5c0.5,0.4,1,0.5,1.6,0.5c0.6-0.1,1.1-0.4,1.5-0.8
		l2.7-3.5c0.2-0.2,0.3-0.4,0.3-0.6l3.1,2.8c0,0,0,0,0,0c0.3,0.3,0.8,0.4,1.4,0.3c0.7-0.1,1.3-0.4,1.6-0.9c0.6-0.8,0.7-2.4-0.2-3
		c0,0,0,0,0,0l-4.4-3l2-2.7c0.1,0,0.1,0,0.2,0c0.3,0,0.5-0.2,0.7-0.4l0.8-1.2c0.2-0.2,0.3-0.5,0.3-0.8c0-0.3-0.2-0.7-0.4-0.8
		L71.1,58.3z M65.7,68.5L63,71.9c-0.2,0.2-0.4,0.4-0.7,0.4c-0.3,0-0.6,0-0.8-0.2l-0.6-0.5c-0.5-0.4-0.6-1.1-0.2-1.6l2.7-3.5
		c0.2-0.2,0.4-0.4,0.7-0.4c0.1,0,0.2,0,0.3,0l1.6,1.4C65.9,67.9,65.9,68.2,65.7,68.5z M72.1,70.1c-0.2,0.2-0.5,0.4-0.9,0.5
		c-0.2,0-0.4,0-0.5-0.1l-6.7-6c-0.2-0.2-0.4-0.2-0.6-0.1c-0.4,0.2-0.8,0.3-1.3,0.4c-0.7,0.1-1.4,0-1.8-0.4c-0.4-0.3-1-0.9-1.1-1.6
		l1.1,0.7c0.1,0.1,0.3,0.1,0.4,0.1l1.8-0.4c0.3-0.1,0.4-0.3,0.4-0.6L63,60.9c0-0.1-0.1-0.3-0.2-0.4l-1-0.9c0.7-0.1,1.4,0.2,2,0.6
		c0.8,0.6,1,2,0.8,3c0,0.2,0,0.4,0.2,0.6l7.5,5C72.4,68.9,72.5,69.7,72.1,70.1z M71.1,59.9L70.4,61c0,0,0,0,0,0L70,60.8l-2.5,3.3
		L67,63.9l2.6-3.3l-0.3-0.3c0,0,0,0,0,0l0.9-1l0,0c0-0.1,0.1-0.1,0.1-0.1l0.8,0.6C71.2,59.8,71.2,59.8,71.1,59.9z"/>
</g>
</svg>
