<?xml version="1.0" encoding="utf-8"?>
<!-- Generator: Adobe Illustrator 24.0.2, SVG Export Plug-In . SVG Version: 6.00 Build 0)  -->
<svg version="1.1" id="Capa_1" xmlns="http://www.w3.org/2000/svg" xmlns:xlink="http://www.w3.org/1999/xlink" x="0px" y="0px"
	 viewBox="0 0 85.4 85.4" style="enable-background:new 0 0 85.4 85.4;" xml:space="preserve">
<style type="text/css">
	.st0{fill:none;}
	.st1{fill:#1D4F94;stroke:#1D4F94;stroke-width:1.5;stroke-miterlimit:10;}
</style>
<circle id="Ciculo" class="st0" cx="42.7" cy="42.7" r="40.3"/>
<g>
	<path class="st1" d="M27.2,33.3c0.5-0.5,0.7-1.2,0.4-1.8c-0.2-0.6-0.8-1.1-1.4-1.2l-5.9-0.9c-0.3,0-0.5-0.2-0.6-0.4l-2.7-5.4
		c-0.3-0.6-0.9-1-1.6-1c-0.7,0-1.3,0.4-1.6,1L11.3,29c-0.1,0.2-0.3,0.4-0.6,0.4l-5.9,0.9c-0.7,0.1-1.2,0.6-1.4,1.2
		c-0.2,0.6,0,1.3,0.4,1.8l4.3,4.2c0.2,0.2,0.3,0.4,0.2,0.7l-1,5.9c-0.1,0.7,0.2,1.3,0.7,1.7c0.5,0.4,1.3,0.4,1.8,0.1l5.3-2.8
		c0.2-0.1,0.5-0.1,0.7,0l5.3,2.8c0.3,0.1,0.5,0.2,0.8,0.2c0.4,0,0.7-0.1,1-0.3c0.5-0.4,0.8-1.1,0.7-1.7l-1-5.9c0-0.3,0-0.5,0.2-0.7
		L27.2,33.3z M21.7,38.3l1,5.9c0.1,0.3-0.1,0.6-0.3,0.8c-0.2,0.2-0.5,0.2-0.8,0.1l-5.3-2.8c-0.3-0.1-0.5-0.2-0.8-0.2
		c-0.3,0-0.6,0.1-0.8,0.2L9.4,45c-0.3,0.1-0.6,0.1-0.8-0.1c-0.2-0.2-0.4-0.5-0.3-0.8l1-5.9c0.1-0.6-0.1-1.2-0.5-1.6l-4.3-4.2
		c-0.2-0.2-0.3-0.5-0.2-0.8c0.1-0.3,0.3-0.5,0.6-0.5l5.9-0.9c0.6-0.1,1.1-0.4,1.3-1l2.7-5.4c0.1-0.3,0.4-0.4,0.7-0.4
		c0.3,0,0.6,0.2,0.7,0.4l2.7,5.4c0.3,0.5,0.7,0.9,1.3,1l5.9,0.9c0.3,0,0.5,0.2,0.6,0.5c0.1,0.3,0,0.6-0.2,0.8l-4.3,4.2
		C21.8,37.2,21.6,37.7,21.7,38.3z"/>
</g>
<g>
	<path class="st1" d="M54.2,33.3c0.5-0.5,0.7-1.2,0.4-1.8c-0.2-0.6-0.8-1.1-1.4-1.2l-5.9-0.9c-0.3,0-0.5-0.2-0.6-0.4l-2.7-5.4
		c-0.3-0.6-0.9-1-1.6-1c-0.7,0-1.3,0.4-1.6,1L38.3,29c-0.1,0.2-0.3,0.4-0.6,0.4l-5.9,0.9c-0.7,0.1-1.2,0.6-1.4,1.2
		c-0.2,0.6,0,1.3,0.4,1.8l4.3,4.2c0.2,0.2,0.3,0.4,0.2,0.7l-1,5.9c-0.1,0.7,0.2,1.3,0.7,1.7c0.5,0.4,1.3,0.4,1.8,0.1l5.3-2.8
		c0.2-0.1,0.5-0.1,0.7,0l5.3,2.8c0.3,0.1,0.5,0.2,0.8,0.2c0.4,0,0.7-0.1,1-0.3c0.5-0.4,0.8-1.1,0.7-1.7l-1-5.9c0-0.3,0-0.5,0.2-0.7
		L54.2,33.3z M48.7,38.3l1,5.9c0.1,0.3-0.1,0.6-0.3,0.8c-0.2,0.2-0.5,0.2-0.8,0.1l-5.3-2.8c-0.3-0.1-0.5-0.2-0.8-0.2
		c-0.3,0-0.6,0.1-0.8,0.2L36.4,45c-0.3,0.1-0.6,0.1-0.8-0.1c-0.2-0.2-0.4-0.5-0.3-0.8l1-5.9c0.1-0.6-0.1-1.2-0.5-1.6l-4.3-4.2
		c-0.2-0.2-0.3-0.5-0.2-0.8c0.1-0.3,0.3-0.5,0.6-0.5l5.9-0.9c0.6-0.1,1.1-0.4,1.3-1l2.7-5.4c0.1-0.3,0.4-0.4,0.7-0.4
		c0.3,0,0.6,0.2,0.7,0.4l2.7,5.4c0.3,0.5,0.7,0.9,1.3,1l5.9,0.9c0.3,0,0.5,0.2,0.6,0.5c0.1,0.3,0,0.6-0.2,0.8l-4.3,4.2
		C48.8,37.2,48.6,37.7,48.7,38.3z"/>
</g>
<g>
	<path class="st1" d="M68.1,55.4c0.5-0.5,0.7-1.2,0.4-1.8c-0.2-0.6-0.8-1.1-1.4-1.2l-5.9-0.9c-0.3,0-0.5-0.2-0.6-0.4L58,45.7
		c-0.3-0.6-0.9-1-1.6-1c-0.7,0-1.3,0.4-1.6,1l-2.7,5.4c-0.1,0.2-0.3,0.4-0.6,0.4l-5.9,0.9c-0.7,0.1-1.2,0.6-1.4,1.2
		c-0.2,0.6,0,1.3,0.4,1.8l4.3,4.2c0.2,0.2,0.3,0.4,0.2,0.7l-1,5.9c-0.1,0.7,0.2,1.3,0.7,1.7c0.5,0.4,1.3,0.4,1.8,0.1l5.3-2.8
		c0.2-0.1,0.5-0.1,0.7,0l5.3,2.8c0.3,0.1,0.5,0.2,0.8,0.2c0.4,0,0.7-0.1,1-0.3c0.5-0.4,0.8-1.1,0.7-1.7l-1-5.9c0-0.3,0-0.5,0.2-0.7
		L68.1,55.4z M62.7,60.4l1,5.9c0.1,0.3-0.1,0.6-0.3,0.8c-0.2,0.2-0.5,0.2-0.8,0.1l-5.3-2.8c-0.3-0.1-0.5-0.2-0.8-0.2
		s-0.6,0.1-0.8,0.2l-5.3,2.8c-0.3,0.1-0.6,0.1-0.8-0.1c-0.2-0.2-0.4-0.5-0.3-0.8l1-5.9c0.1-0.6-0.1-1.2-0.5-1.6l-4.3-4.2
		c-0.2-0.2-0.3-0.5-0.2-0.8c0.1-0.3,0.3-0.5,0.6-0.5l5.9-0.9c0.6-0.1,1.1-0.4,1.3-1l2.7-5.4c0.1-0.3,0.4-0.4,0.7-0.4
		c0.3,0,0.6,0.2,0.7,0.4l2.7,5.4c0.3,0.5,0.7,0.9,1.3,1l5.9,0.9c0.3,0,0.5,0.2,0.6,0.5c0.1,0.3,0,0.6-0.2,0.8l-4.3,4.2
		C62.7,59.3,62.6,59.8,62.7,60.4z"/>
</g>
<g>
	<path class="st1" d="M40.5,55.3c0.5-0.5,0.7-1.2,0.4-1.8c-0.2-0.6-0.8-1.1-1.4-1.2l-5.9-0.9c-0.3,0-0.5-0.2-0.6-0.4l-2.7-5.4
		c-0.3-0.6-0.9-1-1.6-1c-0.7,0-1.3,0.4-1.6,1L24.5,51c-0.1,0.2-0.3,0.4-0.6,0.4L18,52.3c-0.7,0.1-1.2,0.6-1.4,1.2
		c-0.2,0.6,0,1.3,0.4,1.8l4.3,4.2c0.2,0.2,0.3,0.4,0.2,0.7l-1,5.9c-0.1,0.7,0.2,1.3,0.7,1.7c0.5,0.4,1.3,0.4,1.8,0.1l5.3-2.8
		c0.2-0.1,0.5-0.1,0.7,0l5.3,2.8c0.3,0.1,0.5,0.2,0.8,0.2c0.4,0,0.7-0.1,1-0.3c0.5-0.4,0.8-1.1,0.7-1.7l-1-5.9c0-0.3,0-0.5,0.2-0.7
		L40.5,55.3z M35,60.3l1,5.9c0.1,0.3-0.1,0.6-0.3,0.8c-0.2,0.2-0.5,0.2-0.8,0.1l-5.3-2.8c-0.3-0.1-0.5-0.2-0.8-0.2s-0.6,0.1-0.8,0.2
		l-5.3,2.8c-0.3,0.1-0.6,0.1-0.8-0.1c-0.2-0.2-0.4-0.5-0.3-0.8l1-5.9c0.1-0.6-0.1-1.2-0.5-1.6l-4.3-4.2c-0.2-0.2-0.3-0.5-0.2-0.8
		c0.1-0.3,0.3-0.5,0.6-0.5l5.9-0.9c0.6-0.1,1.1-0.4,1.3-1l2.7-5.4c0.1-0.3,0.4-0.4,0.7-0.4c0.3,0,0.6,0.2,0.7,0.4l2.7,5.4
		c0.3,0.5,0.7,0.9,1.3,1l5.9,0.9c0.3,0,0.5,0.2,0.6,0.5c0.1,0.3,0,0.6-0.2,0.8l-4.3,4.2C35.1,59.2,34.9,59.8,35,60.3z"/>
</g>
<g>
	<path class="st1" d="M81.5,33.3c0.5-0.5,0.7-1.2,0.4-1.8c-0.2-0.6-0.8-1.1-1.4-1.2l-5.9-0.9c-0.3,0-0.5-0.2-0.6-0.4l-2.7-5.4
		c-0.3-0.6-0.9-1-1.6-1c-0.7,0-1.3,0.4-1.6,1L65.5,29c-0.1,0.2-0.3,0.4-0.6,0.4L59,30.3c-0.7,0.1-1.2,0.6-1.4,1.2
		c-0.2,0.6,0,1.3,0.4,1.8l4.3,4.2c0.2,0.2,0.3,0.4,0.2,0.7l-1,5.9c-0.1,0.7,0.2,1.3,0.7,1.7c0.5,0.4,1.3,0.4,1.8,0.1l5.3-2.8
		c0.2-0.1,0.5-0.1,0.7,0l5.3,2.8c0.3,0.1,0.5,0.2,0.8,0.2c0.4,0,0.7-0.1,1-0.3c0.5-0.4,0.8-1.1,0.7-1.7l-1-5.9c0-0.3,0-0.5,0.2-0.7
		L81.5,33.3z M76,38.3l1,5.9c0.1,0.3-0.1,0.6-0.3,0.8c-0.2,0.2-0.5,0.2-0.8,0.1l-5.3-2.8C70.3,42.1,70,42,69.8,42s-0.6,0.1-0.8,0.2
		L63.6,45c-0.3,0.1-0.6,0.1-0.8-0.1c-0.2-0.2-0.4-0.5-0.3-0.8l1-5.9c0.1-0.6-0.1-1.2-0.5-1.6l-4.3-4.2c-0.2-0.2-0.3-0.5-0.2-0.8
		c0.1-0.3,0.3-0.5,0.6-0.5l5.9-0.9c0.6-0.1,1.1-0.4,1.3-1l2.7-5.4c0.1-0.3,0.4-0.4,0.7-0.4c0.3,0,0.6,0.2,0.7,0.4l2.7,5.4
		c0.3,0.5,0.7,0.9,1.3,1l5.9,0.9c0.3,0,0.5,0.2,0.6,0.5c0.1,0.3,0,0.6-0.2,0.8l-4.3,4.2C76.1,37.2,75.9,37.7,76,38.3z"/>
</g>
</svg>
