<?xml version="1.0" encoding="utf-8"?>
<!-- Generator: Adobe Illustrator 24.0.2, SVG Export Plug-In . SVG Version: 6.00 Build 0)  -->
<svg version="1.1" id="Capa_1" xmlns="http://www.w3.org/2000/svg" xmlns:xlink="http://www.w3.org/1999/xlink" x="0px" y="0px"
	 viewBox="0 0 85.4 85.4" style="enable-background:new 0 0 85.4 85.4;" xml:space="preserve">
<style type="text/css">
	.st0{fill:none;}
	.st1{fill:#1E407F;}
</style>
<circle id="Ciculo" class="st0" cx="42.7" cy="42.7" r="40.3"/>
<g>
	<path class="st1" d="M53.4,49.5H48V48c3-1.7,4.9-4.7,5.3-8.2h0.1c2.4,0,4.3-1.9,4.3-4.3c0-2.4-1.9-4.3-4.3-4.3v-1.3
		c1.7-0.6,2.5-2.4,2-4c-0.3-0.9-1-1.6-2-2v-1.5c0-1.4,0.5-2.8,1.4-3.9c2.4-2.5,2.4-6.6-0.2-9c-0.9-0.8-1.9-1.4-3.1-1.6
		c-1.5-0.3-3-0.1-4.4,0.6c-2.5-2.4-6.4-2.4-8.9,0c-1.3-0.7-2.9-0.9-4.4-0.6c-3.4,0.7-5.6,4.1-4.9,7.6c0.2,1.2,0.8,2.2,1.6,3.1
		c1,1.1,1.5,2.4,1.4,3.9v1.5c-1.7,0.6-2.5,2.4-2,4c0.3,0.9,1,1.6,2,2v1.3c-2.4,0-4.3,1.9-4.3,4.3c0,2.4,1.9,4.3,4.3,4.3h0.1
		c0.3,3.4,2.3,6.4,5.3,8.2v1.4H32c-7.6,0-13.8,6.2-13.9,13.9v8.5c0,0.6,0.5,1.1,1.1,1.1h46.9c0.6,0,1.1-0.5,1.1-1.1v-8.5
		C67.2,55.7,61,49.5,53.4,49.5z M55.5,35.6c0,1.2-1,2.1-2.1,2.1v-4.3C54.5,33.5,55.5,34.4,55.5,35.6z M31,13.6
		c0.3-1.7,1.6-3.1,3.3-3.5c1.2-0.3,2.5,0,3.5,0.8c0.2,0.2,0.5,0.2,0.8,0.2c0.3,0,0.5-0.2,0.7-0.4c1.4-1.9,4-2.3,5.9-0.9
		c0.3,0.3,0.7,0.6,0.9,0.9c0.4,0.5,1,0.6,1.5,0.2c0,0,0,0,0,0c1-0.8,2.3-1,3.5-0.8c1.7,0.4,3,1.8,3.3,3.5c0.2,1.3-0.2,2.7-1.1,3.6
		c-1.3,1.5-2.1,3.4-2,5.3v1.3H34.2v-1.3c0-2-0.7-3.9-2-5.3C31.2,16.3,30.8,14.9,31,13.6z M33.1,26h19.2c0.6,0,1.1,0.5,1.1,1.1
		s-0.5,1.1-1.1,1.1H33.1c-0.6,0-1.1-0.5-1.1-1.1S32.5,26,33.1,26z M29.9,35.6c0-1.2,1-2.1,2.1-2.1v4.3
		C30.9,37.7,29.9,36.8,29.9,35.6z M34.2,38.8v-8.5h17.1v8.5c0,4.7-3.8,8.5-8.5,8.5S34.2,43.5,34.2,38.8z M42.7,49.5
		c1.1,0,2.2-0.2,3.2-0.5v1.6c0,1.8-1.4,3.2-3.2,3.2s-3.2-1.4-3.2-3.2V49C40.5,49.3,41.6,49.5,42.7,49.5z M20.3,63.3
		c0-6.5,5.3-11.7,11.7-11.7h5.4c0.5,2.3,2.4,4,4.8,4.2l2.3,1.7c0.8,0.6,1.3,1.6,1.3,2.6v10.7H20.3V63.3z M65.1,70.8H48V60.1
		c0-1.7-0.8-3.3-2.1-4.3l-0.8-0.6c1.4-0.7,2.5-2.1,2.8-3.7h5.4c6.5,0,11.7,5.3,11.7,11.7V70.8z"/>
	<circle class="st1" cx="41.6" cy="60.1" r="2.1"/>
	<circle class="st1" cx="41.6" cy="66.5" r="2.1"/>
</g>
</svg>
