<?xml version="1.0" encoding="utf-8"?>
<!-- Generator: Adobe Illustrator 24.0.2, SVG Export Plug-In . SVG Version: 6.00 Build 0)  -->
<svg version="1.1" id="Capa_1" xmlns="http://www.w3.org/2000/svg" xmlns:xlink="http://www.w3.org/1999/xlink" x="0px" y="0px"
	 viewBox="0 0 85.4 85.4" style="enable-background:new 0 0 85.4 85.4;" xml:space="preserve">
<style type="text/css">
	.st0{fill:#1E407F;stroke:#183F7F;stroke-miterlimit:10;}
	.st1{fill:#FFFFFF;}
</style>
<circle id="Ciculo" class="st0" cx="42.7" cy="42.7" r="40.3"/>
<g>
	<path class="st1" d="M67.6,60.8c0,0.1,0.1,0.1,0.1,0.2c0.4,0.2,0.8,0.6,0.8,1c2-0.4,4.1-0.9,6.1-1.3l-2.8-12.8l-1.4,0.3l2.5,11.4
		L67.6,60.8z"/>
	<path class="st1" d="M64.7,11.4c1,4.4,1.9,8.7,2.9,13.1l-1.3,0.3l-2.5-11.5L53,15.6L52.7,14"/>
	<ellipse transform="matrix(0.9789 -0.2043 0.2043 0.9789 -6.0752 5.0961)" class="st1" cx="21.6" cy="32" rx="1.3" ry="1.3"/>
	<ellipse transform="matrix(0.9789 -0.2043 0.2043 0.9789 -5.8664 5.751)" class="st1" cx="24.9" cy="31.3" rx="1.3" ry="1.3"/>
	<ellipse transform="matrix(0.9789 -0.2043 0.2043 0.9789 -5.6576 6.406)" class="st1" cx="28.2" cy="30.6" rx="1.3" ry="1.3"/>
	<path class="st1" d="M42.9,39.1c-0.5-0.1-0.9,0.2-1,0.6c-0.2,1-0.6,2.1-0.9,2.5c-0.1-0.1-0.1-0.3-0.2-0.6c-0.4-1.1-0.9-1.6-1.6-1.6
		c-0.3,0-0.9,0.1-1.6,1.8c-0.1-0.3-0.4-0.4-0.6-0.5c-0.4-0.1-0.8,0.2-0.9,0.6c-1,3.6-2.7,6.8-3.5,6.8c0,0-0.7,0-1.4-2.8
		c0-0.1-0.1-0.2-0.1-0.3c1.7-1.1,3.7-2.9,4.1-5.6c0.2-1.4-0.2-2.5-1.1-3.2c-0.9-0.6-2.2-0.5-3.2,0.3c-0.7,0.5-2.6,2.6-1.8,7.5
		c-0.7,0.3-1.2,0.5-1.2,0.5c-0.4,0.1-0.7,0.6-0.5,1.1c0.2,0.5,0.6,0.7,1.1,0.6c0.1,0,0.5-0.2,1-0.4c0.5,1.7,1.3,4,2.9,4.1
		c0,0,0.1,0,0.1,0c1.5,0,2.8-2,3.7-4.1l0,0.8c0,0.5,0.4,0.8,0.8,0.9l0,0c0.4,0,0.8-0.3,0.9-0.7c0.3-2.1,0.9-4.2,1.3-5.2
		c0.2,0.5,0.7,2,1.9,1.9c1.3,0,2.1-2.2,2.5-4.1C43.6,39.7,43.4,39.2,42.9,39.1L42.9,39.1z M31.8,38.6c0.4-0.3,0.7-0.4,1-0.4
		c0.1,0,0.3,0.1,0.3,0.1c0.3,0.2,0.4,0.7,0.3,1.3c-0.3,1.8-1.6,3.2-2.8,4.1C30.2,40.9,30.9,39.3,31.8,38.6z"/>
	<path class="st1" d="M12.3,35.3"/>
	<path class="st1" d="M10.2,23c4.1-0.9,8.2-1.7,12.3-2.6l0.3,1.4L12,24.1l2.4,11.4l-1.4,0.3"/>
	<path class="st1" d="M20.8,71.3c-0.9-4.4-1.7-8.8-2.6-13.1l1.3-0.3l2.3,11.6l10.7-2.1l0.3,1.5"/>
	<path class="st1" d="M58.9,20.1l-39.3,8.2c-1.4,0.3-2.2,1.7-1.9,3.1l6.7,32.2c0.3,1.4,1.6,2.4,3,2.1l29.1-6.1l9.4,6.6
		c0.7,0.5,1.4,0.6,2.2,0.5c0.8-0.2,1.4-0.6,1.8-1.3c0.4-0.7,0.6-1.5,0.4-2.3c-0.2-0.8-0.6-1.5-1.3-2l0,0L64.6,58l2.1-0.4
		c1.4-0.3,2.2-1.7,1.9-3.1l-6.7-32.2C61.6,20.8,60.3,19.8,58.9,20.1L58.9,20.1z M68.8,63.4c0.1,0.3,0,0.7-0.2,1
		c-0.4,0.6-1.2,0.8-1.7,0.4L50.5,53.3l1.4-2.2l16.4,11.5l0,0C68.5,62.8,68.7,63.1,68.8,63.4L68.8,63.4z M49.2,52.1L46.6,49l3.7,1.3
		L49.2,52.1z M66.4,55.8l-3.7,0.8L52,49.1c-0.1,0-0.1-0.1-0.2-0.1l-7.7-2.7c-0.4-0.1-0.8,0-1,0.3c-0.2,0.3-0.2,0.8,0.1,1.1l5.5,6.4
		c0,0.1,0.1,0.1,0.2,0.2l5.7,4L27,64c-0.5,0.1-0.9-0.2-1-0.7l-6.7-32.2c-0.1-0.5,0.2-0.9,0.6-1l39.3-8.2c0.5-0.1,0.9,0.2,1,0.7
		l0.4,1.7l-23.8,5c-0.5,0.1-0.7,0.6-0.6,1s0.5,0.8,1,0.7L61,26l6,28.7C67.1,55.2,66.8,55.7,66.4,55.8L66.4,55.8z"/>
</g>
</svg>
