<?xml version="1.0" encoding="utf-8"?>
<!-- Generator: Adobe Illustrator 24.0.2, SVG Export Plug-In . SVG Version: 6.00 Build 0)  -->
<svg version="1.1" id="Capa_1" xmlns="http://www.w3.org/2000/svg" xmlns:xlink="http://www.w3.org/1999/xlink" x="0px" y="0px"
	 viewBox="0 0 85.4 85.4" style="enable-background:new 0 0 85.4 85.4;" xml:space="preserve">
<style type="text/css">
	.st0{fill:#00A7B5;stroke:#00A7B5;stroke-miterlimit:10;}
	.st1{fill:#FFFFFF;}
</style>
<circle id="Ciculo" class="st0" cx="42.7" cy="42.7" r="40.3"/>
<g id="outline">
	<path class="st1" d="M53.6,21.8c0.6,0,1-0.4,1-0.9c0-0.5-0.5-0.9-1-0.9c-2.3,0-4.1-1.7-4.1-3.7c0-0.5-0.5-0.9-1-0.9
		c-0.6,0-1,0.4-1,0.9c0,2-1.8,3.7-4.1,3.7c-0.6,0-1,0.4-1,0.9c0,0.5,0.5,0.9,1,0.9c2.3,0,4.1,1.7,4.1,3.7c0,0.5,0.5,0.9,1,0.9
		c0.6,0,1-0.4,1-0.9C49.5,23.5,51.3,21.8,53.6,21.8z M48.5,22.4c-0.5-0.6-1.1-1.2-1.7-1.6c0.7-0.4,1.3-0.9,1.7-1.6
		c0.5,0.6,1.1,1.2,1.7,1.6C49.5,21.3,48.9,21.8,48.5,22.4z"/>
	<path class="st1" d="M50.5,36.6c2.3,0,4.1,1.7,4.1,3.7c0,0.5,0.5,0.9,1,0.9c0.6,0,1-0.4,1-0.9c0-2,1.8-3.7,4.1-3.7
		c0.6,0,1-0.4,1-0.9c0-0.5-0.5-0.9-1-0.9c-2.3,0-4.1-1.7-4.1-3.7c0-0.5-0.5-0.9-1-0.9c-0.6,0-1,0.4-1,0.9c0,2-1.8,3.7-4.1,3.7
		c-0.6,0-1,0.4-1,0.9C49.5,36.2,50,36.6,50.5,36.6z M55.7,34.1c0.5,0.6,1.1,1.2,1.7,1.6c-0.7,0.4-1.3,0.9-1.7,1.6
		c-0.5-0.6-1.1-1.2-1.7-1.6C54.6,35.3,55.2,34.7,55.7,34.1z"/>
	<path class="st1" d="M72,40.3l-24.3,4.5l-9.5-6.8l3-21.7c0.1-0.5-0.3-1-0.9-1c0,0-0.1,0-0.1,0c-2,0.1-3.9,0.8-5.3,2.1
		c-1,1-2.5,1.6-4,1.6c-1.3,0-2.6-0.6-3.4-1.6c-2.1-2.4-6-2.8-8.7-1c-0.4,0.3-0.8,0.6-1.1,1c-0.8,1-2,1.6-3.4,1.6c0,0-0.2,0-0.2,0
		c-0.4,0-0.7,0.1-0.9,0.4c-0.2,0.3-0.2,0.6-0.1,0.9l6.9,13.8c-2.1,0.7-3.2,2.8-2.4,4.7c0.2,0.5,0.5,0.9,0.9,1.3
		c0.1,0.1,0.2,0.2,0.3,0.2c-1.7,1.4-1.9,3.7-0.4,5.2c0.4,0.4,0.8,0.7,1.3,0.9c-0.2,0.4-0.3,0.8-0.3,1.3c0,1.5,1.4,2.8,3.1,2.8h1.1
		c0.1,1.3,0.8,2.6,2,3.3c0.3,4.6-1.4,9.2-4.7,12.8c-0.4,0.4-0.3,1,0.1,1.3c0.3,0.3,0.6,0.5,0.9,0.8c1.1,1.4,2.9,2.2,4.7,2.2
		c2-0.1,3.9-0.8,5.3-2.1c1-1,2.5-1.6,4-1.6c1.3,0,2.6,0.6,3.4,1.6c1.2,1.3,3,2.1,4.9,2.1c1.3,0,2.6-0.4,3.7-1.1
		c0.3-0.2,0.4-0.5,0.4-0.8c-0.3-3.7-1.8-7.3-4.3-10.3l27.8,6.6c0.3,0.1,0.6,0,0.9-0.2c0.3-0.2,0.4-0.4,0.4-0.7V41.2
		c0-0.5-0.5-0.9-1-0.9C72.1,40.3,72.1,40.3,72,40.3z M15.7,20.8c1.4-0.3,2.6-1,3.5-2c1.3-1.7,3.9-2.1,5.8-0.9c0.4,0.2,0.7,0.5,1,0.9
		c1.2,1.3,3,2.1,4.9,2.1c2-0.1,3.9-0.8,5.3-2.1c0.8-0.7,1.8-1.2,2.8-1.5l-2.8,19.9l-4.4-1.4c-0.3-2.7,0-5.5,1.1-8.1
		c0.5-1.2,1.2-2.4,2-3.5l-1.7-1c-0.9,1.2-1.6,2.5-2.2,3.9c-1,2.6-1.5,5.3-1.3,8l-3-1l-2-10.6l-2,0.3l1.9,10h-2.2L15.7,20.8z
		 M46.3,68.6c-0.6,0.3-1.3,0.5-2,0.4c-1.3,0-2.6-0.6-3.4-1.6c-1.2-1.3-3-2.1-4.9-2.1c-2,0.1-3.9,0.8-5.3,2.1c-1,1-2.5,1.6-4,1.6
		c-1.3,0-2.5-0.6-3.2-1.5c-0.1-0.1-0.2-0.3-0.4-0.4c3-3.5,4.7-7.8,4.7-12.2l2,1l-1,6.5l2,0.3l0.9-5.7l1.5,0.8l5,5.4l1.6-1.2l-3.7-4
		h4.6C43.9,60.8,45.8,64.6,46.3,68.6z M71.2,63.2l-29.7-7.1c-0.1,0-0.2,0-0.3,0h-6.9l-7-3.6c-0.9-0.4-1.4-1.1-1.5-2h3v-1.9h-6.2
		c-0.6,0-1-0.4-1-0.9c0-0.3,0.1-0.7,0.4-0.9h4.8v-1.9h-5.2c-1.1,0-2.1-0.8-2.1-1.9c0-1,0.9-1.9,2.1-1.9h4.1v-1.9h-4.1
		c-1.1,0-2.1-0.8-2.1-1.8c0,0,0-0.1,0-0.1c0.1-1,1.1-1.8,2.2-1.8h3.8l11,3.6l10.2,7.3c0.1,0.1,0.3,0.2,0.5,0.2l23.9,3.6L71.2,63.2
		L71.2,63.2z M71.2,48.5L53,45.8l18.1-3.4V48.5L71.2,48.5z"/>
</g>
</svg>
