<?xml version="1.0" encoding="utf-8"?>
<!-- Generator: Adobe Illustrator 24.0.2, SVG Export Plug-In . SVG Version: 6.00 Build 0)  -->
<svg version="1.1" id="Capa_1" xmlns="http://www.w3.org/2000/svg" xmlns:xlink="http://www.w3.org/1999/xlink" x="0px" y="0px"
	 viewBox="0 0 85.4 85.4" style="enable-background:new 0 0 85.4 85.4;" xml:space="preserve">
<style type="text/css">
	.st0{fill:#1E407F;stroke:#183F7F;stroke-miterlimit:10;}
	.st1{fill:#FFFFFF;}
</style>
<circle id="Ciculo" class="st0" cx="42.7" cy="42.7" r="40.3"/>
<g>
	<g>
		<path class="st1" d="M62.3,26.2h-8l-1-5.2c-0.3-1.3-1.4-2.2-2.7-2.2H34.9c-1.3,0-2.5,0.9-2.7,2.2l-1,5.2h-8
			c-2.3,0-4.2,1.9-4.2,4.2v24.1c0,2.3,1.9,4.2,4.2,4.2h39.1c2.3,0,4.2-1.9,4.2-4.2V30.4C66.4,28.1,64.6,26.2,62.3,26.2z M34.9,21.6
			h15.5l0.9,4.6H34L34.9,21.6z M63.6,54.5c0,0.8-0.6,1.4-1.4,1.4H23.1c-0.8,0-1.4-0.6-1.4-1.4V30.4c0-0.8,0.6-1.4,1.4-1.4h39.1
			c0.8,0,1.4,0.6,1.4,1.4V54.5z"/>
		<path class="st1" d="M42.7,32.1c-5.7,0-10.3,4.6-10.3,10.3S37,52.7,42.7,52.7S53,48.1,53,42.4S48.4,32.1,42.7,32.1z M42.7,49.9
			c-4.1,0-7.5-3.4-7.5-7.5s3.4-7.5,7.5-7.5s7.5,3.4,7.5,7.5S46.8,49.9,42.7,49.9z"/>
		<path class="st1" d="M30.8,32.1h-4.4c-0.8,0-1.4,0.6-1.4,1.4s0.6,1.4,1.4,1.4h4.4c0.8,0,1.4-0.6,1.4-1.4S31.6,32.1,30.8,32.1z"/>
	</g>
</g>
</svg>
