<?xml version="1.0" encoding="utf-8"?>
<!-- Generator: Adobe Illustrator 24.0.2, SVG Export Plug-In . SVG Version: 6.00 Build 0)  -->
<svg version="1.1" id="Capa_1" xmlns:svgjs="http://svgjs.com/svgjs"
	 xmlns="http://www.w3.org/2000/svg" xmlns:xlink="http://www.w3.org/1999/xlink" x="0px" y="0px" viewBox="0 0 512 512"
	 style="enable-background:new 0 0 512 512;" xml:space="preserve">
<style type="text/css">
	.st0{fill:#063E7F;stroke:#063E7F;stroke-width:5;stroke-miterlimit:10;}
</style>
<g>
	<g>
		<path class="st0" d="M409.3,84.1c4.6-0.2,9.2-2.1,12.7-5.6l33.2-33.2c8.6-8.6,8.6-22.5,0-31.1l-7.8-7.8c-8.7-8.7-22.7-8.4-31.1,0
			L383,39.6c-3.5,3.5-5.4,8.1-5.6,12.7L323,106.7c-4.3,4.3-6.6,9.9-6.6,15.9v73c-9.5,6.6-16,17.2-17,29.3
			c-12.9-16.5-32.9-27.2-55.5-27.2h-8.8v-15.3c0-3.2,1.6-6.2,4.3-8c7-4.7,16.7-12.6,23.1-23.9c3.8-6.8,3.8-14.9-0.1-21.6
			c-2.8-4.8-7.2-8.2-12.3-9.8V98.6c0-34.4-28-62.4-62.4-62.4h-22.6c-34.4,0-62.4,28-62.4,62.4v20.6c-5.1,1.6-9.5,5-12.3,9.8
			c-3.9,6.7-4,14.8-0.1,21.6c6.4,11.3,16.1,19.3,23.1,23.9c2.7,1.8,4.3,4.8,4.3,8v15.3H109c-38.8,0-70.3,31.5-70.3,70.3v81.8
			c0,4.1,3.4,7.5,7.5,7.5s7.5-3.4,7.5-7.5v-57.2h245.6v124.4H53.7v-37.2c0-13.2-0.1-22.8-0.1-24.2c0-0.3,0-1.2,0-2.4
			c0-0.7,0-1.1,0-1.4c0.1-2.7-0.4-3.6-0.3-6.1c0.1-1.5,0.3-2.1,0.2-2.2c-0.6-0.2-3.2,11.9-7.1,12.1c-3.3,0.2-6.6-8.4-7.5-7.9
			c-0.2,0.1-0.2,0.7-0.3,2c0,0.7,0,1.1,0,1.9c0.1,1,0,1.6,0,6.1c-0.1,8.2,0,20.5,0,21.4c0,0.1,0,0.6,0,0.7c0,20.6,0,41.2,0,61.9
			c0,38.8,31.5,70.3,70.3,70.3h135c33,0,60.7-22.8,68.3-53.5c18.6,16.9,47.8,12.5,60.7-8.9c58-10.8,100.4-61.7,100.4-120.9
			c0-25.8-7.9-50.5-22.9-71.4c-2.2-3.1-4.2-0.2-10.5-1.7c-13.8-3.4-21.6-12.4-22.1-11.8c-0.5,0.6,10.6,8.9,20.4,22.3
			c2.8,3.9,10,14.3,14.9,29.5c3.5,10.6,5.2,21.8,5.2,33.2c0,49.4-33.5,91.7-79.9,104.3c0.3-3.5,0.1-7.5,0.2-15.7
			c38.4-12.2,64.7-47.8,64.7-88.6s-26.3-76.3-64.7-88.6c-0.1-8.2,0.2-12.2-0.2-15.7c26.6,11.4,37.2,17.3,40.3,20.5
			c0.1,0.1,1,1,2.4,2.2c2.6,2.3,6,5.3,10.5,7.2c0.9,0.4,3,0.8,7.1,1.8c0.8,0.2,11.5,2.7,11.8,1.6c0.1-0.2-0.3-0.8-0.7-1.2
			c-0.1-0.2-0.2-0.2-0.6-0.7c-0.7-0.8-0.6-0.7-1-1.2c-0.3-0.3-0.7-0.7-1.2-1.3c-0.6-0.6-0.8-0.8-1.1-1.2c-0.6-0.7-0.9-1-1.8-2
			c-1.3-1.5-1.1-1.2-2.1-2.3c-0.8-1-0.9-1.1-2.7-3.2c-0.6-0.7-1-1.2-1.5-1.8c-1.4-1.7-2.1-2.5-2.3-2.8c-1.1-1.3-2-2-3.6-3.4
			c0,0-1.7-1.5-3.3-2.8c-2.7-2.1-24.8-12.9-55.8-26.2c-2.9-4.8-6.9-9-11.5-12.2v-63.7L409.3,84.1z M393.6,50.2L426.8,17
			c2.7-2.7,7.1-2.7,9.8,0l7.8,7.8c2.7,2.7,2.7,7.1,0,9.8l-33.2,33.2c-1.9,1.9-4.8,1.4-6.1,0c-1.1-1.1-6.1-6.1-5.8-5.8
			c-6.1-6.1-6.7-6.3-7-8.1C392.2,52.7,392.6,51.3,393.6,50.2z M314.3,228.3c0-9.7,5.6-18.3,14.2-22.3c12.5-5.9,27.4-0.3,33,12.4
			c3.2,7.2,1.8,5.6,2.1,96.9h-49.3C314.3,305.2,314.3,228.3,314.3,228.3z M371.1,367.7h-56.8v-37.4h56.8c10.3,0,18.7,8.4,18.7,18.7
			C389.8,359.3,381.4,367.7,371.1,367.7z M117.8,98.6c0-26.1,21.3-47.4,47.4-47.4h22.6c26.1,0,47.4,21.3,47.4,47.4v19.6h-22.9V98.6
			c0-13.5-11-24.5-24.5-24.5h-22.6c-13.5,0-24.5,11-24.5,24.5v19.6h-22.9L117.8,98.6L117.8,98.6z M155.7,118.2V98.6
			c0-5.2,4.2-9.5,9.5-9.5h22.6c5.2,0,9.5,4.2,9.5,9.5v19.6H155.7L155.7,118.2z M121.8,162c-5.6-3.8-13.4-10.1-18.3-18.9
			c-1.7-3-0.5-5.7,0-6.7c0.6-1,2.3-3.3,5.7-3.3h1.1h37.9h56.5h37.9h1.1c3.4,0,5.1,2.3,5.7,3.3c0.6,1,1.7,3.6,0,6.7
			c-4.9,8.7-12.7,15.1-18.3,18.9c-6.9,4.6-10.9,12.2-10.9,20.4v15.3h-87.5v-15.3C132.7,174.2,128.6,166.6,121.8,162L121.8,162z
			 M53.7,277.7V268c0-30.5,24.8-55.3,55.3-55.3h16.3h102.5H244c30.5,0,55.3,24.8,55.3,55.3v9.6H53.7V277.7z M244,497H109
			c-30.5,0-55.3-24.8-55.3-55.3v-9.6h245.6v9.6C299.3,472.2,274.5,497,244,497L244,497z M338.9,453.8c-13.6,0-24.7-11.1-24.7-24.7
			v-46.5h49.3c0.1,51.3,0.5,50.6-2.1,56.4C357.7,447.8,349,453.8,338.9,453.8L338.9,453.8z M428.3,328.7c0,32.5-20,61.1-49.7,72.7
			v-19.5c15-3.4,26.2-16.9,26.2-32.9s-11.2-29.4-26.2-32.9v-60C408.3,267.6,428.3,296.2,428.3,328.7L428.3,328.7z M331.4,189.3
			v-66.7c0-2,0.8-3.9,2.2-5.3l49.9-49.9c0.1,0.1,2.2,2.2,10.6,10.6l-45.5,45.5c-1.4,1.4-2.2,3.3-2.2,5.3v60.5
			C346.4,189.3,339.5,187.7,331.4,189.3L331.4,189.3z"/>
	</g>
</g>
</svg>
