<?xml version="1.0" encoding="utf-8"?>
<!-- Generator: Adobe Illustrator 24.0.2, SVG Export Plug-In . SVG Version: 6.00 Build 0)  -->
<svg version="1.1" id="Capa_1" xmlns="http://www.w3.org/2000/svg" xmlns:xlink="http://www.w3.org/1999/xlink" x="0px" y="0px"
	 viewBox="0 0 85.4 85.4" style="enable-background:new 0 0 85.4 85.4;" xml:space="preserve">
<style type="text/css">
	.st0{fill:#00A7B5;stroke:#00A7B5;stroke-miterlimit:10;}
	.st1{fill:#FFFFFF;}
</style>
<circle id="Ciculo" class="st0" cx="42.7" cy="42.7" r="40.3"/>
<g>
	<path class="st1" d="M69.6,43.6h-0.9V23c0-2.5-2-4.5-4.5-4.5H48.1v-2.7c0-0.5-0.4-0.9-0.9-0.9h-9c-0.5,0-0.9,0.4-0.9,0.9v2.7H21.2
		c-2.5,0-4.5,2-4.5,4.5v20.6h-0.9c-0.5,0-0.9,0.4-0.9,0.9v20.6c0,3,2.4,5.4,5.4,5.4h44.9c3,0,5.4-2.4,5.4-5.4V44.5
		C70.5,44,70.1,43.6,69.6,43.6z M39.1,16.7h7.2v1.8h-7.2V16.7z M18.5,23c0-1.5,1.2-2.7,2.7-2.7h43.1c1.5,0,2.7,1.2,2.7,2.7v20.6
		h-1.8V23c0-0.5-0.4-0.9-0.9-0.9H21.2c-0.5,0-0.9,0.4-0.9,0.9v20.6h-1.8V23z M41.7,33.3l-0.8-1.6v-2.5h3.6v2.5l-0.8,1.6
		c-0.1,0.1-0.1,0.3-0.1,0.4v5.4h-1.8v-5.4C41.8,33.6,41.8,33.5,41.7,33.3z M45.4,40.9v2.7H40v-2.7H45.4z M39.1,45.4h7.2 M47.2,43.6
		V40c0-0.5-0.4-0.9-0.9-0.9h-0.9v-5.2l0.8-1.6c0.1-0.1,0.1-0.3,0.1-0.4v-3.6c0-0.5-0.4-0.9-0.9-0.9H40c-0.5,0-0.9,0.4-0.9,0.9v3.6
		c0,0.1,0,0.3,0.1,0.4l0.8,1.6v5.2h-0.9c-0.5,0-0.9,0.4-0.9,0.9v3.6h-5.4v-4.8c2.2-1,3.6-3.2,3.6-5.7c0-2.7-1.7-5-4.2-5.9
		c-0.3-0.1-0.6-0.1-0.8,0.1c-0.2,0.2-0.4,0.4-0.4,0.7v4.7l-0.9,0.9l-0.9-0.9v-4.7c0-0.3-0.1-0.6-0.4-0.7c-0.2-0.2-0.5-0.2-0.8-0.1
		c-2.5,0.9-4.2,3.3-4.2,5.9c0,2.4,1.4,4.6,3.6,5.7v4.8h-5.4V23.9h41.3v19.7h-5.4v-4.8c2.2-1,3.6-3.2,3.6-5.7c0-2.7-1.7-5-4.2-5.9
		c-0.3-0.1-0.6-0.1-0.8,0.1s-0.4,0.4-0.4,0.7v4.7l-0.9,0.9l-0.9-0.9v-4.7c0-0.3-0.1-0.6-0.4-0.7c-0.2-0.2-0.5-0.2-0.8-0.1
		c-2.5,0.9-4.2,3.3-4.2,5.9c0,2.4,1.4,4.6,3.6,5.7v4.8H47.2z M23.9,45.4h5.4 M28.6,37.4c-1.8-0.6-3-2.3-3-4.2c0-1.4,0.7-2.7,1.8-3.6
		v3.6c0,0.2,0.1,0.5,0.3,0.6l1.8,1.8c0.4,0.4,0.9,0.4,1.3,0l1.8-1.8c0.2-0.2,0.3-0.4,0.3-0.6v-3.6c1.1,0.8,1.8,2.2,1.8,3.6
		c0,1.9-1.2,3.6-3,4.2c-0.4,0.1-0.6,0.5-0.6,0.8v5.4h-1.8v-5.4C29.2,37.8,29,37.5,28.6,37.4L28.6,37.4z M53.8,37.4
		c-1.8-0.6-3-2.3-3-4.2c0-1.4,0.7-2.7,1.8-3.6v3.6c0,0.2,0.1,0.5,0.3,0.6l1.8,1.8c0.4,0.4,0.9,0.4,1.3,0l1.8-1.8
		c0.2-0.2,0.3-0.4,0.3-0.6v-3.6c1.1,0.8,1.8,2.2,1.8,3.6c0,1.9-1.2,3.6-3,4.2c-0.4,0.1-0.6,0.5-0.6,0.8v5.4h-1.8v-5.4
		C54.4,37.8,54.1,37.5,53.8,37.4z M56.2,45.4h5.4 M68.7,65.1c0,2-1.6,3.6-3.6,3.6H20.3c-2,0-3.6-1.6-3.6-3.6V45.4h5.4
		c0.6,0,1.2,0,1.8,0c0.8,0,1.6,0,2.5,0c0.8,0,1.5,0,2.3,0c0.8,0,1.6,0,2.4,0h6.3c0.6,0,1.2,0,1.8,0c1.1,0,2.2,0,3.3,0
		c1.3,0,2.6,0,3.9,0c0.6,0,1.2,0,1.8,0h6.3c0.7,0,1.3,0,2,0c0.8,0,1.6,0,2.4,0c0.9,0,1.9,0,2.8,0c0.6,0,1.2,0,1.8,0h5.4V65.1z"/>
</g>
</svg>
