<?xml version="1.0" encoding="utf-8"?>
<!-- Generator: Adobe Illustrator 24.0.2, SVG Export Plug-In . SVG Version: 6.00 Build 0)  -->
<svg version="1.1" id="Capa_1" xmlns="http://www.w3.org/2000/svg" xmlns:xlink="http://www.w3.org/1999/xlink" x="0px" y="0px"
	 viewBox="0 0 85.4 85.4" style="enable-background:new 0 0 85.4 85.4;" xml:space="preserve">
<style type="text/css">
	.st0{fill:#00A7B5;stroke:#00A7B5;stroke-miterlimit:10;}
	.st1{fill:#1E407F;}
	.st2{fill:#FFFFFF;stroke:#FFFFFF;stroke-miterlimit:10;}
	.st3{fill:#FFFFFF;stroke:#FFFFFF;stroke-width:2;stroke-miterlimit:10;}
	.st4{fill:none;stroke:#FFFFFF;stroke-width:2;stroke-linecap:round;stroke-linejoin:round;stroke-miterlimit:10;}
	.st5{fill-rule:evenodd;clip-rule:evenodd;fill:#FFFFFF;}
</style>
<circle id="Ciculo" class="st0" cx="42.7" cy="42.7" r="40.3"/>
<path d="M67.3,45.2"/>
<path class="st1" d="M73.4,37.8"/>
<g>
	<g transform="translate(1 1)">
		<g>
			<g>
				<path class="st2" d="M77.1,31.2L56.5,11.6c-2.1-2.2-5.5-2.2-7.7,0L42,18.2c-4.6,4.3-9.1,8.6-13.7,12.9c0.2,0.6,0.3,1.1,0.4,1.7
					c0.1,0.4,0.2,0.9,0.3,1.3c0.2,0.3,0.5,0.6,0.7,0.8c0,0,0,0,0,0H33v3.4c0.6,0.1,1.2,0.2,1.8,0.3V34c0-0.6-0.4-1-0.9-1h-4.3
					c-0.1,0-0.1,0-0.2-0.1c0-0.1,0-0.2,0.1-0.3c4.6-4.3,9.2-8.7,13.9-13c0,0,0,0.1,0.1,0.1l6.7-6.5c1.4-1.5,3.7-1.5,5.2,0l20.6,19.6
					c0.1,0,0.2,0.1,0.1,0.2C75.8,33,75.7,33,75.7,33h-4.3c-0.5,0-0.9,0.4-0.9,1v25.7c-0.5-0.1-0.7-0.1-1.6,0c-0.7,0-1.3,0-2,0
					c0,0,0,0-4.2,0c-1.9,0-2.8,0-4.9,0c-2.2,0-2.8,0-5.1,0c-2,0-2.5,0-3.4,0c-1.4,0-3.3,0.1-5.8,0.3c-0.5,0.3-1.1,0.6-1.9,0.8
					c-0.2,0.1-0.4,0.1-0.6,0.1c-0.3,0-1,0-1.5,0.5c-0.2,0.1-0.3,0.2-0.4,0.4c19.9,0,27,0,27.9,0.1c0.6,0,1.2,0,1.9,0
					c0.9,0,1.3,0,1.7-0.1c0.6,0,1.2-0.1,1.8-0.1V34.8h3.4c0.9,0,1.6-0.5,1.9-1.3C77.9,32.7,77.7,31.8,77.1,31.2z"/>
				<path class="st2" d="M80.4,58.2"/>
				<rect x="54.1" y="33.8" class="st3" width="7.2" height="7.9"/>
				<rect x="43.4" y="33.8" class="st3" width="7.2" height="7.9"/>
				<rect x="54.1" y="45.1" class="st3" width="7.2" height="7.9"/>
				<rect x="43.3" y="45.1" class="st3" width="7.2" height="7.9"/>
			</g>
		</g>
	</g>
	<g>
		<path class="st4" d="M23.2,41.3l-3-23.2c-0.2-1.8,1-3.5,2.7-3.8l0,0c1.7-0.3,3.3,1,3.5,2.9l3,23.2"/>
		<line class="st4" x1="22.6" y1="36.4" x2="28.8" y2="35.5"/>
		<path class="st4" d="M44.7,61.8l-30.9,4.6l1.5-21.1c0.1-1.5,1.2-2.9,2.7-3.1l16.7-2.5c1.4-0.2,2.9,0.7,3.4,2.2L44.7,61.8z"/>
		<line class="st4" x1="16.3" y1="49.1" x2="38" y2="45.9"/>
		<line class="st4" x1="20.7" y1="58.6" x2="21.3" y2="63.5"/>
		<line class="st4" x1="36.6" y1="59.6" x2="36.8" y2="61.3"/>
	</g>
	<path class="st5" d="M32.7,17.2l-0.2,0.9l0.8-0.4l0.9,0.3l-0.5-0.8l0.2-0.9l-0.8,0.4l-0.9-0.4L32.7,17.2z M32,17.4l-0.5,2l1.7-1
		l2.5,0.9L34.3,17l0.5-2l-1.7,1l-2.7-1.1L32,17.4z"/>
	<path class="st5" d="M16.3,19.5l-0.5-0.2l0.2,0.5l-0.2,0.5l0.5-0.2l0.5,0.2l-0.2-0.5l0.3-0.6L16.3,19.5z M16.3,19l-1.1-0.5l0.4,1.2
		l-0.7,1.5l1.5-0.7l1.1,0.5L17,19.9l0.8-1.7L16.3,19z"/>
</g>
</svg>
