<?xml version="1.0" encoding="utf-8"?>
<!-- Generator: Adobe Illustrator 24.0.2, SVG Export Plug-In . SVG Version: 6.00 Build 0)  -->
<svg version="1.1" id="Capa_1" xmlns="http://www.w3.org/2000/svg" xmlns:xlink="http://www.w3.org/1999/xlink" x="0px" y="0px"
	 viewBox="0 0 85.4 85.4" style="enable-background:new 0 0 85.4 85.4;" xml:space="preserve">
<style type="text/css">
	.st0{fill:none;}
	.st1{fill:#1E407F;}
</style>
<circle id="Ciculo" class="st0" cx="42.7" cy="42.7" r="40.3"/>
<g id="surface1">
	<path class="st1" d="M67.1,58.4c0-0.2-0.8-6.8-4.2-9.3c-2.2-1.6-7.1-3.2-10.4-4.2c-0.1-0.1-0.2-0.1-0.3-0.1
		c-0.9-0.2-1.7-0.5-2.2-0.6v-1.9c2.6-1.9,4.2-4.9,4.2-8.1v-0.5c-0.6,0-1.1,0-1.7,0.1c0,0.2-0.1,0.4-0.1,0.6c0,0.3-0.1,0.7-0.2,1
		c-0.6,4-4,7-8.1,7h-2.5c-4.4,0-8-3.5-8.2-7.9c-0.1-0.2-0.1-0.4-0.1-0.6c0,0,0,0,0-0.1c0-0.1,0-0.2,0-0.4c-0.6,0.2-1.1,0.2-1.7,0.2
		v0.4c0,3.2,1.5,6.2,4.1,8.1v1.9c-2.4,0.6-10.1,2.8-13,4.9c-3.3,2.4-4.2,9.1-4.2,9.3l-1.6,12.6l1.8,0.2l1.6-12.6
		c0.3-2.3,1-4.5,2.1-6.5c1.3,2.2,4.2,8.3,4.2,19h1.8c0-12.1-3.5-18.5-4.8-20.5l0.1-0.1c1.9-1.4,6.2-2.8,9.4-3.8l4.2,9
		c0.2,0.5,0.7,0.7,1.2,0.5l0.1-0.1l1.3-0.7l0.5,1.1l-2.1,14.5c-0.1,0.5,0.3,1,0.8,1h7.1c0.5,0,0.9-0.4,0.9-0.9c0-0.1,0-0.1,0-0.1
		L45,56.6l0.5-1.1l1.3,0.7c0.4,0.2,1,0.1,1.2-0.4v-0.1l4.3-9c3.1,0.9,7.4,2.4,9.3,3.8l0.1,0.1c-1.3,2-4.8,8.5-4.8,20.5h1.8
		c0-10.7,2.8-16.8,4.2-19c1.1,2.1,1.8,4.2,2.1,6.5L67,71.3l1.8-0.2L67.1,58.4z M37.4,43.4c1.3,0.6,2.7,0.9,4.1,0.9H44
		c1.4,0,2.8-0.3,4.1-0.8v1.2l-5.3,6.8l-5.4-6.8V43.4z M44.1,54.6l-0.5,1h-1.7l-0.4-0.9l1.3-0.7L44.1,54.6z M38.5,54.2l-3.8-7.8
		l1.3-0.4l5.3,6.7L38.5,54.2z M45.2,70.4h-4.8l1.8-13h1.3L45.2,70.4z M47,54.2l-2.8-1.6l5.2-6.7l1.4,0.4L47,54.2z"/>
	<path class="st1" d="M30.4,24.1V25c0.1,4.1,0.4,7.2,0.5,8.4c0.1,0.6,0.3,1.5,0.5,2.2c0,0.1,0.1,0.4,0.3,1c0.2,0.7,0.3,0.8,0.4,0.9
		c0.4,0.2,1.2-0.7,1.3-0.9c-0.4-4.1-0.8-8.2-1.2-12.3h1.5l1.8,0.1H50h1.9h1.5v0.5c-0.1,1.4-0.2,2.8-0.3,4.3c-0.1,1-0.2,1.9-0.3,2.9
		c-0.1,0.9-0.2,1.6-0.2,2.1c-0.1,1.1-0.1,1.1-0.2,1.4c-0.1,0.2-0.2,0.3-0.1,0.5c0.1,0.3,0.8,0.3,1.2,0.1c0.7-0.4,0.7-1.4,0.7-1.4
		c0.3-3.4,0.7-6.8,1-10.3c1.2-0.2,2-1.2,1.8-2.4c-0.1-1-1-1.8-1.9-1.8v-1.7c0-0.2,0-5.9-3.7-9.6c-0.4-0.4-0.9-0.8-1.5-1.2
		C49.5,7.1,49.2,7,49,6.8c-1.9-1-4.1-1.6-6.2-1.5c-2.2-0.1-4.3,0.5-6.2,1.5c-0.4,0.2-0.4,0.2-0.8,0.5c-0.5,0.4-1,0.8-1.5,1.2
		c-3.7,3.8-3.7,9.5-3.7,9.6v1.7c-1.2,0.1-2.1,1.1-2,2.2C28.6,23.2,29.4,24,30.4,24.1z M32.4,18.2c0-0.1,0-5.1,3.2-8.4
		C36,9.4,36.5,9,37,8.7c1.9,0.4,2.2,3.3,2.2,3.4V17c0,0.5,0.4,0.9,0.9,0.9c0.5,0,0.9-0.4,0.9-0.9v-5c-0.1-1.2-0.6-3.1-1.9-4.3
		c2.4-0.7,5-0.7,7.4,0c-1.3,1.2-1.9,3.1-1.9,4.3v4.9c0,0.5,0.4,0.9,0.9,0.9s0.9-0.4,0.9-0.9V12c0,0,0.2-3,2.2-3.5
		c0.5,0.3,1,0.7,1.4,1.2c3.2,3.2,3.1,8.4,3.1,8.4v1.7H32.4V18.2z M30.6,21.7h24.1c0.2,0,0.3,0.1,0.3,0.3c0,0.2-0.1,0.3-0.3,0.3H30.6
		c-0.2,0-0.3-0.1-0.3-0.3C30.3,21.9,30.4,21.7,30.6,21.7z"/>
	<path class="st1" d="M39.3,61.8h6.8v1.6h-6.8V61.8z"/>
</g>
</svg>
