<?xml version="1.0" encoding="utf-8"?>
<!-- Generator: Adobe Illustrator 24.0.2, SVG Export Plug-In . SVG Version: 6.00 Build 0)  -->
<svg version="1.1" id="Capa_1" xmlns="http://www.w3.org/2000/svg" xmlns:xlink="http://www.w3.org/1999/xlink" x="0px" y="0px"
	 viewBox="0 0 85.4 85.4" style="enable-background:new 0 0 85.4 85.4;" xml:space="preserve">
<style type="text/css">
	.st0{fill:none;}
	.st1{fill:#1E407F;}
</style>
<circle id="Ciculo" class="st0" cx="42.7" cy="42.7" r="40.3"/>
<path d="M67.3,45.2"/>
<path class="st1" d="M73.4,37.8"/>
<g>
	<path class="st1" d="M72.7,50.7c-3.7,0-6.7-3-6.7-6.7c0-0.6-0.4-1-1-1s-1,0.4-1,1c0,4.8,3.9,8.7,8.7,8.7c0.6,0,1-0.4,1-1
		S73.3,50.7,72.7,50.7z"/>
	<path class="st1" d="M72,48.3c0.6,0,1-0.4,1-1s-0.4-1-1-1c-0.9,0-1.6-0.7-1.6-1.6c0-0.6-0.4-1-1-1s-1,0.4-1,1
		C68.3,46.7,70,48.3,72,48.3z"/>
	<path class="st1" d="M33.7,15.7c3.7,0,6.7,3,6.7,6.7c0,0.6,0.4,1,1,1c0.6,0,1-0.4,1-1c0-4.8-3.9-8.7-8.7-8.7c-0.6,0-1,0.4-1,1
		C32.7,15.2,33.1,15.7,33.7,15.7z"/>
	<path class="st1" d="M33.4,19c0,0.6,0.4,1,1,1c0.9,0,1.6,0.7,1.6,1.6c0,0.6,0.4,1,1,1c0.6,0,1-0.4,1-1c0-2-1.6-3.6-3.6-3.6
		C33.9,18,33.4,18.5,33.4,19z"/>
	<path class="st1" d="M57.8,50.6c-1.3-0.7-2.6-1-3.7-0.6c-0.8,0.2-1.5,0.8-2,1.5c-1,1.2-2.3,2.6-2.6,2.9c-2.4,1.6-4.3,1.4-6.3-0.6
		L31.7,42.2c-2-2-2.2-3.9-0.6-6.3c0.2-0.3,1.6-1.6,2.9-2.6c0.8-0.5,1.3-1.2,1.5-2c0.3-1.1,0.1-2.4-0.7-3.7c-0.2-0.3-4.3-7.3-8.1-9.3
		c-1.9-1-4.3-0.7-5.8,0.9l-2.5,2.5c-4,4-5.5,8.6-4.3,13.5c1,4.1,3.7,8.5,8.3,13.1l14.7,14.7c5.8,5.8,11.3,8.7,16.3,8.7
		c3.7,0,7.2-1.6,10.3-4.7l2.5-2.5c1.5-1.5,1.9-3.9,0.9-5.8C65.1,54.9,58.1,50.8,57.8,50.6z M64.8,63.1l-2.5,2.5
		c-6.6,6.6-14.6,5.2-23.8-4L23.8,46.9c-4.3-4.3-6.9-8.3-7.7-12.1c-1-4.3,0.2-8.1,3.8-11.7l2.5-2.5c0.6-0.6,1.3-0.9,2.1-0.9
		c0.5,0,0.9,0.1,1.4,0.3c3.3,1.7,7.3,8.5,7.3,8.5c0.4,0.8,0.6,1.6,0.5,2.2c-0.1,0.4-0.3,0.6-0.7,0.8l-0.2,0.1
		c-0.9,0.7-2.9,2.4-3.3,3.1c-0.6,0.9-1,1.8-1.2,2.7c-0.7-1.4-1.3-3.1-1.5-4.9c-0.1-0.5-0.5-0.9-1.1-0.9c-0.5,0.1-0.9,0.5-0.9,1.1
		c0.7,7,6.1,11.5,6.4,11.7c0,0,0.1,0,0.1,0l10.6,10.6c0,0,0.1,0.1,0.1,0.1c0,0.1,0.1,0.1,0.1,0.2c0.2,0.2,4.7,4.6,11.6,5.3
		c0,0,0.1,0,0.1,0c0.5,0,0.9-0.4,1-0.9c0.1-0.5-0.3-1-0.9-1.1c-2.1-0.2-4-0.8-5.5-1.6c0.8-0.2,1.5-0.6,2.3-1.1
		c0.6-0.4,2.3-2.5,3.1-3.3l0.1-0.2c0.2-0.4,0.5-0.6,0.8-0.7c0.6-0.2,1.4,0,2.2,0.5c0.1,0,6.8,4,8.5,7.3
		C65.9,60.8,65.7,62.1,64.8,63.1z"/>
</g>
</svg>
