<?xml version="1.0" encoding="utf-8"?>
<!-- Generator: Adobe Illustrator 24.0.2, SVG Export Plug-In . SVG Version: 6.00 Build 0)  -->
<svg version="1.1" id="Capa_1" xmlns="http://www.w3.org/2000/svg" xmlns:xlink="http://www.w3.org/1999/xlink" x="0px" y="0px"
	 viewBox="0 0 85.4 85.4" style="enable-background:new 0 0 85.4 85.4;" xml:space="preserve">
<style type="text/css">
	.st0{fill:none;}
	.st1{fill:#1E407F;}
</style>
<circle id="Ciculo" class="st0" cx="42.7" cy="42.7" r="40.3"/>
<path class="st1" d="M68.8,99.1"/>
<g>
	<path class="st1" d="M66.5,14.5c-2.3,0-46.3,0-49.5,0c-1.8,0-3.3,1.5-3.3,3.3v49.5c0,1.8,1.5,3.3,3.3,3.3h49.5
		c1.8,0,3.3-1.5,3.3-3.3V17.8C69.8,16,68.3,14.5,66.5,14.5z M60.4,68.4H45.7L55,58.2c0.2-0.2,0.3-0.5,0.3-0.7V16.7h5V68.4z
		 M44.3,66.7v-8.1h7.4L44.3,66.7z M15.9,67.3V17.8c0-0.6,0.5-1.1,1.1-1.1h36.2v39.7h-9.9c-0.6,0-1.1,0.5-1.1,1.1v11
		c-1,0-23.8,0-25.2,0C16.3,68.4,15.9,67.9,15.9,67.3z M67.6,67.3c0,0.6-0.5,1.1-1.1,1.1h-3.9V16.7h3.9c0.6,0,1.1,0.5,1.1,1.1V67.3z"
		/>
	<path class="st1" d="M22.9,37.9l2.2,3.8c0.1,0.3,0.4,0.4,0.7,0.5c0.3,0.1,0.6,0,0.8-0.1l2.5-1.4c0.6,0.5,1.3,0.9,2.1,1.2v2.9
		c0,0.6,0.5,1.1,1.1,1.1h4.4c0.6,0,1.1-0.5,1.1-1.1v-2.9c0.8-0.3,1.5-0.7,2.1-1.2l2.5,1.4c0.3,0.1,0.6,0.2,0.8,0.1
		c0.3-0.1,0.5-0.3,0.7-0.5l2.2-3.8c0.3-0.5,0.1-1.2-0.4-1.5L43.2,35c0.1-0.4,0.1-0.8,0.1-1.2s0-0.8-0.1-1.2l2.5-1.4
		c0.5-0.3,0.7-1,0.4-1.5l-2.2-3.8c-0.1-0.3-0.4-0.4-0.7-0.5c-0.3-0.1-0.6,0-0.8,0.1l-2.5,1.4c-0.6-0.5-1.3-0.9-2.1-1.2v-2.9
		c0-0.6-0.5-1.1-1.1-1.1h-4.4c-0.6,0-1.1,0.5-1.1,1.1v2.9c-0.8,0.3-1.5,0.7-2.1,1.2l-2.5-1.4c-0.3-0.1-0.6-0.2-0.8-0.1
		c-0.3,0.1-0.5,0.3-0.7,0.5l-2.2,3.8c-0.3,0.5-0.1,1.2,0.4,1.5l2.5,1.4c-0.1,0.8-0.1,1.6,0,2.4l-2.5,1.4
		C22.8,36.7,22.6,37.4,22.9,37.9z M27.6,36.5c0.4-0.2,0.6-0.7,0.5-1.2c-0.3-1.1-0.3-1.9,0-3c0.1-0.5-0.1-1-0.5-1.2l-2.2-1.3l1.1-1.9
		l2.2,1.3c0.4,0.2,0.9,0.2,1.3-0.2c0.7-0.7,1.6-1.2,2.6-1.5c0.5-0.1,0.8-0.6,0.8-1v-2.5h2.2v2.5c0,0.5,0.3,0.9,0.8,1
		c1,0.3,1.9,0.8,2.6,1.5c0.4,0.3,0.9,0.4,1.3,0.2l2.2-1.3l1.1,1.9l-2.2,1.3c-0.4,0.2-0.6,0.7-0.5,1.2c0.1,0.6,0.2,1,0.2,1.5
		c0,0.5-0.1,1-0.2,1.5c-0.1,0.5,0.1,1,0.5,1.2l2.2,1.3l-1.1,1.9l-2.2-1.3c-0.4-0.2-0.9-0.2-1.3,0.2c-0.7,0.7-1.6,1.2-2.6,1.5
		c-0.5,0.1-0.8,0.6-0.8,1v2.5h-2.2v-2.5c0-0.5-0.3-0.9-0.8-1c-1-0.3-1.9-0.8-2.6-1.5c-0.4-0.3-0.9-0.4-1.3-0.2l-2.2,1.3l-1.1-1.9
		L27.6,36.5z"/>
	<path class="st1" d="M34.5,38.2c2.4,0,4.4-2,4.4-4.4c0-2.4-2-4.4-4.4-4.4c-2.4,0-4.4,2-4.4,4.4C30.1,36.2,32.1,38.2,34.5,38.2z
		 M34.5,31.6c1.2,0,2.2,1,2.2,2.2s-1,2.2-2.2,2.2c-1.2,0-2.2-1-2.2-2.2S33.3,31.6,34.5,31.6z"/>
	<path class="st1" d="M24.6,52c0,0.6,0.5,1.1,1.1,1.1h21.9c0.6,0,1.1-0.5,1.1-1.1c0-0.6-0.5-1.1-1.1-1.1H25.7
		C25.1,50.9,24.6,51.4,24.6,52z"/>
	<path class="st1" d="M38.9,56.4H21.3c-0.6,0-1.1,0.5-1.1,1.1c0,0.6,0.5,1.1,1.1,1.1h17.5c0.6,0,1.1-0.5,1.1-1.1
		C40,56.9,39.5,56.4,38.9,56.4z"/>
	<path class="st1" d="M38.9,61.8H21.3c-0.6,0-1.1,0.5-1.1,1.1s0.5,1.1,1.1,1.1h17.5c0.6,0,1.1-0.5,1.1-1.1S39.5,61.8,38.9,61.8z"/>
</g>
</svg>
