<?xml version="1.0" encoding="utf-8"?>
<!-- Generator: Adobe Illustrator 24.0.2, SVG Export Plug-In . SVG Version: 6.00 Build 0)  -->
<svg version="1.1" id="Capa_1" xmlns="http://www.w3.org/2000/svg" xmlns:xlink="http://www.w3.org/1999/xlink" x="0px" y="0px"
	 viewBox="0 0 85.4 85.4" style="enable-background:new 0 0 85.4 85.4;" xml:space="preserve">
<style type="text/css">
	.st0{fill:none;}
	.st1{fill:#1E407F;}
</style>
<circle id="Ciculo" class="st0" cx="42.7" cy="42.7" r="40.3"/>
<g>
	<path class="st1" d="M33.5,17.3c1,0,1.8,0.8,1.8,1.8c0,0.9-0.7,1.7-1.6,1.8l-0.3,0h-8.6c-1.6,0-2.9,1.2-3.1,2.8l0,0.3v8.6
		c0,1-0.8,1.8-1.8,1.8c-0.9,0-1.7-0.7-1.8-1.6l0-0.3v-8.6c0-3.6,2.8-6.6,6.4-6.8l0.4,0H33.5z"/>
	<path class="st1" d="M21.7,51c-0.1-0.9-0.9-1.6-1.8-1.6s-1.7,0.7-1.8,1.6l0,0.3v8.6l0,0.4c0.2,3.4,2.9,6.1,6.4,6.3l0.4,0h8.6l0.3,0
		c0.9-0.1,1.6-0.9,1.6-1.8c0-0.9-0.7-1.7-1.6-1.8l-0.3,0h-8.6l-0.3,0c-1.5-0.1-2.6-1.3-2.8-2.8l0-0.3v-8.6L21.7,51z"/>
	<path class="st1" d="M67.3,51c-0.1-0.9-0.9-1.6-1.8-1.6c-1,0-1.8,0.8-1.8,1.8v8.6l0,0.3c-0.2,1.6-1.5,2.8-3.1,2.8h-8.6l-0.3,0
		c-0.9,0.1-1.6,0.9-1.6,1.8c0,1,0.8,1.8,1.8,1.8h8.6l0.4,0c3.6-0.2,6.4-3.2,6.4-6.8v-8.6L67.3,51z"/>
	<path class="st1" d="M61,17.3l-0.4,0h-8.6l-0.3,0c-0.9,0.1-1.6,0.9-1.6,1.8s0.7,1.7,1.6,1.8l0.3,0h8.6l0.3,0
		c1.5,0.1,2.6,1.3,2.8,2.8l0,0.3v8.6l0,0.3c0.1,0.9,0.9,1.6,1.8,1.6s1.7-0.7,1.8-1.6l0-0.3v-8.6l0-0.4C67.1,20.3,64.4,17.5,61,17.3z
		"/>
	<ellipse class="st1" cx="43.2" cy="42.4" rx="11.7" ry="12.2"/>
</g>
</svg>
