<?xml version="1.0" encoding="utf-8"?>
<!-- Generator: Adobe Illustrator 24.0.2, SVG Export Plug-In . SVG Version: 6.00 Build 0)  -->
<svg version="1.1" id="Capa_1" xmlns="http://www.w3.org/2000/svg" xmlns:xlink="http://www.w3.org/1999/xlink" x="0px" y="0px"
	 viewBox="0 0 85.4 85.4" style="enable-background:new 0 0 85.4 85.4;" xml:space="preserve">
<style type="text/css">
	.st0{fill:none;}
	.st1{fill:#1E407F;}
</style>
<circle id="Ciculo" class="st0" cx="42.7" cy="42.7" r="40.3"/>
<g>
	<g>
		<path class="st1" d="M76.4,41.9c-0.5-1-10.8-18.1-11.1-18.5c-1.9-3.1-5.3-5-9-5c-0.5,0-1,0-1.5,0.1c0,0,0,0,0,0
			c-0.9-1.4-2.4-2.3-4.1-2.3c-2.7,0-4.8,2.2-4.8,4.8v8.5h-6.3V21c0-2.7-2.2-4.8-4.8-4.8c-1.7,0-3.2,0.9-4.1,2.3
			c-0.5-0.1-1-0.1-1.5-0.1c-3.7,0-7,1.9-9,5c0,0-0.1,0.2-2.1,3.4c-0.3,0.6-0.2,1.3,0.4,1.6c0.6,0.3,1.3,0.2,1.6-0.4
			c1.6-2.7,2-3.3,2-3.4c1.5-2.4,4.1-3.9,6.9-3.9c4.5,0,8.2,3.7,8.2,8.2v0v11.7c-2.8-4.6-7.9-7.7-13.8-7.7c-2.6,0-5.1,0.6-7.3,1.7
			c0.8-1.3,1.4-2.3,1.8-2.9c0.1-0.1,0.4-0.7,0.9-1.5c0.4-0.7,0.6-1,0.7-1.1c0.7-1.1,1.2-1.5,1.1-1.7c-0.1-0.2-0.8,0.3-1.2,0.1
			c-0.6-0.3-0.4-1.6-0.7-1.6c-0.1,0-0.1,0.1-0.3,0.5c-0.1,0.3-0.3,0.5-0.4,0.8c-0.6,1.2-2,3.3-2,3.3c-2.9,4.3-5.3,8.1-7,11.6
			c-1,2.1-1.6,4.5-1.6,6.9c0,8.9,7.2,16.1,16.1,16.1S39.5,57.9,39.5,49v-3.1h6.3V49c0,8.9,7.2,16.1,16.1,16.1
			C70.8,65.1,78,57.9,78,49C78,46.4,77.4,44,76.4,41.9z M37.1,22.3c-1.1-1.3-2.5-2.4-4.1-3.1c0.4-0.4,1-0.6,1.7-0.6
			c1.4,0,2.5,1.1,2.5,2.5L37.1,22.3L37.1,22.3z M23.4,62.7c-7.6,0-13.8-6.2-13.8-13.8s6.2-13.8,13.8-13.8S37.1,41.4,37.1,49
			S31,62.7,23.4,62.7z M39.5,38.9v-7h6.3v7H39.5L39.5,38.9z M45.8,43.5h-6.3v-2.2h6.3V43.5z M48.1,21c0-1.4,1.1-2.5,2.5-2.5
			c0.6,0,1.2,0.2,1.7,0.6c-1.6,0.7-3,1.7-4.1,3.1V21z M48.1,28.9L48.1,28.9c0-4.5,3.7-8.2,8.2-8.2c2.9,0,5.4,1.5,6.9,3.9
			c0.1,0.2,3.1,5.2,5.9,10c-2.2-1.1-4.7-1.7-7.3-1.7c-5.8,0-10.9,3.1-13.8,7.7L48.1,28.9L48.1,28.9z M61.9,62.7
			c-7.6,0-13.8-6.2-13.8-13.8s6.2-13.8,13.8-13.8c7.6,0,13.8,6.2,13.8,13.8S69.5,62.7,61.9,62.7z"/>
	</g>
</g>
<g>
	<g>
		<path class="st1" d="M72.3,45.3c-0.2-0.6-0.9-0.9-1.5-0.7c-0.6,0.2-0.9,0.9-0.7,1.5c0.3,0.9,0.5,1.9,0.5,2.9
			c0,4.8-3.9,8.7-8.7,8.7c-4.8,0-8.7-3.9-8.7-8.7s3.9-8.7,8.7-8.7c2.6,0,5.3,1.5,6.3,2.8c0.5,0.6,1,1.4,1,1.4c0.6,1,0.7,1.5,1.1,2.5
			c0.5,1.1,1.2,2.6,1.7,2.5c0.5-0.1,0.8-2,0.5-3.6c-0.2-0.9-0.6-1.6-0.9-2.2c0,0-0.7-1.2-1.6-2.2c-1.2-1.3-4.4-3.5-8.1-3.5
			c-6.1,0-11,4.9-11,11s4.9,11,11,11s11-4.9,11-11C72.9,47.7,72.7,46.5,72.3,45.3z"/>
	</g>
</g>
<g>
	<g>
		<path class="st1" d="M23.4,38c-6.1,0-11,4.9-11,11s4.9,11,11,11s11-4.9,11-11S29.5,38,23.4,38z M23.4,57.7c-4.8,0-8.7-3.9-8.7-8.7
			c0-4.8,3.9-8.7,8.7-8.7S32,44.2,32,49S28.2,57.7,23.4,57.7z"/>
	</g>
</g>
</svg>
