<?xml version="1.0" encoding="utf-8"?>
<!-- Generator: Adobe Illustrator 24.0.2, SVG Export Plug-In . SVG Version: 6.00 Build 0)  -->
<svg version="1.1" id="Capa_1" xmlns="http://www.w3.org/2000/svg" xmlns:xlink="http://www.w3.org/1999/xlink" x="0px" y="0px"
	 viewBox="0 0 85.4 85.4" style="enable-background:new 0 0 85.4 85.4;" xml:space="preserve">
<style type="text/css">
	.st0{fill:#00A7B5;stroke:#00A7B5;stroke-miterlimit:10;}
	.st1{fill:#FFFFFF;}
</style>
<circle id="Ciculo" class="st0" cx="42.7" cy="42.7" r="40.3"/>
<g>
	<g>
		<g>
			<path class="st1" d="M59.8,56.7l-1.9-24.3c-0.1-1.6-1.4-2.8-3-2.8h-3.8v-0.2c0-4.6-3.7-8.4-8.4-8.4s-8.4,3.7-8.4,8.4v0.2h-3.8
				c-1.6,0-2.9,1.2-3,2.8l-1.9,24.3c-0.1,1.9,0.5,3.9,1.9,5.3c1.3,1.4,3.2,2.3,5.2,2.3h20.2c2,0,3.8-0.8,5.2-2.3
				C59.3,60.6,60,58.7,59.8,56.7z M36.9,29.4c0-3.2,2.6-5.8,5.8-5.8c3.2,0,5.8,2.6,5.8,5.8v0.2H36.9V29.4z M56.1,60.3
				c-0.9,0.9-2,1.4-3.3,1.4H32.6c-1.3,0-2.4-0.5-3.3-1.4c-0.9-0.9-1.3-2.1-1.2-3.4l1.9-24.3c0-0.3,0.2-0.5,0.5-0.5h3.8v3.1
				c0,0.7,0.6,1.3,1.3,1.3s1.3-0.6,1.3-1.3v-3.1h11.6v3.1c0,0.7,0.6,1.3,1.3,1.3s1.3-0.6,1.3-1.3v-3.1h3.8c0.3,0,0.5,0.2,0.5,0.5
				l1.9,24.3C57.4,58.2,57,59.4,56.1,60.3z"/>
		</g>
	</g>
	<g>
		<g>
			<path class="st1" d="M48.4,42.5c-0.5-0.5-1.3-0.5-1.8,0L41,48.2L38.8,46c-0.5-0.5-1.3-0.5-1.8,0c-0.5,0.5-0.5,1.3,0,1.8l3.1,3.1
				c0.2,0.2,0.6,0.4,0.9,0.4c0.3,0,0.6-0.1,0.9-0.4l6.5-6.5C48.9,43.8,48.9,43,48.4,42.5z"/>
		</g>
	</g>
</g>
</svg>
