<?xml version="1.0" encoding="utf-8"?>
<!-- Generator: Adobe Illustrator 24.0.2, SVG Export Plug-In . SVG Version: 6.00 Build 0)  -->
<svg version="1.1" id="Capa_1" xmlns="http://www.w3.org/2000/svg" xmlns:xlink="http://www.w3.org/1999/xlink" x="0px" y="0px"
	 viewBox="0 0 85.4 85.4" style="enable-background:new 0 0 85.4 85.4;" xml:space="preserve">
<style type="text/css">
	.st0{fill:none;}
	.st1{fill:#1E407F;}
</style>
<g>
	<g>
		<path class="st0" d="M42.3,2.4C22.9,2.4,9.5,19.5,8.2,34.5c-0.6,6.8,1.4,12.4,2.9,15.8c0.9,1.6,1.9,3.1,2.8,4.7
			c1.1,1.8,2.2,2.9,3.8,4.6c1.5,1.6,2.6,2.8,5,5.2c1.8,1.9,3.4,3.4,4.5,4.5c2.2,2.1,2.1,2,3.2,3.1c2.5,2.5,2.8,3,5.1,5.3
			c4.7,4.8,5.6,4.8,6.1,4.7c0.7-0.2,1.8-1.2,4-3.1c0,0,0.2-0.2,0.4-0.3c2-1.9,3.5-3.5,3.8-3.8c1.6-1.8,1.7-1.5,5.8-5.5
			c1.5-1.5,4.5-4.4,6-5.9c0.1-0.1,0.2-0.2,0.4-0.4c1-1,1.7-1.8,2.2-2.2c1.5-1.7,3-3.5,3.4-4c1.3-1.7,3.1-4.1,4.7-7.3
			c3.6-7.2,4.1-13.6,4.1-15.3C76.4,16.8,61.1,2.4,42.3,2.4z"/>
	</g>
</g>
<g>
	<path class="st1" d="M58.4,22.5c-4.3-4.3-10-6.7-16.1-6.7s-11.8,2.4-16.1,6.7c-4.3,4.3-6.7,10-6.7,16.1c0,3.6,0.8,7,2.4,10.2
		l0.4,0.7h40.1l0.4-0.7c1.6-3.2,2.4-6.6,2.4-10.2C65.1,32.5,62.7,26.8,58.4,22.5z M29.9,46.9c-1.4-2.1-2.3-4.5-2.5-7h3.1v-2.7h-3.1
		c0.3-3.1,1.5-5.9,3.4-8.2l2.2,2.2l1.9-1.9l-2.2-2.2c2.3-1.9,5.1-3.1,8.2-3.4V27h2.7v-3.1c3.1,0.3,5.9,1.5,8.2,3.4l-2.2,2.2l1.9,1.9
		l2.2-2.2c1.9,2.3,3.1,5.1,3.4,8.2h-3.1V40H57c-0.2,2.5-1.1,4.9-2.5,7H29.9z M60.6,46.9h-3c1.4-2.5,2.1-5.4,2.1-8.3
		c0-9.7-7.9-17.5-17.5-17.5S24.7,29,24.7,38.6c0,2.9,0.7,5.8,2.1,8.3h-3c-1.2-2.6-1.8-5.4-1.8-8.3c0-11.1,9-20.2,20.2-20.2
		s20.2,9,20.2,20.2C62.4,41.5,61.8,44.3,60.6,46.9z"/>
	<path class="st1" d="M43.6,34.9v-5.2h-2.7v5.2c-1.6,0.6-2.7,2.1-2.7,3.8s1.1,3.3,2.7,3.8v2.2h2.7v-2.2c1.6-0.6,2.7-2.1,2.7-3.8
		C46.3,37,45.2,35.5,43.6,34.9z M42.2,40.2c-0.8,0-1.4-0.6-1.4-1.4s0.6-1.4,1.4-1.4s1.4,0.6,1.4,1.4S43,40.2,42.2,40.2z"/>
</g>
</svg>
