<?xml version="1.0" encoding="utf-8"?>
<!-- Generator: Adobe Illustrator 24.0.2, SVG Export Plug-In . SVG Version: 6.00 Build 0)  -->
<svg version="1.1" id="Capa_1" xmlns="http://www.w3.org/2000/svg" xmlns:xlink="http://www.w3.org/1999/xlink" x="0px" y="0px"
	 viewBox="0 0 85.4 85.4" style="enable-background:new 0 0 85.4 85.4;" xml:space="preserve">
<style type="text/css">
	.st0{fill:none;}
	.st1{fill:#1E407F;}
</style>
<circle id="Ciculo" class="st0" cx="42.7" cy="42.7" r="40.3"/>
<g id="XMLID_1576_">
	<g id="XMLID_92_">
		<path id="XMLID_505_" class="st1" d="M60,16.2c0.2,0,0.4,0,0.5-0.1l4.7-2.3c0.6-0.3,0.9-1,0.6-1.6c-0.3-0.6-1-0.9-1.6-0.6
			l-4.7,2.3c-0.6,0.3-0.9,1-0.6,1.6C59.1,15.9,59.6,16.2,60,16.2L60,16.2z"/>
		<path id="XMLID_534_" class="st1" d="M65.3,30.8L62,29.3c-0.6-0.3-1.3,0-1.6,0.6c-0.3,0.6,0,1.3,0.6,1.6l3.3,1.6
			c0.2,0.1,0.3,0.1,0.5,0.1c0.5,0,0.9-0.3,1.1-0.7C66.2,31.9,65.9,31.1,65.3,30.8L65.3,30.8z"/>
		<path id="XMLID_951_" class="st1" d="M57.4,27.1L50.8,24v-3.3l3.8-1.8c0.6-0.3,0.9-1,0.6-1.6c-0.3-0.6-1-0.9-1.6-0.6l-3.8,1.8
			c-0.4-0.3-0.8-0.4-1.3-0.4H28.8c-5.5,0-9.9,4.4-9.9,9.9v1.6c0,0.5,0.2,0.9,0.6,1.1c0.2,0.1,0.4,0.1,0.6,0.1c0.2,0,0.5-0.1,0.7-0.2
			c1.4-0.9,3.1-1.4,4.8-1.4h0.3v3.8c-1.8,4.6-2.9,9.5-3.3,14.4c0,0.7,0.5,1.3,1.1,1.3c0,0,0.1,0,0.1,0c0.6,0,1.2-0.5,1.2-1.1
			c0.4-4.5,1.4-8.9,3-13.2h9.2v3.2c0,4.1,2.6,7.7,6.5,9.1c2.9,1,4.8,3.7,4.8,6.8v14.1c0,2.2-1.8,4-4,4H28.8c-2.2,0-4-1.8-4-4v-9
			c0-0.7-0.5-1.2-1.2-1.2c-0.7,0-1.2,0.5-1.2,1.2v9c0,3.5,2.9,6.4,6.4,6.4h15.6c3.5,0,6.4-2.9,6.4-6.4V53.3c0-4.1-2.6-7.7-6.5-9.1
			c-2.9-1-4.8-3.7-4.8-6.8v-3.9c1.6,1.8,3.9,3.1,6.5,3.3c0,0,0.1,0,0.1,0c0.5,0,0.9-0.3,1.1-0.7c0.2-0.5,0.1-1-0.3-1.4
			c-1.4-1.4-2.2-3.3-2.2-5.3v-3h3.7c0.5,0,0.9-0.1,1.3-0.4l6.6,3.1c0.2,0.1,0.3,0.1,0.5,0.1c0.5,0,0.9-0.3,1.1-0.7
			C58.3,28.1,58,27.4,57.4,27.1L57.4,27.1z M21.3,27.6c0.2-3.9,3.5-7.1,7.5-7.1H43v3.6h-1.8c-0.3,0-0.6,0.1-0.8,0.3l-2.6,2.3H25.5
			C24.1,26.8,22.7,27,21.3,27.6L21.3,27.6z M37.1,29.2v2.7h-8.8v-2.7H37.1z M39.6,28.5l2.1-1.9h0.6v3c0,1.4,0.3,2.7,0.8,4
			C41.3,32.4,40,30.6,39.6,28.5z M48.4,24.2h-2.9v-3.6h2.9V24.2z"/>
		<path id="XMLID_1229_" class="st1" d="M50.4,23.8l4.5-0.4c0.7-0.1,1.2-0.6,1.1-1.3c-0.1-0.7-0.6-1.2-1.3-1.1l-4.5,0.4
			c-0.7,0.1-1.2,0.6-1.1,1.3C49.2,23.4,49.7,23.9,50.4,23.8z"/>
		<path id="XMLID_1274_" class="st1" d="M23.6,62.2c0.5,0,1-1.4,1.1-2.5c0-0.2,0-0.3,0-1.4c0-1.8,0-3.2,0-3.8c0-1.2,0-1.2,0-1.6
			c0-1.6,0-1.5,0-2.3c0-0.5,0-0.8,0-1.4c0-0.5,0.1-0.9,0.1-1c0.1-0.5,0.1-0.5,0.1-0.7c0-0.6-0.3-1.1-0.5-1.4
			c-0.9-1.4-0.6-2.7-0.9-2.7c-0.3,0-0.7,1.7-0.9,2.7c-0.1,0.6-0.2,1-0.3,1.7c-0.1,1.3-0.1,1.7-0.1,4.9c0,0.8,0,1.1,0,1.9
			c0,1,0,1.1,0,1.8c0,1,0,1.1,0,1.7c0,0.2,0,0.8,0.2,1.6C22.8,60.7,23.1,62.2,23.6,62.2z"/>
		<path id="XMLID_1_" class="st1" d="M60.9,22.7l4.5-0.4c0.7-0.1,1.2-0.6,1.1-1.3c-0.1-0.7-0.6-1.2-1.3-1.1l-4.5,0.4
			c-0.7,0.1-1.2,0.6-1.1,1.3C59.7,22.2,60.3,22.7,60.9,22.7z"/>
		<path class="st1" d="M25.7,56.8"/>
		<path class="st1" d="M25.9,51.8"/>
	</g>
</g>
</svg>
