<?xml version="1.0" encoding="utf-8"?>
<!-- Generator: Adobe Illustrator 24.0.2, SVG Export Plug-In . SVG Version: 6.00 Build 0)  -->
<svg version="1.1" id="Capa_1" xmlns="http://www.w3.org/2000/svg" xmlns:xlink="http://www.w3.org/1999/xlink" x="0px" y="0px"
	 viewBox="0 0 85.4 85.4" style="enable-background:new 0 0 85.4 85.4;" xml:space="preserve">
<style type="text/css">
	.st0{fill:none;}
	.st1{fill:#1E407F;}
</style>
<circle id="Ciculo" class="st0" cx="42.7" cy="42.7" r="40.3"/>
<g>
	<path class="st1" d="M18.4,32c-1.7,0-3,1.4-3,3c0,1.7,1.4,3,3,3c1.7,0,3-1.4,3-3C21.5,33.4,20.1,32,18.4,32z M18.4,36.2
		c-0.7,0-1.2-0.5-1.2-1.2c0-0.7,0.5-1.2,1.2-1.2c0.7,0,1.2,0.5,1.2,1.2l0,0C19.6,35.7,19.1,36.2,18.4,36.2L18.4,36.2z"/>
	<path class="st1" d="M10.6,27.6L10.6,27.6l2.1,0c-0.9,0.9-1.5,2.2-1.5,3.8c0,0,0,0.1,0,0.1l1.2,9.5c0,1.4,1,2.5,2.3,2.8v2.9
		c0,1.1,0.9,1.9,1.9,1.9h0h3.1c1.1,0,1.9-0.8,1.9-1.9c0,0,0,0,0,0v-2.8h24.3v20.7c0,2.2,1.7,3.9,3.9,4c0,0,0,0,0.1,0h18.3
		c2.2,0,4-1.8,4-3.9c0,0,0,0,0,0v-27c0-2.2-1.8-4-4-4h-3.3c-0.3-1.5-1.6-2.4-3.1-2.4h-2.8c0-1.3-0.6-2.6-1.6-3.5l2.2,0
		c0.5,0,0.9-0.4,0.9-0.9c0,0,0,0,0,0c-0.1-0.6-0.2-1.3-0.4-1.9c-0.5-1.4-1.9-2.3-3.7-2.3c-1,0-2.7,0-3.6,0l-1.6-3
		C50,17.4,48.3,15,45.4,15H24.9c-2.4,0-4.5,1.6-5.9,4.6l-1.7,3c-0.9,0-2.6,0-3.6,0c-1.8,0-3.2,0.9-3.7,2.3c-0.2,0.6-0.3,1.2-0.4,1.9
		c0,0.3,0.1,0.5,0.3,0.7C10.1,27.5,10.4,27.6,10.6,27.6z M19.8,46.7C19.8,46.7,19.8,46.7,19.8,46.7l-3.2,0.1c-0.1,0-0.1,0-0.1-0.1
		v-2.8h3.3V46.7z M45.9,37.6V42H15.3c-0.6,0-1.1-0.5-1.1-1.1l0,0c0,0,0-0.1,0-0.1L13,31.3c0-1.8,1.3-3,2.5-3c0,0,0.1,0,0.1,0h38.7
		c0,0,0,0,0,0c1.6,0,2.6,1.4,2.7,2.9h-0.8c-1.5,0-2.8,0.9-3.1,2.4h-3.3C47.7,33.6,46,35.3,45.9,37.6C45.9,37.5,45.9,37.5,45.9,37.6
		L45.9,37.6z M41.3,26.4c0.4-1.8,2.2-2.9,4-2.5c1.2,0.3,2.2,1.2,2.5,2.5H41.3z M64.8,35.4h3.4c1.2,0,2.2,1,2.2,2.1l0,0v27
		c0,1.2-1,2.1-2.1,2.1c0,0,0,0,0,0H49.9c-1.1,0-2.1-0.9-2.1-2c0,0,0,0,0-0.1v-27c0-1.2,0.9-2.1,2.1-2.1h3.4c0.4,1.3,1.6,2.3,3.1,2.2
		h5.4C63.2,37.7,64.4,36.7,64.8,35.4z M61.7,33c0.7,0,1.3,0.6,1.3,1.3l0,0v0.2c0,0.7-0.6,1.3-1.3,1.3l0,0h-5.5
		c-0.7,0-1.3-0.6-1.3-1.3l0,0v-0.2c0-0.7,0.6-1.3,1.3-1.3l0,0H61.7z M56.4,24.3c0.9,0,1.7,0.4,1.9,1c0.1,0.1,0.1,0.3,0.1,0.4h-3.8
		l-0.8-1.5C54.7,24.3,55.7,24.3,56.4,24.3z M20.7,20.4C20.7,20.4,20.7,20.4,20.7,20.4c0.7-1.4,2.1-3.6,4.3-3.6h20.4
		c1.5,0,2.8,1.1,4.2,3.6l3.3,6h-3.2c-0.4-2.8-3.1-4.8-5.9-4.3c-2.2,0.3-4,2.1-4.3,4.3H17.3L20.7,20.4z M11.8,25.3c0.2-0.6,1-1,1.9-1
		c0.7,0,1.7,0,2.6,0l-0.8,1.4h-3.8C11.7,25.6,11.8,25.5,11.8,25.3z"/>
	<path class="st1" d="M45.1,33.6c-0.5-1.4-2.1-2.5-3.6-2.5h-13c-1.5,0-3.1,1.1-3.6,2.6l-0.6,2c-0.1,0.3,0,0.6,0.1,0.9
		c0.2,0.3,0.4,0.4,0.8,0.4h19.7c0.3,0,0.6-0.2,0.8-0.4c0.2-0.2,0.2-0.6,0.1-0.8L45.1,33.6z M26.5,35l0.3-0.8
		c0.2-0.7,1.1-1.3,1.8-1.3h13c0.7,0,1.6,0.6,1.8,1.3l0.3,0.8H26.5z"/>
	<path class="st1" d="M42.7,38.4H27.4c-0.5,0-0.9,0.4-0.9,0.9c0,0.5,0.4,0.9,0.9,0.9h15.3c0.5,0,0.9-0.4,0.9-0.9
		C43.6,38.8,43.2,38.4,42.7,38.4z"/>
	<path class="st1" d="M51,47h1c0.5,0,0.9-0.4,0.9-0.9c0-0.5-0.4-0.9-0.9-0.9h-0.1v-2.5h2.6c0.1,0.3,0.4,0.6,0.8,0.6
		c0.5,0,0.9-0.4,0.9-0.9v-0.6c0-0.5-0.3-0.8-0.8-0.9c0,0-0.1,0-0.1,0H51c-0.5,0-0.9,0.4-0.9,0.9v4.4C50,46.6,50.5,47,51,47z"/>
	<path class="st1" d="M51,55.4h4.4c0.5,0,0.9-0.4,0.9-0.9l0,0v-4.4c0-0.5-0.4-0.9-0.9-0.9H51c-0.5,0-0.9,0.4-0.9,0.9v4.4
		C50,55,50.4,55.4,51,55.4L51,55.4z M51.9,51.1h2.5v2.6h-2.5V51.1z"/>
	<path class="st1" d="M51.9,62.3L51.9,62.3l-0.1-2.6h2.6c0,0.5,0.4,0.9,0.9,0.9h0c0.5,0,0.9-0.4,0.9-0.9c0,0,0,0,0,0v-0.9
		c0-0.5-0.4-1-0.9-1H51c-0.5,0-0.9,0.4-0.9,1v4.4c0,0.5,0.4,0.9,0.9,0.9h1c0.5,0,0.9-0.4,0.9-0.9S52.4,62.3,51.9,62.3z"/>
	<path class="st1" d="M57.5,41.9l-2.7,2.7l-0.8-0.8c-0.4-0.4-0.9-0.4-1.3,0s-0.4,0.9,0,1.3l1.5,1.5c0.4,0.4,0.9,0.4,1.3,0l0,0
		l3.4-3.4c0.4-0.4,0.4-0.9,0-1.3C58.5,41.5,57.9,41.5,57.5,41.9L57.5,41.9z"/>
	<path class="st1" d="M57.5,59.1l-2.7,2.7L53.9,61c-0.4-0.4-0.9-0.4-1.3,0c-0.4,0.4-0.4,0.9,0,1.3l1.5,1.5c0.4,0.4,0.9,0.4,1.3,0
		l0,0l3.4-3.4c0.4-0.4,0.4-0.9,0-1.3C58.5,58.8,57.9,58.8,57.5,59.1L57.5,59.1z"/>
	<path class="st1" d="M60.3,43.8c0,0.5,0.4,0.9,0.9,0.9h5.9c0.5,0,0.9-0.4,0.9-0.9c0-0.5-0.4-0.9-0.9-0.9l0,0h-5.9
		C60.7,42.9,60.3,43.3,60.3,43.8z"/>
	<path class="st1" d="M67.1,51.5h-5.9c-0.5,0-0.9,0.4-0.9,0.9s0.4,0.9,0.9,0.9l0,0h5.9c0.5,0,0.9-0.4,0.9-0.9S67.6,51.5,67.1,51.5
		L67.1,51.5z"/>
	<path class="st1" d="M67.1,60.1h-5.9c-0.5,0-0.9,0.4-0.9,0.9s0.4,0.9,0.9,0.9l0,0h5.9c0.5,0,0.9-0.4,0.9-0.9S67.6,60.1,67.1,60.1
		L67.1,60.1z"/>
</g>
</svg>
