<?xml version="1.0" encoding="utf-8"?>
<!-- Generator: Adobe Illustrator 24.0.2, SVG Export Plug-In . SVG Version: 6.00 Build 0)  -->
<svg version="1.1" id="Capa_1" xmlns="http://www.w3.org/2000/svg" xmlns:xlink="http://www.w3.org/1999/xlink" x="0px" y="0px"
	 viewBox="0 0 85.4 85.4" style="enable-background:new 0 0 85.4 85.4;" xml:space="preserve">
<style type="text/css">
	.st0{fill:#00A7B5;stroke:#00A7B5;stroke-miterlimit:10;}
	.st1{fill:#FFFFFF;}
	.st2{fill:#FFFFFF;stroke:#FFFFFF;stroke-width:1.5;stroke-miterlimit:10;}
</style>
<g>
	<g>
		<path class="st0" d="M42.8,2.4C23.4,2.4,10,19.5,8.7,34.5c-0.6,6.8,1.4,12.4,2.9,15.8c0.9,1.6,1.9,3.1,2.8,4.7
			c1.1,1.8,2.2,2.9,3.8,4.6c1.5,1.6,2.6,2.8,5,5.2c1.8,1.9,3.4,3.4,4.5,4.5c2.2,2.1,2.1,2,3.2,3.1c2.5,2.5,2.8,3,5.1,5.3
			c4.7,4.8,5.6,4.8,6.1,4.7c0.7-0.2,1.8-1.2,4-3.1c0,0,0.2-0.2,0.4-0.3c2-1.9,3.5-3.5,3.8-3.8c1.6-1.8,1.7-1.5,5.8-5.5
			c1.5-1.5,4.5-4.4,6-5.9c0.1-0.1,0.2-0.2,0.4-0.4c1-1,1.7-1.8,2.2-2.2c1.5-1.7,3-3.5,3.4-4c1.3-1.7,3.1-4.1,4.7-7.3
			c3.6-7.2,4.1-13.6,4.1-15.3C76.9,16.8,61.6,2.4,42.8,2.4z"/>
	</g>
</g>
<g>
	<g>
		<path class="st1" d="M56.1,17.4H29.3c-0.8,0-1.4,0.6-1.4,1.4v40.3c0,0.8,0.6,1.4,1.4,1.4h26.8c0.8,0,1.4-0.6,1.4-1.4V18.8
			C57.6,18,56.9,17.4,56.1,17.4z M29.2,24.8h26.9v29.9H29.2V24.8z M29.3,18.8h26.8c0,0,0,0,0,0v4.5H29.2L29.3,18.8
			C29.2,18.8,29.3,18.8,29.3,18.8z M56.1,59.2H29.3c0,0,0,0,0,0v-3h26.9L56.1,59.2C56.2,59.1,56.1,59.2,56.1,59.2z"/>
		<path class="st1" d="M52.4,26.3H33c-0.4,0-0.7,0.4-0.7,0.9c0,0.5,0.3,0.9,0.7,0.9h19.4c0.4,0,0.7-0.4,0.7-0.9
			C53.1,26.7,52.8,26.3,52.4,26.3z"/>
		<path class="st1" d="M38.2,21.8h8.9c0.4,0,0.7-0.3,0.7-0.7c0-0.4-0.3-0.7-0.7-0.7h-8.9c-0.4,0-0.7,0.3-0.7,0.7
			C37.5,21.5,37.8,21.8,38.2,21.8z"/>
	</g>
	<line class="st2" x1="34.9" y1="18.4" x2="34.9" y2="23.8"/>
	<line class="st2" x1="50.5" y1="18.4" x2="50.5" y2="23.8"/>
</g>
</svg>
