<?xml version="1.0" encoding="utf-8"?>
<!-- Generator: Adobe Illustrator 24.0.2, SVG Export Plug-In . SVG Version: 6.00 Build 0)  -->
<svg version="1.1" id="Capa_1" xmlns="http://www.w3.org/2000/svg" xmlns:xlink="http://www.w3.org/1999/xlink" x="0px" y="0px"
	 viewBox="0 0 85.4 85.4" style="enable-background:new 0 0 85.4 85.4;" xml:space="preserve">
<style type="text/css">
	.st0{fill:#00A7B5;stroke:#00A7B5;stroke-miterlimit:10;}
	.st1{fill:#FFFFFF;}
</style>
<circle id="Ciculo" class="st0" cx="42.7" cy="42.7" r="40.3"/>
<g>
	<g>
		<path class="st1" d="M28.1,50.3h-8c-0.8,0-1.5,0.7-1.5,1.5v5.5c0,0.8,0.7,1.5,1.5,1.5h8c0.8,0,1.5-0.7,1.5-1.5v-5.5
			C29.5,50.9,28.9,50.3,28.1,50.3z M26.6,55.7h-5v-2.5h5V55.7z"/>
	</g>
</g>
<g>
	<g>
		<path class="st1" d="M57.7,50.3h-8c-0.8,0-1.5,0.7-1.5,1.5v5.5c0,0.8,0.7,1.5,1.5,1.5h8c0.8,0,1.5-0.7,1.5-1.5v-5.5
			C59.2,50.9,58.5,50.3,57.7,50.3z M56.2,55.7h-5v-2.5h5V55.7z"/>
	</g>
</g>
<g>
	<g>
		<path class="st1" d="M44.1,55.6H33.8c-0.8,0-1.5,0.7-1.5,1.5s0.6,1.5,1.5,1.5h10.3c0.8,0,1.5-0.7,1.5-1.5S44.9,55.6,44.1,55.6z"/>
	</g>
</g>
<g>
	<g>
		<path class="st1" d="M44.1,51.4H33.8c-0.8,0-1.5,0.7-1.5,1.5c0,0.8,0.6,1.5,1.5,1.5h10.3c0.8,0,1.5-0.7,1.5-1.5
			C45.6,52.1,44.9,51.4,44.1,51.4z"/>
	</g>
</g>
<g>
	<g>
		<path class="st1" d="M69.4,15.2l-13.1-7c-0.4-0.2-1-0.2-1.4,0l-12.8,7c-0.5,0.3-0.8,0.8-0.8,1.3v9.9c0,2.2,0.4,4.5,1.2,6.6H25.6
			c-2,0-3.7,1.2-4.5,3l-3.6,8.5L16,45.9c-1.4,1.2-2.3,3.1-2.2,5v14.9c0,2.7,2.1,4.8,4.8,4.9c0,0,0,0,0,0h2.8c2.7,0,4.8-2.2,4.8-4.9
			V64h25.5v1.8c0,2.7,2.2,4.9,4.9,4.9h2.8c2.7,0,4.8-2.2,4.9-4.9V50.5c0-1.8-0.7-3.5-2-4.7l-1-1.1l-0.7-1.5c6-3.5,9.6-10,9.6-16.9
			v-9.7C70.1,16,69.8,15.5,69.4,15.2z M23.8,37.2c0.3-0.7,1-1.2,1.8-1.2h18.3c0.4,0.8,0.9,1.5,1.4,2.2c-2.5,1-4.3,3.1-4.8,5.8H20.9
			L23.8,37.2z M47.5,40.7c1.4,1.3,2.9,2.4,4.5,3.2h-8.5C44.1,42.1,45.7,40.9,47.5,40.7z M23.2,65.8c0,1-0.8,1.9-1.9,1.9h-2.8
			c-1,0-1.8-0.9-1.8-1.9v-2.1c0.6,0.2,1.2,0.3,1.8,0.3h4.7V65.8z M61.3,65.8c0,1-0.9,1.9-1.9,1.9h-2.8c-1,0-1.9-0.8-1.9-1.9V64h4.7
			c0.6,0,1.3-0.1,1.9-0.3V65.8z M61.3,50.4v8.8c0,1-0.9,1.8-1.9,1.8H18.5c-1,0-1.8-0.8-1.8-1.7c0,0,0-0.1,0-0.1v-8.4
			c0-1,0.4-2,1.2-2.7c0,0,0,0,0,0l1.3-1.2h39.9l0.9,0.9c0,0,0,0,0.1,0.1C60.9,48.5,61.3,49.5,61.3,50.4z M67.2,26.2
			c0,6.7-4,12.8-10.2,15.4l-1.4,0.6l-1.2-0.5c-6.1-2.7-10-8.7-10.1-15.3v-9l11.3-6.2l11.6,6.2L67.2,26.2L67.2,26.2z"/>
	</g>
</g>
<g>
	<g>
		<path class="st1" d="M62.9,23c-0.5-0.6-1.4-0.7-2.1-0.2l-6.9,5.6l-2.5-2.9c-0.5-0.6-1.5-0.7-2.1-0.2c-0.6,0.5-0.7,1.5-0.2,2.1
			l3.4,4c0,0,0,0,0,0c0,0,0,0,0.1,0.1c0,0,0,0,0.1,0.1c0,0,0,0,0.1,0c0,0,0,0,0.1,0c0,0,0,0,0.1,0c0,0,0,0,0.1,0c0,0,0,0,0.1,0
			c0,0,0.1,0,0.1,0c0,0,0,0,0.1,0c0,0,0.1,0,0.1,0c0,0,0,0,0.1,0c0,0,0.1,0,0.1,0c0,0,0,0,0.1,0c0,0,0.1,0,0.1,0c0,0,0,0,0,0
			c0,0,0.1,0,0.1,0c0,0,0,0,0,0c0,0,0.1,0,0.1,0c0,0,0,0,0,0c0,0,0.1,0,0.1,0c0,0,0,0,0,0c0,0,0,0,0.1,0c0,0,0,0,0.1,0
			c0,0,0,0,0.1,0s0,0,0.1,0c0,0,0,0,0.1,0s0,0,0.1,0c0,0,0,0,0.1,0s0,0,0.1,0c0,0,0,0,0,0l8-6.5C63.3,24.5,63.4,23.6,62.9,23z"/>
	</g>
</g>
</svg>
