<?xml version="1.0" encoding="utf-8"?>
<!-- Generator: Adobe Illustrator 24.0.2, SVG Export Plug-In . SVG Version: 6.00 Build 0)  -->
<svg version="1.1" id="Capa_1" xmlns="http://www.w3.org/2000/svg" xmlns:xlink="http://www.w3.org/1999/xlink" x="0px" y="0px"
	 viewBox="0 0 85.4 85.4" style="enable-background:new 0 0 85.4 85.4;" xml:space="preserve">
<style type="text/css">
	.st0{fill:none;}
	.st1{fill:#23407F;}
</style>
<circle id="Ciculo" class="st0" cx="42.7" cy="42.7" r="40.3"/>
<g>
	<g>
		<path class="st1" d="M62.2,19.4H41.8c-2.4,0-4.4,2-4.4,4.4v7c0,8,6.5,14.6,14.6,14.6c3.9,0,7.6-1.5,10.3-4.3
			c2.8-2.8,4.3-6.4,4.3-10.3v-7C66.6,21.3,64.6,19.4,62.2,19.4z M60,38.7c-2.1,2.1-5,3.3-8,3.3c-5.7,0-10.5-4.2-11.2-9.8h12.1
			c1.1,0,2,0,2.6,0c0,0,1.1,0,3.8,0c1,0,1.5,0,2-0.2c0.2-0.1,1.7-0.6,1.6-1.5c0-0.8-1.5-1.3-1.6-1.4c-0.6-0.2-1-0.1-2-0.1
			c-1.1,0-0.4,0-2.8,0c-1,0-2.2,0-3.6,0c-4.1,0-8.1,0-12.2,0v-5.4c0-0.6,0.5-1.2,1.2-1.2h20.4c0.6,0,1.2,0.5,1.2,1.2v5.4h-4.1
			c-0.9,0-1.6,0.7-1.6,1.6c0,0.9,0.7,1.6,1.6,1.6h4C62.9,34.7,61.8,37,60,38.7z"/>
		<path class="st1" d="M45.8,66c0.9,0,1.6-0.7,1.6-1.6c0-0.9-0.7-1.6-1.6-1.6c-6.3-0.1-12.3-2.6-16.8-7c-4.5-4.5-7-10.4-7-16.8
			c0-0.9-0.7-1.6-1.6-1.6c-0.9,0-1.6,0.7-1.6,1.6c0.1,7.2,2.9,13.9,8,19C31.9,63.1,38.6,66,45.8,66L45.8,66z"/>
	</g>
	<path class="st1" d="M45.9,56.5c-4.7,0-9.1-1.9-12.4-5.2c-3.3-3.3-5.1-7.7-5.2-12.4c0-0.9-0.7-1.6-1.6-1.6c-0.9,0-1.6,0.7-1.6,1.6
		c0.1,5.5,2.2,10.7,6.1,14.6c3.9,3.9,9.1,6.1,14.6,6.1h0c0.9,0,1.6-0.7,1.6-1.6C47.5,57.2,46.8,56.5,45.9,56.5z"/>
	<path class="st1" d="M46,50.2c-3,0-5.8-1.2-8-3.3c-2.1-2.1-3.3-5-3.3-8c0-0.9-0.7-1.6-1.6-1.6c-0.9,0-1.6,0.7-1.6,1.6
		c0,3.9,1.6,7.5,4.3,10.2c2.7,2.7,6.3,4.2,10.2,4.3h0c0.9,0,1.6-0.7,1.6-1.6C47.6,50.9,46.8,50.2,46,50.2z"/>
</g>
</svg>
