<?xml version="1.0" encoding="utf-8"?>
<!-- Generator: Adobe Illustrator 24.0.2, SVG Export Plug-In . SVG Version: 6.00 Build 0)  -->
<svg version="1.1" id="Capa_1" xmlns="http://www.w3.org/2000/svg" xmlns:xlink="http://www.w3.org/1999/xlink" x="0px" y="0px"
	 viewBox="0 0 85.4 85.4" style="enable-background:new 0 0 85.4 85.4;" xml:space="preserve">
<style type="text/css">
	.st0{fill:#00A7B5;stroke:#00A7B5;stroke-miterlimit:10;}
	.st1{fill:#FFFFFF;}
	.st2{fill:#FFFFFF;stroke:#FFFFFF;stroke-width:1.5;stroke-miterlimit:10;}
</style>
<g>
	<g>
		<path class="st0" d="M42.8,2.4C23.4,2.4,10,19.5,8.7,34.5c-0.6,6.8,1.4,12.4,2.9,15.8c0.9,1.6,1.9,3.1,2.8,4.7
			c1.1,1.8,2.2,2.9,3.8,4.6c1.5,1.6,2.6,2.8,5,5.2c1.8,1.9,3.4,3.4,4.5,4.5c2.2,2.1,2.1,2,3.2,3.1c2.5,2.5,2.8,3,5.1,5.3
			c4.7,4.8,5.6,4.8,6.1,4.7c0.7-0.2,1.8-1.2,4-3.1c0,0,0.2-0.2,0.4-0.3c2-1.9,3.5-3.5,3.8-3.8c1.6-1.8,1.7-1.5,5.8-5.5
			c1.5-1.5,4.5-4.4,6-5.9c0.1-0.1,0.2-0.2,0.4-0.4c1-1,1.7-1.8,2.2-2.2c1.5-1.7,3-3.5,3.4-4c1.3-1.7,3.1-4.1,4.7-7.3
			c3.6-7.2,4.1-13.6,4.1-15.3C76.9,16.8,61.6,2.4,42.8,2.4z"/>
	</g>
</g>
<g>
	<g>
		<path class="st1" d="M44,14.1H19.3c-0.7,0-1.3,0.6-1.3,1.3v35.6c0,0.7,0.6,1.3,1.3,1.3H44c0.7,0,1.3-0.6,1.3-1.3V15.4
			C45.4,14.7,44.8,14.1,44,14.1z M19.3,20.6h24.8V47H19.3V20.6z M19.3,15.3H44c0,0,0,0,0,0v4H19.3L19.3,15.3
			C19.3,15.3,19.3,15.3,19.3,15.3z M44,51H19.3c0,0,0,0,0,0v-2.7h24.8L44,51C44.1,50.9,44.1,51,44,51z"/>
		<path class="st1" d="M40.6,22H22.8c-0.4,0-0.6,0.4-0.6,0.8c0,0.4,0.3,0.8,0.6,0.8h17.8c0.4,0,0.6-0.4,0.6-0.8
			C41.2,22.3,41,22,40.6,22z"/>
		<path class="st1" d="M27.6,18h8.2c0.4,0,0.6-0.3,0.6-0.6s-0.3-0.6-0.6-0.6h-8.2c-0.4,0-0.6,0.3-0.6,0.6S27.2,18,27.6,18z"/>
	</g>
	<line class="st2" x1="24.5" y1="15" x2="24.5" y2="19.7"/>
	<line class="st2" x1="38.9" y1="15" x2="38.9" y2="19.7"/>
</g>
<g>
	<g>
		<g>
			<path class="st1" d="M55.3,41l-2.6-0.8c-0.4-0.1-0.7,0.1-0.9,0.4L51,43.3c-0.1,0.4,0.1,0.7,0.4,0.9l2.6,0.8
				c0.4,0.1,0.7-0.1,0.9-0.4l0.8-2.6C55.9,41.5,55.7,41.2,55.3,41z M53.8,43.4L52.5,43l0.4-1.3l1.3,0.4L53.8,43.4L53.8,43.4z"/>
			<path class="st1" d="M51.6,52.7L49,51.9c-0.4-0.1-0.7,0.1-0.9,0.4L47.4,55c-0.1,0.4,0.1,0.7,0.4,0.9l2.6,0.8
				c0.4,0.1,0.7-0.1,0.9-0.4l0.8-2.6C52.2,53.2,52,52.8,51.6,52.7z M50.2,55.1l-1.3-0.4l0.4-1.3l1.3,0.4L50.2,55.1L50.2,55.1z"/>
			<path class="st1" d="M67,44.7l-2.6-0.8c-0.4-0.1-0.7,0.1-0.9,0.4l-0.8,2.6c-0.1,0.4,0.1,0.7,0.4,0.9l2.6,0.8
				c0.4,0.1,0.7-0.1,0.9-0.4l0.8-2.6C67.5,45.2,67.3,44.8,67,44.7z M65.5,47.1l-1.3-0.4l0.4-1.3l1.3,0.4L65.5,47.1z"/>
			<path class="st1" d="M63.3,56.4l-2.6-0.8c-0.4-0.1-0.7,0.1-0.9,0.4l-0.8,2.6c-0.1,0.4,0.1,0.7,0.4,0.9l2.6,0.8
				c0.4,0.1,0.7-0.1,0.9-0.4l0.8-2.6C63.9,56.9,63.7,56.5,63.3,56.4z"/>
			<path class="st1" d="M59.4,43.8c-0.4-0.1-0.7,0.1-0.9,0.4c-0.1,0.4,0.1,0.7,0.4,0.9s0.7-0.1,0.9-0.4C60,44.3,59.8,43.9,59.4,43.8
				z"/>
			<path class="st1" d="M56.8,43c-0.4-0.1-0.7,0.1-0.9,0.4s0.1,0.7,0.4,0.9s0.7-0.1,0.9-0.4C57.4,43.4,57.2,43.1,56.8,43z"/>
			<path class="st1" d="M62,44.6c-0.4-0.1-0.7,0.1-0.9,0.4c-0.1,0.4,0.1,0.7,0.4,0.9c0.4,0.1,0.7-0.1,0.9-0.4S62.4,44.7,62,44.6z"/>
			<path class="st1" d="M55.8,55.4c-0.4-0.1-0.7,0.1-0.9,0.4c-0.1,0.4,0.1,0.7,0.4,0.9c0.4,0.1,0.7-0.1,0.9-0.4
				C56.3,55.9,56.1,55.6,55.8,55.4z"/>
			<path class="st1" d="M51.4,49.1c0.4,0.1,0.7-0.1,0.9-0.4c0.1-0.4-0.1-0.7-0.4-0.9c-0.4-0.1-0.7,0.1-0.9,0.4S51,49,51.4,49.1z"/>
			<path class="st1" d="M50.6,51.7c0.4,0.1,0.7-0.1,0.9-0.4c0.1-0.4-0.1-0.7-0.4-0.9s-0.7,0.1-0.9,0.4S50.2,51.6,50.6,51.7z"/>
			<path class="st1" d="M52.2,46.5c0.4,0.1,0.7-0.1,0.9-0.4c0.1-0.4-0.1-0.7-0.4-0.9s-0.7,0.1-0.9,0.4S51.8,46.4,52.2,46.5z"/>
			<path class="st1" d="M63,52.7c0.4,0.1,0.7-0.1,0.9-0.4c0.1-0.4-0.1-0.7-0.4-0.9c-0.4-0.1-0.7,0.1-0.9,0.4
				C62.5,52.2,62.7,52.6,63,52.7z"/>
			<path class="st1" d="M62.2,55.3c0.4,0.1,0.7-0.1,0.9-0.4c0.1-0.4-0.1-0.7-0.4-0.9c-0.4-0.1-0.7,0.1-0.9,0.4
				C61.7,54.8,61.9,55.2,62.2,55.3z"/>
			<path class="st1" d="M63.9,50.1c0.4,0.1,0.7-0.1,0.9-0.4s-0.1-0.7-0.4-0.9s-0.7,0.1-0.9,0.4C63.3,49.6,63.5,50,63.9,50.1z"/>
			<path class="st1" d="M53.2,54.6c-0.4-0.1-0.7,0.1-0.9,0.4s0.1,0.7,0.4,0.9c0.4,0.1,0.7-0.1,0.9-0.4
				C53.7,55.1,53.5,54.7,53.2,54.6z"/>
			<path class="st1" d="M58.4,56.3c-0.4-0.1-0.7,0.1-0.9,0.4c-0.1,0.4,0.1,0.7,0.4,0.9c0.4,0.1,0.7-0.1,0.9-0.4S58.7,56.4,58.4,56.3
				z"/>
		</g>
	</g>
</g>
</svg>
