<?xml version="1.0" encoding="utf-8"?>
<!-- Generator: Adobe Illustrator 24.0.2, SVG Export Plug-In . SVG Version: 6.00 Build 0)  -->
<svg version="1.1" id="Capa_1" xmlns="http://www.w3.org/2000/svg" xmlns:xlink="http://www.w3.org/1999/xlink" x="0px" y="0px"
	 viewBox="0 0 85.4 85.4" style="enable-background:new 0 0 85.4 85.4;" xml:space="preserve">
<style type="text/css">
	.st0{fill:#00A7B5;stroke:#00A7B5;stroke-miterlimit:10;}
	.st1{fill:#FFFFFF;}
</style>
<circle id="Ciculo" class="st0" cx="42.7" cy="42.7" r="40.3"/>
<g>
	<g>
		<g>
			<path class="st1" d="M69.5,67.8L51.4,49.6c3.8-4.2,6.1-9.7,6.1-15.7c0-13-10.6-23.6-23.6-23.6S10.3,20.9,10.3,33.9
				s10.6,23.6,23.6,23.6c6.1,0,11.6-2.3,15.7-6.1l18.1,18.1c0.2,0.2,0.6,0.4,0.9,0.4s0.6-0.1,0.9-0.4C70,69,70,68.2,69.5,67.8z
				 M33.9,55c-11.6,0-21.1-9.5-21.1-21.1s9.5-21.1,21.1-21.1S55,22.3,55,33.9S45.5,55,33.9,55z"/>
		</g>
	</g>
	<g transform="matrix(0.94,0,0,0.94,15.359999084472719,15.359999999999985)">
		<g>
			<g>
				<path class="st1" d="M37,12.7l-5.4,0l0-7.6c0-0.6-0.5-1.1-1.1-1.1s-1.1,0.5-1.1,1.1l0.1,16.3l-2.7,0l-1.9-3.7
					c-0.2-0.4-0.6-0.6-1-0.6l-1.4,0L18.4,6.9c-0.2-0.4-0.6-0.7-1-0.7l-8.6,0C7,6.3,5.6,7.8,5.6,9.6l0,7.6l-1.1,0
					c-1.8,0-3.2,1.5-3.2,3.3l0,8.7c0,0.6,0.5,1.1,1.1,1.1l1.3,0c0.4,1.3,1.7,2.2,3.1,2.2s2.6-0.9,3-2.2l9,0c0.4,1.3,1.7,2.2,3.1,2.2
					c1.4,0,2.6-0.9,3-2.2l1.3,0c0.6,0,1.1-0.5,1.1-1.1l0-5.4l2.3,0l0,3.3c0,0.6,0.5,1.1,1.1,1.1l6.5,0c0.6,0,1.1-0.5,1.1-1.1
					l-0.1-13.1C38.1,13.2,37.6,12.7,37,12.7L37,12.7z M7.8,9.6c0-0.6,0.5-1.1,1.1-1.1l7.9,0l3.5,8.7l-2.3,0L15.8,15l0.3-0.3
					c0.4-0.4,0.4-1.1,0-1.5c-0.4-0.4-1.1-0.4-1.5,0l-2.1,2.2c-0.4,0.4-0.4,1.1,0,1.5c0.4,0.4,1.1,0.4,1.5,0l0.3-0.3l1.9,1.9
					l-1.5,3.1l-3,0l-1.9-3.7c-0.2-0.4-0.6-0.6-1-0.6l-1.1,0L7.8,9.6z M6.8,30.2c-0.6,0-1.1-0.5-1.1-1.1c0-0.6,0.5-1.1,1.1-1.1
					c0.6,0,1.1,0.5,1.1,1.1C7.8,29.7,7.4,30.2,6.8,30.2z M21.8,30.2c-0.6,0-1.1-0.5-1.1-1.1c0-0.6,0.5-1.1,1.1-1.1
					c0.6,0,1.1,0.5,1.1,1.1C22.9,29.7,22.4,30.2,21.8,30.2z M25.1,28l-0.2,0c-0.4-1.3-1.7-2.2-3.1-2.2c-1.4,0-2.6,0.9-3,2.2l-9,0
					c-0.4-1.3-1.7-2.2-3.1-2.2c-1.4,0-2.6,0.9-3,2.2l-0.2,0l0-7.6c0-0.6,0.5-1.1,1.1-1.1l3.6,0l1.9,3.7c0.2,0.4,0.6,0.6,1,0.6l4.3,0
					c0.4,0,0.8-0.2,1-0.6l1.8-3.8l3.6,0c0,0,0,0,0,0c0,0,0,0,0,0l1.5,0l1.8,3.5L25.1,28z M36,25.8l-4.3,0l0-4.4l4.3,0L36,25.8z
					 M35.9,19.2l-4.3,0l0-4.4l4.3,0L35.9,19.2z"/>
			</g>
		</g>
	</g>
</g>
</svg>
