<?xml version="1.0" encoding="utf-8"?>
<!-- Generator: Adobe Illustrator 24.0.2, SVG Export Plug-In . SVG Version: 6.00 Build 0)  -->
<svg version="1.1" id="Capa_1" xmlns="http://www.w3.org/2000/svg" xmlns:xlink="http://www.w3.org/1999/xlink" x="0px" y="0px"
	 viewBox="0 0 85.4 85.4" style="enable-background:new 0 0 85.4 85.4;" xml:space="preserve">
<style type="text/css">
	.st0{fill:none;}
	.st1{fill:#1E407F;}
</style>
<circle id="Ciculo" class="st0" cx="42.7" cy="42.7" r="40.3"/>
<g>
	<path class="st1" d="M69.9,52.5c0.5,0,0.9-0.4,0.9-0.9V40.4c0-0.5-0.4-0.9-0.9-0.9h-13c-0.5,0-0.9,0.4-0.9,0.9v10.2h-1.9V32.1h0.9
		c1.5,0,2.8-1.2,2.8-2.8v-13c0-1.5-1.2-2.8-2.8-2.8h-0.9v-0.9c0-0.5-0.4-0.9-0.9-0.9h-3.7c-0.5,0-0.9,0.4-0.9,0.9l0,40.1
		c-0.6-0.4-1.2-0.6-1.9-0.8v-8.6c0-0.5-0.4-0.9-0.9-0.9h-0.9V22.8h0.9c0.5,0,0.9-0.4,0.9-0.9v-3.7c0-0.5-0.4-0.9-0.9-0.9H16.1
		c-0.5,0-0.9,0.4-0.9,0.9v3.7c0,0.5,0.4,0.9,0.9,0.9H17v16.8c-0.3,0-0.6-0.1-0.9-0.1c-0.5,0-0.9,0.4-0.9,0.9v20.4h0
		c-1.1,0.8-1.9,2.2-1.9,3.7c0,2.6,2.1,4.6,4.6,4.6c2.2,0,4.1-1.6,4.5-3.7h24.3c0.4,2.1,2.3,3.7,4.5,3.7c1.5,0,2.9-0.7,3.7-1.9v0
		h14.9c0.5,0,0.9-0.4,0.9-0.9v-3.7c0-0.5-0.4-0.9-0.9-0.9H69v-9.3H69.9z M54.2,15.4h0.9c0.5,0,0.9,0.4,0.9,0.9v13
		c0,0.5-0.4,0.9-0.9,0.9h-0.9V15.4z M62.5,41.4h1.9v3.7h-1.9V41.4z M50.5,13.5h1.8V60c-0.1,0-0.1,0-0.2,0l-0.7-3.3
		c-0.2-0.8-0.5-1.5-0.9-2.2L50.5,13.5z M17,19.1h27.8v1.9H17V19.1z M39.6,38.9l-1.7,1.7l-0.7-0.7l-1.3,1.3l0.7,0.7l-1.7,1.7l1.3,1.3
		l1.7-1.7l3.2,3.2v1.5h-5.6v-0.9c0-1.5-1.2-2.8-2.8-2.8h-4.6c-0.6,0-1-0.4-1-1v-8.7c0-1.8-1.5-3.2-3.2-3.2c-1.8,0-3.2,1.5-3.2,3.2
		v6.5c-0.6-0.4-1.2-0.7-1.9-0.9V22.8H43v19.5h-0.9c-0.5,0-0.9,0.4-0.9,0.9v0.5l-1.9-1.9l1.7-1.7L39.6,38.9z M22.6,34.4
		c0-0.8,0.6-1.4,1.4-1.4s1.4,0.6,1.4,1.4v8.7c0,1.6,1.3,2.9,2.9,2.9h4.6c0.5,0,0.9,0.4,0.9,0.9v0.9h-9.3c0-2-0.7-3.8-1.9-5.2V34.4z
		 M24.5,49.7h17.6c0.5,0,0.9-0.4,0.9-0.9v-4.6h1.9v7.4H24.5V49.7z M18,67.4c-1.5,0-2.8-1.2-2.8-2.8c0-1.5,1.2-2.8,2.8-2.8
		s2.8,1.2,2.8,2.8C20.7,66.1,19.5,67.4,18,67.4z M43,63.6H26.3v-3.7H43V63.6z M46.8,63.6h-2V59c0-0.5-0.4-0.9-0.9-0.9H25.4
		c-0.5,0-0.9,0.4-0.9,0.9v4.6h-2c-0.4-2.1-2.3-3.7-4.5-3.7c-0.3,0-0.6,0-0.9,0.1V41.4c3.1,0.5,5.6,3.2,5.6,6.4v4.6
		c0,0.5,0.4,0.9,0.9,0.9h21.5c2.2,0,4.1,1.5,4.5,3.6l0.7,3C48.5,60.5,47.2,61.9,46.8,63.6z M51.4,67.4c-1.5,0-2.8-1.2-2.8-2.8
		c0-1.5,1.2-2.8,2.8-2.8s2.8,1.2,2.8,2.8C54.2,66.1,52.9,67.4,51.4,67.4z M55.1,61.8c-0.3-0.4-0.6-0.7-0.9-0.9v-8.4h2.8h0.9v4.6
		c0,0.5,0.4,0.9,0.9,0.9h3.7c0.5,0,0.9-0.4,0.9-0.9v-4.6h3.7v9.3L55.1,61.8L55.1,61.8z M59.7,56.2v-3.7h1.9v3.7H59.7z M69,65.5H55.9
		c0.1-0.3,0.1-0.6,0.1-0.9c0-0.3,0-0.6-0.1-0.9H69V65.5z M68.1,50.7H57.9v-9.3h2.8V46c0,0.5,0.4,0.9,0.9,0.9h3.7
		c0.5,0,0.9-0.4,0.9-0.9v-4.6H69v9.3H68.1z"/>
</g>
</svg>
