<?xml version="1.0" encoding="utf-8"?>
<!-- Generator: Adobe Illustrator 24.0.2, SVG Export Plug-In . SVG Version: 6.00 Build 0)  -->
<svg version="1.1" id="Capa_1" xmlns="http://www.w3.org/2000/svg" xmlns:xlink="http://www.w3.org/1999/xlink" x="0px" y="0px"
	 viewBox="0 0 85.4 85.4" style="enable-background:new 0 0 85.4 85.4;" xml:space="preserve">
<style type="text/css">
	.st0{fill:none;}
	.st1{fill:#1E407F;}
</style>
<circle id="Ciculo" class="st0" cx="42.7" cy="42.7" r="40.3"/>
<g>
	<g>
		<g>
			<path class="st1" d="M34.6,20.4h-4.4c-0.6,0-1.1,0.5-1.1,1.1s0.5,1.1,1.1,1.1h4.4c0.6,0,1.1-0.5,1.1-1.1S35.2,20.4,34.6,20.4z"/>
		</g>
	</g>
	<g>
		<g>
			<path class="st1" d="M47.8,20.4h-4.4c-0.6,0-1.1,0.5-1.1,1.1s0.5,1.1,1.1,1.1h4.4c0.6,0,1.1-0.5,1.1-1.1S48.4,20.4,47.8,20.4z"/>
		</g>
	</g>
	<g>
		<g>
			<path class="st1" d="M34.6,54.6h-4.4c-0.6,0-1.1,0.5-1.1,1.1s0.5,1.1,1.1,1.1h4.4c0.6,0,1.1-0.5,1.1-1.1S35.2,54.6,34.6,54.6z"/>
		</g>
	</g>
	<g>
		<g>
			<path class="st1" d="M47.8,54.6h-4.4c-0.6,0-1.1,0.5-1.1,1.1s0.5,1.1,1.1,1.1h4.4c0.6,0,1.1-0.5,1.1-1.1S48.4,54.6,47.8,54.6z"/>
		</g>
	</g>
	<g>
		<g>
			<path class="st1" d="M21.3,42.4c-0.6,0-1.1,0.5-1.1,1.1v4.4c0,0.6,0.5,1.1,1.1,1.1c0.6,0,1.1-0.5,1.1-1.1v-4.4
				C22.4,42.9,21.9,42.4,21.3,42.4z"/>
		</g>
	</g>
	<g>
		<g>
			<path class="st1" d="M21.3,29.2c-0.6,0-1.1,0.5-1.1,1.1v4.4c0,0.6,0.5,1.1,1.1,1.1c0.6,0,1.1-0.5,1.1-1.1v-4.4
				C22.4,29.7,21.9,29.2,21.3,29.2z"/>
		</g>
	</g>
	<g>
		<g>
			<path class="st1" d="M56.6,42.4c-0.6,0-1.1,0.5-1.1,1.1v4.4c0,0.6,0.5,1.1,1.1,1.1s1.1-0.5,1.1-1.1v-4.4
				C57.7,42.9,57.2,42.4,56.6,42.4z"/>
		</g>
	</g>
	<g>
		<g>
			<path class="st1" d="M56.6,29.2c-0.6,0-1.1,0.5-1.1,1.1v4.4c0,0.6,0.5,1.1,1.1,1.1s1.1-0.5,1.1-1.1v-4.4
				C57.7,29.7,57.2,29.2,56.6,29.2z"/>
		</g>
	</g>
	<g>
		<g>
			<path class="st1" d="M58.8,18.2h-4.4c-0.6,0-1.1,0.5-1.1,1.1v4.4c0,0.6,0.5,1.1,1.1,1.1h4.4c0.6,0,1.1-0.5,1.1-1.1v-4.4
				C59.9,18.7,59.4,18.2,58.8,18.2z"/>
		</g>
	</g>
	<g>
		<g>
			<path class="st1" d="M23.5,18.2h-4.4c-0.6,0-1.1,0.5-1.1,1.1v4.4c0,0.6,0.5,1.1,1.1,1.1h4.4c0.6,0,1.1-0.5,1.1-1.1v-4.4
				C24.6,18.7,24.1,18.2,23.5,18.2z"/>
		</g>
	</g>
	<g>
		<g>
			<path class="st1" d="M23.5,52.4h-4.4c-0.6,0-1.1,0.5-1.1,1.1v4.4c0,0.6,0.5,1.1,1.1,1.1h4.4c0.6,0,1.1-0.5,1.1-1.1v-4.4
				C24.6,52.9,24.1,52.4,23.5,52.4z"/>
		</g>
	</g>
	<g>
		<g>
			<path class="st1" d="M70.4,58L50.5,47c-0.4-0.2-0.9-0.2-1.3,0.1c-0.4,0.3-0.5,0.8-0.3,1.2l8.8,22.1c0.2,0.4,0.6,0.7,1,0.7
				c0,0,0,0,0,0c0.4,0,0.8-0.3,1-0.7l3.1-7.3l7.3-3.1c0.4-0.2,0.6-0.5,0.7-1C71,58.6,70.8,58.2,70.4,58z"/>
		</g>
	</g>
</g>
</svg>
