<?xml version="1.0" encoding="utf-8"?>
<!-- Generator: Adobe Illustrator 24.0.2, SVG Export Plug-In . SVG Version: 6.00 Build 0)  -->
<svg version="1.1" id="Capa_1" xmlns="http://www.w3.org/2000/svg" xmlns:xlink="http://www.w3.org/1999/xlink" x="0px" y="0px"
	 viewBox="0 0 147.8 134.2" style="enable-background:new 0 0 147.8 134.2;" xml:space="preserve">
<style type="text/css">
	.st0{opacity:0.569;}
	.st1{fill:#00A7B5;}
	.st2{fill:#DCEFF2;}
	.st3{display:none;}
	.st4{display:inline;}
</style>
<g transform="translate(130.6 95)" class="st0">
	<g transform="translate(3.4)">
		<g transform="translate(0)">
			<path class="st1" d="M9-90.2C5.8-93.3,1.6-95-2.8-95h-15.8v6.3h15.7c5.7,0,10.3,4.6,10.3,10.3v16.8h6.3v-16.9
				C13.7-82.9,12-87.1,9-90.2z"/>
			<path class="st1" d="M-124.6,29.7c-1.9-1.9-3-4.5-3-7.3V5.8h-6.3v16.8c0,4.4,1.7,8.6,4.8,11.7c3.2,3,7.4,4.8,11.8,4.8h15.7v-6.3
				h-15.7C-120.1,32.8-122.7,31.7-124.6,29.7z"/>
			<path class="st1" d="M7.3,22.6c0,5.7-4.6,10.3-10.3,10.3h-15.6v6.3h15.7c4.4,0,8.6-1.7,11.7-4.8c3.1-3.1,4.8-7.3,4.8-11.7V5.8
				H7.3L7.3,22.6z"/>
			<path class="st1" d="M-129.1-90.2c-3.1,3.1-4.8,7.3-4.8,11.7v16.8h6.3v-16.8c0-5.7,4.6-10.3,10.3-10.3h15.7V-95h-15.8
				C-121.7-95-125.9-93.3-129.1-90.2z"/>
		</g>
	</g>
</g>
<g transform="translate(184.192 142.748)">
	<g transform="translate(0 0)">
		<path class="st1" d="M-102-89.9h-3.8l-2.1-3.2c-0.8-1.2-2.2-1.9-3.6-1.9h-8.7c-1.4,0-2.8,0.7-3.6,1.9l-2.1,3.2h-3.8
			c-2.4,0-4.3,1.9-4.3,4.3c0,0,0,0,0,0v15.3c0,2.4,1.9,4.3,4.3,4.3c0,0,0,0,0,0h27.7c2.4,0,4.3-1.9,4.3-4.3c0,0,0,0,0,0v-15.3
			C-97.6-88-99.6-89.9-102-89.9C-102-89.9-102-89.9-102-89.9z M-115.8-69.5c-5.4,0-9.8-4.4-9.8-9.8s4.4-9.8,9.8-9.8s9.8,4.4,9.8,9.8
			c0,0,0,0,0,0C-106-73.8-110.4-69.5-115.8-69.5z M-102.5-83.8h-1.7c-0.7,0-1.3-0.6-1.2-1.3c0-0.7,0.6-1.2,1.2-1.2h1.6
			c0.7,0,1.3,0.5,1.3,1.2c0,0,0,0,0,0C-101.3-84.5-101.8-83.9-102.5-83.8C-102.5-83.8-102.5-83.8-102.5-83.8z"/>
		<g transform="translate(12.725 10.314)">
			<path class="st1" d="M-128.5-95c-3,0-5.4,2.5-5.4,5.5s2.5,5.4,5.5,5.4c3,0,5.4-2.5,5.4-5.5c0,0,0,0,0,0
				C-123.1-92.6-125.6-95-128.5-95z"/>
		</g>
	</g>
	<g transform="translate(24.808 18.252)">
		<circle class="st2" cx="-123.5" cy="-84.5" r="10.5"/>
		<g class="st3">
			<defs>
				<rect id="SVGID_1_" x="-130" y="-91" width="13" height="13"/>
			</defs>
			<use xlink:href="#SVGID_1_"  style="display:inline;overflow:visible;fill:#00A7B5;"/>
			<clipPath id="SVGID_2_" class="st4">
				<use xlink:href="#SVGID_1_"  style="overflow:visible;"/>
			</clipPath>
		</g>
		<g transform="translate(4 4)">
			<path class="st1" d="M-127.9-81v-6.1h-6.1v-1.8h6.1V-95h1.8v6.1h6.1v1.8h-6.1v6.1H-127.9z"/>
		</g>
	</g>
</g>
</svg>
