<?xml version="1.0" encoding="utf-8"?>
<!-- Generator: Adobe Illustrator 24.0.2, SVG Export Plug-In . SVG Version: 6.00 Build 0)  -->
<svg version="1.1" id="Capa_1" xmlns:svgjs="http://svgjs.com/svgjs"
	 xmlns="http://www.w3.org/2000/svg" xmlns:xlink="http://www.w3.org/1999/xlink" x="0px" y="0px" viewBox="0 0 806 678.5"
	 style="enable-background:new 0 0 806 678.5;" xml:space="preserve">
<style type="text/css">
	.st0{fill:#00A7B5;}
	.st1{fill:#1D4F94;}
	.st2{fill:#FFFFFF;}
</style>
<g>
	<g>
		<g>
			<path class="st0" d="M266.9,321.7c-24.5,0-44.4,19.8-44.4,44.2c0,24.4,19.9,44.2,44.4,44.2c24.5,0,44.4-19.9,44.4-44.2
				C311.3,341.6,291.4,321.7,266.9,321.7z"/>
		</g>
	</g>
	<g>
		<g>
			<path class="st0" d="M375.2,261.5c-28.9-28.9-67.4-44.8-108.3-44.8c-40.8,0-79.1,15.8-108,44.5c-11.7,11.6-11.7,30.5,0,42.2
				c5.7,5.7,13.2,8.8,21.2,8.8c8,0,15.5-3.1,21.1-8.7c17.6-17.5,40.9-27.1,65.7-27.1c24.9,0,48.3,9.7,65.9,27.3
				c5.7,5.6,13.2,8.8,21.2,8.8c8,0,15.5-3.1,21.1-8.7C386.8,292,386.8,273.1,375.2,261.5z"/>
		</g>
	</g>
	<g>
		<g>
			<path class="st0" d="M514.3,122.8C448.2,57,360.3,20.7,266.9,20.7c-93.3,0-181.1,36.2-247.1,101.9c-11.7,11.6-11.7,30.5,0,42.2
				c5.6,5.6,13.2,8.7,21.2,8.7c8,0,15.5-3.1,21.1-8.7c54.7-54.5,127.5-84.5,204.8-84.5c77.5,0,150.3,30.1,205,84.7
				c5.6,5.6,13.2,8.7,21.2,8.7c8,0,15.5-3.1,21.1-8.7C525.9,153.4,525.9,134.5,514.3,122.8z"/>
		</g>
	</g>
	<g>
		<g>
			<path class="st0" d="M443,193.9c-47-46.9-109.5-72.7-176.1-72.7c-66.4,0-128.8,25.8-175.8,72.5c-5.7,5.6-8.8,13.1-8.8,21.1
				c0,8,3.1,15.4,8.8,21.1c5.6,5.6,13.2,8.7,21.2,8.7c8,0,15.5-3.1,21.1-8.7c35.7-35.5,83.1-55.1,133.5-55.1
				c50.5,0,98,19.6,133.7,55.3c5.7,5.6,13.2,8.8,21.2,8.8c8,0,15.5-3.1,21.1-8.7c5.6-5.6,8.8-13.1,8.8-21.1
				C451.7,207,448.6,199.5,443,193.9z"/>
		</g>
	</g>
</g>
<path class="st1" d="M603.8,229.6l178.7,309.6c6.6,11.4,10.3,24.5,10.3,38.6c0,42.7-34.6,77.3-77.3,77.3H536.9L475.1,423l61.8-232.1
	C565.5,190.9,590.5,206.5,603.8,229.6z"/>
<path class="st1" d="M470,229.6L291.2,539.2c-6.6,11.4-10.3,24.5-10.3,38.6c0,42.7,34.6,77.3,77.3,77.3h178.7V190.9
	C508.3,190.9,483.3,206.5,470,229.6z"/>
<path class="st2" d="M755.8,554.6L577.1,245.1c-8.1-14-22.8-22.8-38.8-23.2l152.9,402.3h24.5c25.6,0,46.4-20.8,46.4-46.4
	C762,569.6,759.9,561.6,755.8,554.6z"/>
<path class="st2" d="M725.8,554.6c3.5,7,5.3,15,5.3,23.1c0,25.6-17.9,46.4-40,46.4H358.2c-25.6,0-46.4-20.8-46.4-46.4
	c0-8.1,2.1-16.1,6.2-23.1l178.7-309.6c8.3-14.3,23.7-23.3,40.2-23.3c0.4,0,0.9,0,1.3,0c13.7,0.5,26.4,9.3,33.3,23.2L725.8,554.6z"/>
<path class="st1" d="M536.9,521.1v51.5c14.2,0,25.8-11.5,25.8-25.8C562.7,532.6,551.1,521.1,536.9,521.1z"/>
<path class="st1" d="M536.9,521.1c2.8,0,5.2,11.5,5.2,25.8c0,14.2-2.3,25.8-5.2,25.8c-14.2,0-25.8-11.5-25.8-25.8
	C511.2,532.6,522.7,521.1,536.9,521.1z"/>
<path class="st1" d="M536.9,299.6v190.6c14.2,0,25.8-11.5,25.8-25.8V325.4C562.7,311.1,551.1,299.6,536.9,299.6z"/>
<path class="st1" d="M536.9,299.6c2.8,0,5.2,11.5,5.2,25.8v139.1c0,14.2-2.3,25.8-5.2,25.8c-14.2,0-25.8-11.5-25.8-25.8V325.4
	C511.2,311.1,522.7,299.6,536.9,299.6z"/>
</svg>
