<?xml version="1.0" encoding="utf-8"?>
<!-- Generator: Adobe Illustrator 24.0.2, SVG Export Plug-In . SVG Version: 6.00 Build 0)  -->
<svg version="1.1" id="Capa_1" xmlns="http://www.w3.org/2000/svg" xmlns:xlink="http://www.w3.org/1999/xlink" x="0px" y="0px"
	 viewBox="0 0 512 512" style="enable-background:new 0 0 512 512;" xml:space="preserve">
<style type="text/css">
	.st0{fill:#FFFFFF;}
</style>
<g>
	<g>
		<g>
			<path class="st0" d="M21.5,256c0,121.5,98.3,219.8,219.8,219.8c10.1,0,18.3-8.2,18.3-18.3c0-10.1-8.2-18.3-18.3-18.3
				c-101,0-183.2-82.2-183.2-183.2S140.3,72.8,241.3,72.8c88,0,161.7,62.4,179.2,145.2h-13.2c-6.8,0-13,3.7-16.2,9.7
				c-3.2,6-2.8,13.2,0.9,18.8l32.4,48.7c3.4,5.1,9.1,8.2,15.2,8.2c6.1,0,11.8-3.1,15.2-8.2l32.4-48.7c3.7-5.6,4.1-12.8,0.9-18.8
				c-3.2-6-9.4-9.7-16.2-9.7h-14.3C440.2,115.9,351,36.2,241.3,36.2C119.8,36.2,21.5,134.5,21.5,256z"/>
		</g>
	</g>
</g>
</svg>
