<?xml version="1.0"?>
<svg xmlns="http://www.w3.org/2000/svg" xmlns:xlink="http://www.w3.org/1999/xlink" xmlns:svgjs="http://svgjs.com/svgjs" version="1.1" width="512" height="512" x="0" y="0" viewBox="0 0 64 64" style="enable-background:new 0 0 512 512" xml:space="preserve" class=""><g><g xmlns="http://www.w3.org/2000/svg" id="Email-2" data-name="Email"><path d="M9,38H61a1,1,0,0,0,1-1V3a1,1,0,0,0-1-1H9A1,1,0,0,0,8,3V37A1,1,0,0,0,9,38ZM33.115,23.763a3.018,3.018,0,0,0,3.77,0l3.066-2.477L58.17,36H11.83L30.049,21.286ZM41.543,20,60,5.093V34.907Zm-5.915,2.206a1,1,0,0,1-1.256,0L11.83,4H58.17ZM28.457,20,10,34.907V5.093Z" fill="#ffffff" data-original="#000000" style=""/><path d="M61.885,40.9a4.025,4.025,0,0,0-5.495-1.446l-11.193,7a3.964,3.964,0,0,0-2.7-2.462L28.708,40.03a9,9,0,0,0-7.259,1.012l-4.469,2.8a1.1,1.1,0,0,1-.55.16H16V41a1,1,0,0,0-1-1H3a1,1,0,0,0-1,1V61a1,1,0,0,0,1,1H15a1,1,0,0,0,1-1V58.478l2.2.879A8.87,8.87,0,0,0,21.54,60h16a8.928,8.928,0,0,0,5.051-1.552L60.424,46.364A4.007,4.007,0,0,0,61.885,40.9ZM14,60H4V42H14ZM59.359,44.672,41.466,56.794A6.937,6.937,0,0,1,37.54,58h-16a6.891,6.891,0,0,1-2.6-.5L16,56.323V46h.43a3.11,3.11,0,0,0,1.591-.452l4.489-2.81a7,7,0,0,1,5.644-.787l13.809,3.966a1.985,1.985,0,0,1,1.472,2.1h0l0,.032a1.512,1.512,0,0,1-.058.318,2.054,2.054,0,0,1-2.464,1.411l-10.66-2.75a1,1,0,1,0-.5,1.936L40.4,51.716a4.018,4.018,0,0,0,4.9-2.8c.019-.065.036-.132.052-.2l12.066-7.546a2.015,2.015,0,0,1,2.736.731,1.992,1.992,0,0,1,.267.992A2.065,2.065,0,0,1,59.359,44.672Z" fill="#ffffff" data-original="#000000" style=""/><path d="M9,43a3,3,0,1,0,3,3A3,3,0,0,0,9,43Zm0,4a1,1,0,1,1,1-1A1,1,0,0,1,9,47Z" fill="#ffffff" data-original="#000000" style=""/></g></g></svg>
