<?xml version="1.0" encoding="utf-8"?>
<!-- Generator: Adobe Illustrator 24.0.2, SVG Export Plug-In . SVG Version: 6.00 Build 0)  -->
<svg version="1.1" id="Layer_1" xmlns="http://www.w3.org/2000/svg" xmlns:xlink="http://www.w3.org/1999/xlink" x="0px" y="0px"
	 viewBox="0 0 512 512" style="enable-background:new 0 0 512 512;" xml:space="preserve">
<style type="text/css">
	.st0{fill:#FFFFFF;stroke:#FFFFFF;stroke-miterlimit:10;}
	.st1{fill:none;stroke:#FFFFFF;stroke-width:12;stroke-miterlimit:10;}
	.st2{fill:none;stroke:#000000;stroke-width:12;stroke-miterlimit:10;}
</style>
<g>
	<g>
		<path class="st0" d="M400.3,175.6c-1.4-3-4.4-4.9-7.7-4.9H291.4l99.8-157.6c1.7-2.6,1.8-6,0.3-8.7C390,1.7,387.1,0,384,0H247.5
			c-3.2,0-6.2,1.8-7.6,4.7l-128,256c-1.3,2.6-1.2,5.8,0.4,8.3s4.3,4.1,7.3,4.1h87.7l-95.6,227.1c-1.6,3.9-0.2,8.4,3.4,10.6
			c1.4,0.8,2.9,1.3,4.4,1.3c2.4,0,4.9-1,6.5-3l273.1-324.3C401.2,182.2,401.7,178.6,400.3,175.6z"/>
	</g>
</g>
<line class="st1" x1="110.9" y1="87" x2="401.1" y2="416"/>
<line class="st2" x1="119.3" y1="79.9" x2="409.4" y2="408.9"/>
<line class="st2" x1="128.1" y1="72.7" x2="418.2" y2="401.7"/>
<line class="st1" x1="98.9" y1="91" x2="389.1" y2="420"/>
</svg>
