<?xml version="1.0" encoding="utf-8"?>
<!-- Generator: Adobe Illustrator 24.0.2, SVG Export Plug-In . SVG Version: 6.00 Build 0)  -->
<svg version="1.1" id="Capa_1" xmlns="http://www.w3.org/2000/svg" xmlns:xlink="http://www.w3.org/1999/xlink" x="0px" y="0px"
	 viewBox="0 0 512 512" style="enable-background:new 0 0 512 512;" xml:space="preserve">
<style type="text/css">
	.st0{fill:#FFFFFF;}
</style>
<path class="st0" d="M256,275c-41.2,0-74.7-33.5-74.7-74.7c0-41.2,33.5-74.7,74.7-74.7s74.7,33.5,74.7,74.7
	C330.7,241.5,297.2,275,256,275z M256,157.7c-23.5,0-42.7,19.1-42.7,42.7S232.5,243,256,243s42.7-19.1,42.7-42.7
	S279.5,157.7,256,157.7z"/>
<path class="st0" d="M261.3,451C114.8,451,0,392.4,0,317.7c0-20.1,3.3-35.4,20.4-53.4c6.1-6.4,16.2-6.7,22.6-0.7
	c6.4,6.1,6.7,16.2,0.7,22.6c-10,10.6-11.7,17.1-11.7,31.5C32,366.6,124.2,419,261.3,419c8.8,0,16,7.2,16,16S270.2,451,261.3,451z"/>
<path class="st0" d="M304.7,448.1c-8.1,0-15-6.1-15.9-14.3c-0.9-8.8,5.4-16.7,14.2-17.6C408.9,404.8,480,358.8,480,323
	c0-18.2-3.4-24.2-13.3-38.9c-4.9-7.3-3-17.3,4.4-22.2c7.3-4.9,17.3-3,22.2,4.4c11.6,17.3,18.7,29.8,18.7,56.7
	c0,59.6-86.4,112.2-205.5,125C305.9,448.1,305.3,448.1,304.7,448.1z"/>
<path class="st0" d="M400,339H112c-26.5,0-48-21.5-48-48V131c0-26.5,21.5-48,48-48h48.8l21.7-43.4c6.4-12.7,19.2-20.6,33.4-20.6
	h80.3c14.2,0,27,7.9,33.4,20.6L351.2,83H400c26.5,0,48,21.5,48,48v160C448,317.5,426.5,339,400,339z M112,115c-8.8,0-16,7.2-16,16
	v160c0,8.8,7.2,16,16,16h288c8.8,0,16-7.2,16-16V131c0-8.8-7.2-16-16-16h-58.7c-6.1,0-11.6-3.4-14.3-8.9l-26.1-52.2
	c-0.9-1.8-2.7-2.9-4.8-2.9h-80.3c-2,0-3.9,1.1-4.8,2.9L185,106.1c-2.7,5.4-8.3,8.9-14.3,8.9H112z"/>
<path class="st0" d="M208,493.7c-4.7,0-9.3-2.1-12.5-6c-5.5-6.9-4.4-17,2.5-22.5l37.7-30.2L198,404.8c-6.9-5.5-8-15.6-2.5-22.5
	c5.5-6.9,15.6-8,22.5-2.5l53.3,42.7c3.8,3.1,6,7.6,6,12.5s-2.2,9.4-6,12.5L218,490.1C215,492.5,211.5,493.7,208,493.7z"/>
</svg>
