<?xml version="1.0" encoding="utf-8"?>
<!-- Generator: Adobe Illustrator 24.0.2, SVG Export Plug-In . SVG Version: 6.00 Build 0)  -->
<svg version="1.1" id="Capa_1" xmlns="http://www.w3.org/2000/svg" xmlns:xlink="http://www.w3.org/1999/xlink" x="0px" y="0px"
	 viewBox="0 0 512 512" style="enable-background:new 0 0 512 512;" xml:space="preserve">
<style type="text/css">
	.st0{fill:#FFFFFF;}
</style>
<g>
	<g>
		<g>
			<path class="st0" d="M270.7,36.2C161,36.2,71.8,115.9,54.1,218H39.8c-6.8,0-13,3.7-16.2,9.7c-3.2,6-2.8,13.2,0.9,18.8L57,295.2
				c3.4,5.1,9.1,8.2,15.2,8.2c6.1,0,11.8-3.1,15.2-8.2l32.4-48.7c3.7-5.6,4.1-12.8,0.9-18.8c-3.2-6-9.4-9.7-16.2-9.7H91.5
				C109,135.2,182.7,72.8,270.7,72.8c101,0,183.2,82.2,183.2,183.2s-82.2,183.2-183.2,183.2c-10.1,0-18.3,8.2-18.3,18.3
				c0,10.1,8.2,18.3,18.3,18.3c121.5,0,219.8-98.3,219.8-219.8C490.5,134.5,392.2,36.2,270.7,36.2z"/>
		</g>
	</g>
</g>
</svg>
