<?xml version="1.0" encoding="utf-8"?>
<!-- Generator: Adobe Illustrator 24.0.2, SVG Export Plug-In . SVG Version: 6.00 Build 0)  -->
<svg version="1.1" id="Capa_1" xmlns="http://www.w3.org/2000/svg" xmlns:xlink="http://www.w3.org/1999/xlink" x="0px" y="0px"
	 viewBox="0 0 85.4 85.4" style="enable-background:new 0 0 85.4 85.4;" xml:space="preserve">
<style type="text/css">
	.st0{fill:none;}
	.st1{fill:#1E407F;}
</style>
<g>
	<g>
		<path class="st0" d="M42.8,2.4C23.4,2.4,10,19.5,8.7,34.5c-0.6,6.8,1.4,12.4,2.9,15.8c0.9,1.6,1.9,3.1,2.8,4.7
			c1.1,1.8,2.2,2.9,3.8,4.6c1.5,1.6,2.6,2.8,5,5.2c1.8,1.9,3.4,3.4,4.5,4.5c2.2,2.1,2.1,2,3.2,3.1c2.5,2.5,2.8,3,5.1,5.3
			c4.7,4.8,5.6,4.8,6.1,4.7c0.7-0.2,1.8-1.2,4-3.1c0,0,0.2-0.2,0.4-0.3c2-1.9,3.5-3.5,3.8-3.8c1.6-1.8,1.7-1.5,5.8-5.5
			c1.5-1.5,4.5-4.4,6-5.9c0.1-0.1,0.2-0.2,0.4-0.4c1-1,1.7-1.8,2.2-2.2c1.5-1.7,3-3.5,3.4-4c1.3-1.7,3.1-4.1,4.7-7.3
			c3.6-7.2,4.1-13.6,4.1-15.3C76.9,16.8,61.6,2.4,42.8,2.4z"/>
	</g>
</g>
<g transform="translate(0.000000,851.000000) scale(0.100000,-0.100000)">
	<path class="st1" d="M425.5,8270c-0.1-0.1-2.4-0.4-5.2-0.6c-21.5-1.7-39.7-6.8-58.3-16.4c-13.5-7-25.2-15.5-36.4-26.8
		c-11.7-11.7-20.4-23.7-27.7-38.3c-8.1-16-12.6-31.5-15-50c-0.9-7.2-0.9-26,0-33.2c2.2-18.3,6.9-34,14.7-49.7
		c20.1-40.2,56.9-68.9,100.5-78.7c5.6-1.2,12.4-2.3,17.7-2.8c2.1-0.2,5.8-0.6,8.1-0.8c9.9-0.9,28.4,1,42.3,4.4
		c26.3,6.5,50,19.9,69.2,39.2c39.9,39.9,53.7,98.3,35.9,151.9c-7.3,22-19.3,41.4-35.9,58c-23.3,23.3-53.4,38.2-85.7,42.3
		C441.4,8269.6,426,8270.5,425.5,8270z M445.4,8241.6c34.3-4.4,64.5-22.7,84.5-51.1c8.2-11.7,14.5-25.6,18.1-39.7
		c8.4-33.1,2.2-68.2-16.6-96.6c-7.9-11.8-19.5-23.8-31.1-31.9c-16.7-11.8-35.5-19-56.7-21.6c-5.5-0.7-22.5-0.6-28,0.2
		c-26,3.6-49.1,14.4-67.5,31.5c-20.6,19.2-33.4,43.7-37.6,71.5c-1.1,7.1-1.5,20-0.8,27.1c3.3,37.7,23.2,71,54.6,91.6
		c17.2,11.2,36.8,17.9,57.6,19.6C425.9,8242.6,441.2,8242.2,445.4,8241.6z"/>
	<path class="st1" d="M421.4,8239.1c-24.2-2-46.3-10.7-65.1-25.8c-4.9-3.9-13.8-12.8-17.8-17.8c-13.7-17.2-22.1-36.7-25.3-58.7
		c-0.8-6.2-1.1-20.9-0.4-27.6c3.9-36.4,23.7-68.2,54.9-88c26.5-16.8,59.8-22.2,90.6-14.6c44.7,11,79.1,47.1,88,92.2
		c1.7,8.6,1.9,11.6,1.9,22.5c0,10.9-0.3,14.5-1.9,22.7c-5.4,27.6-20.3,52-42.5,69.8c-17.8,14.3-39.8,23-63,25.2
		C437.2,8239.3,424.8,8239.4,421.4,8239.1z"/>
	<path class="st1" d="M613.7,8252.8c-6-6.8-11-25.8-13.3-50.3c-0.7-8.3-0.8-36.2-0.1-45.3c1.8-23.6,4.8-39.3,8.9-46.1l1.4-2.3
		l-0.4-6.3c-0.2-3.4-0.7-10.6-1.1-15.9c-0.6-8.8-1.5-21-3.5-50c-0.4-5.7-1-14.4-1.3-19.4c-0.6-8.3-0.6-9.2-0.1-10.3
		c1.1-2.3,4.3-3.6,9.3-3.6c3.6,0,6.3,0.6,7.9,1.8c2,1.5,2,1.4,1.3,18c-0.4,8.3-1,22.3-1.3,31.3c-0.4,9-1,23.4-1.4,32
		c-0.6,14.2-0.7,20.7-0.6,66.8c0,64.3-0.4,90.2-1.8,97.5C616.7,8254.8,616,8255.3,613.7,8252.8z"/>
	<path class="st1" d="M234.3,8240.3c-0.1-0.8-0.4-5.1-0.6-9.4s-0.6-10.8-0.9-14.5c-0.2-3.7-0.7-10.9-1-16.1
		c-0.3-5.2-0.7-11.7-0.9-14.3c-0.4-4.6-0.4-5.1,0.4-8.1c1-4.5,2.2-6.9,4.7-9.4c1.5-1.5,2.7-2.3,4.1-2.9c1.1-0.4,2.2-0.8,2.5-0.8
		s0.6-0.3,0.8-0.6c0.1-0.4,0.1-4.8-0.1-10c-0.2-5.2-0.8-16.5-1.2-25.2c-0.4-8.6-0.8-19-1.1-22.9c-0.1-3.9-0.8-17.6-1.4-30.3
		c-1.1-24.6-1.4-31.6-2.2-49.1c-0.8-16-0.7-17,0.4-19.2c1.4-2.6,3.7-3.9,7.5-4.1c5.1-0.3,8.5,1.1,10.1,4.2c0.8,1.4,0.8,1.8,0.7,8.1
		c0,3.7-0.2,12.2-0.4,19.1c-0.2,6.8-0.5,18-0.7,24.6c-0.4,13.6-0.8,30.9-1.4,48.3c-0.1,6.4-0.5,17.4-0.7,24.5
		c-0.2,7.2-0.5,17.1-0.6,22.2c-0.1,5.2-0.1,9.5,0,9.9c0.1,0.3,0.6,0.6,0.9,0.6c0.9,0,4.2,1.6,5.7,2.8c1.7,1.3,3.7,4.2,4.6,6.7
		c1.3,3.7,1.4,6,0.8,17.1c-0.5,11.1-0.6,12.2-1.4,22.9c-0.5,7.1-1.5,24.7-1.5,26.5c0,0.8-0.1,1-0.8,0.8l-0.8-0.1l-0.1-20.4
		l-0.1-20.4l-0.9-0.7c-1.2-0.9-2.3-0.9-3.5,0.1l-1,0.8l-0.2,8.8c-0.1,4.9-0.4,14-0.5,20.4l-0.2,11.4h-1.1h-1.1l-0.3-10.5
		c-0.1-5.8-0.4-15.1-0.5-20.5l-0.2-9.9l-0.8-0.7c-1.1-0.8-3-0.6-3.9,0.4c-0.6,0.7-0.6,2.2-0.6,21v20.2h-1.1h-1.2l-0.2-6.4
		c-0.1-3.4-0.2-9.8-0.2-13.9c0-4.1-0.1-10.5-0.2-14c-0.2-6-0.3-6.5-1-7.2c-0.8-0.8-2.4-1.1-3.3-0.4c-1.3,1-1.3,1.4-1.3,21.9
		c0,19.5,0,19.9-0.6,19.9C234.7,8241.8,234.5,8241.5,234.3,8240.3z"/>
</g>
</svg>
