<?xml version="1.0" encoding="utf-8"?>
<!-- Generator: Adobe Illustrator 24.0.2, SVG Export Plug-In . SVG Version: 6.00 Build 0)  -->
<svg version="1.1" id="Capa_1" xmlns="http://www.w3.org/2000/svg" xmlns:xlink="http://www.w3.org/1999/xlink" x="0px" y="0px"
	 viewBox="0 0 85.4 85.4" style="enable-background:new 0 0 85.4 85.4;" xml:space="preserve">
<style type="text/css">
	.st0{fill:#00A7B5;stroke:#00A7B5;stroke-miterlimit:10;}
	.st1{fill:#FFFFFF;}
</style>
<circle id="Ciculo" class="st0" cx="42.7" cy="42.7" r="40.3"/>
<g>
	<g>
		<g>
			<path class="st1" d="M62.3,50.1V33.3v-0.8v-9.9H47.5v9.2h-5.1V43h-2V32.3H23.6V43H18v19.9h49.4V50.1H62.3z M25.1,33.8h13.8v2
				H25.1V33.8z M25.1,37.3h13.8V43H25.1V37.3z M33.3,44.5v7.1h-4.6v-7.1H33.3z M42.4,61.3H19.5V44.5h7.6v8.7h7.6v-8.7h7.6V61.3z
				 M49.1,24.1h11.7v7.6H49.1V24.1z M54.2,33.3v7.6h-3.6v-7.6H54.2z M50.6,61.3H44v-28h5.1v9.2h6.6v-9.2h5.1v16.8H50.6V61.3z
				 M65.9,61.3H52.1v-9.7h13.8V61.3z"/>
			<rect x="35.1" y="39.4" class="st1" width="2" height="1.5"/>
			<rect x="32" y="39.4" class="st1" width="2" height="1.5"/>
			<rect x="59.5" y="54.2" class="st1" width="4.1" height="1.5"/>
			<rect x="56.5" y="57.2" class="st1" width="7.1" height="1.5"/>
			<rect x="56.5" y="28.2" class="st1" width="2" height="1.5"/>
			<rect x="53.4" y="28.2" class="st1" width="2" height="1.5"/>
		</g>
	</g>
</g>
</svg>
