<?xml version="1.0" encoding="utf-8"?>
<!-- Generator: Adobe Illustrator 24.0.2, SVG Export Plug-In . SVG Version: 6.00 Build 0)  -->
<svg version="1.1" id="Capa_1" xmlns="http://www.w3.org/2000/svg" xmlns:xlink="http://www.w3.org/1999/xlink" x="0px" y="0px"
	 viewBox="0 0 85.4 85.4" style="enable-background:new 0 0 85.4 85.4;" xml:space="preserve">
<style type="text/css">
	.st0{fill:none;}
	.st1{fill:#1E407F;}
</style>
<g>
	<g>
		<path class="st0" d="M42.3,2.4C22.9,2.4,9.5,19.5,8.2,34.5c-0.6,6.8,1.4,12.4,2.9,15.8c0.9,1.6,1.9,3.1,2.8,4.7
			c1.1,1.8,2.2,2.9,3.8,4.6c1.5,1.6,2.6,2.8,5,5.2c1.8,1.9,3.4,3.4,4.5,4.5c2.2,2.1,2.1,2,3.2,3.1c2.5,2.5,2.8,3,5.1,5.3
			c4.7,4.8,5.6,4.8,6.1,4.7c0.7-0.2,1.8-1.2,4-3.1c0,0,0.2-0.2,0.4-0.3c2-1.9,3.5-3.5,3.8-3.8c1.6-1.8,1.7-1.5,5.8-5.5
			c1.5-1.5,4.5-4.4,6-5.9c0.1-0.1,0.2-0.2,0.4-0.4c1-1,1.7-1.8,2.2-2.2c1.5-1.7,3-3.5,3.4-4c1.3-1.7,3.1-4.1,4.7-7.3
			c3.6-7.2,4.1-13.6,4.1-15.3C76.4,16.8,61.1,2.4,42.3,2.4z"/>
	</g>
</g>
<g transform="translate(0.000000,851.000000) scale(0.100000,-0.100000)">
	<path class="st1" d="M416,8244.7c-0.1-0.1-1.7-0.3-3.7-0.4c-15.4-1.2-28.4-4.9-41.7-11.7c-9.7-5-18-11.1-26.1-19.2
		c-8.4-8.4-14.6-16.9-19.8-27.4c-5.8-11.5-9.1-22.6-10.7-35.8c-0.7-5.2-0.7-18.6,0-23.8c1.6-13.1,4.9-24.3,10.6-35.5
		c14.4-28.7,40.7-49.3,71.9-56.3c4-0.9,8.8-1.7,12.6-2c1.5-0.2,4.1-0.4,5.8-0.6c7.1-0.7,20.3,0.7,30.3,3.2
		c18.8,4.6,35.8,14.2,49.5,28c28.6,28.5,38.4,70.3,25.7,108.7c-5.2,15.7-13.8,29.6-25.7,41.5c-16.7,16.7-38.2,27.3-61.3,30.3
		C427.3,8244.4,416.3,8245.1,416,8244.7z M430.2,8224.4c24.6-3.2,46.2-16.2,60.5-36.6c5.9-8.3,10.4-18.3,13-28.4
		c6-23.7,1.6-48.8-11.9-69.1c-5.6-8.5-14-17-22.2-22.9c-11.9-8.4-25.4-13.6-40.5-15.4c-4-0.5-16.1-0.4-20,0.2
		c-18.6,2.6-35.2,10.3-48.3,22.5c-14.7,13.8-23.9,31.3-26.9,51.2c-0.8,5.1-1.1,14.3-0.6,19.4c2.4,27,16.6,50.9,39.1,65.6
		c12.3,8.1,26.3,12.8,41.2,14C416.2,8225.1,427.2,8224.8,430.2,8224.4z"/>
	<path class="st1" d="M413.1,8222.6c-17.3-1.5-33.1-7.7-46.6-18.5c-3.5-2.8-9.9-9.2-12.7-12.7c-9.8-12.3-15.8-26.3-18.1-42
		c-0.6-4.4-0.8-14.9-0.3-19.7c2.8-26.1,16.9-48.8,39.3-63c18.9-12,42.8-15.9,64.9-10.5c32,7.9,56.6,33.7,62.9,65.9
		c1.2,6.1,1.4,8.3,1.4,16.1c0,7.8-0.2,10.4-1.4,16.2c-3.9,19.7-14.5,37.2-30.5,50c-12.7,10.2-28.5,16.5-45.1,18
		C424.3,8222.7,415.5,8222.8,413.1,8222.6z"/>
	<path class="st1" d="M550.7,8232.3c-4.3-4.9-7.9-18.4-9.5-36c-0.5-5.9-0.6-25.9-0.1-32.4c1.3-16.9,3.5-28.1,6.4-33l1-1.7l-0.3-4.5
		c-0.2-2.5-0.5-7.6-0.8-11.4c-0.5-6.3-1.1-15-2.5-35.8c-0.3-4.1-0.7-10.3-1-13.9c-0.4-5.9-0.4-6.6-0.1-7.3c0.8-1.7,3.1-2.6,6.7-2.6
		c2.6,0,4.5,0.4,5.7,1.3c1.5,1.1,1.5,1,1,12.9c-0.3,5.9-0.7,16-1,22.4s-0.7,16.7-1,22.9c-0.5,10.2-0.5,14.8-0.5,47.8
		c0,46-0.3,64.6-1.3,69.8C552.8,8233.8,552.2,8234.2,550.7,8232.3z"/>
	<path class="st1" d="M279.2,8223.4c-0.1-0.6-0.3-3.6-0.4-6.7c-0.2-3.1-0.5-7.8-0.7-10.4c-0.2-2.6-0.5-7.8-0.7-11.5
		s-0.5-8.3-0.7-10.3c-0.3-3.3-0.3-3.7,0.3-5.8c0.7-3.2,1.6-4.9,3.4-6.7c1.1-1.1,1.9-1.7,3-2.1c0.8-0.3,1.6-0.6,1.8-0.6
		c0.2,0,0.5-0.2,0.6-0.4c0.1-0.3,0.1-3.4-0.1-7.2c-0.2-3.7-0.6-11.8-0.9-18s-0.6-13.6-0.8-16.4c-0.1-2.8-0.6-12.6-1-21.6
		c-0.8-17.6-1-22.6-1.6-35.2c-0.6-11.4-0.5-12.2,0.3-13.8c1-1.9,2.7-2.8,5.4-3c3.6-0.2,6.1,0.8,7.3,3c0.6,1,0.6,1.3,0.5,5.8
		c0,2.6-0.2,8.8-0.3,13.6c-0.2,4.9-0.4,12.8-0.5,17.6c-0.3,9.8-0.6,22.1-1,34.5c-0.1,4.6-0.4,12.4-0.5,17.5
		c-0.2,5.1-0.4,12.2-0.5,15.9c-0.1,3.7-0.1,6.8,0,7.1c0.1,0.2,0.4,0.4,0.7,0.4c0.7,0,3,1.2,4.1,2c1.2,1,2.6,3,3.3,4.8
		c0.9,2.6,1,4.3,0.6,12.2s-0.4,8.8-1,16.4c-0.4,5.1-1.1,17.7-1.1,19c0,0.6-0.1,0.7-0.6,0.6l-0.6-0.1l-0.1-14.6l-0.1-14.6l-0.7-0.5
		c-0.9-0.7-1.7-0.7-2.5,0.1l-0.7,0.6l-0.2,6.3c-0.1,3.5-0.3,10-0.4,14.6l-0.2,8.2h-0.8H291l-0.2-7.6c-0.1-4.2-0.3-10.8-0.4-14.7
		l-0.2-7.1l-0.6-0.5c-0.8-0.6-2.2-0.5-2.8,0.3c-0.4,0.5-0.5,1.6-0.5,15v14.5h-0.8h-0.9l-0.2-4.6c-0.1-2.5-0.2-7-0.2-10
		s-0.1-7.5-0.2-10c-0.2-4.3-0.2-4.6-0.7-5.2c-0.6-0.6-1.7-0.8-2.4-0.3c-1,0.7-1,1-1,15.7c0,14,0,14.3-0.5,14.3
		C279.4,8224.5,279.3,8224.3,279.2,8223.4z"/>
</g>
<g>
	<g>
		<g>
			<path class="st1" d="M64,32h-3.5c-0.3-1.1-0.8-2.1-1.3-3.1l2.5-2.4c0.5-0.5,0.8-1.1,0.8-1.8c0-0.7-0.3-1.3-0.8-1.8l-4.6-4.5
				c-0.5-0.5-1.1-0.7-1.8-0.7c-0.7,0-1.3,0.3-1.8,0.7l-2.5,2.4c-1-0.5-2.1-0.9-3.1-1.3v-3.4c0-1.4-1.2-2.5-2.6-2.5h-6.5
				c-1.4,0-2.6,1.1-2.6,2.5v3.4C35,19.9,34,20.3,33,20.8l-2.5-2.4c-0.5-0.5-1.1-0.7-1.8-0.7c-0.7,0-1.3,0.3-1.8,0.7l-4.6,4.5
				c-0.5,0.5-0.8,1.1-0.8,1.8c0,0.7,0.3,1.3,0.8,1.8l2.5,2.4c-0.5,1-1,2-1.3,3.1h-3.5c-1.4,0-2.6,1.1-2.6,2.5v6.3
				c0,1.4,1.2,2.5,2.6,2.5h3.5c0.3,1.1,0.8,2.1,1.3,3.1l-2.5,2.4c-0.5,0.5-0.8,1.1-0.8,1.8c0,0.7,0.3,1.3,0.8,1.8l4.6,4.5
				c0.5,0.5,1.1,0.7,1.8,0.7c0.7,0,1.3-0.3,1.8-0.7l2.5-2.4c1,0.5,2.1,0.9,3.1,1.3v3.4c0,1.4,1.2,2.5,2.6,2.5h6.5
				c1.4,0,2.6-1.1,2.6-2.5v-3.4c1.1-0.3,2.1-0.8,3.1-1.3l2.5,2.4c0.5,0.5,1.1,0.7,1.8,0.7c0.7,0,1.3-0.3,1.8-0.7l4.6-4.5
				c0.5-0.5,0.8-1.1,0.8-1.8c0-0.7-0.3-1.3-0.8-1.8l-2.5-2.4c0.5-1,1-2,1.3-3.1H64c1.4,0,2.6-1.1,2.6-2.5v-6.3
				C66.6,33.1,65.4,32,64,32z M64,40.8h-4.5c-0.6,0-1.1,0.4-1.3,0.9c-0.4,1.5-1,2.9-1.8,4.2c-0.3,0.5-0.2,1.1,0.2,1.5l3.2,3.1
				l-4.6,4.5L52.1,52c-0.4-0.4-1.1-0.5-1.6-0.2c-1.3,0.8-2.8,1.4-4.3,1.7c-0.6,0.1-1,0.6-1,1.2v4.4h-6.5v-4.4c0-0.6-0.4-1.1-1-1.2
				c-1.5-0.4-3-1-4.3-1.7c-0.2-0.1-0.4-0.2-0.7-0.2c-0.3,0-0.7,0.1-0.9,0.4l-3.2,3.1l-4.6-4.5l3.2-3.1c0.4-0.4,0.5-1,0.2-1.5
				c-0.8-1.3-1.4-2.7-1.8-4.2c-0.1-0.6-0.7-0.9-1.3-0.9h-4.5v-6.3h4.5c0.6,0,1.1-0.4,1.3-0.9c0.4-1.5,1-2.9,1.8-4.2
				c0.3-0.5,0.2-1.1-0.2-1.5l-3.2-3.1l4.6-4.5l3.2,3.1c0.4,0.4,1.1,0.5,1.6,0.2c1.3-0.8,2.8-1.4,4.3-1.7c0.6-0.1,1-0.6,1-1.2v-4.4
				h6.5v4.4c0,0.6,0.4,1.1,1,1.2c1.5,0.4,3,1,4.3,1.7c0.5,0.3,1.2,0.2,1.6-0.2l3.2-3.1l4.6,4.5l-3.2,3.1c-0.4,0.4-0.5,1-0.2,1.5
				c0.8,1.3,1.4,2.7,1.8,4.2c0.1,0.6,0.7,0.9,1.3,0.9H64V40.8z"/>
		</g>
	</g>
</g>
</svg>
