<?xml version="1.0" encoding="utf-8"?>
<!-- Generator: Adobe Illustrator 24.0.2, SVG Export Plug-In . SVG Version: 6.00 Build 0)  -->
<svg version="1.1" id="Capa_1" xmlns="http://www.w3.org/2000/svg" xmlns:xlink="http://www.w3.org/1999/xlink" x="0px" y="0px"
	 viewBox="0 0 85.4 85.4" style="enable-background:new 0 0 85.4 85.4;" xml:space="preserve">
<style type="text/css">
	.st0{fill:#00A7B5;stroke:#00A7B5;stroke-miterlimit:10;}
	.st1{fill:#FFFFFF;}
	.st2{fill:#FFFFFF;stroke:#FFFFFF;stroke-width:1.5;stroke-miterlimit:10;}
	.st3{fill-rule:evenodd;clip-rule:evenodd;fill:#FFFFFF;}
</style>
<g>
	<g>
		<path class="st0" d="M42.8,2.4C23.4,2.4,10,19.5,8.7,34.5c-0.6,6.8,1.4,12.4,2.9,15.8c0.9,1.6,1.9,3.1,2.8,4.7
			c1.1,1.8,2.2,2.9,3.8,4.6c1.5,1.6,2.6,2.8,5,5.2c1.8,1.9,3.4,3.4,4.5,4.5c2.2,2.1,2.1,2,3.2,3.1c2.5,2.5,2.8,3,5.1,5.3
			c4.7,4.8,5.6,4.8,6.1,4.7c0.7-0.2,1.8-1.2,4-3.1c0,0,0.2-0.2,0.4-0.3c2-1.9,3.5-3.5,3.8-3.8c1.6-1.8,1.7-1.5,5.8-5.5
			c1.5-1.5,4.5-4.4,6-5.9c0.1-0.1,0.2-0.2,0.4-0.4c1-1,1.7-1.8,2.2-2.2c1.5-1.7,3-3.5,3.4-4c1.3-1.7,3.1-4.1,4.7-7.3
			c3.6-7.2,4.1-13.6,4.1-15.3C76.9,16.8,61.6,2.4,42.8,2.4z"/>
	</g>
</g>
<g>
	<g>
		<path class="st1" d="M44,14.1H19.3c-0.7,0-1.3,0.6-1.3,1.3v35.6c0,0.7,0.6,1.3,1.3,1.3H44c0.7,0,1.3-0.6,1.3-1.3V15.4
			C45.4,14.7,44.8,14.1,44,14.1z M19.3,20.6h24.8V47H19.3V20.6z M19.3,15.3H44c0,0,0,0,0,0v4H19.3L19.3,15.3
			C19.3,15.3,19.3,15.3,19.3,15.3z M44,51H19.3c0,0,0,0,0,0v-2.7h24.8L44,51C44.1,50.9,44.1,51,44,51z"/>
		<path class="st1" d="M40.6,22H22.8c-0.4,0-0.6,0.4-0.6,0.8c0,0.4,0.3,0.8,0.6,0.8h17.8c0.4,0,0.6-0.4,0.6-0.8
			C41.2,22.3,41,22,40.6,22z"/>
		<path class="st1" d="M27.6,18h8.2c0.4,0,0.6-0.3,0.6-0.6s-0.3-0.6-0.6-0.6h-8.2c-0.4,0-0.6,0.3-0.6,0.6S27.2,18,27.6,18z"/>
	</g>
	<line class="st2" x1="24.5" y1="15" x2="24.5" y2="19.7"/>
	<line class="st2" x1="38.9" y1="15" x2="38.9" y2="19.7"/>
</g>
<g>
	<g>
		<g>
			<path class="st1" d="M60.6,39.9c-0.2-0.1-0.4,0.1-0.5,0.3l-2,7.3c-0.1,0-0.2,0-0.4,0.1c-0.1,0-0.3,0-0.4,0l2.1-7.6
				c0.1-0.2-0.1-0.4-0.3-0.5c-0.2-0.1-0.4,0.1-0.5,0.3l-2.1,7.7c-0.1,0-0.3-0.1-0.4-0.1c-0.1,0-0.3-0.1-0.4-0.1l2.1-7.7
				c0.1-0.2-0.1-0.4-0.3-0.5c-0.2-0.1-0.4,0.1-0.5,0.3l-2.1,7.6c-0.3-0.2-0.6-0.3-0.7-0.5l2-7.3c0.1-0.2-0.1-0.4-0.3-0.5
				c-0.2-0.1-0.4,0.1-0.5,0.3l-2.1,7.5c-0.2,0.7-0.1,1.5,0.3,2.1c0.2,0.3,0.4,0.5,0.6,0.7l-5.8,19.7c-0.2,0.8,0.2,1.7,1.1,1.9
				c0.4,0.1,0.8,0,1.1-0.1c0.3-0.2,0.6-0.5,0.7-0.9l4.9-19.8c0.4,0,0.8-0.1,1.1-0.3c0.6-0.4,1.1-0.9,1.3-1.7l2.1-7.5
				C60.9,40.2,60.8,40,60.6,39.9z"/>
		</g>
	</g>
	<path class="st3" d="M62,39.9l-0.9-0.6l1.1-0.1l0.7-1.3l0,1.4l0.9,0.6l-1.1,0.1l-0.7,1.3L62,39.9z"/>
	<path class="st3" d="M47.5,66.6L47,66.2l0.6-0.1l0.4-0.8l0,0.8l0.6,0.3l-0.6,0.1l-0.4,0.8L47.5,66.6z"/>
</g>
</svg>
