<?xml version="1.0" encoding="utf-8"?>
<!-- Generator: Adobe Illustrator 24.0.2, SVG Export Plug-In . SVG Version: 6.00 Build 0)  -->
<svg version="1.1" id="Capa_1" xmlns="http://www.w3.org/2000/svg" xmlns:xlink="http://www.w3.org/1999/xlink" x="0px" y="0px"
	 viewBox="0 0 85.4 85.4" style="enable-background:new 0 0 85.4 85.4;" xml:space="preserve">
<style type="text/css">
	.st0{fill:none;}
	.st1{fill:#1E407F;}
</style>
<circle id="Ciculo" class="st0" cx="42.7" cy="42.7" r="40.3"/>
<g>
	<link  id="dark-mode-custom-link" rel="stylesheet" type="text/css"></link>
	<link  id="dark-mode-general-link" rel="stylesheet" type="text/css"></link>
	<g>
		<path class="st1" d="M67.1,25.4L52,9.6C51.6,9.2,51.1,9,50.6,9H24.1c-3.1,0-5.7,2.6-5.7,5.7V69c0,3.1,2.6,5.7,5.7,5.7H62
			c3.1,0,5.7-2.6,5.7-5.7V26.7C67.7,26.2,67.5,25.7,67.1,25.4z M63.9,69c0,1-0.9,1.9-1.9,1.9H24.1c-1,0-1.9-0.9-1.9-1.9V14.7
			c0-1,0.9-1.9,1.9-1.9h25.7l14.1,14.7V69z"/>
		<path class="st1" d="M52.6,13.3c0-1.2-0.9-2.2-2.1-2.2c-1.2,0-2.1,1-2.1,2.2v13.4c0,1.2,0.9,2.2,2.1,2.2H63c1.2,0,2.1-1,2.1-2.2
			s-0.9-2.2-2.1-2.2H52.6V13.3z"/>
		<path class="st1" d="M55.4,49.1c0-0.5-0.2-1-0.6-1.3l-5.5-5.5c-0.7-0.7-1.9-0.7-2.7,0L43,45.9l-3.7-3.7c-0.7-0.7-1.9-0.7-2.7,0
			l-5.5,5.5c-0.4,0.4-0.6,0.8-0.6,1.3s0.2,1,0.6,1.3l3.7,3.7l-3.7,3.7c-0.4,0.4-0.6,0.8-0.6,1.3s0.2,1,0.6,1.3l5.5,5.5
			c0.7,0.7,1.9,0.7,2.7,0l3.7-3.7l3.7,3.7c0.4,0.4,0.9,0.6,1.3,0.6c0.5,0,1-0.2,1.3-0.6l5.5-5.5c0.4-0.4,0.6-0.8,0.6-1.3
			s-0.2-1-0.6-1.3L51.1,54l3.7-3.7C55.2,50,55.4,49.6,55.4,49.1L55.4,49.1z M47.2,55.4l3.7,3.7l-2.8,2.8l-3.7-3.7
			c-0.4-0.4-0.9-0.6-1.3-0.6s-1,0.2-1.3,0.6L38,61.9l-2.8-2.8l3.7-3.7c0.4-0.4,0.6-0.8,0.6-1.3s-0.2-1-0.6-1.3l-3.7-3.7l2.8-2.8
			l3.7,3.7c0.7,0.7,1.9,0.7,2.7,0l3.7-3.7l2.8,2.8l-3.7,3.7c-0.4,0.4-0.6,0.8-0.6,1.3S46.8,55.1,47.2,55.4z"/>
	</g>
</g>
</svg>
