<?xml version="1.0" encoding="utf-8"?>
<!-- Generator: Adobe Illustrator 24.0.2, SVG Export Plug-In . SVG Version: 6.00 Build 0)  -->
<svg version="1.1" id="Capa_1" xmlns="http://www.w3.org/2000/svg" xmlns:xlink="http://www.w3.org/1999/xlink" x="0px" y="0px"
	 viewBox="0 0 85.4 85.4" style="enable-background:new 0 0 85.4 85.4;" xml:space="preserve">
<style type="text/css">
	.st0{fill:none;}
	.st1{fill:#1E407F;}
</style>
<circle id="Ciculo" class="st0" cx="42.7" cy="42.7" r="40.3"/>
<path class="st1" d="M72.6,52.2c0-3.2-2.5-5.8-5.7-5.8l-48.2-0.5c-3.2,0-5.8,2.5-5.8,5.7c0,2.6,1.6,4.8,4,5.5l0,5.3
	c-0.1,6.8,5.4,12.3,12.2,12.4l27.2,0.3c6.8,0.1,12.3-5.4,12.4-12.2l0-5.3C70.9,56.9,72.6,54.7,72.6,52.2L72.6,52.2z M28.9,71.3
	c-4.8,0-8.7-4-8.7-8.8l0-5L65,57.9l0,5c0,4.8-4,8.7-8.8,8.7L28.9,71.3z M66.8,54.4l-48.2-0.5c-1.3,0-2.3-1-2.3-2.3
	c0-1.3,1-2.3,2.3-2.3l48.2,0.5c1.3,0,2.3,1,2.3,2.3S68.1,54.4,66.8,54.4L66.8,54.4z"/>
<g>
	<g>
		<path class="st1" d="M44.2,43C44.2,43,44.2,43,44.2,43l11.7-11.7c0.9-0.9,0.9-2.3,0-3.2c-0.9-0.9-2.3-0.9-3.2,0L44.9,36l0-23.2
			l-4.5-0.1l0,23.4l-7.8-7.9c-0.9-0.9-2.3-0.9-3.2,0c-0.9,0.9-0.9,2.3,0,3.2L41,43c0,0,0,0,0,0C41.9,43.9,43.3,43.9,44.2,43z"/>
	</g>
</g>
</svg>
