<?xml version="1.0" encoding="utf-8"?>
<!-- Generator: Adobe Illustrator 24.0.2, SVG Export Plug-In . SVG Version: 6.00 Build 0)  -->
<svg version="1.1" id="Capa_1" xmlns="http://www.w3.org/2000/svg" xmlns:xlink="http://www.w3.org/1999/xlink" x="0px" y="0px"
	 viewBox="0 0 85.4 85.4" style="enable-background:new 0 0 85.4 85.4;" xml:space="preserve">
<style type="text/css">
	.st0{fill:none;}
	.st1{fill:#1E407F;}
	.st2{fill-rule:evenodd;clip-rule:evenodd;fill:#1E407F;}
</style>
<circle id="Ciculo" class="st0" cx="42.7" cy="42.7" r="40.3"/>
<g>
	<g>
		<path class="st1" d="M52.5,59.5c-0.2,0-0.4-0.1-0.5-0.2c0,0,0,0,0,0c-3.6,3.4-8.4,5.5-13.8,5.5c-11,0-20-9-20-20
			c0-4.6,1.1-9.3,3.2-13.8c1.7-3.7,4.1-7.3,7-10.8c4.2-4.9,8.4-8.1,9.8-9.1c1.4,1,5.6,4.2,9.8,9.1c3,3.5,5.4,7.1,7.1,10.8
			c0,0,0,0,0,0.1c0.7,0,1.4,0.1,2.1,0.2c0,0,0,0,0,0c-0.2-0.4-0.3-0.7-0.5-1.1c-1.8-3.8-4.2-7.6-7.3-11.2C44.2,12.7,39,9.2,38.8,9
			c-0.3-0.2-0.7-0.2-1,0c-0.2,0.1-5.4,3.7-10.7,9.8c-3.1,3.6-5.6,7.4-7.3,11.2c-2.2,4.8-3.4,9.8-3.4,14.7c0,12.1,9.8,21.9,21.9,21.9
			c6.5,0,12.4-2.9,16.4-7.4C53.9,59.3,53.2,59.5,52.5,59.5z"/>
		<path class="st1" d="M21.5,47.8c0.5-0.1,1,0.2,1.1,0.7c1.1,4.4,4,8.2,8,10.4c0.5,0.2,0.6,0.8,0.4,1.3c-0.2,0.3-0.5,0.5-0.8,0.5
			c-0.1,0-0.3,0-0.4-0.1c-4.5-2.4-7.8-6.6-9-11.6C20.7,48.4,21,47.9,21.5,47.8z"/>
	</g>
	<g>
		<path class="st1" d="M72.5,58.8l-6.7-6.7c1.1-2.1,1.6-4.5,1.6-6.9c0-8.6-7-15.5-15.5-15.5c-8.6,0-15.5,7-15.5,15.5
			c0,8.6,7,15.5,15.5,15.5c2,0,4-0.4,5.8-1.1l7,7c1,1,2.4,1.6,3.9,1.6c1.5,0,2.8-0.6,3.9-1.6C74.7,64.4,74.7,60.9,72.5,58.8z
			 M38.3,45.2c0-7.5,6.1-13.6,13.6-13.6s13.6,6.1,13.6,13.6c0,2.3-0.6,4.6-1.7,6.6c-0.2,0.3-0.3,0.6-0.5,0.8
			c-1.2,1.9-2.9,3.4-4.9,4.5c-2,1.1-4.2,1.6-6.4,1.6C44.4,58.7,38.3,52.6,38.3,45.2z M71.2,65.2c-0.7,0.7-1.6,1-2.5,1
			c-0.9,0-1.8-0.4-2.5-1l-6.6-6.6c0.1-0.1,0.3-0.2,0.4-0.3c0.1-0.1,0.2-0.1,0.3-0.2c0.3-0.2,0.6-0.4,0.8-0.6c0,0,0,0,0.1-0.1
			c0.2-0.2,0.5-0.4,0.7-0.6c0.1-0.1,0.2-0.1,0.2-0.2c0.2-0.2,0.3-0.3,0.5-0.5c0.1-0.1,0.2-0.2,0.3-0.3c0.2-0.2,0.3-0.3,0.5-0.5
			c0.1-0.1,0.2-0.2,0.2-0.3c0.2-0.2,0.4-0.4,0.5-0.7c0,0,0.1-0.1,0.1-0.1c0.2-0.2,0.4-0.5,0.5-0.8l6.4,6.4
			C72.6,61.6,72.6,63.8,71.2,65.2z"/>
	</g>
	<g>
		<path class="st1" d="M25.2,47.2c0.4-0.4,1-0.4,1.3,0l0,0c0.4,0.4,0.4,1,0,1.3l0,0c-0.4,0.4-1,0.4-1.3,0l0,0
			C24.8,48.2,24.8,47.6,25.2,47.2z M27,45.4c0.4-0.4,1-0.4,1.3,0l0,0c0.4,0.4,0.4,1,0,1.3l0,0c-0.4,0.4-1,0.4-1.3,0l0,0
			C26.7,46.4,26.7,45.8,27,45.4z M28.9,43.6c0.4-0.4,1-0.4,1.3,0l0,0c0.4,0.4,0.4,1,0,1.3l0,0c-0.4,0.4-1,0.4-1.3,0l0,0
			C28.5,44.5,28.5,43.9,28.9,43.6z M30.8,41.7c0.4-0.4,1-0.4,1.3,0l0,0c0.4,0.4,0.4,1,0,1.3l0,0c-0.4,0.4-1,0.4-1.3,0l0,0
			C30.4,42.7,30.4,42.1,30.8,41.7z"/>
	</g>
	<g>
		<path class="st1" d="M22,44.7c0.4-0.4,1-0.4,1.3,0l0,0c0.4,0.4,0.4,1,0,1.3l0,0c-0.4,0.4-1,0.4-1.3,0l0,0
			C21.6,45.7,21.6,45.1,22,44.7z M23.8,42.9c0.4-0.4,1-0.4,1.3,0l0,0c0.4,0.4,0.4,1,0,1.3l0,0c-0.4,0.4-1,0.4-1.3,0l0,0
			C23.5,43.9,23.5,43.3,23.8,42.9z M25.7,41.1c0.4-0.4,1-0.4,1.3,0l0,0c0.4,0.4,0.4,1,0,1.3l0,0c-0.4,0.4-1,0.4-1.3,0l0,0
			C25.3,42,25.3,41.4,25.7,41.1z"/>
	</g>
	<g>
		<path class="st1" d="M27.6,49.7c0.4-0.4,1-0.4,1.3,0l0,0c0.4,0.4,0.4,1,0,1.3l0,0c-0.4,0.4-1,0.4-1.3,0l0,0
			C27.2,50.6,27.2,50.1,27.6,49.7z M29.4,47.9c0.4-0.4,1-0.4,1.3,0l0,0c0.4,0.4,0.4,1,0,1.3l0,0c-0.4,0.4-1,0.4-1.3,0l0,0
			C29.1,48.8,29.1,48.2,29.4,47.9z M31.3,46c0.4-0.4,1-0.4,1.3,0l0,0c0.4,0.4,0.4,1,0,1.3l0,0c-0.4,0.4-1,0.4-1.3,0l0,0
			C30.9,47,30.9,46.4,31.3,46z"/>
	</g>
	<g>
		<path class="st1" d="M29.8,51.9c0.4-0.4,1-0.4,1.3,0l0,0c0.4,0.4,0.4,1,0,1.3l0,0c-0.4,0.4-1,0.4-1.3,0l0,0
			C29.5,52.8,29.5,52.2,29.8,51.9z M31.7,50c0.4-0.4,1-0.4,1.3,0l0,0c0.4,0.4,0.4,1,0,1.3l0,0c-0.4,0.4-1,0.4-1.3,0l0,0
			C31.3,51,31.3,50.4,31.7,50z"/>
	</g>
	<g>
		<path class="st1" d="M32.3,54c0.4-0.4,1-0.4,1.3,0l0,0c0.4,0.4,0.4,1,0,1.3l0,0c-0.4,0.4-1,0.4-1.3,0l0,0
			C31.9,55,31.9,54.4,32.3,54z"/>
	</g>
	<path class="st2" d="M44.9,37.1c0.3-0.3,0.8-0.3,1,0l6.4,6.4l6.4-6.4c0.3-0.3,0.8-0.3,1,0c0.3,0.3,0.3,0.8,0,1l-6.4,6.4l6.4,6.4
		c0.3,0.3,0.3,0.8,0,1c-0.3,0.3-0.8,0.3-1,0l-6.4-6.4l-6.4,6.4c-0.3,0.3-0.8,0.3-1,0c-0.3-0.3-0.3-0.8,0-1l6.4-6.4l-6.4-6.4
		C44.6,37.8,44.6,37.3,44.9,37.1z"/>
</g>
</svg>
