<?xml version="1.0" encoding="utf-8"?>
<!-- Generator: Adobe Illustrator 24.1.1, SVG Export Plug-In . SVG Version: 6.00 Build 0)  -->
<svg version="1.1" id="Capa_1" xmlns="http://www.w3.org/2000/svg" xmlns:xlink="http://www.w3.org/1999/xlink" x="0px" y="0px"
	 viewBox="0 0 85.4 85.4" style="enable-background:new 0 0 85.4 85.4;" xml:space="preserve">
<style type="text/css">
	.st0{fill:none;}
	.st1{fill:#24407F;}
</style>
<circle id="Ciculo" class="st0" cx="42.4" cy="42.7" r="40.3"/>
<g>
	<g>
		<path class="st1" d="M66.9,28.7L43.1,18.1c-0.2-0.1-0.5-0.1-0.7,0L18.7,28.7c-0.3,0.1-0.5,0.4-0.5,0.7v4.9c0,0.3,0.2,0.6,0.5,0.7
			l1.2,0.5v20.9c0,0.3,0.2,0.6,0.5,0.7l22.1,9.8c0.1,0,0.2,0.1,0.3,0.1c0.1,0,0.2,0,0.3-0.1l22.1-9.8c0.3-0.1,0.5-0.4,0.5-0.7V35.7
			l1.2-0.5c0.3-0.1,0.5-0.4,0.5-0.7v-4.9C67.4,29.2,67.2,28.9,66.9,28.7z M42,65.1L21.5,56V36.4L42,45.6L42,65.1L42,65.1z M42,43.8
			l-22.1-9.9v-3.1L42,40.7V43.8z M42.8,39.2L21,29.5l21.8-9.8l21.8,9.8L42.8,39.2z M64.1,56l-20.5,9.1V45.6l20.5-9.2V56z M65.8,33.9
			l-22.1,9.9v-3.1l22.1-9.9V33.9z"/>
	</g>
</g>
<g>
	<g>
		<path class="st1" d="M58.6,41.4c-0.2-0.1-0.4-0.1-0.6,0l-7,3.2c-0.2,0.1-0.4,0.3-0.4,0.6v3.2c0,0.2,0.1,0.4,0.3,0.5
			c0.1,0.1,0.2,0.1,0.3,0.1c0.1,0,0.2,0,0.3-0.1l7-3.2c0.2-0.1,0.4-0.3,0.4-0.6v-3.2C58.9,41.7,58.7,41.5,58.6,41.4z M57.6,44.7
			l-5.8,2.6v-1.8l5.8-2.6V44.7L57.6,44.7z"/>
	</g>
</g>
<g>
	<g>
		<path class="st1" d="M26.8,43.6v3.2c0,0.3,0.1,0.5,0.4,0.6l7,3.2c0.1,0,0.2,0.1,0.3,0.1c0.1,0,0.2,0,0.3-0.1
			c0.2-0.1,0.3-0.3,0.3-0.5v-3.2c0-0.3-0.1-0.5-0.4-0.6l-7-3.2c-0.2-0.1-0.4-0.1-0.6,0C26.9,43.1,26.8,43.3,26.8,43.6z M28,46.3
			v-1.8l5.8,2.6V49L28,46.3L28,46.3z"/>
	</g>
</g>
</svg>
