<?xml version="1.0" encoding="utf-8"?>
<!-- Generator: Adobe Illustrator 24.1.1, SVG Export Plug-In . SVG Version: 6.00 Build 0)  -->
<svg version="1.1" id="Capa_1" xmlns="http://www.w3.org/2000/svg" xmlns:xlink="http://www.w3.org/1999/xlink" x="0px" y="0px"
	 viewBox="0 0 85.4 85.4" style="enable-background:new 0 0 85.4 85.4;" xml:space="preserve">
<style type="text/css">
	.st0{fill:#00A7B5;stroke:#00A7B5;stroke-miterlimit:10;}
	.st1{fill:#FFFFFF;}
</style>
<circle id="Ciculo" class="st0" cx="42.7" cy="42.7" r="40.3"/>
<g>
	<g>
		<path class="st1" d="M67.1,30L43.3,19.3c-0.2-0.1-0.5-0.1-0.7,0L18.9,30c-0.3,0.1-0.5,0.4-0.5,0.7v4.9c0,0.3,0.2,0.6,0.5,0.7
			l1.2,0.5v20.9c0,0.3,0.2,0.6,0.5,0.7l22.1,9.8c0.1,0,0.2,0.1,0.3,0.1c0.1,0,0.2,0,0.3-0.1l22.1-9.8c0.3-0.1,0.5-0.4,0.5-0.7V36.9
			l1.2-0.5c0.3-0.1,0.5-0.4,0.5-0.7v-4.9C67.6,30.4,67.4,30.1,67.1,30z M42.1,66.4l-20.5-9.1V37.7l20.5,9.2L42.1,66.4L42.1,66.4z
			 M42.1,45.1L20,35.1V32l22.1,9.9V45.1z M43,40.5l-21.8-9.8L43,21l21.8,9.8L43,40.5z M64.3,57.3l-20.5,9.1V46.8l20.5-9.2V57.3z
			 M65.9,35.1l-22.1,9.9v-3.1L65.9,32V35.1z"/>
	</g>
</g>
<g>
	<g>
		<path class="st1" d="M58.7,42.7c-0.2-0.1-0.4-0.1-0.6,0l-7,3.2c-0.2,0.1-0.4,0.3-0.4,0.6v3.2c0,0.2,0.1,0.4,0.3,0.5
			c0.1,0.1,0.2,0.1,0.3,0.1c0.1,0,0.2,0,0.3-0.1l7-3.2c0.2-0.1,0.4-0.3,0.4-0.6v-3.2C59,43,58.9,42.8,58.7,42.7z M57.7,46L52,48.6
			v-1.8l5.8-2.6L57.7,46L57.7,46z"/>
	</g>
</g>
<g>
	<g>
		<path class="st1" d="M27.7,44.8V48c0,0.3,0.1,0.5,0.4,0.6l7,3.2c0.1,0,0.2,0.1,0.3,0.1c0.1,0,0.2,0,0.3-0.1
			c0.2-0.1,0.3-0.3,0.3-0.5V48c0-0.3-0.1-0.5-0.4-0.6l-7-3.2c-0.2-0.1-0.4-0.1-0.6,0C27.8,44.4,27.7,44.6,27.7,44.8z M29,47.6v-1.8
			l5.8,2.6v1.8L29,47.6L29,47.6z"/>
	</g>
</g>
</svg>
