<svg xmlns="http://www.w3.org/2000/svg" width="76.736" height="76.736" viewBox="0 0 76.736 76.736"><defs><style>.a,.b{fill:#063e7f;stroke:#fff;}.b{stroke-width:2px;}</style></defs><g transform="translate(1 1)"><rect class="a" width="5" height="6" transform="translate(35 33.736)"/><path class="b" d="M65.978,5.839h-3.5V0H56.636V5.839H18.1V0H12.261V5.839h-3.5A8.768,8.768,0,0,0,0,14.6V65.978a8.768,8.768,0,0,0,8.758,8.758H38.793A25.747,25.747,0,0,1,33.587,68.9H8.758a2.923,2.923,0,0,1-2.919-2.919V27.442H68.9v6.145a25.753,25.753,0,0,1,5.839,5.206V14.6A8.768,8.768,0,0,0,65.978,5.839ZM68.9,21.6H5.839V14.6a2.923,2.923,0,0,1,2.919-2.919h3.5v5.839H18.1V11.677H56.636v5.839h5.839V11.677h3.5A2.923,2.923,0,0,1,68.9,14.6Z"/><path class="b" d="M261.706,242a19.706,19.706,0,1,0,19.706,19.706A19.728,19.728,0,0,0,261.706,242Zm0,33.573a13.867,13.867,0,1,1,13.867-13.867A13.883,13.883,0,0,1,261.706,275.573Z" transform="translate(-206.676 -206.676)"/><path class="b" d="M361.839,310H356v12.7h10.8v-5.839h-4.963Z" transform="translate(-304.035 -264.75)"/><rect class="a" width="6" height="6.35" transform="translate(23 45.25)"/><rect class="a" width="6" height="6.35" transform="translate(11 45.25)"/><rect class="a" width="6" height="6" transform="translate(11 33.736)"/><rect class="a" width="6" height="6" transform="translate(11 56.736)"/><rect class="a" width="6" height="6" transform="translate(23 33.736)"/><rect class="a" width="6" height="6" transform="translate(23 56.736)"/></g></svg>