<?xml version="1.0" encoding="utf-8"?>
<!-- Generator: Adobe Illustrator 24.0.2, SVG Export Plug-In . SVG Version: 6.00 Build 0)  -->
<svg version="1.1" id="Capa_1" xmlns="http://www.w3.org/2000/svg" xmlns:xlink="http://www.w3.org/1999/xlink" x="0px" y="0px"
	 viewBox="0 0 85.4 85.4" style="enable-background:new 0 0 85.4 85.4;" xml:space="preserve">
<style type="text/css">
	.st0{fill:none;}
	.st1{fill:#1E407F;}
</style>
<circle id="Ciculo" class="st0" cx="42.7" cy="42.7" r="40.3"/>
<g>
	<g>
		<g>
			<path class="st1" d="M53.4,36.5c-1-1-2.6-1-3.6,0l-8.3,8.3l-3.2-3.2c-1-1-2.6-1-3.6,0s-1,2.6,0,3.6l5.1,5.1
				c0.5,0.5,1.2,0.7,1.8,0.7c0.7,0,1.3-0.2,1.8-0.7l9.9-10.1C54.4,39.1,54.4,37.5,53.4,36.5z"/>
		</g>
	</g>
	<g>
		<g>
			<path class="st1" d="M60.1,22.1h-6.4v-1.6c0-0.9-0.7-1.6-1.6-1.6h-3.5c-0.7-1.9-2.5-3.2-4.6-3.2c-2.1,0-3.9,1.3-4.6,3.2H36
				c-0.9,0-1.6,0.7-1.6,1.6v1.6h-6.4c-1.7,0-3.2,1.4-3.2,3.2v38.5c0,1.7,1.4,3.2,3.2,3.2h32.1c1.7,0,3.2-1.4,3.2-3.2V25.3
				C63.4,23.6,61.9,22.1,60.1,22.1z M37.7,22.1h3.2c0.9,0,1.6-0.7,1.6-1.6c0-0.9,0.7-1.6,1.6-1.6s1.6,0.7,1.6,1.6
				c0,0.9,0.7,1.6,1.6,1.6h3.2v3.2H37.7V22.1z M60.1,63.9H28.1V25.3h6.4v1.6c0,0.9,0.7,1.6,1.6,1.6h16.1c0.9,0,1.6-0.7,1.6-1.6v-1.6
				H60L60.1,63.9L60.1,63.9z"/>
		</g>
	</g>
</g>
</svg>
