<?xml version="1.0" encoding="utf-8"?>
<!-- Generator: Adobe Illustrator 24.0.2, SVG Export Plug-In . SVG Version: 6.00 Build 0)  -->
<svg version="1.1" id="Capa_1" xmlns="http://www.w3.org/2000/svg" xmlns:xlink="http://www.w3.org/1999/xlink" x="0px" y="0px"
	 viewBox="0 0 85.4 85.4" style="enable-background:new 0 0 85.4 85.4;" xml:space="preserve">
<style type="text/css">
	.st0{fill:none;}
	.st1{fill:#1E407F;}
</style>
<circle id="Ciculo" class="st0" cx="42.7" cy="42.7" r="40.3"/>
<path class="st1" d="M69.2,58.4c0.4-3.2-1.9-6-5-6.4l-47.9-5.9c-3.2-0.4-6,1.9-6.4,5c-0.3,2.6,1.1,4.9,3.3,6l-0.6,5.3
	c-0.8,6.7,4,12.8,10.7,13.7l27,3.3c6.7,0.8,12.8-4,13.7-10.7l0.6-5.3C66.9,62.9,68.9,60.9,69.2,58.4L69.2,58.4z M23.6,72.5
	c-4.8-0.6-8.2-5-7.6-9.8l0.6-5L61,63.2l-0.6,5c-0.6,4.8-5,8.2-9.8,7.6L23.6,72.5z M63.2,59.9l-47.9-5.9c-1.2-0.2-2.1-1.3-2-2.5
	c0.2-1.2,1.3-2.1,2.5-2l47.9,5.9c1.2,0.2,2.1,1.3,2,2.5S64.4,60.1,63.2,59.9L63.2,59.9z"/>
<g>
	<g>
		<g>
			<path class="st1" d="M60.6,17.8L60.6,17.8l2.5-1.5C57.7,6.9,45.8,3.3,36,8.1V4.5h-2.9v8.8h8.8v-2.9h-3.8
				C46.5,6.8,56.1,10,60.6,17.8z"/>
			<path class="st1" d="M33.8,40.7c-6.8-5.5-8.6-15.2-4.2-22.8l-2.5-1.5c-5,8.7-3.1,19.7,4.5,26.2H28v2.9h8.8v-8.8h-2.9
				C33.8,36.8,33.8,40.7,33.8,40.7z"/>
			<path class="st1" d="M64.6,22.9l-6.2,6.2l2.1,2.1l2.5-2.5c-1,9.1-8.6,16-17.8,16v2.9c10.9,0,19.9-8.4,20.8-19.3l2.8,2.8l2.1-2.1
				L64.6,22.9z"/>
		</g>
	</g>
</g>
</svg>
