<?xml version="1.0" encoding="utf-8"?>
<!-- Generator: Adobe Illustrator 24.0.2, SVG Export Plug-In . SVG Version: 6.00 Build 0)  -->
<svg version="1.1" id="Capa_1" xmlns="http://www.w3.org/2000/svg" xmlns:xlink="http://www.w3.org/1999/xlink" x="0px" y="0px"
	 viewBox="0 0 85.4 85.4" style="enable-background:new 0 0 85.4 85.4;" xml:space="preserve">
<style type="text/css">
	.st0{fill:none;}
	.st1{fill:#1E407F;}
</style>
<circle id="Ciculo" class="st0" cx="42.7" cy="42.7" r="40.3"/>
<path class="st1" d="M20.3,66c0,2.2,1.6,4.1,3.8,4.2c3.1,0.1,6.1,0.1,9.2,0.1c2.2,0,4.2-2,4.1-4.6c-0.1-2.8,0-5.7,0.1-8.5l0.1-11.6
	c0-0.7,0.1-0.8,0.8-1c1.5-0.4,3.1-0.5,4.7-0.2c2.9,0.6,5,2.8,5.3,5.7c0.2,1.4,0.2,2.9,0.2,4.4c0.1,3.8,0.1,7.6,0.1,11.5
	c0,2.5,1.9,4.4,4.4,4.4c2.7,0,5.5,0,8.2,0c2.6,0,4.4-1.8,4.4-4.4c0-7.9,0-15.7,0-23.6c0-0.1,0-0.2,0-0.4c-0.1-0.8-0.4-1.5-1.1-2
	c-0.5-0.3-1.1-0.5-1.6-0.7c-2.2-0.5-4.5-0.6-6.7-0.3c-1.7,0.3-3.4,0.7-5.2,1c-2.3,0.5-4.5,0.7-6.8,0.4c-3-0.3-5.5-1.6-7.9-3.2
	c-1.1-0.8-2.3-1.6-3.5-2.3c-1.4-0.9-3.1-1.2-4.7-1.3c-1.8-0.1-3.6-0.1-5.3,0.3c-1.4,0.3-2.1,1.1-2.3,2.5c0,0.3,0,0.6,0,0.9 M37.4,23
	c0-4.7-3.8-8.6-8.5-8.6c-4.7,0-8.6,3.8-8.6,8.5c0,4.7,3.8,8.6,8.5,8.6C33.5,31.6,37.4,27.7,37.4,23L37.4,23z M56.8,18.8
	c-4.7,0-8.6,3.8-8.6,8.5c0,4.7,3.8,8.6,8.5,8.6c0,0,0,0,0.1,0c4.7,0,8.6-3.8,8.6-8.5C65.4,22.6,61.6,18.8,56.8,18.8L56.8,18.8z"/>
</svg>
