<?xml version="1.0" encoding="utf-8"?>
<!-- Generator: Adobe Illustrator 24.0.2, SVG Export Plug-In . SVG Version: 6.00 Build 0)  -->
<svg version="1.1" id="Capa_1" xmlns="http://www.w3.org/2000/svg" xmlns:xlink="http://www.w3.org/1999/xlink" x="0px" y="0px"
	 viewBox="0 0 85.4 85.4" style="enable-background:new 0 0 85.4 85.4;" xml:space="preserve">
<style type="text/css">
	.st0{fill:none;}
	.st1{fill:#1E407F;}
</style>
<circle id="Ciculo" class="st0" cx="42.7" cy="42.7" r="40.3"/>
<g>
	<path class="st1" d="M63.1,38.9h1.1c0.4,0,0.8-0.4,0.8-0.8s-0.4-0.8-0.8-0.8l0,0h-1.1c-0.4,0-0.8,0.4-0.8,0.8S62.7,38.9,63.1,38.9z
		"/>
	<path class="st1" d="M64.4,40.3h-1.3c-0.4,0-0.8,0.4-0.8,0.8c0,0.4,0.4,0.8,0.8,0.8h1.3c0.4,0,0.8-0.4,0.8-0.8
		C65.2,40.7,64.8,40.3,64.4,40.3z"/>
	<path class="st1" d="M64.4,43.4h-1.3c-0.4,0-0.8,0.4-0.8,0.8s0.4,0.8,0.8,0.8h1.3c0.4,0,0.8-0.4,0.8-0.8S64.8,43.4,64.4,43.4z"/>
	<path class="st1" d="M52.5,40.1c-0.4,0-0.8,0.4-0.8,0.8v5.9c0,0.4,0.4,0.8,0.8,0.8s0.8-0.4,0.8-0.8v-5.9
		C53.3,40.5,52.9,40.1,52.5,40.1z"/>
	<path class="st1" d="M50.3,40.1c-0.4,0-0.8,0.4-0.8,0.8v5.9c0,0.4,0.4,0.8,0.8,0.8s0.8-0.4,0.8-0.8v-5.9
		C51.1,40.5,50.8,40.1,50.3,40.1z"/>
	<path class="st1" d="M55.7,34.1c0-1-0.8-1.8-1.8-1.8h-0.8V21.1l0.7-1.5C54,19.4,54,19.2,54,19l-1-3.8c-0.1-0.3-0.4-0.6-0.8-0.6
		h-1.6c-0.4,0-0.7,0.2-0.8,0.6l-1,3.8c0,0.2,0,0.4,0.1,0.5l0.7,1.5v11.2h-0.7c-1,0-1.8,0.8-1.8,1.8c0,0.7,0.4,1.3,1,1.6L47.2,39
		c0,0.1,0,0.1,0,0.2v8.5c0,1.8,1.5,3.3,3.3,3.3h2c1.8,0,3.2-1.5,3.2-3.3v-8.5c0-0.1,0-0.1,0-0.2l-0.9-3.3
		C55.3,35.4,55.7,34.8,55.7,34.1z M51.2,16.2h0.4l0.8,2.9l-0.7,1.4c-0.1,0.1-0.1,0.2-0.1,0.3v11.4h-0.3V20.9c0-0.1,0-0.2-0.1-0.3
		l-0.7-1.4L51.2,16.2z M54.1,47.7c0,0.9-0.7,1.7-1.7,1.7h-2c-0.9,0-1.7-0.8-1.7-1.7v-8.4l1-3.4h3.4l1,3.4L54.1,47.7L54.1,47.7z
		 M53.9,34.3h-5c-0.1,0-0.2-0.1-0.2-0.2s0.1-0.2,0.2-0.2h5c0.1,0,0.2,0.1,0.2,0.2S54,34.3,53.9,34.3z"/>
	<path class="st1" d="M67.2,14.6c-0.2-0.1-0.6-0.1-0.8,0c-0.2,0.1-0.4,0.4-0.4,0.7v3.6l-2.3,1.5l-2.3-1.6l0-3.4
		c0-0.4-0.4-0.8-0.8-0.8c-0.1,0-0.2,0-0.4,0.1c-3.8,1.9-5.4,6.5-3.5,10.4c0.8,1.6,2.1,2.9,3.7,3.6v19.1c0,1.8,1.4,3.2,3.2,3.2
		c1.8,0,3.2-1.4,3.2-3.2V28.6c2.8-1.2,4.6-4,4.6-7.1C71.5,18.6,69.9,16,67.2,14.6z M65.9,27.4c-0.3,0.1-0.5,0.4-0.5,0.7v19.7
		c0,0.9-0.7,1.6-1.6,1.6s-1.6-0.7-1.6-1.6l0,0V28.1c0-0.3-0.2-0.6-0.5-0.7c-3.2-1.2-4.8-4.8-3.6-8c0.4-1,1-1.9,1.9-2.6l0,2.4
		c0,0.3,0.1,0.5,0.3,0.7l3.1,2.2c0.3,0.2,0.6,0.2,0.9,0l3.1-2.1c0.2-0.1,0.3-0.4,0.3-0.7v-2.5c1.5,1.2,2.3,2.9,2.3,4.8
		C69.9,24.2,68.3,26.5,65.9,27.4z"/>
	<path class="st1" d="M38.3,63.8c0.4,0,0.8-0.4,0.8-0.8v-0.7c0-0.4-0.4-0.8-0.8-0.8s-0.8,0.4-0.8,0.8V63
		C37.6,63.4,37.9,63.8,38.3,63.8z"/>
	<path class="st1" d="M23.2,63.8c0.4,0,0.8-0.4,0.8-0.8v-0.7c0-0.4-0.4-0.8-0.8-0.8s-0.8,0.4-0.8,0.8V63
		C22.4,63.4,22.8,63.8,23.2,63.8z"/>
	<path class="st1" d="M29.6,24.5h2.7c0.4,0,0.8-0.4,0.8-0.8c0-0.4-0.4-0.8-0.8-0.8h-2.7c-0.4,0-0.8,0.4-0.8,0.8
		C28.8,24.1,29.2,24.5,29.6,24.5z"/>
	<path class="st1" d="M29.6,22.1h2.7c0.4,0,0.8-0.4,0.8-0.8c0-0.4-0.4-0.8-0.8-0.8h-2.7c-0.4,0-0.8,0.4-0.8,0.8
		C28.8,21.8,29.2,22.1,29.6,22.1z"/>
	<path class="st1" d="M45.1,68.8v-8.3c0,0,0,0,0-0.1c-0.2-2.1-1.4-4-3.3-4.9c0,0,0,0,0,0l-5.7-2.4v-3.4c3.1-1.8,5.2-5,5.4-8.7
		c1.5-0.6,2.4-2.3,2-3.9c-0.2-0.9-0.8-1.6-1.6-1.9l0.1-1h1.3c0.4,0,0.7-0.3,0.7-0.7c0,0,0,0,0-0.1v-2.9c0-0.4-0.3-0.8-0.7-0.8h-0.7
		c-0.1-2.5-1-4.9-2.5-7c-1.4-1.9-3.4-3.4-5.7-4.2l0.1-0.7c0-0.2,0-0.4-0.2-0.6c-0.1-0.2-0.4-0.2-0.6-0.2H28c-0.4,0-0.8,0.3-0.8,0.7
		c0,0,0,0.1,0,0.1l0.1,0.7c-2.3,0.8-4.3,2.3-5.7,4.2c-1.5,2-2.4,4.5-2.5,7h-0.7c-0.4,0-0.8,0.4-0.8,0.8v2.9c0,0.4,0.4,0.7,0.8,0.7
		h1.3l0.1,1c-0.8,0.3-1.4,1-1.6,1.9C18,37.3,18,37.6,18,37.9c0,1.4,0.8,2.6,2.1,3.1c0.2,3.7,2.2,7,5.5,8.8v3.4l-5.7,2.4c0,0,0,0,0,0
		c-1.9,0.9-3.2,2.8-3.4,4.9c0,0,0,0,0,0.1v8.3c0,0.5,0.4,0.8,0.8,0.8h27.1C44.8,69.7,45.1,69.3,45.1,68.8z M38,55.7l0.7,0.3v3.8H38
		V55.7z M26.9,20.5c0.5-0.2,0.9-0.4,1.4-0.5c0.4-0.1,0.6-0.5,0.6-0.8l-0.1-0.5h3.9l-0.1,0.5c0,0.4,0.2,0.7,0.6,0.8
		c0.5,0.1,1,0.3,1.4,0.5v1c0,2.5-1.5,4.6-3.8,5.5c-2.4-0.8-4-3.1-4-5.6V20.5z M22.9,23.7c0.7-0.9,1.5-1.7,2.5-2.4l0,0
		c0,3.3,2.1,6.2,5.2,7.2l0.2,0c0.1,0,0.2,0,0.2,0c0.1,0,0.2,0,0.3,0c3-1.1,5.1-3.9,5.1-7.1v-0.1c0.9,0.7,1.8,1.5,2.5,2.4
		c1.3,1.8,2,3.9,2.2,6.1H20.7C20.8,27.6,21.6,25.5,22.9,23.7z M19.1,32.6v-1.2h23.3v1.2h-3.6c-0.1,0-0.3-0.1-0.5-0.1
		c-0.1,0-0.1,0.1-0.2,0.1H19.1z M40.4,34.2l-0.1,1.5c0,0.1,0,0.1-0.1,0.2L40,36L39.7,35c-0.1-0.3-0.2-0.6-0.2-0.8L40.4,34.2
		L40.4,34.2z M21.9,34.2l-0.1,1.6l-0.4-0.2c0,0,0,0,0,0l-0.1-1.4H21.9z M21.6,40.4L21.6,40.4c0-0.4-0.3-0.7-0.6-0.8
		c-0.8-0.1-1.4-0.9-1.4-1.7c0-0.1,0-0.3,0.1-0.4c0.1-0.3,0.3-0.6,0.6-0.7c0.1,0.1,0.3,0.2,0.4,0.3l1.2,0.6c0.3,0.1,0.6,0.1,0.9,0
		c0.3-0.2,0.5-0.5,0.5-0.8l0.2-2.6h14.4c0.1,0.5,0.2,0.9,0.4,1.4l0.6,1.8c0.2,0.5,0.7,0.8,1.3,0.6c0.1,0,0.3-0.1,0.4-0.2l0.8-0.8
		c0.1-0.1,0.1-0.1,0.2-0.2c0.2,0.1,0.4,0.4,0.5,0.7c0.2,0.9-0.3,1.9-1.3,2.1c0,0-0.1,0-0.1,0c-0.4,0.1-0.7,0.4-0.7,0.8v0
		c0,5-4.1,9.1-9.2,9.1S21.6,45.4,21.6,40.4z M34.5,50.4v2.7c-2.4,1-5,1-7.3,0v-2.7C29.5,51.3,32.1,51.3,34.5,50.4L34.5,50.4z
		 M25.1,55l1.2-0.5c1.4,0.6,3,1,4.5,1c1.5,0,3.1-0.3,4.5-1l1.1,0.5v4.8H25.1V55z M22.9,55.9l0.7-0.3v4.1h-0.7V55.9z M21.3,59.7H21
		c-0.4,0-0.8,0.3-0.8,0.8v7.6H18v-7.5c0.2-1.5,1.1-2.9,2.5-3.6l0.8-0.4V59.7z M39.8,68.1H21.7v-6.8h18.1V68.1z M43.5,68.1h-2.1v-7.6
		c0-0.4-0.3-0.8-0.7-0.8h-0.4v-3.1l0.8,0.4c1.4,0.7,2.3,2.1,2.5,3.6V68.1z"/>
</g>
</svg>
