<?xml version="1.0" encoding="utf-8"?>
<!-- Generator: Adobe Illustrator 24.0.2, SVG Export Plug-In . SVG Version: 6.00 Build 0)  -->
<svg version="1.1" id="Capa_1" xmlns="http://www.w3.org/2000/svg" xmlns:xlink="http://www.w3.org/1999/xlink" x="0px" y="0px"
	 viewBox="0 0 85.4 85.4" style="enable-background:new 0 0 85.4 85.4;" xml:space="preserve">
<style type="text/css">
	.st0{fill:none;}
	.st1{fill:#1E407F;}
</style>
<circle id="Ciculo" class="st0" cx="42.7" cy="42.7" r="40.3"/>
<g>
	<path class="st1" d="M62.3,18.6H51.4v-0.8c0-1.6-1.2-2.9-2.8-2.9H36.8c-1.5,0-2.8,1.3-2.8,2.9v0.8H23.2c-0.4,0-0.8,0.4-0.8,0.8
		c0,0,0,0,0,0v50.2c0,0.5,0.4,0.8,0.8,0.8c0,0,0,0,0,0h39.1c0.4,0,0.8-0.4,0.8-0.8c0,0,0,0,0,0V19.4C63.1,19,62.7,18.6,62.3,18.6
		C62.3,18.6,62.3,18.6,62.3,18.6z M56.8,24.9V64H28.7V24.9H56.8z M35.6,17.8c0-0.7,0.5-1.2,1.2-1.2h11.9c0.7,0,1.2,0.5,1.2,1.2v5.4
		H35.6V17.8z M61.5,68.8H24V20.3H34v3h-6.1c-0.4,0-0.8,0.4-0.8,0.8v40.7c0,0.5,0.4,0.8,0.8,0.8l0,0h29.7c0.4,0,0.8-0.4,0.8-0.8
		c0,0,0,0,0,0V24c0-0.5-0.4-0.8-0.8-0.8c0,0,0,0,0,0h-6.1v-3h10.1V68.8z"/>
	<path class="st1" d="M32.6,48.9h7.1c0.4,0,0.8-0.4,0.8-0.8c0,0,0,0,0,0V42l1.6-1.6c0.3-0.3,0.3-0.8,0-1.2c-0.3-0.3-0.8-0.3-1.1,0
		l-0.8,0.9c-0.1-0.1-0.3-0.1-0.4-0.1h-7.1c-0.4,0-0.8,0.4-0.8,0.8v7.3C31.8,48.5,32.2,48.9,32.6,48.9z M33.4,41.6h5.3l-2.5,2.6
		l-0.6-0.7c-0.3-0.3-0.8-0.3-1.1,0c-0.3,0.3-0.3,0.8,0,1.1l1.2,1.2c0.3,0.3,0.8,0.3,1.1,0c0,0,0,0,0,0l2.2-2.3v3.7h-5.5V41.6z"/>
	<path class="st1" d="M32.6,60.9h7.1c0.4,0,0.8-0.4,0.8-0.8c0,0,0,0,0,0V54l1.6-1.6c0.3-0.3,0.3-0.8,0-1.2c-0.3-0.3-0.8-0.3-1.1,0
		c0,0,0,0,0,0l-0.8,0.9c-0.1-0.1-0.3-0.1-0.4-0.1h-7.1c-0.4,0-0.8,0.4-0.8,0.8v7.3C31.8,60.6,32.2,60.9,32.6,60.9L32.6,60.9z
		 M33.4,53.6h5.3l-2.5,2.6l-0.6-0.7c-0.3-0.3-0.8-0.3-1.1,0c-0.3,0.3-0.3,0.8,0,1.1l1.2,1.2c0.3,0.3,0.8,0.3,1.1,0c0,0,0,0,0,0
		l2.2-2.3v3.7h-5.5V53.6z"/>
	<path class="st1" d="M32.6,36.9h7.1c0.4,0,0.8-0.4,0.8-0.8c0,0,0,0,0,0V30l1.6-1.6c0.3-0.3,0.3-0.8,0-1.2c-0.3-0.3-0.8-0.3-1.1,0
		L40.1,28c-0.1-0.1-0.3-0.1-0.4-0.1h-7.1c-0.4,0-0.8,0.4-0.8,0.8v7.3C31.8,36.5,32.2,36.9,32.6,36.9z M33.4,29.5h5.3l-2.5,2.6
		l-0.6-0.7c-0.3-0.3-0.8-0.3-1.1,0c-0.3,0.3-0.3,0.8,0,1.2c0,0,0,0,0,0l1.2,1.2c0.3,0.3,0.8,0.3,1.1,0c0,0,0,0,0,0l2.2-2.3v3.7h-5.5
		V29.5z"/>
	<path class="st1" d="M43.5,33.2h9.4c0.4,0,0.8-0.4,0.8-0.8s-0.4-0.8-0.8-0.8h-9.4c-0.4,0-0.8,0.4-0.8,0.8S43,33.2,43.5,33.2z"/>
	<path class="st1" d="M43.5,45.2h9.4c0.4,0,0.8-0.4,0.8-0.8c0-0.5-0.4-0.8-0.8-0.8h-9.4c-0.4,0-0.8,0.4-0.8,0.8
		C42.7,44.9,43,45.2,43.5,45.2z"/>
	<path class="st1" d="M43.5,57.3h9.4c0.4,0,0.8-0.4,0.8-0.8s-0.4-0.8-0.8-0.8h-9.4c-0.4,0-0.8,0.4-0.8,0.8S43,57.3,43.5,57.3z"/>
</g>
</svg>
