<?xml version="1.0" encoding="utf-8"?>
<!-- Generator: Adobe Illustrator 24.0.2, SVG Export Plug-In . SVG Version: 6.00 Build 0)  -->
<svg version="1.1" id="Capa_1" xmlns="http://www.w3.org/2000/svg" xmlns:xlink="http://www.w3.org/1999/xlink" x="0px" y="0px"
	 viewBox="0 0 85.4 85.4" style="enable-background:new 0 0 85.4 85.4;" xml:space="preserve">
<style type="text/css">
	.st0{fill:none;}
	.st1{fill:#1E407F;}
</style>
<circle id="Ciculo" class="st0" cx="42.7" cy="42.7" r="40.3"/>
<g>
	<path class="st1" d="M68.9,40.5h-9.1l-0.5-2.1h7.5c0.6,0,1.1-0.5,1.1-1.1V22.4c0-0.6-0.5-1.1-1.1-1.1h-6.2c-0.6,0-1.1,0.5-1.1,1.1
		c0,0.6,0.5,1.1,1.1,1.1h5.1v12.8H45.9V23.5H51c0.6,0,1.1-0.5,1.1-1.1c0-0.6-0.5-1.1-1.1-1.1h-6.2c-0.6,0-1.1,0.5-1.1,1.1v14.9
		c0,0.6,0.5,1.1,1.1,1.1h7.5l-0.5,2.1H41.7v-3.2c0-4.1-3.3-7.5-7.5-7.5s-7.5,3.3-7.5,7.5v3.2H16.5c-0.6,0-1.1,0.5-1.1,1.1v4.3
		c0,0.6,0.5,1.1,1.1,1.1h1.1v20.2c0,0.6,0.5,1.1,1.1,1.1c0.6,0,1.1-0.5,1.1-1.1V46.9h7V48c0,1.8,1.4,3.2,3.2,3.2h3.2v2.1h-3.2
		c-1.8,0-3.2,1.4-3.2,3.2c0,1.8,1.4,3.2,3.2,3.2h3.2V64h-3.2c-1.8,0-3.2,1.4-3.2,3.2c0,0.6,0.5,1.1,1.1,1.1s1.1-0.5,1.1-1.1
		c0-0.6,0.5-1.1,1.1-1.1h3.2v1.1c0,0.6,0.5,1.1,1.1,1.1c0.6,0,1.1-0.5,1.1-1.1v-1.1h3.2c0.6,0,1.1,0.5,1.1,1.1
		c0,0.6,0.5,1.1,1.1,1.1c0.6,0,1.1-0.5,1.1-1.1c0-1.8-1.4-3.2-3.2-3.2h-3.2v-4.3h3.2c1.8,0,3.2-1.4,3.2-3.2c0-1.8-1.4-3.2-3.2-3.2
		h-3.2v-2.1h3.2c1.8,0,3.2-1.4,3.2-3.2v-1.1H48v20.2c0,0.6,0.5,1.1,1.1,1.1h17.7c0.6,0,1.1-0.5,1.1-1.1V46.9h1.1
		c0.6,0,1.1-0.5,1.1-1.1v-4.3C70,41,69.5,40.5,68.9,40.5z M39.5,56.5c0,0.6-0.5,1.1-1.1,1.1h-8.5c-0.6,0-1.1-0.5-1.1-1.1
		s0.5-1.1,1.1-1.1h8.5C39.1,55.5,39.5,55.9,39.5,56.5z M54.5,38.4h2.6l0.5,2.1H54L54.5,38.4z M17.6,44.8v-2.1h9.2v2.1H17.6z
		 M39.5,48c0,0.6-0.5,1.1-1.1,1.1h-8.5c-0.6,0-1.1-0.5-1.1-1.1V37.4c0-2.9,2.4-5.3,5.3-5.3s5.3,2.4,5.3,5.3V48z M65.7,61.9H50.2
		v-6.4h15.6V61.9z M50.2,66.1V64h15.6v2.1H50.2z M65.7,53.3H50.2v-6.4h15.6V53.3z M67.9,44.8H41.7v-2.1h26.2V44.8z"/>
	<path class="st1" d="M55.8,51.2h4.3c0.6,0,1.1-0.5,1.1-1.1c0-0.6-0.5-1.1-1.1-1.1h-4.3c-0.6,0-1.1,0.5-1.1,1.1
		C54.8,50.7,55.2,51.2,55.8,51.2z"/>
	<path class="st1" d="M55.8,59.7h4.3c0.6,0,1.1-0.5,1.1-1.1c0-0.6-0.5-1.1-1.1-1.1h-4.3c-0.6,0-1.1,0.5-1.1,1.1
		C54.8,59.2,55.2,59.7,55.8,59.7z"/>
	<path class="st1" d="M35.3,18.2c0-0.6-0.5-1.1-1.1-1.1c-0.6,0-1.1,0.5-1.1,1.1c0,1.8-1.4,3.2-3.2,3.2c-0.6,0-1.1,0.5-1.1,1.1
		c0,0.6,0.5,1.1,1.1,1.1c1.8,0,3.2,1.4,3.2,3.2c0,0.6,0.5,1.1,1.1,1.1c0.6,0,1.1-0.5,1.1-1.1c0-1.8,1.4-3.2,3.2-3.2
		c0.6,0,1.1-0.5,1.1-1.1c0-0.6-0.5-1.1-1.1-1.1C36.7,21.4,35.3,19.9,35.3,18.2z M34.2,23.5c-0.3-0.4-0.7-0.8-1.1-1.1
		c0.4-0.3,0.8-0.7,1.1-1.1c0.3,0.4,0.7,0.8,1.1,1.1C34.9,22.7,34.5,23.1,34.2,23.5z"/>
	<path class="st1" d="M53.7,34.2c0.6,0,1.1-0.5,1.1-1.1V32h1.1c0.6,0,1.1-0.5,1.1-1.1s-0.5-1.1-1.1-1.1h-1.1v-1.1
		c0-0.6-0.5-1.1-1.1-1.1c-0.6,0-1.1,0.5-1.1,1.1v1.1h-1.1c-0.6,0-1.1,0.5-1.1,1.1S51,32,51.6,32h1.1v1.1
		C52.6,33.7,53.1,34.2,53.7,34.2z"/>
	<path class="st1" d="M18.7,34.2h1.1v1.1c0,0.6,0.5,1.1,1.1,1.1s1.1-0.5,1.1-1.1v-1.1h1.1c0.6,0,1.1-0.5,1.1-1.1S23.5,32,22.9,32
		h-1.1V31c0-0.6-0.5-1.1-1.1-1.1s-1.1,0.5-1.1,1.1V32h-1.1c-0.6,0-1.1,0.5-1.1,1.1S18.1,34.2,18.7,34.2z"/>
	<path class="st1" d="M53.2,21.4c2,0.1,3.9,0,5.9,0c2.9,0,2.8,0,2.9,0c2.4,0.1,5.6,0.6,5.6,1.1c0,0.5-3.7,0.9-5.6,1
		c-1.8,0.1-2.1,0-6.2,0c-3.7,0-3.7,0.1-5.2,0c-2.9-0.1-6.6-0.6-6.6-1.1c0-0.5,5.3-0.9,6.6-1c0.3,0,0.6,0,0.6,0
		C52.2,21.3,53,21.4,53.2,21.4z"/>
</g>
</svg>
