<?xml version="1.0" encoding="utf-8"?>
<!-- Generator: Adobe Illustrator 24.0.2, SVG Export Plug-In . SVG Version: 6.00 Build 0)  -->
<svg version="1.1" id="Capa_1" xmlns="http://www.w3.org/2000/svg" xmlns:xlink="http://www.w3.org/1999/xlink" x="0px" y="0px"
	 viewBox="0 0 85.4 85.4" style="enable-background:new 0 0 85.4 85.4;" xml:space="preserve">
<style type="text/css">
	.st0{fill:#00A7B5;stroke:#00A7B5;stroke-miterlimit:10;}
	.st1{fill:#FFFFFF;}
</style>
<circle id="Ciculo" class="st0" cx="42.7" cy="42.7" r="40.3"/>
<g>
	<path class="st1" d="M24.7,69.6c1.4,0,2.5-1.1,2.6-2.5c0-1.4-1.1-2.5-2.5-2.6c-1.4,0-2.5,1.1-2.6,2.5c0,0,0,0,0,0.1
		C22.3,68.4,23.4,69.6,24.7,69.6z M24.7,66.4c0.4,0,0.7,0.3,0.8,0.7s-0.3,0.7-0.7,0.8c-0.4,0-0.7-0.3-0.8-0.7c0,0,0,0,0-0.1
		C24.1,66.7,24.4,66.4,24.7,66.4L24.7,66.4z"/>
	<path class="st1" d="M59.8,39.8H45.5c-0.5,0-0.9,0.4-0.9,0.9s0.4,0.9,0.9,0.9h14.2c0.5,0,0.9-0.4,0.9-0.9S60.2,39.8,59.8,39.8z"/>
	<path class="st1" d="M53.6,44.3h-8.1c-0.5,0-0.9,0.4-0.9,0.9s0.4,0.9,0.9,0.9h8.1c0.5,0,0.9-0.4,0.9-0.9S54.1,44.3,53.6,44.3
		L53.6,44.3z"/>
	<path class="st1" d="M68.8,42.8c0-1,0-1.4,0-2.3c0-0.8,0-1.8,0-3.1V20.1c0-0.2-0.1-0.5-0.3-0.6l-11.1-11c-0.2-0.2-0.4-0.3-0.6-0.2
		H40.3c-2,0-3.7,1.6-3.7,3.6v0v17.4l-12.4,9.9c0,0,0,0.1-0.1,0.1c-0.9,0.9-1.4,2.2-1.4,3.5v19h-1.3c-1.2,0-2.2,1-2.2,2.2v6
		c0,1.2,1,2.1,2.2,2.1c0,0,0,0,0,0h19.7c1.2,0,2.1-0.9,2.1-2.1c0,0,0,0,0-0.1v-6c0-1.2-0.9-2.2-2.1-2.2h-0.6v-1.2
		c2.4-0.4,4.2-2.5,4.2-5v-4.2h16.2c1.8,0,3.2-0.5,4-0.8c1.3-0.5,1.9-1.1,2.1-1.3c0.7-0.8,1.1-1.6,1.2-2c0.2-0.6,0.3-1.1,0.3-2
		C68.7,44.9,68.8,44.3,68.8,42.8z M57.7,11.2l8,8h-6.1c-1,0-1.8-0.9-1.8-1.9L57.7,11.2L57.7,11.2z M41.2,63.5c0.2,0,0.4,0.2,0.4,0.4
		l0,0v6c0,0.2-0.2,0.4-0.4,0.4H21.5c-0.2,0-0.4-0.2-0.4-0.4v-6c0-0.2,0.2-0.4,0.4-0.4l0,0H41.2z M43.1,55.5c0,1.8-1.5,3.2-3.3,3.2
		c-0.5,0-0.9,0.4-1,0.9v2.1H24.6v-19c0-0.8,0.3-1.6,0.9-2.2l11.2-9v7.3L28.9,45c-0.4,0.3-0.4,0.9-0.1,1.3c0.3,0.4,0.9,0.4,1.3,0.1
		l9.3-7.4l0.2,0.2c0.9,0.9,0.9,2.3,0,3.1l-4.4,4.4c-0.2,0.2-0.2,0.4-0.3,0.6l-0.1,1c0,0,0,0,0,0.1c0,0.7,0.2,1.5,0.5,2.1
		c0.7,1.5,0.6,3.2-0.4,4.6c-0.1,0.1-0.2,0.3-0.2,0.5v2.1c0,0.5,0.4,0.9,0.9,0.9s0.9-0.4,0.9-0.9v-1.8c1.1-1.8,1.3-4.2,0.3-6.1
		c-0.2-0.4-0.3-0.9-0.3-1.4l0-0.6l0.1-0.1c0,2,1.6,3.7,3.7,3.7h2.7V55.5z M60.5,49.5H40.3c-1,0-1.9-0.9-1.9-1.9v-1.8l2.3-2.3
		c1.6-1.6,1.6-4.1,0-5.7L40,37.1c-0.3-0.3-0.8-0.3-1.2-0.1l-0.3,0.3V11.8c0-1,0.8-1.8,1.9-1.8h0h15.6v7.4c0,2,1.6,3.7,3.6,3.7H67
		v16.8c0,0.3,0,2.4,0,2.8c0,2.3,0,2.9-0.1,3.9c-0.2,1.5-0.3,2.3-0.8,3c-0.8,1.1-2.2,1.5-3,1.8C62,49.5,61.1,49.5,60.5,49.5z"/>
	<path class="st1" d="M63.4,29.5c0-1.4-0.9-2.6-2.2-2.9l-1.8-3.3c-0.7-1.2-1.6-2.5-3.3-2.5h-9.2c-1.4,0-2.6,0.9-3.4,2.5l-1.9,3.3
		c-1.2,0.3-2.2,1.4-2.2,2.9c0,0,0,0.1,0,0.1l0.6,4.8c0,0.7,0.5,1.4,1.2,1.7v1.2c0,0.8,0.7,1.4,1.5,1.4h1.6c0.8,0,1.5-0.6,1.5-1.4
		v-0.9h11.6v1c0,0.7,0.6,1.4,1.3,1.4c0,0,0,0,0.1,0h1.6c0.7,0,1.4-0.6,1.4-1.3c0,0,0,0,0-0.1v-1.2c0.7-0.3,1.1-1,1.2-1.7l0.6-4.8
		C63.4,29.6,63.4,29.5,63.4,29.5z M45,24.1C45,24.1,45,24.1,45,24.1c0.3-0.6,0.9-1.6,1.8-1.6h9.2c0.6,0,1.1,0.5,1.8,1.6l1.3,2.4
		h-0.6c-0.5-1.6-2.1-2.6-3.8-2.1c-1,0.3-1.8,1.1-2.1,2.1h-9L45,24.1z M56.6,26.5h-1.9c0.4-0.5,1.2-0.6,1.8-0.1
		C56.5,26.4,56.6,26.5,56.6,26.5L56.6,26.5z M43.9,36.8H43v-0.5h0.9V36.8z M59.8,36.8H59v-0.5h0.8V36.8z M61,34.2c0,0.1,0,0.1,0,0.1
		c0,0.1-0.1,0.2-0.1,0.2H42c-0.1,0-0.1-0.1-0.1-0.2c0,0,0-0.1,0-0.1l-0.6-4.8c0-0.5,0.3-1.1,0.8-1.1c0,0,0,0,0.1,0h18.5l0,0
		c0.6,0,0.9,0.6,1,1.1L61,34.2z"/>
	<path class="st1" d="M54.5,31.4h-6.2c-0.5,0-0.9,0.4-0.9,0.9c0,0.5,0.4,0.9,0.9,0.9h6.2c0.5,0,0.9-0.4,0.9-0.9
		C55.4,31.8,55,31.4,54.5,31.4L54.5,31.4z"/>
	<path class="st1" d="M44,29.5c-1.2,0-2.3,1-2.3,2.3s1,2.3,2.3,2.3c1.2,0,2.3-1,2.3-2.3l0,0C46.2,30.5,45.2,29.5,44,29.5z M44,32.3
		c-0.3,0-0.5-0.2-0.5-0.5c0-0.3,0.2-0.5,0.5-0.5s0.5,0.2,0.5,0.5C44.4,32,44.2,32.3,44,32.3z"/>
	<path class="st1" d="M58.9,29.5c-1.2,0-2.3,1-2.3,2.3s1,2.3,2.3,2.3c1.2,0,2.3-1,2.3-2.3C61.1,30.5,60.1,29.5,58.9,29.5z
		 M58.9,32.3c-0.3,0-0.5-0.2-0.5-0.5c0-0.3,0.2-0.5,0.5-0.5c0.3,0,0.5,0.2,0.5,0.5C59.3,32,59.1,32.3,58.9,32.3z"/>
</g>
</svg>
