<?xml version="1.0" encoding="utf-8"?>
<!-- Generator: Adobe Illustrator 24.0.2, SVG Export Plug-In . SVG Version: 6.00 Build 0)  -->
<svg version="1.1" id="Capa_1" xmlns="http://www.w3.org/2000/svg" xmlns:xlink="http://www.w3.org/1999/xlink" x="0px" y="0px"
	 viewBox="0 0 85.4 85.4" style="enable-background:new 0 0 85.4 85.4;" xml:space="preserve">
<style type="text/css">
	.st0{fill:none;}
	.st1{fill:#1E407F;}
</style>
<circle id="Ciculo" class="st0" cx="42.7" cy="42.7" r="40.3"/>
<g>
	<link  id="dark-mode-custom-link" rel="stylesheet" type="text/css"></link>
	<link  id="dark-mode-general-link" rel="stylesheet" type="text/css"></link>
	<g>
		<path class="st1" d="M71.4,37.9h-3.3V32c0-1.4-1.2-2.6-2.6-2.6h-3.1v-2.3L62,26.6l0,0l-6.9-6.9l-7.4-7.4H24.5v10.4h-5
			c-1.4,0-2.6,1.2-2.6,2.6v41.4l0,0c0,0.5,0.2,1.1,0.5,1.5c0.5,0.6,1.2,1,1.9,1h42.4c1.1,0,2.1-0.7,2.3-1.7l9.7-26.6v-0.2
			C73.8,39.1,72.8,37.9,71.4,37.9z M65.6,31.3c0.4,0,0.7,0.3,0.7,0.7v5.9h-3.8v-6.6C62.5,31.3,65.6,31.3,65.6,31.3z M48.2,15.6
			l11,11h-11V15.6z M26.4,14.2h19.9v14.2h14.2v0.9v8.5H29c-0.1,0-0.3,0-0.4,0c-0.9,0.2-1.7,0.8-1.9,1.7l-0.3,0.7V22.8
			C26.4,22.8,26.4,14.2,26.4,14.2z M18.9,25.4c0-0.4,0.3-0.7,0.7-0.7h5v20.9l-5.7,15.5C18.9,61.1,18.9,25.4,18.9,25.4z M62.3,66.9
			c-0.1,0.2-0.3,0.4-0.5,0.4H19.4c-0.2,0-0.4-0.1-0.4-0.2c-0.1-0.1-0.2-0.2-0.1-0.4l5.7-15.6l0,0l3.9-10.8v-0.1
			c0.1-0.2,0.3-0.4,0.5-0.4h31.5h1.9h5.7h3.3c0.4,0,0.5,0.5,0.5,0.8L62.3,66.9z"/>
		<path class="st1" d="M32.1,28.5h9.5c0.5,0,0.9-0.4,0.9-0.9s-0.4-0.9-0.9-0.9h-9.5c-0.5,0-0.9,0.4-0.9,0.9S31.6,28.5,32.1,28.5z"/>
		<path class="st1" d="M32.1,21.8h9.5c0.5,0,0.9-0.4,0.9-0.9S42.1,20,41.6,20h-9.5c-0.5,0-0.9,0.4-0.9,0.9S31.6,21.8,32.1,21.8z"/>
		<path class="st1" d="M32.1,35.1h22.7c0.5,0,0.9-0.4,0.9-0.9s-0.4-0.9-0.9-0.9H32.1c-0.5,0-0.9,0.4-0.9,0.9S31.6,35.1,32.1,35.1z"
			/>
	</g>
</g>
</svg>
