<?xml version="1.0" standalone="no"?>
<!DOCTYPE svg PUBLIC "-//W3C//DTD SVG 20010904//EN"
 "http://www.w3.org/TR/2001/REC-SVG-20010904/DTD/svg10.dtd">
<svg version="1.0" xmlns="http://www.w3.org/2000/svg"
 width="516.000000pt" height="500.000000pt" viewBox="0 0 516.000000 500.000000"
 preserveAspectRatio="xMidYMid meet">
<metadata>
Created by potrace 1.16, written by Peter Selinger 2001-2019
</metadata>
<g transform="translate(0.000000,500.000000) scale(0.100000,-0.100000)"
fill="#063E7F" stroke="none">
<path d="M2305 4819 c-449 -55 -869 -232 -1220 -514 -118 -95 -312 -296 -401
-415 -246 -328 -410 -731 -458 -1125 -20 -168 -21 -448 -1 -602 129 -983 847
-1779 1810 -2006 358 -85 767 -82 1116 8 774 197 1397 764 1658 1508 224 640
170 1324 -152 1922 -357 662 -1040 1129 -1782 1219 -141 17 -448 20 -570 5z
m754 -511 c17 -13 225 -225 461 -471 l430 -448 0 -1352 c0 -1280 -1 -1353 -18
-1375 -10 -13 -36 -27 -57 -32 -53 -13 -2547 -13 -2600 0 -22 5 -48 19 -57 31
-17 20 -18 122 -18 1818 l0 1798 23 20 c12 11 29 23 37 26 8 3 409 6 891 6
l876 1 32 -22z"/>
<path d="M1300 2475 l0 -1745 1275 0 1275 0 0 1290 0 1290 -403 0 c-441 0
-430 -1 -462 60 -13 24 -15 95 -15 440 l0 410 -835 0 -835 0 0 -1745z m1381
1465 c24 -13 25 -57 2 -82 -15 -17 -45 -18 -540 -18 l-524 0 -24 24 c-26 26
-25 51 3 74 20 16 1052 18 1083 2z m7 -312 c7 -7 12 -24 12 -38 0 -14 -5 -31
-12 -38 -17 -17 -1079 -17 -1096 0 -7 7 -12 24 -12 38 0 14 5 31 12 38 17 17
1079 17 1096 0z m-556 -375 c17 -15 18 -37 18 -273 0 -186 -3 -259 -12 -268
-9 -9 -84 -12 -274 -12 -231 0 -263 2 -275 17 -11 13 -14 68 -14 263 0 230 1
249 19 269 18 20 28 21 269 21 219 0 253 -2 269 -17z m1420 -160 c22 -20 23
-51 1 -75 -15 -17 -47 -18 -596 -18 -526 0 -582 2 -599 17 -24 21 -23 48 2 73
20 20 33 20 597 20 522 0 578 -2 595 -17z m0 -310 c21 -19 24 -56 4 -72 -9 -8
-177 -10 -607 -9 l-594 3 -9 27 c-8 22 -6 32 9 48 18 20 28 20 598 20 526 0
582 -2 599 -17z m-1424 -369 c22 -15 22 -18 22 -274 0 -256 0 -259 -22 -274
-19 -13 -62 -16 -264 -16 -223 0 -244 1 -265 19 l-24 19 0 252 0 252 24 19
c21 18 42 19 265 19 202 0 245 -3 264 -16z m1430 -166 c17 -17 15 -54 -4 -72
-14 -14 -82 -16 -605 -16 l-589 0 -12 25 c-8 19 -8 31 0 50 l12 25 593 0 c448
0 596 -3 605 -12z m0 -310 c19 -19 15 -66 -7 -78 -13 -6 -218 -10 -597 -10
-523 0 -579 2 -596 17 -20 18 -23 36 -8 64 10 18 28 19 603 19 448 0 596 -3
605 -12z m-1431 -370 c23 -21 23 -23 23 -271 0 -219 -2 -253 -17 -269 -15 -17
-37 -18 -269 -18 -278 0 -277 0 -289 63 -4 18 -5 133 -3 255 3 221 3 224 27
243 21 18 42 19 264 19 233 0 241 -1 264 -22z m1425 -165 c21 -19 24 -56 4
-72 -9 -8 -177 -10 -607 -9 l-594 3 -9 27 c-8 22 -6 32 9 48 18 20 28 20 598
20 526 0 582 -2 599 -17z m6 -305 c7 -7 12 -24 12 -38 0 -14 -5 -31 -12 -38
-9 -9 -155 -12 -597 -12 -530 0 -586 2 -603 17 -22 20 -23 41 -1 65 15 17 47
18 603 18 442 0 589 -3 598 -12z"/>
<path d="M1680 2985 l0 -185 185 0 185 0 0 185 0 185 -185 0 -185 0 0 -185z"/>
<path d="M1680 2135 l0 -185 185 0 185 0 0 185 0 185 -185 0 -185 0 0 -185z"/>
<path d="M1680 1295 l0 -185 185 0 185 0 0 185 0 185 -185 0 -185 0 0 -185z"/>
<path d="M3080 3783 l0 -363 347 0 346 0 -64 68 c-35 37 -168 175 -294 307
-127 132 -254 265 -283 295 l-52 55 0 -362z"/>
</g>
</svg>
