<?xml version="1.0" encoding="utf-8"?>
<!-- Generator: Adobe Illustrator 24.0.2, SVG Export Plug-In . SVG Version: 6.00 Build 0)  -->
<svg version="1.1" id="Capa_1" xmlns="http://www.w3.org/2000/svg" xmlns:xlink="http://www.w3.org/1999/xlink" x="0px" y="0px"
	 viewBox="0 0 85.4 85.4" style="enable-background:new 0 0 85.4 85.4;" xml:space="preserve">
<style type="text/css">
	.st0{fill:none;}
	.st1{fill:#1E407F;}
</style>
<circle id="Ciculo" class="st0" cx="42.7" cy="42.7" r="40.3"/>
<path class="st1" d="M54.6,36.2h3.9c0.5,0,1-0.4,1-1v-3.9c0-0.5-0.4-1-1-1h-3.9c-0.5,0-1,0.4-1,1v3.9C53.7,35.7,54.1,36.2,54.6,36.2
	z M55.6,32.3h2v2h-2V32.3z"/>
<path class="st1" d="M27.2,28.3H37c0.5,0,1-0.4,1-1s-0.4-1-1-1h-9.8c-0.5,0-1,0.4-1,1S26.7,28.3,27.2,28.3z"/>
<path class="st1" d="M30.2,31.3c0,0.5,0.4,1,1,1h19.6c0.5,0,1-0.4,1-1s-0.4-1-1-1H31.1C30.6,30.3,30.2,30.7,30.2,31.3z"/>
<path class="st1" d="M27.2,36.2h23.5c0.5,0,1-0.4,1-1c0-0.5-0.4-1-1-1H27.2c-0.5,0-1,0.4-1,1C26.3,35.7,26.7,36.2,27.2,36.2z"/>
<path class="st1" d="M54.6,45h3.9c0.5,0,1-0.4,1-1v-3.9c0-0.5-0.4-1-1-1h-3.9c-0.5,0-1,0.4-1,1V44C53.7,44.5,54.1,45,54.6,45z
	 M55.6,41.1h2v2h-2V41.1z"/>
<path class="st1" d="M50.7,39.1H31.1c-0.5,0-1,0.4-1,1c0,0.5,0.4,1,1,1h19.6c0.5,0,1-0.4,1-1S51.3,39.1,50.7,39.1z"/>
<path class="st1" d="M27.2,45h23.5c0.5,0,1-0.4,1-1s-0.4-1-1-1H27.2c-0.5,0-1,0.4-1,1S26.7,45,27.2,45z"/>
<path class="st1" d="M54.6,53.8h3.9c0.5,0,1-0.4,1-1v-3.9c0-0.5-0.4-1-1-1h-3.9c-0.5,0-1,0.4-1,1v3.9C53.7,53.3,54.1,53.8,54.6,53.8
	z M55.6,49.9h2v2h-2V49.9z"/>
<path class="st1" d="M50.7,47.9H31.1c-0.5,0-1,0.4-1,1c0,0.5,0.4,1,1,1h19.6c0.5,0,1-0.4,1-1C51.7,48.4,51.3,47.9,50.7,47.9z"/>
<path class="st1" d="M27.2,53.8h23.5c0.5,0,1-0.4,1-1c0-0.5-0.4-1-1-1H27.2c-0.5,0-1,0.4-1,1C26.3,53.3,26.7,53.8,27.2,53.8z"/>
<path class="st1" d="M46.8,57.7c0.5,0,1-0.4,1-1s-0.4-1-1-1H39c-0.5,0-1,0.4-1,1s0.4,1,1,1H46.8z"/>
<path class="st1" d="M50.7,59.7H35.1c-0.5,0-1,0.4-1,1s0.4,1,1,1h15.7c0.5,0,1-0.4,1-1S51.3,59.7,50.7,59.7z"/>
<path class="st1" d="M66.4,14.6H51.7v-1c0-1.6-1.3-2.9-2.9-2.9H37c-1.6,0-2.9,1.3-2.9,2.9v1H19.4c-0.5,0-1,0.4-1,1v50.9
	c0,1.6,1.3,2.9,2.9,2.9h43.1c1.6,0,2.9-1.3,2.9-2.9V15.6C67.4,15.1,66.9,14.6,66.4,14.6z M30.3,20.5c0.4,1.2,1.5,2,2.8,2H37v1
	c0,0.5,0.4,1,1,1h9.8c0.5,0,1-0.4,1-1v-1h3.9c1.2,0,2.4-0.8,2.8-2h6v43.1H24.3V20.5H30.3z M39,22.5v-2h7.8v2H39z M53.7,19.5
	c0,0.5-0.4,1-1,1h-3.9v-1c0-0.5-0.4-1-1-1H38c-0.5,0-1,0.4-1,1v1h-3.9c-0.5,0-1-0.4-1-1v-2.9h21.5v2.9H53.7z M36,13.7
	c0-0.5,0.4-1,1-1h11.7c0.5,0,1,0.4,1,1v1H36V13.7z M65.4,66.5c0,0.5-0.4,1-1,1h-43c-0.5,0-1-0.4-1-1V16.6h9.8v2h-6.9
	c-0.5,0-1,0.4-1,1v45c0,0.5,0.4,1,1,1h39.1c0.5,0,1-0.4,1-1v-45c0-0.5-0.4-1-1-1h-6.9v-2h9.8L65.4,66.5L65.4,66.5z"/>
</svg>
