<?xml version="1.0" encoding="utf-8"?>
<!-- Generator: Adobe Illustrator 24.0.2, SVG Export Plug-In . SVG Version: 6.00 Build 0)  -->
<svg version="1.1" id="Capa_1" xmlns="http://www.w3.org/2000/svg" xmlns:xlink="http://www.w3.org/1999/xlink" x="0px" y="0px"
	 viewBox="0 0 85.4 85.4" style="enable-background:new 0 0 85.4 85.4;" xml:space="preserve">
<style type="text/css">
	.st0{fill:none;}
	.st1{fill:none;stroke:#063E7F;stroke-width:3;stroke-linecap:round;stroke-linejoin:round;}
</style>
<circle id="Ciculo" class="st0" cx="42.7" cy="42.7" r="40.3"/>
<g transform="translate(0.75 0.75)">
	<path class="st1" d="M54.5,32.5c6.1,8.1,4.4,19.7-3.7,25.8c-8.1,6.1-19.7,4.4-25.8-3.7c-6.1-8.1-4.4-19.7,3.7-25.8
		c6.5-4.9,15.5-4.9,22.1,0"/>
	<path class="st1" d="M49.6,38.6c2.7,5.5,0.5,12.1-5,14.8s-12.1,0.5-14.8-5c-2.7-5.5-0.5-12.1,5-14.8c3.2-1.6,7-1.5,10.2,0.2"/>
	<path class="st1" d="M44.6,42.5c0.5,2.7-1.2,5.2-3.8,5.8c-2.7,0.5-5.2-1.2-5.8-3.8c-0.5-2.7,1.2-5.2,3.8-5.8
		c0.7-0.1,1.5-0.1,2.2,0.1"/>
	<g transform="translate(18.414 0)">
		<line class="st1" x1="21.7" y1="43.3" x2="35.7" y2="28.3"/>
		<path class="st1" d="M36.1,28.8H41l6.1-6.1h-4.9v-4.9l-6.1,6.1V28.8z"/>
	</g>
</g>
</svg>
