<?xml version="1.0" encoding="utf-8"?>
<!-- Generator: Adobe Illustrator 24.0.2, SVG Export Plug-In . SVG Version: 6.00 Build 0)  -->
<svg version="1.1" id="Capa_1" xmlns="http://www.w3.org/2000/svg" xmlns:xlink="http://www.w3.org/1999/xlink" x="0px" y="0px"
	 viewBox="0 0 85.4 85.4" style="enable-background:new 0 0 85.4 85.4;" xml:space="preserve">
<style type="text/css">
	.st0{fill:none;}
	.st1{fill:#1E407F;}
</style>
<circle id="Ciculo" class="st0" cx="42.7" cy="42.7" r="40.3"/>
<g>
	<path class="st1" d="M58.3,26.9v9.2h13.4l-7.4-9.2H58.3z M61.4,33v-2.9h1.3l2.3,2.9H61.4z"/>
	<path class="st1" d="M78.8,49.7h-2.2V34.6L65.9,21.7H53.8v28.1h-17c-1.2-1.1-2.7-1.7-4.5-1.7c-1.7,0-3.3,0.7-4.5,1.7h-4.3
		c-1.2-1.1-2.7-1.7-4.5-1.7c-1.7,0-3.3,0.7-4.5,1.7H6.3v3.2h6.4c-0.2,0.6-0.2,1.1-0.2,1.7c0,3.7,3,6.6,6.6,6.6c3.7,0,6.6-3,6.6-6.6
		c0-0.6-0.1-1.2-0.2-1.7h0.5c-0.2,0.6-0.2,1.1-0.2,1.7c0,3.7,3,6.6,6.6,6.6c3.7,0,6.6-3,6.6-6.6c0-0.6-0.1-1.2-0.2-1.7h20.1
		c-0.2,0.6-0.2,1.1-0.2,1.7c0,3.7,3,6.6,6.6,6.6c3.7,0,6.6-3,6.6-6.6c0-0.6-0.1-1.2-0.2-1.7h7.2L78.8,49.7L78.8,49.7z M19.1,58.1
		c-1.9,0-3.5-1.6-3.5-3.5s1.6-3.5,3.5-3.5c1.9,0,3.5,1.6,3.5,3.5C22.5,56.6,21,58.1,19.1,58.1z M32.3,58.1c-1.9,0-3.5-1.6-3.5-3.5
		s1.6-3.5,3.5-3.5c1.9,0,3.5,1.6,3.5,3.5C35.8,56.6,34.3,58.1,32.3,58.1z M65.2,58.1c-1.9,0-3.5-1.6-3.5-3.5s1.6-3.5,3.5-3.5
		c1.9,0,3.5,1.6,3.5,3.5C68.7,56.6,67.1,58.1,65.2,58.1z M73.5,49.7h-3.8c-1.2-1.1-2.7-1.7-4.5-1.7c-1.7,0-3.3,0.7-4.5,1.7h-3.8
		V24.8h7.5l9,10.9V49.7z"/>
</g>
<g>
	<g>
		<g>
			<path class="st1" d="M38.8,30.6c-0.7-0.7-1.8-0.7-2.5,0c-0.7,0.7-0.7,1.8,0,2.5c0.7,0.7,1.8,0.7,2.5,0
				C39.5,32.4,39.5,31.3,38.8,30.6z M37.1,32.2c-0.2-0.2-0.2-0.5,0-0.7c0.2-0.2,0.5-0.2,0.7,0c0.2,0.2,0.2,0.5,0,0.7
				S37.4,32.4,37.1,32.2z"/>
			<path class="st1" d="M40.7,28.7c-1.7-1.7-4.6-1.7-6.3,0c-1.7,1.7-1.7,4.6,0,6.3c1.7,1.7,4.6,1.7,6.3,0
				C42.4,33.3,42.4,30.4,40.7,28.7z M35.2,34.2c-1.3-1.3-1.3-3.3,0-4.6c1.3-1.3,3.3-1.3,4.6,0c1.3,1.3,1.3,3.3,0,4.6
				C38.5,35.4,36.5,35.4,35.2,34.2z"/>
			<path class="st1" d="M17.3,40c-3,0-5.4-2.4-5.4-5.4c0-3,2.4-5.4,5.4-5.4c0.7,0,1.4,0.1,2.1,0.4c0.1,0,0.2,0.1,0.3,0.1
				c0.9,0.2,1.8,0.4,2.7,0.4c4,0,7-2.3,8.4-3.7c0,0,0.1-0.1,0.1-0.1c1.6-1.8,3.9-2.9,6.3-2.9c4.6,0,8.3,3.7,8.3,8.3
				c0,2.2-0.9,4.3-2.4,5.9c-1.6,1.6-3.7,2.4-5.9,2.4l-17.9,0c-0.3,0-0.7,0.1-1.2,0.1C17.8,40.1,17.5,40,17.3,40
				c-1-0.1-2.7,0.1-2.7,0.4c0,0.3,1.6,0.8,2.7,0.8c0.1,0,0.5,0,1,0c0.4,0,0.8,0,1,0c6,0,12,0,17.9,0c2.6,0,5-1,6.8-2.8
				c1.8-1.8,2.8-4.2,2.8-6.8c0-5.3-4.3-9.6-9.6-9.6c-2.8,0-5.4,1.2-7.3,3.3c0,0,0,0-0.1,0.1c-1.3,1.3-4,3.4-7.6,3.4
				c-0.8,0-1.6-0.1-2.4-0.3c-0.1,0-0.1,0-0.2-0.1c-0.8-0.3-1.7-0.5-2.6-0.5c-3.7,0-6.6,3-6.6,6.6c0,3.7,3,6.6,6.6,6.6
				C17.7,41.3,17.7,40,17.3,40z"/>
			<path class="st1" d="M46.6,22.4c-2.5-2.5-5.8-3.8-9.3-3.8c-3.8,0-7.4,1.6-9.8,4.5c-0.7,0.7-2.7,2.3-5,2.3c-0.4,0-0.9-0.1-1.3-0.2
				c-1.2-0.5-2.5-0.7-3.8-0.7c-5.6,0-10.2,4.6-10.2,10.2c0,2.7,1.1,5.3,3,7.2c0.5,0.5,1,0.9,1.6,1.3c1.9,2.9,5,4.6,8.5,4.6h20
				c3.5,0,6.8-1.4,9.3-3.8c2.5-2.5,3.8-5.8,3.8-9.3c0-4.2-2-8.1-5.4-10.6C47.5,23.5,47.1,22.9,46.6,22.4z M8.4,34.6
				c0-4.9,4-8.9,8.9-8.9c1.2,0,2.3,0.2,3.4,0.7c0,0,0.1,0,0.1,0c0.5,0.1,1.1,0.2,1.7,0.2c2.9,0,5.1-1.9,5.9-2.7c0,0,0,0,0,0
				c2.3-2.6,5.5-4.1,8.9-4.1c3.2,0,6.1,1.2,8.4,3.5c0.5,0.5,0.9,0.9,1.2,1.5c0,0,0,0,0,0c0.9,1.3,1.5,2.7,1.9,4.1c0,0,0,0,0,0
				c0.1,0.3,0.1,0.6,0.2,0.9c0,0,0,0,0,0.1c0,0.1,0,0.3,0.1,0.4c0,0,0,0,0,0.1c0,0.1,0,0.2,0,0.4c0,0,0,0,0,0.1c0,0.1,0,0.3,0,0.4
				c0,0,0,0.1,0,0.1c0,0.1,0,0.3,0,0.4c0,0,0,0,0,0c0,3-1.1,5.7-2.9,7.7c0,0,0,0-0.1,0.1c0,0-0.1,0.1-0.1,0.1
				c-0.1,0.1-0.3,0.3-0.4,0.4c-0.1,0.1-0.3,0.3-0.4,0.4c0,0-0.1,0.1-0.1,0.1c0,0,0,0-0.1,0.1c-1.9,1.6-4.2,2.7-6.8,2.9c0,0,0,0,0,0
				c-0.1,0-0.2,0-0.2,0c0,0,0,0-0.1,0c-0.1,0-0.1,0-0.2,0c0,0-0.1,0-0.1,0c-0.1,0-0.1,0-0.2,0c0,0-0.1,0-0.1,0l-20,0
				c-0.1,0-0.2,0-0.3,0c0,0,0,0-0.1,0c-1.6-0.1-3.1-0.5-4.5-1.4c0,0,0,0,0,0c-0.5-0.3-1-0.7-1.5-1.2C9.4,39.3,8.4,37,8.4,34.6z
				 M52.1,34.6c0,3.2-1.2,6.1-3.5,8.4c-2.2,2.2-5.2,3.5-8.4,3.5l-20,0c-2.1,0-4.1-0.7-5.6-2c0.7,0.2,1.4,0.3,2.1,0.4c0,0,0,0,0,0
				c0.1,0,0.2,0,0.3,0c0,0,0.1,0,0.1,0c0.1,0,0.2,0,0.3,0l20,0c0.1,0,0.2,0,0.3,0c0,0,0,0,0,0c0.1,0,0.2,0,0.3,0c0,0,0,0,0,0
				c3.2-0.2,6.2-1.5,8.6-3.8c2.2-2.2,3.5-4.9,3.8-7.9c0,0,0,0,0,0c0-0.1,0-0.2,0-0.3c0,0,0-0.1,0-0.1c0-0.1,0-0.1,0-0.2
				c0,0,0-0.1,0-0.1c0,0,0-0.1,0-0.1c0-0.2,0-0.4,0-0.5c0,0,0-0.1,0-0.1c0-0.1,0-0.1,0-0.2c0,0,0-0.1,0-0.1c0-0.1,0-0.1,0-0.2
				c0,0,0-0.1,0-0.1c0,0,0-0.1,0-0.1c0-0.1,0-0.1,0-0.2c0,0,0-0.1,0-0.1c0-0.2,0-0.4-0.1-0.6c0,0,0-0.1,0-0.1c0-0.1,0-0.1,0-0.2
				c0,0,0,0,0-0.1c0-0.1,0-0.1,0-0.2c0,0,0,0,0,0c-0.1-0.6-0.3-1.2-0.4-1.7C51.2,29.6,52.1,32,52.1,34.6z"/>
		</g>
	</g>
	<path class="st1" d="M18.6,39.7"/>
</g>
</svg>
