<?xml version="1.0" encoding="utf-8"?>
<!-- Generator: Adobe Illustrator 24.0.2, SVG Export Plug-In . SVG Version: 6.00 Build 0)  -->
<svg version="1.1" id="Capa_1" xmlns="http://www.w3.org/2000/svg" xmlns:xlink="http://www.w3.org/1999/xlink" x="0px" y="0px"
	 viewBox="0 0 85.4 85.4" style="enable-background:new 0 0 85.4 85.4;" xml:space="preserve">
<style type="text/css">
	.st0{fill:#00A7B5;stroke:#00A7B5;stroke-miterlimit:10;}
	.st1{fill:#1E407F;}
	.st2{fill:#FFFFFF;}
</style>
<circle id="Ciculo" class="st0" cx="42.7" cy="42.7" r="40.3"/>
<path d="M67.3,45.2"/>
<path class="st1" d="M73.4,37.8"/>
<g id="XMLID_129_">
	<path id="XMLID_134_" class="st2" d="M68.1,14.6H37c-1,0-1.9,0.8-1.9,1.9v13.2l1.4-1.6c0.6-0.8,1.5-1.2,2.4-1.4v-8.3h27.3v24.4
		H38.9v-4.1l-0.8,1c-0.7,0.9-1.8,1.4-2.9,1.5v3.5c0,1,0.8,1.9,1.9,1.9h10.1L42,69.8c-0.2,1,0.4,2.1,1.5,2.3c1,0.2,2.1-0.4,2.3-1.5
		l5.3-24.1h3.1l5.3,24.1c0.2,0.9,1,1.5,1.9,1.5c0.1,0,0.3,0,0.4,0c1-0.2,1.7-1.3,1.5-2.3l-5.1-23.3h10c1,0,1.9-0.8,1.9-1.9V16.5
		C70,15.4,69.1,14.6,68.1,14.6z"/>
	<path id="XMLID_132_" class="st2" d="M52.6,25.5c-0.1-0.4-0.6-0.6-0.9-0.4l-11,3.9c-1-0.8-2.5-0.6-3.3,0.3l-3.5,4.1l-3.1-2.7
		c0,0.2,0.1,0.4,0.1,0.7v5.8l1.7,1.5c1,0.9,2.6,0.7,3.4-0.3l4.2-4.9l3.4-2l8.8-5.2C52.6,26.2,52.8,25.9,52.6,25.5z"/>
	<path id="XMLID_131_" class="st2" d="M26.1,26.6H24c-1.6,0-3,0.8-3.9,1.9l-6.4,5.9c-1,0.9-1.1,2.4-0.2,3.4l5.2,5.8
		c0.9,1,2.4,1.1,3.4,0.2c1-0.9,1.1-2.4,0.2-3.4l-3.6-4l5.1-4.6l-3,4l2.9,3.2c1.6,1.8,1.5,4.5-0.3,6.1c-1.2,1.1-2.9,1.4-4.3,0.8
		c0,0,0,11.2,0,23.2c0,1.6,1.3,2.9,2.9,2.9c1.6,0,2.9-1.3,2.9-2.9c0-12,0-5.1,0-17.3h1.9c0,12.1,0,5.3,0,17.3c0,0.8-0.2,1.6-0.6,2.3
		c0.5,0.4,1.1,0.6,1.8,0.6c1.6,0,2.9-1.3,2.9-2.9c0-12,0-7,0-37.8C31,28.7,28.8,26.6,26.1,26.6z"/>
	<path id="XMLID_130_" class="st2" d="M22.9,26.4c0.8,0.4,1.6,0.7,2.6,0.7c0.9,0,1.8-0.3,2.6-0.7c1.8-0.9,3.1-2.8,3.1-5
		c0-3.1-2.5-5.7-5.7-5.7c-3.1,0-5.7,2.5-5.7,5.7C19.9,23.6,21.1,25.4,22.9,26.4z"/>
</g>
</svg>
