<?xml version="1.0" encoding="utf-8"?>
<!-- Generator: Adobe Illustrator 24.0.2, SVG Export Plug-In . SVG Version: 6.00 Build 0)  -->
<svg version="1.1" id="Capa_1" xmlns="http://www.w3.org/2000/svg" xmlns:xlink="http://www.w3.org/1999/xlink" x="0px" y="0px"
	 viewBox="0 0 85.4 85.4" style="enable-background:new 0 0 85.4 85.4;" xml:space="preserve">
<style type="text/css">
	.st0{fill:none;}
	.st1{fill:none;stroke:#063E7F;stroke-width:2;}
	.st2{fill:none;stroke:#063E7F;stroke-miterlimit:10;}
</style>
<circle id="Ciculo" class="st0" cx="42.7" cy="42.7" r="40.3"/>
<g transform="translate(0.094 -0.218)">
	<path class="st1" d="M27,59.7v4.6c0,0,1.7,2.9,6.8,2.7s6.4-3,14.1-2.7S58.8,67,58.8,67v-7.3H27z"/>
	<g transform="translate(-0.094 0.218)">
		<path class="st2" d="M27.2,16.5h33c3.3,0,6,2.7,6,6v32c0,3.3-2.7,6-6,6h-33c-3.3,0-6-2.7-6-6v-32C21.2,19.2,23.9,16.5,27.2,16.5z"
			/>
		<path class="st1" d="M27.2,17.5h33c2.8,0,5,2.2,5,5v32c0,2.8-2.2,5-5,5h-33c-2.8,0-5-2.2-5-5v-32C22.2,19.8,24.5,17.5,27.2,17.5z"
			/>
	</g>
	<g transform="translate(11.906 14.218)">
		<ellipse class="st2" cx="30.2" cy="24.5" rx="9" ry="8"/>
		<ellipse class="st1" cx="30.2" cy="24.5" rx="8" ry="7"/>
	</g>
	<g transform="translate(14.81 22.138)">
		<path class="st1" d="M21.2,16.5c0,0,7.8,2.4,13.9,0"/>
	</g>
</g>
</svg>
