<?xml version="1.0" encoding="utf-8"?>
<!-- Generator: Adobe Illustrator 24.0.2, SVG Export Plug-In . SVG Version: 6.00 Build 0)  -->
<svg version="1.1" id="Capa_1" xmlns="http://www.w3.org/2000/svg" xmlns:xlink="http://www.w3.org/1999/xlink" x="0px" y="0px"
	 viewBox="0 0 85.4 85.4" style="enable-background:new 0 0 85.4 85.4;" xml:space="preserve">
<style type="text/css">
	.st0{fill:#00A7B5;stroke:#00A7B5;stroke-miterlimit:10;}
	.st1{fill:#FFFFFF;stroke:#FFFFFF;stroke-miterlimit:10;}
	.st2{fill:#FFFFFF;}
</style>
<circle id="Ciculo" class="st0" cx="42.7" cy="42.7" r="40.3"/>
<path class="st1" d="M27.1,63.3c0.1-0.1-4.1-3.6-4.9-9.3c-0.4-3.5,0.6-6.2,1.6-8.6c0.5-1.5,3.1-7.7,8.9-11.5c2.4-1.7,5.2-2.7,6.1-3
	c0.8-0.3,2-0.6,3.1-1l0,0c0.3-0.1,0.7-0.2,0.8-0.2c0.2,0,0.7-0.2,1.3-0.1c0.3,0,0.4,0.1,0.5,0.2c0.1,0.1,0.3,0.3,0.3,0.9
	C45,31,45,31.2,45,31.4c0,1.5-0.3,8.5,0.4,13.1c0.3,1.3,0.7,3.8,2.5,6.6c0.7,1.1,2,3.1,4.5,4.5c3.1,1.8,7.3,2.3,11,0.7
	c4.5-2,6.3-6.3,7.1-8.3c3.5-8.6-0.9-17.3-2-19.4c-1-2.2-5.2-9.9-14.6-13.5C46,11.8,39,13.5,36.6,14c-4.6,1.1-7.8,3.1-8.8,3.8
	c-5.7,3.8-8.6,8.8-9.7,11.3c-1.5,3.1-4.1,10.1-2,18.5C18.8,58.1,26.9,63.4,27.1,63.3z"/>
<g>
	<path class="st2" d="M70.5,61.3c-0.2-0.3-0.5-0.5-0.8-0.6l-10.3-2.5c-0.1,0-0.2,0-0.3,0c-0.6,0-1.2,0.4-1.3,1l-0.3,1.3l-5.2,1.6
		c-0.7,0.2-1.1,0.9-0.9,1.6l2.5,10.1c0.1,0.3,0.3,0.6,0.6,0.8c0.2,0.1,0.4,0.2,0.7,0.2c0.1,0,0.2,0,0.3,0l7.9-2.1l3.1,0.8
		c0.1,0,0.2,0,0.3,0c0.6,0,1.2-0.4,1.3-1l2.6-10.2C70.8,62,70.7,61.6,70.5,61.3z M55.3,73.2l-2.4-9.8l4.2-1.3l-1.8,7.1
		c-0.1,0.3,0,0.7,0.2,1s0.5,0.5,0.8,0.6l4.2,1L55.3,73.2z M68,67.1l-1.4-2.2c-0.2-0.3-0.5-0.4-0.8-0.4c-0.2,0-0.4,0.1-0.6,0.2
		l-3,2.4c-0.1,0.1-0.2,0.1-0.3,0.1c-0.2,0-0.3-0.1-0.4-0.2l-1.1-1.4c-0.2-0.3-0.6-0.4-0.9-0.4c-0.2,0-0.4,0-0.5,0.1L57.7,66l1.6-6.4
		l10,2.5L68,67.1z"/>
	<path class="st2" d="M61.7,64c0.1,0,0.2,0,0.3,0c0.6,0,1.1-0.4,1.3-1c0.2-0.7-0.3-1.4-1-1.6c-0.1,0-0.2,0-0.3,0
		c-0.6,0-1.1,0.4-1.3,1C60.5,63.1,61,63.8,61.7,64z"/>
</g>
</svg>
