<?xml version="1.0" encoding="utf-8"?>
<!-- Generator: Adobe Illustrator 24.0.2, SVG Export Plug-In . SVG Version: 6.00 Build 0)  -->
<svg version="1.1" id="Capa_1" xmlns="http://www.w3.org/2000/svg" xmlns:xlink="http://www.w3.org/1999/xlink" x="0px" y="0px"
	 viewBox="0 0 85.4 85.4" style="enable-background:new 0 0 85.4 85.4;" xml:space="preserve">
<style type="text/css">
	.st0{fill:none;}
	.st1{fill:#1E407F;stroke:#1E407F;stroke-miterlimit:10;}
	.st2{fill:#1E407F;}
</style>
<circle id="Ciculo" class="st0" cx="42.7" cy="42.7" r="40.3"/>
<path class="st1" d="M27.1,63.3c0.1-0.1-4.1-3.6-4.9-9.3c-0.4-3.5,0.6-6.2,1.6-8.6c0.5-1.5,3.1-7.7,8.9-11.5c2.4-1.7,5.2-2.7,6.1-3
	c0.8-0.3,2-0.6,3.1-1l0,0c0.3-0.1,0.7-0.2,0.8-0.2c0.2,0,0.7-0.2,1.3-0.1c0.3,0,0.4,0.1,0.5,0.2c0.1,0.1,0.3,0.3,0.3,0.9
	C45,31,45,31.2,45,31.4c0,1.5-0.3,8.5,0.4,13.1c0.3,1.3,0.7,3.8,2.5,6.6c0.7,1.1,2,3.1,4.5,4.5c3.1,1.8,7.3,2.3,11,0.7
	c4.5-2,6.3-6.3,7.1-8.3c3.5-8.6-0.9-17.3-2-19.4c-1-2.2-5.2-9.9-14.6-13.5C46,11.8,39,13.5,36.6,14c-4.6,1.1-7.8,3.1-8.8,3.8
	c-5.7,3.8-8.6,8.8-9.7,11.3c-1.5,3.1-4.1,10.1-2,18.5C18.8,58.1,26.9,63.4,27.1,63.3z"/>
<rect x="59" y="65.7" class="st2" width="1.5" height="2.4"/>
<path class="st2" d="M61.1,68.3c0,0.3-0.2,0.5-0.5,0.5h-1.8c-0.3,0-0.5-0.2-0.5-0.5v-0.9h-6v4.2c0,0.5,0.4,0.9,0.9,0.9h12.9
	c0.5,0,0.9-0.4,0.9-0.9v-4.2h-6V68.3z"/>
<path class="st2" d="M67,64.3l-1.9-1.9c-0.1-0.1-0.2-0.1-0.3-0.1h-2.3v-0.9c0-0.5-0.4-0.9-0.9-0.9h-3.8c-0.5,0-0.9,0.4-0.9,0.9
	c0,0,0,0,0,0v0.9h-2.3c-0.1,0-0.2,0-0.3,0.1l-1.9,1.9c-0.1,0.1-0.1,0.2-0.1,0.3v1.8h6v-0.9c0-0.3,0.2-0.5,0.5-0.5h1.8
	c0.3,0,0.5,0.2,0.5,0.5v0.9h6v-1.8C67.1,64.5,67,64.4,67,64.3z M61.6,62.3h-3.7v-0.9h3.7V62.3z"/>
</svg>
