<?xml version="1.0" encoding="utf-8"?>
<!-- Generator: Adobe Illustrator 24.0.2, SVG Export Plug-In . SVG Version: 6.00 Build 0)  -->
<svg version="1.1" id="Capa_1" xmlns="http://www.w3.org/2000/svg" xmlns:xlink="http://www.w3.org/1999/xlink" x="0px" y="0px"
	 viewBox="0 0 85.4 85.4" style="enable-background:new 0 0 85.4 85.4;" xml:space="preserve">
<style type="text/css">
	.st0{fill:none;}
	.st1{fill:#1E407F;}
</style>
<circle id="Ciculo" class="st0" cx="42.7" cy="42.7" r="40.3"/>
<g>
	<path class="st1" d="M56.5,16.6h-19l-5.7-1.7l-1.3-5.4c-0.1-0.5-0.6-0.9-1.1-0.9s-1,0.4-1.1,0.9L27,14.9l-5.9,1.7
		c-0.5,0.1-0.8,0.6-0.8,1.1c0,0.5,0.3,0.9,0.8,1.1l5.9,1.7l1.2,5.2v47.3c0,0.6,0.5,1.1,1.1,1.1h27.1c0.6,0,1.1-0.5,1.1-1.1V17.7
		C57.6,17.1,57.1,16.6,56.5,16.6z M55.4,51.6H44.1V18.8h11.3V51.6z M30.5,25.7l1.2-5.2l5.7-1.7h4.4v32.8H30.5L30.5,25.7z M25.4,17.7
		l2.8-0.8c0.4-0.1,0.7-0.4,0.8-0.8l0.3-1.4l0.3,1.4c0.1,0.4,0.4,0.7,0.8,0.8l2.8,0.8l-2.8,0.8c-0.4,0.1-0.7,0.4-0.8,0.8l-0.3,1.4
		L29,19.4c-0.1-0.4-0.4-0.7-0.8-0.8L25.4,17.7z M30.5,71.9V53.9h24.9v18.1H30.5z"/>
	<path class="st1" d="M47.4,42.6c0.6,0,1.1-0.5,1.1-1.1V27.9c0-0.6-0.5-1.1-1.1-1.1s-1.1,0.5-1.1,1.1v13.6
		C46.3,42.1,46.8,42.6,47.4,42.6z"/>
	<path class="st1" d="M38.4,26.7c-0.6,0-1.1,0.5-1.1,1.1v13.6c0,0.6,0.5,1.1,1.1,1.1c0.6,0,1.1-0.5,1.1-1.1V27.9
		C39.5,27.3,39,26.7,38.4,26.7z"/>
	<path class="st1" d="M50.5,57.2H35.4c-0.6,0-1.1,0.5-1.1,1.1c0,0.6,0.5,1.1,1.1,1.1h15.1c0.6,0,1.1-0.5,1.1-1.1
		C51.6,57.8,51.1,57.2,50.5,57.2z"/>
	<path class="st1" d="M58.4,68.1l-5.2-1.5L52,61.8c-0.1-0.4-0.4-0.7-0.9-0.7s-0.8,0.3-0.9,0.7l-1.1,4.8L44,68.1
		c-0.4,0.1-0.6,0.5-0.6,0.8c0,0.4,0.3,0.7,0.6,0.8l5.2,1.5l1.1,4.8c0.1,0.4,0.4,0.7,0.9,0.7s0.8-0.3,0.9-0.7l1.1-4.8l5.2-1.5
		c0.4-0.1,0.6-0.5,0.6-0.8C59,68.5,58.7,68.2,58.4,68.1z M52.2,69.7c-0.3,0.1-0.5,0.3-0.6,0.6L51.2,72l-0.4-1.7
		c-0.1-0.3-0.3-0.5-0.6-0.6l-2.8-0.8l2.8-0.8c0.3-0.1,0.5-0.3,0.6-0.6l0.4-1.7l0.4,1.7c0.1,0.3,0.3,0.5,0.6,0.6l2.8,0.8L52.2,69.7z"
		/>
</g>
</svg>
