<?xml version="1.0" encoding="utf-8"?>
<!-- Generator: Adobe Illustrator 24.0.2, SVG Export Plug-In . SVG Version: 6.00 Build 0)  -->
<svg version="1.1" id="Capa_1" xmlns="http://www.w3.org/2000/svg" xmlns:xlink="http://www.w3.org/1999/xlink" x="0px" y="0px"
	 viewBox="0 0 85.4 85.4" style="enable-background:new 0 0 85.4 85.4;" xml:space="preserve">
<style type="text/css">
	.st0{fill:none;}
	.st1{fill:#1E407F;}
</style>
<circle id="Ciculo" class="st0" cx="42.7" cy="42.7" r="40.3"/>
<path class="st1" d="M73.4,33.5c-0.1-3.7-1.6-7.1-4.2-9.7c-2.6-2.6-6.1-4-9.7-4c-0.6,0-1.2,0-1.9,0.1C54.3,15,48.7,12,42.7,12
	c-6,0-11.6,3-14.9,7.9c-0.5-0.1-1-0.1-1.5-0.1c-3.7-0.1-7.3,1.3-10,4C13.6,26.5,12,30,12,33.7c0,6.3,4.2,11.8,10.1,13.5v18.9
	c0,4,3.2,7.2,7.2,7.2h27.5c4,0,7.2-3.2,7.2-7.2c0-1.3-1.1-2.4-2.4-2.4c-1.3,0-2.4,1.1-2.4,2.4c0,1.3-1.1,2.4-2.4,2.4H29.3
	c-1.3,0-2.4-1.1-2.4-2.4v-9.7h24.9c1.2,0,2.1,0,2.7,0c1.2,0,1.5,0,2.4,0c0.5,0,0.8,0,1.4,0c0.2,0,0.5,0,1,0c0.2,0,0.3,0,0.4,0
	c0.3,0,1.3,0,1.9-0.4c0.7-0.5,0.7-1.5,0.7-1.8c0-0.2,0-1.4-0.8-2c-0.5-0.4-1-0.4-2.1-0.5c-2.1-0.1-3.9,0-4.5,0c-0.7,0-1.8,0-3,0
	c-8.3,0-16.6,0-24.9,0v-6.3c0-1.2-0.9-2.2-2.1-2.4c-4.6-0.6-8-4.6-8-9.2c0-2.4,1-4.8,2.8-6.5c1.8-1.8,4.2-2.7,6.6-2.6
	c0.7,0,1.5,0.1,2.1,0.3c1.1,0.3,2.2-0.2,2.7-1.2c2.3-4.3,6.8-6.9,11.6-6.9c3.9,0,7.6,1.7,10.1,4.7c-4.4,2.3-7.4,7-7.4,12.3
	c0,1.3,1.1,2.4,2.4,2.4c1.3,0,2.4-1.1,2.4-2.4c0-5.1,4.1-9.2,9.2-9.2c0.2,0,0.3,0,0.5,0c4.8,0.2,8.7,4.2,8.8,9
	c0.1,4.5-3.1,8.4-7.5,9.3c-1.1,0.2-2,1.2-2,2.4v8.8c0,0.7,0,1.3,0,1.6c0.1,3.6-0.1,6.5-0.1,8.2c0,0.2,0,0.7,0,1.4c0,0.7,0,0.7,0,0.8
	c0.1,0.8,1,2,2.4,2c1.4,0,2.2-1.2,2.4-2c0-0.1,0-0.2,0-0.6c0-4.1,0.1,1.2,0.1-3.7c0-1.2,0-1.8,0-1.9c0-1.3,0-1.9-0.1-3.3
	c0-0.6,0-1.5,0-2.6c0-2.3,0-4.7,0-7c2.4-0.8,4.6-2.3,6.3-4.4C72.3,40.1,73.5,36.9,73.4,33.5z"/>
</svg>
