<?xml version="1.0" encoding="utf-8"?>
<!-- Generator: Adobe Illustrator 24.0.2, SVG Export Plug-In . SVG Version: 6.00 Build 0)  -->
<svg version="1.1" id="Capa_1" xmlns="http://www.w3.org/2000/svg" xmlns:xlink="http://www.w3.org/1999/xlink" x="0px" y="0px"
	 viewBox="0 0 85.4 85.4" style="enable-background:new 0 0 85.4 85.4;" xml:space="preserve">
<style type="text/css">
	.st0{fill:#1E407F;stroke:#183F7F;stroke-miterlimit:10;}
	.st1{fill:#FFFFFF;}
</style>
<circle id="Ciculo" class="st0" cx="42.7" cy="42.7" r="40.3"/>
<path class="st1" d="M69.9,28.2c-0.2-0.7-0.6-1.3-1.3-1.6c-0.6-0.4-1.4-0.5-2-0.3c-0.7,0.2-1.3,0.6-1.6,1.3l-0.4,0.8
	c-0.4-0.2-1-0.1-1.2,0.3L61,32.5l-0.8-0.4c-0.2-0.1-0.5-0.2-0.7-0.1c-0.2,0.1-0.4,0.2-0.5,0.4c-0.2,0.4-0.1,1,0.3,1.2l0.8,0.4
	l-7.6,13.2l-1.9,5l-0.9,1.7c-0.5,0.9-0.5,2,0.1,2.9l-2,2.5l-0.6-1.4c-0.3-0.6-0.8-1.1-1.5-1.1c-0.7-0.1-1.3,0.3-1.7,0.9l-0.3,0.5
	l-0.3-3.6c-0.1-0.8-0.7-1.5-1.6-1.6c-0.8-0.1-1.6,0.4-1.9,1.2l-2.2,6.6c-0.2,0.5,0.1,1,0.6,1.1c0.1,0,0.2,0.1,0.3,0.1
	c0.4,0,0.7-0.2,0.9-0.6l2.2-6.6l0.3,3.6c0.1,0.8,0.6,1.4,1.4,1.6c0.8,0.2,1.5-0.2,1.9-0.8l0.3-0.5l0.6,1.4c0.2,0.6,0.8,1,1.4,1.1
	c0.6,0.1,1.3-0.2,1.7-0.7l2.1-2.6c0.2,0.1,0.5,0.1,0.7,0.1c1,0,1.8-0.5,2.3-1.3l0.9-1.5l3.4-4.1l7.7-13.3l0.8,0.4
	c0.2,0.1,0.4,0.3,0.4,0.5c0.1,0.2,0,0.5-0.1,0.7l-3.6,6.2c-0.1,0.2-0.2,0.5-0.1,0.7c0.1,0.2,0.2,0.4,0.4,0.6
	c0.2,0.1,0.5,0.2,0.7,0.1c0.2-0.1,0.4-0.2,0.5-0.4l3.6-6.2c0.4-0.6,0.5-1.4,0.3-2c-0.2-0.7-0.6-1.3-1.3-1.6l-0.8-0.4l2.2-3.9
	c0.2-0.4,0.1-1-0.3-1.2l0.4-0.8C70,29.6,70.1,28.9,69.9,28.2z M66.5,28.4c0.1-0.2,0.3-0.4,0.5-0.4c0.2-0.1,0.5,0,0.7,0.1
	c0.2,0.1,0.4,0.3,0.4,0.5c0.1,0.2,0,0.5-0.1,0.7l-0.4,0.8L66,29.2L66.5,28.4z M54.3,53.4l-0.4-0.3l-1.3-0.8l1.3-3.4l2.8,1.6
	L54.3,53.4z M51.6,56c-0.4-0.3-0.5-0.8-0.3-1.2l0.4-0.8l1.6,0.9l-0.4,0.8c-0.1,0.2-0.3,0.4-0.6,0.4C52.1,56.2,51.8,56.1,51.6,56z
	 M57.6,49.1l-3.1-1.8l7.2-12.4l3.1,1.8L57.6,49.1z M65.7,35.2l-3.1-1.8l1.8-3.1l3.1,1.8L65.7,35.2z"/>
<path class="st1" d="M30.4,55.5l-3.2,3.2l-1.9-1.9c-0.3-0.3-0.9-0.3-1.3,0c-0.2,0.2-0.3,0.4-0.3,0.6c0,0.2,0.1,0.5,0.3,0.6l1.9,1.9
	c0.3,0.3,0.8,0.5,1.3,0.5c0.5,0,0.9-0.2,1.3-0.5l3.2-3.2c0.3-0.4,0.3-0.9,0-1.2C31.3,55.3,30.7,55.2,30.4,55.5z"/>
<path class="st1" d="M19.8,58c0,4.2,3.4,7.6,7.6,7.6S35,62.2,35,58c0-0.5-0.4-0.9-0.9-0.9s-0.9,0.4-0.9,0.9c0,3.2-2.6,5.8-5.8,5.8
	s-5.8-2.6-5.8-5.8c0-3.2,2.6-5.8,5.8-5.8c1.3,0,2.5,0.4,3.5,1.2c0.4,0.3,1,0.2,1.3-0.2c0.3-0.4,0.2-1-0.2-1.3c-2.3-1.7-5.4-2-8-0.7
	C21.5,52.4,19.8,55.1,19.8,58z"/>
<path class="st1" d="M48.5,22.6c0.5,0,0.9-0.4,0.9-0.9c0-0.5-0.4-0.9-0.9-0.9H25.2c-0.5,0-0.9,0.4-0.9,0.9v3.6
	c0,0.5,0.4,0.9,0.9,0.9h23.3c0.5,0,0.9-0.4,0.9-0.9c0-0.5-0.4-0.9-0.9-0.9H26.1v-1.8H48.5z"/>
<path class="st1" d="M27.9,28c-0.5,0-0.9,0.4-0.9,0.9c0,0.5,0.4,0.9,0.9,0.9h17.9c0.5,0,0.9-0.4,0.9-0.9c0-0.5-0.4-0.9-0.9-0.9H27.9
	z"/>
<path class="st1" d="M51.2,34.2H31.5c-0.5,0-0.9,0.4-0.9,0.9c0,0.5,0.4,0.9,0.9,0.9h19.7c0.5,0,0.9-0.4,0.9-0.9
	C52.1,34.6,51.6,34.2,51.2,34.2z"/>
<path class="st1" d="M42.2,40.5c0-0.5-0.4-0.9-0.9-0.9H23.4c-0.5,0-0.9,0.4-0.9,0.9c0,0.5,0.4,0.9,0.9,0.9h17.9
	C41.8,41.4,42.2,41,42.2,40.5z"/>
<path class="st1" d="M51.2,39.6h-6.3c-0.5,0-0.9,0.4-0.9,0.9c0,0.5,0.4,0.9,0.9,0.9h6.3c0.5,0,0.9-0.4,0.9-0.9
	C52.1,40,51.6,39.6,51.2,39.6z"/>
<path class="st1" d="M32.4,45.9c0.5,0,0.9-0.4,0.9-0.9c0-0.5-0.4-0.9-0.9-0.9h-8.9c-0.5,0-0.9,0.4-0.9,0.9c0,0.5,0.4,0.9,0.9,0.9
	H32.4z"/>
<path class="st1" d="M35.9,45.9h6.3c0.5,0,0.9-0.4,0.9-0.9c0-0.5-0.4-0.9-0.9-0.9h-6.3c-0.5,0-0.9,0.4-0.9,0.9
	C35,45.5,35.4,45.9,35.9,45.9z"/>
<path class="st1" d="M56.5,56.6c-0.5,0-0.9,0.4-0.9,0.9v8.9c0,0.5-0.4,0.9-0.9,0.9H18.9c-0.5,0-0.9-0.4-0.9-0.9V18.1
	c0-0.5,0.4-0.9,0.9-0.9h35.8c0.5,0,0.9,0.4,0.9,0.9v16.8c0,0.5,0.4,0.9,0.9,0.9s0.9-0.4,0.9-0.9V18.1c0-1.5-1.2-2.7-2.7-2.7H18.9
	c-1.5,0-2.7,1.2-2.7,2.7v48.3c0,1.5,1.2,2.7,2.7,2.7h35.8c1.5,0,2.7-1.2,2.7-2.7v-8.9C57.4,57,57,56.6,56.5,56.6z"/>
</svg>
