<?xml version="1.0" encoding="utf-8"?>
<!-- Generator: Adobe Illustrator 24.0.2, SVG Export Plug-In . SVG Version: 6.00 Build 0)  -->
<svg version="1.1" id="Capa_1" xmlns="http://www.w3.org/2000/svg" xmlns:xlink="http://www.w3.org/1999/xlink" x="0px" y="0px"
	 viewBox="0 0 85.4 85.4" style="enable-background:new 0 0 85.4 85.4;" xml:space="preserve">
<style type="text/css">
	.st0{fill:none;}
	.st1{fill:#23407F;}
</style>
<circle id="Ciculo" class="st0" cx="42.7" cy="42.7" r="40.3"/>
<g>
	<path class="st1" d="M70,18.4H15.4c-1.3,0-2.3,1-2.3,2.3v2.9c0,0.9,0.5,1.6,1.2,2v33.9c0,0.9,0.5,1.6,1.2,2v4.4
		c0,0.6,0.5,1.2,1.2,1.2h52.3c0.6,0,1.2-0.5,1.2-1.2v-4.4c0.7-0.4,1.2-1.1,1.2-2V25.6c0.7-0.4,1.2-1.1,1.2-2v-2.9
		C72.3,19.4,71.3,18.4,70,18.4z M70,20.7v2.9H15.4l0-2.9H70z M43.9,59.5v-4c0-0.6-0.5-1.2-1.2-1.2s-1.2,0.5-1.2,1.2v4v0h-25V35.2h25
		V45c0,0.6,0.5,1.2,1.2,1.2s1.2-0.5,1.2-1.2v-9.8h25v24.3H43.9z M32.4,25.9C32.4,25.9,32.4,25.9,32.4,25.9v6.9H16.6v-6.9H32.4z
		 M50.6,32.9H34.8v-6.9v0h15.9v0V32.9z M68.8,32.9H53v-6.9v0h15.9V32.9z M17.7,64.7v-2.9h50v2.9H17.7z"/>
	<path class="st1" d="M52,37.5h-4.6c-0.6,0-1.2,0.5-1.2,1.2v11.6c0,0.6,0.5,1.2,1.2,1.2H52c0.6,0,1.2-0.5,1.2-1.2V38.7
		C53.1,38,52.6,37.5,52,37.5z M50.8,49.1h-2.3v-9.3h2.3V49.1z"/>
	<path class="st1" d="M38.1,37.5h-4.6c-0.6,0-1.2,0.5-1.2,1.2v11.6c0,0.6,0.5,1.2,1.2,1.2h4.6c0.6,0,1.2-0.5,1.2-1.2V38.7
		C39.2,38,38.7,37.5,38.1,37.5z M36.9,49.1h-2.3v-9.3h2.3V49.1z"/>
	<path class="st1" d="M24.5,30.6c0.6,0,1.2-0.5,1.2-1.2c0-0.6-0.5-1.2-1.2-1.2h0c-0.6,0-1.2,0.5-1.2,1.2
		C23.3,30,23.9,30.6,24.5,30.6z"/>
	<path class="st1" d="M42.7,28.2L42.7,28.2c-0.6,0-1.2,0.5-1.2,1.2c0,0.6,0.5,1.2,1.2,1.2s1.2-0.5,1.2-1.2
		C43.9,28.8,43.3,28.2,42.7,28.2z"/>
	<path class="st1" d="M60.9,30.6c0.6,0,1.2-0.5,1.2-1.2c0-0.6-0.5-1.2-1.2-1.2h0c-0.6,0-1.2,0.5-1.2,1.2
		C59.7,30,60.3,30.6,60.9,30.6z"/>
</g>
</svg>
