<?xml version="1.0" encoding="utf-8"?>
<!-- Generator: Adobe Illustrator 24.0.2, SVG Export Plug-In . SVG Version: 6.00 Build 0)  -->
<svg version="1.1" id="Capa_1" xmlns="http://www.w3.org/2000/svg" xmlns:xlink="http://www.w3.org/1999/xlink" x="0px" y="0px"
	 viewBox="0 0 480 480" style="enable-background:new 0 0 480 480;" xml:space="preserve">
<style type="text/css">
	.st0{fill:#063E7F;}
</style>
<path class="st0" d="M476.8,434.8l-54.8-54.4l32.1-21.4c3.3-2.2,5-6.1,4.4-10c-0.7-3.9-3.6-7-7.4-8l-133.7-35.5
	c-3.4-0.9-7.1,0.1-9.6,2.6c-2.5,2.5-3.5,6.1-2.6,9.6l35.1,133.7c1,3.8,4.1,6.7,8,7.4c3.9,0.6,7.8-1.1,10-4.4l21.9-32.1l54.8,54.8
	c1.9,1.9,4.4,2.9,7.1,2.9c2.6,0,5.2-1,7.1-2.9l28.2-28.2c1.8-1.9,2.8-4.5,2.7-7.2C479.9,439.1,478.8,436.6,476.8,434.8z M441.6,456
	l-56.4-56.4c-1.9-1.8-4.4-2.9-7-2.9h-1c-3,0.3-5.6,1.9-7.3,4.4l-15.9,23.8l-25.2-95.8l95.8,25.2l-23.8,16.1
	c-2.5,1.6-4.1,4.3-4.4,7.3c-0.3,3,0.8,5.9,2.9,8l56.4,56.4L441.6,456z"/>
<path class="st0" d="M296.1,405.4c-20.8,8.6-42.9,13.6-65.3,14.8v-89.6c14.7,0.3,29.4,1.5,44,3.5c5.5,0.8,10.6-3.1,11.4-8.6
	c0.8-5.5-3.1-10.6-8.6-11.4c-15.5-2-31.2-3.2-46.8-3.5V231h99.6c-0.5,15.6-2,31.2-4.6,46.6c-0.9,5.5,2.8,10.7,8.3,11.6
	c5.5,0.9,10.7-2.8,11.6-8.3c2.6-16.5,4.2-33.2,4.6-49.9H420c-1,22.4-5.9,44.5-14.3,65.3c-2.1,5.1,0.3,10.8,5.4,12.9
	c1.2,0.5,2.5,0.8,3.8,0.8c4.1,0,7.8-2.5,9.3-6.3c10.6-26.3,16-54.4,15.8-82.8c0-51.4-18.1-101.2-51.2-140.5
	C347.1,30.8,285.7,2.1,220.8,2h-7.2c-48.4,1.6-94.8,19.1-132.2,49.8c-4.3,3.5-4.9,9.8-1.4,14c3.5,4.3,9.8,4.9,14,1.4
	C111.4,53,130.9,41.8,151.9,34c-16.6,18.1-29.7,39.1-38.4,62c-33-6-42.4-8.8-42.3-10.1c0-0.4,0.9-1.2,2.2-2.5
	c0.3-0.3,0.4-0.4,1.9-1.8c1.9-1.8,1.9-1.8,2.5-2.3c1.1-1,2-1.6,2.5-2c0.9-0.7,1.1-0.8,2.3-1.6c1.9-1.4,1.8-1.4,4-3
	c1-0.8,1.3-0.9,2.6-1.9c0.8-0.6,1-0.7,1.5-1.1c0.9-0.6,1.2-0.8,2.1-1.4c0.8-0.6,1.2-0.9,1.4-1C96,65,87.2,50.3,81.6,51.8
	c-0.5,0.1-0.8,0.3-1.3,0.7C67,63.5,62.7,68.2,62.7,68.2c-3.1,3.4-5.7,6.3-7.7,8.6c-1.6,2-3.3,4-4.9,6c-11.2,14.1-48.4,64.1-48.2,138
	c0.2,75.3,39.1,125.7,50.4,139.4l0.7,0.8c41.4,50,102.9,79,167.9,79.2c28.4,0,56.5-5.5,82.8-16.3c3.5-1.2,6.1-4.2,6.7-7.9
	c0.6-3.7-0.9-7.3-3.9-9.6C303.4,404.2,299.4,403.8,296.1,405.4z M210.9,419.4c-31.8-5.1-59.8-34.9-77.8-78.7
	c25.5-6,51.6-9.4,77.8-10.1V419.4z M210.9,310.7c-28.6,0.6-57,4.2-84.7,10.9c-9.2-29.3-14.2-59.8-14.8-90.5h99.6V310.7z M22.2,231
	h69.2c0.6,32.6,5.9,64.9,15.5,96c-14.8,4.3-29.3,9.5-43.4,15.4C38.6,310.4,24.2,271.5,22.2,231z M308,101.6
	c-25.3,5.9-51.2,9.3-77.2,10V22.9C262.2,28.2,289.9,58.1,308,101.6z M210.9,211.1h-99.6c0.6-30.8,5.7-61.4,14.9-90.8
	c27.7,6.7,56.1,10.5,84.6,11.2V211.1z M230.8,131.5c28.3-0.6,56.5-4.2,84-10.8c9.2,29.3,14.3,59.7,14.9,90.4h-99V131.5z M420,211.1
	h-69.7c-0.6-32.5-5.8-64.8-15.4-95.9c15-4.3,29.7-9.5,44-15.5C403.7,131.7,418,170.6,420,211.1z M365.2,83.8
	c-12.2,4.9-24.6,9.1-37.1,12.7c-8.7-23.1-21.9-44.3-38.6-62.3c28.5,10.6,54.3,27.6,75.3,49.6H365.2z M210.9,22.8v88.7
	c-26.2-0.7-52.3-4-77.8-10C151.1,57.7,179.1,27.9,210.9,22.8z M91.4,211.1H21.7c2.1-40.5,16.4-79.3,41.1-111.4
	c14.2,6,28.7,11.1,43.5,15.4C96.8,146.3,91.8,178.6,91.4,211.1z M76.9,358.4c12-4.8,24.2-9,36.6-12.6c8.8,22.8,21.7,43.7,38.2,61.7
	C123.4,397.1,97.8,380.3,76.9,358.4z"/>
</svg>
