<?xml version="1.0" encoding="utf-8"?>
<!-- Generator: Adobe Illustrator 24.0.2, SVG Export Plug-In . SVG Version: 6.00 Build 0)  -->
<svg version="1.1" id="Capa_1" xmlns="http://www.w3.org/2000/svg" xmlns:xlink="http://www.w3.org/1999/xlink" x="0px" y="0px"
	 viewBox="0 0 85.4 85.4" style="enable-background:new 0 0 85.4 85.4;" xml:space="preserve">
<style type="text/css">
	.st0{fill:#00A7B5;stroke:#00A7B5;stroke-miterlimit:10;}
	.st1{fill:#FFFFFF;}
</style>
<circle id="Ciculo" class="st0" cx="42.7" cy="42.7" r="40.3"/>
<g>
	<g>
		<path class="st1" d="M75,28H54.7V17.8c0-0.6-0.5-1.1-1.1-1.1H31c-0.6,0-1.1,0.5-1.1,1.1V28H9.6c-0.6,0-1.1,0.5-1.1,1.1v9
			c0,0.6,0.5,1.1,1.1,1.1h5.6v26c0,0.6,0.5,1.1,1.1,1.1h51.9c0.6,0,1.1-0.5,1.1-1.1v-26H75c0.6,0,1.1-0.5,1.1-1.1v-9
			C76.1,28.5,75.6,28,75,28z M32.1,19h20.3v9h-2.3v-5.6c0-0.6-0.5-1.1-1.1-1.1H35.5c-0.6,0-1.1,0.5-1.1,1.1V28h-2.3V19z M47.9,23.5
			V28H36.6v-4.5C36.6,23.5,47.9,23.5,47.9,23.5z M67.1,64.1H17.5V39.3h3.4v2.3c0,0.6,0.5,1.1,1.1,1.1h9c0.6,0,1.1-0.5,1.1-1.1v-2.3
			h20.3v2.3c0,0.6,0.5,1.1,1.1,1.1h9c0.6,0,1.1-0.5,1.1-1.1v-2.3h3.4V64.1z M23.1,40.4v-4.5h6.8v4.5H23.1z M54.7,40.4v-4.5h6.8v4.5
			H54.7z M73.9,37H63.7v-2.3c0-0.6-0.5-1.1-1.1-1.1h-9c-0.6,0-1.1,0.5-1.1,1.1V37H32.1v-2.3c0-0.6-0.5-1.1-1.1-1.1h-9
			c-0.6,0-1.1,0.5-1.1,1.1V37H10.7v-6.8h63.2L73.9,37L73.9,37z"/>
	</g>
</g>
</svg>
