<?xml version="1.0" encoding="utf-8"?>
<!-- Generator: Adobe Illustrator 24.0.2, SVG Export Plug-In . SVG Version: 6.00 Build 0)  -->
<svg version="1.1" id="Capa_1" xmlns="http://www.w3.org/2000/svg" xmlns:xlink="http://www.w3.org/1999/xlink" x="0px" y="0px"
	 viewBox="0 0 85.4 85.4" style="enable-background:new 0 0 85.4 85.4;" xml:space="preserve">
<style type="text/css">
	.st0{fill:#00A7B5;stroke:#00A7B5;stroke-miterlimit:10;}
	.st1{fill:#FFFFFF;}
</style>
<circle id="Ciculo" class="st0" cx="42.7" cy="42.7" r="40.3"/>
<g>
	<g>
		<g>
			<path class="st1" d="M62.6,17v15.9h-4.2v-8.5H42.4v-4.2H26v12.7h-3.7V17H17v51.4h5.3v-9.5h40.3v9.5h5.8V17H62.6z M18.6,66.8V18.6
				h2.1v48.2H18.6z M42.4,26h14.3v6.9H42.4V26z M32.9,21.8h2.6v4.8h-2.6V21.8z M27.6,21.8h3.7v6.4h5.8v-6.4h3.7v11.1H27.6V21.8z
				 M62.6,57.3H22.3v-1.6h40.3V57.3z M28.7,54.1v-6.9H43v6.9H28.7z M54.1,49.3V43h3.7v11.1H44.6V43h3.7v6.4H54.1z M49.9,47.7V43h2.6
				v4.8H49.9z M62.6,54.1h-3.2V41.4H43v4.2H27.1v8.5h-4.8V37.7h40.3V54.1z M62.6,36.1H22.3v-1.6h40.3V36.1z M66.8,66.8h-2.6V18.6
				h2.6V66.8z"/>
			<rect x="51.7" y="28.6" class="st1" width="3.2" height="1.6"/>
			<rect x="45.4" y="28.6" class="st1" width="5.3" height="1.6"/>
			<rect x="37.9" y="49.9" class="st1" width="3.2" height="1.6"/>
			<rect x="31.6" y="49.9" class="st1" width="5.3" height="1.6"/>
		</g>
	</g>
</g>
</svg>
