<?xml version="1.0" encoding="utf-8"?>
<!-- Generator: Adobe Illustrator 24.0.2, SVG Export Plug-In . SVG Version: 6.00 Build 0)  -->
<svg version="1.1" id="Capa_1" xmlns="http://www.w3.org/2000/svg" xmlns:xlink="http://www.w3.org/1999/xlink" x="0px" y="0px"
	 viewBox="0 0 85.4 85.4" style="enable-background:new 0 0 85.4 85.4;" xml:space="preserve">
<style type="text/css">
	.st0{fill:none;}
	.st1{fill:#1E407F;}
</style>
<circle id="Ciculo" class="st0" cx="42.7" cy="42.7" r="40.3"/>
<path class="st1" d="M76.6,39.3L65.4,28.1c-0.3-0.3-0.7-0.4-1.1-0.4h-8v-5.9c0-1.5-1.3-2.8-2.9-2.8H14.2c-1.6,0-2.8,1.3-2.8,2.8
	v32.6c0,1.6,1.3,2.8,2.8,2.8h4.7c0.7,4.2,4.4,7.4,8.7,7.4s8-3.2,8.7-7.4h20.3c0.7,4.2,4.4,7.4,8.7,7.4c4.4,0,8-3.2,8.7-7.4
	c0,0,0,0,0,0c1.6,0,2.8-1.3,2.8-2.8v-14C77,39.9,76.9,39.5,76.6,39.3z M63.7,30.7l8.4,8.4H56.4v-8.4H63.7z M18.9,54.2h-4.5V22
	l38.9,0v32.1h-17c-0.8-4.1-4.4-7.3-8.7-7.3C23.3,46.9,19.7,50,18.9,54.2z M27.6,61.5c-3.2,0-5.8-2.6-5.8-5.8c0-3.2,2.6-5.8,5.8-5.8
	s5.8,2.6,5.8,5.8C33.4,58.9,30.8,61.5,27.6,61.5z M65.4,61.5c-3.2,0-5.8-2.6-5.8-5.8c0-3.2,2.6-5.8,5.8-5.8c3.2,0,5.8,2.6,5.8,5.8
	C71.2,58.9,68.6,61.5,65.4,61.5z M65.4,46.9c-4.3,0-8,3.1-8.7,7.3h-0.3v-12H74v11.3C72.9,49.7,69.5,46.9,65.4,46.9z"/>
</svg>
