<?xml version="1.0" encoding="utf-8"?>
<!-- Generator: Adobe Illustrator 24.0.2, SVG Export Plug-In . SVG Version: 6.00 Build 0)  -->
<svg version="1.1" id="Capa_1" xmlns="http://www.w3.org/2000/svg" xmlns:xlink="http://www.w3.org/1999/xlink" x="0px" y="0px"
	 viewBox="0 0 85.4 85.4" style="enable-background:new 0 0 85.4 85.4;" xml:space="preserve">
<style type="text/css">
	.st0{fill:none;}
	.st1{fill:#1E407F;}
</style>
<circle id="Ciculo" class="st0" cx="42.7" cy="42.7" r="40.3"/>
<g>
	<g>
		<path class="st1" d="M61.1,16.4h-3.6v-1.2c0-0.7-0.5-1.2-1.2-1.2s-1.2,0.5-1.2,1.2v1.2h-7.2v-1.2c0-0.7-0.5-1.2-1.2-1.2
			c-0.7,0-1.2,0.5-1.2,1.2v1.2h-7.2v-1.2c0-0.7-0.5-1.2-1.2-1.2c-0.7,0-1.2,0.5-1.2,1.2v1.2h-7.2v-1.2c0-0.7-0.5-1.2-1.2-1.2
			c-0.7,0-1.2,0.5-1.2,1.2v1.2h-3.6c-2,0-3.6,1.6-3.6,3.6v47.8c0,2,1.6,3.6,3.6,3.6h38.3c2,0,3.6-1.6,3.6-3.6V20
			C64.6,18,63,16.4,61.1,16.4z M56.3,23.6c0.7,0,1.2,0.5,1.2,1.2S56.9,26,56.3,26s-1.2-0.5-1.2-1.2S55.6,23.6,56.3,23.6z M46.7,23.6
			c0.7,0,1.2,0.5,1.2,1.2S47.4,26,46.7,26c-0.7,0-1.2-0.5-1.2-1.2S46,23.6,46.7,23.6z M37.1,23.6c0.7,0,1.2,0.5,1.2,1.2
			S37.8,26,37.1,26c-0.7,0-1.2-0.5-1.2-1.2S36.5,23.6,37.1,23.6z M27.6,23.6c0.7,0,1.2,0.5,1.2,1.2S28.2,26,27.6,26
			c-0.7,0-1.2-0.5-1.2-1.2S26.9,23.6,27.6,23.6z M62.2,67.8c0,0.7-0.5,1.2-1.2,1.2H22.8c-0.7,0-1.2-0.5-1.2-1.2V20
			c0-0.7,0.5-1.2,1.2-1.2h3.6v2.6C25,21.9,24,23.2,24,24.8c0,2,1.6,3.6,3.6,3.6s3.6-1.6,3.6-3.6c0-1.6-1-2.9-2.4-3.4v-2.6h7.2v2.6
			c-1.4,0.5-2.4,1.8-2.4,3.4c0,2,1.6,3.6,3.6,3.6s3.6-1.6,3.6-3.6c0-1.6-1-2.9-2.4-3.4v-2.6h7.2v2.6c-1.4,0.5-2.4,1.8-2.4,3.4
			c0,2,1.6,3.6,3.6,3.6s3.6-1.6,3.6-3.6c0-1.6-1-2.9-2.4-3.4v-2.6h7.2v2.6c-1.4,0.5-2.4,1.8-2.4,3.4c0,2,1.6,3.6,3.6,3.6
			s3.6-1.6,3.6-3.6c0-1.6-1-2.9-2.4-3.4v-2.6h3.6c0.7,0,1.2,0.5,1.2,1.2L62.2,67.8L62.2,67.8z"/>
	</g>
</g>
</svg>
