<?xml version="1.0" encoding="utf-8"?>
<!-- Generator: Adobe Illustrator 24.0.2, SVG Export Plug-In . SVG Version: 6.00 Build 0)  -->
<svg version="1.1" id="Capa_1" xmlns="http://www.w3.org/2000/svg" xmlns:xlink="http://www.w3.org/1999/xlink" x="0px" y="0px"
	 viewBox="0 0 85.4 85.4" style="enable-background:new 0 0 85.4 85.4;" xml:space="preserve">
<style type="text/css">
	.st0{fill:none;}
	.st1{fill:none;stroke:#1E407F;stroke-width:2.5;stroke-linecap:round;stroke-linejoin:round;}
</style>
<circle id="Ciculo" class="st0" cx="42.7" cy="42.7" r="40.3"/>
<g transform="translate(0.75 0.75)">
	<path class="st1" d="M33.6,54.7c2.3,2.1,5.2,3.2,8.3,3.2l0,0c3.2,0,6.2-1.2,8.5-3.4"/>
	<path class="st1" d="M34.6,49.4V52c0,2-1.6,3.5-3.5,3.5l0,0h-3.8c-4.1,0-7.4,3.3-7.4,7.3"/>
	<path class="st1" d="M64.1,62.8c0-4.1-3.3-7.4-7.4-7.4l0,0h-3.8c-2,0-3.5-1.6-3.5-3.5v-2.6"/>
	<path class="st1" d="M54.2,39.5c0,6.8-5.5,12.3-12.3,12.3l0,0c-6.8,0-12.3-5.5-12.3-12.3l0,0v-6.1c0-6.8,5.5-12.3,12.3-12.3l0,0
		l0,0c6.8,0,12.3,5.5,12.3,12.3V39.5z"/>
</g>
</svg>
