<?xml version="1.0" encoding="utf-8"?>
<!-- Generator: Adobe Illustrator 24.0.2, SVG Export Plug-In . SVG Version: 6.00 Build 0)  -->
<svg version="1.1" id="Capa_1" xmlns="http://www.w3.org/2000/svg" xmlns:xlink="http://www.w3.org/1999/xlink" x="0px" y="0px"
	 viewBox="0 0 85.4 85.4" style="enable-background:new 0 0 85.4 85.4;" xml:space="preserve">
<style type="text/css">
	.st0{fill:#1E407F;stroke:#183F7F;stroke-miterlimit:10;}
	.st1{fill:#FFFFFF;}
</style>
<circle id="Ciculo" class="st0" cx="42.7" cy="42.7" r="40.3"/>
<g>
	<g>
		<g>
			<path class="st1" d="M32.7,16H16v16.7h16.7V16z M29.3,29.3h-10v-10h10V29.3z"/>
			<rect x="22.7" y="22.7" class="st1" width="3.3" height="3.3"/>
			<path class="st1" d="M52.7,16v16.7h16.7V16H52.7z M66.1,29.3h-10v-10h10V29.3z"/>
			<rect x="59.4" y="22.7" class="st1" width="3.3" height="3.3"/>
			<path class="st1" d="M16,69.4h16.7V52.7H16V69.4z M19.3,56.1h10v10h-10V56.1z"/>
			<rect x="22.7" y="59.4" class="st1" width="3.3" height="3.3"/>
			<rect x="42.7" y="16" class="st1" width="6.7" height="3.3"/>
			<polygon class="st1" points="42.7,29.3 46,29.3 46,26 49.4,26 49.4,22.7 39.4,22.7 39.4,19.3 36,19.3 36,22.7 36,24.3 36,26 
				42.7,26 			"/>
			<rect x="36" y="29.3" class="st1" width="3.3" height="3.3"/>
			<polygon class="st1" points="49.4,32.7 46,32.7 46,36 36,36 36,39.4 49.4,39.4 			"/>
			<polygon class="st1" points="19.3,46 22.7,46 22.7,42.7 19.3,42.7 19.3,36 16,36 16,49.4 19.3,49.4 			"/>
			<rect x="22.7" y="36" class="st1" width="3.3" height="3.3"/>
			<polygon class="st1" points="36,49.4 42.7,49.4 42.7,46 39.4,46 39.4,42.7 32.7,42.7 32.7,36 29.3,36 29.3,42.7 26,42.7 26,49.4 
				29.3,49.4 29.3,46 31,46 32.7,46 36,46 			"/>
			<rect x="46" y="42.7" class="st1" width="3.3" height="6.7"/>
			<polygon class="st1" points="46,52.7 36,52.7 36,56.1 42.7,56.1 42.7,66.1 36,66.1 36,69.4 46,69.4 46,66.1 52.7,66.1 52.7,62.7 
				46,62.7 			"/>
			<rect x="36" y="59.4" class="st1" width="3.3" height="3.3"/>
			<rect x="49.4" y="52.7" class="st1" width="3.3" height="6.7"/>
			<polygon class="st1" points="66.1,59.4 56.1,59.4 56.1,69.4 59.4,69.4 59.4,62.7 66.1,62.7 			"/>
			<rect x="62.7" y="66.1" class="st1" width="6.7" height="3.3"/>
			<rect x="66.1" y="52.7" class="st1" width="3.3" height="3.3"/>
			<polygon class="st1" points="56.1,56.1 59.4,56.1 59.4,46 52.7,46 52.7,49.4 56.1,49.4 			"/>
			<polygon class="st1" points="62.7,39.4 59.4,39.4 59.4,36 56.1,36 56.1,39.4 52.7,39.4 52.7,42.7 66.1,42.7 66.1,39.4 69.4,39.4 
				69.4,36 62.7,36 			"/>
			<rect x="62.7" y="46" class="st1" width="6.7" height="3.3"/>
		</g>
	</g>
</g>
</svg>
