<?xml version="1.0" encoding="utf-8"?>
<!-- Generator: Adobe Illustrator 24.0.2, SVG Export Plug-In . SVG Version: 6.00 Build 0)  -->
<svg version="1.1" id="Capa_1" xmlns="http://www.w3.org/2000/svg" xmlns:xlink="http://www.w3.org/1999/xlink" x="0px" y="0px"
	 viewBox="0 0 85.4 85.4" style="enable-background:new 0 0 85.4 85.4;" xml:space="preserve">
<style type="text/css">
	.st0{fill:none;}
	.st1{fill:#1E407F;}
</style>
<circle id="Ciculo" class="st0" cx="42.7" cy="42.7" r="40.3"/>
<g>
	<g>
		<path class="st1" d="M63.5,9.1h-17c-0.9,0.1-2.3,0.1-4,0.1c-2.6,0-3.2-0.2-3.7,0.3c-0.7,0.6-0.4,1.5-0.5,5.4c0,1,0,1.9-0.1,2.4
			v32.1c0,0,0,0,0,0c0.2,0,0.4,0.1,0.5,0.2c0.4,0.1,0.8,0,1.2-0.1c0.1,0,0.2,0,0.2,0v-7.2h22.1v16.1c-5.1,0.1-10.3,0.1-15.6,0.1
			c-0.1,0.3-0.3,0.6-0.4,1c-0.1,0.2-0.1,0.5-0.2,0.7l0.2,0.2l17.1,0c0.6,0,1-0.5,1-1V10.1C64.5,9.6,64.1,9.1,63.5,9.1z M50.5,40.3
			H40.4v-23c0-2,0-4.1,0-6.1c2.1,0,4.1,0,6.2,0h3.9V40.3z M62.5,40.3H52.5V11.1h10.1V40.3z"/>
		<path class="st1" d="M40.6,11.2"/>
		<path class="st1" d="M55.5,32.2c0.6,0,1-0.5,1-1V19.2c0-0.6-0.5-1-1-1s-1,0.5-1,1v12.1C54.5,31.8,54.9,32.2,55.5,32.2z"/>
		<path class="st1" d="M47.4,18.2c-0.6,0-1,0.5-1,1v12.1c0,0.6,0.5,1,1,1s1-0.5,1-1V19.2C48.4,18.6,48,18.2,47.4,18.2z"/>
		<path class="st1" d="M58.2,45.3H44.8c-0.6,0-1,0.5-1,1s0.5,1,1,1h13.4c0.6,0,1-0.5,1-1S58.7,45.3,58.2,45.3z"/>
	</g>
	<g>
		<g>
			<path class="st1" d="M21.3,72.4l1.6,1.6c0.6,0.6,1.5,0.6,2.1,0l6.4-6.4c0.6-0.6,0.6-1.5,0-2.1l-0.2-0.2l0.7-0.7
				c1.7,1.4,3.8,2.2,6.1,2.2c5.3,0,9.6-4.3,9.6-9.6s-4.3-9.6-9.6-9.6s-9.6,4.3-9.6,9.6c0,2.3,0.8,4.5,2.2,6.1l-0.7,0.7L29.7,64
				c-0.6-0.6-1.5-0.6-2.1,0L26,65.7c0,0,0,0,0,0c0,0,0,0,0,0l-4.7,4.7C20.8,71,20.8,71.9,21.3,72.4z M30.2,57.4
				c0-4.3,3.5-7.8,7.8-7.8s7.8,3.5,7.8,7.8s-3.5,7.8-7.8,7.8S30.2,61.7,30.2,57.4z M29.1,67.5l-1.2-1.2l0.9-0.9l1.2,1.2L29.1,67.5z
				 M22.8,71.4l3.9-3.9l1.2,1.2L24,72.6L22.8,71.4z"/>
		</g>
	</g>
</g>
</svg>
