<?xml version="1.0" encoding="utf-8"?>
<!-- Generator: Adobe Illustrator 24.0.2, SVG Export Plug-In . SVG Version: 6.00 Build 0)  -->
<svg version="1.1" id="Capa_1" xmlns:svgjs="http://svgjs.com/svgjs"
	 xmlns="http://www.w3.org/2000/svg" xmlns:xlink="http://www.w3.org/1999/xlink" x="0px" y="0px" viewBox="0 0 512 512"
	 style="enable-background:new 0 0 512 512;" xml:space="preserve">
<style type="text/css">
	.st0{fill:#063E7F;stroke:#063E7F;stroke-width:5;stroke-miterlimit:10;}
</style>
<g>
	<g>
		<g>
			<path class="st0" d="M243.8,137c-4.1,0-7.5,3.4-7.5,7.5V166c0,4.1,3.4,7.5,7.5,7.5s7.5-3.4,7.5-7.5v-21.5
				C251.3,140.4,247.9,137,243.8,137z"/>
			<path class="st0" d="M327.4,137c-4.1,0-7.5,3.4-7.5,7.5V166c0,4.1,3.4,7.5,7.5,7.5s7.5-3.4,7.5-7.5v-21.5
				C334.9,140.4,331.5,137,327.4,137z"/>
			<path class="st0" d="M316.5,84.9h-61.9c-39.4,0-71.4,32-71.4,71.4v52c0,44.9,36.5,81.4,81.4,81.4h27.2c4.1,0,7.5-3.4,7.5-7.5
				s-3.4-7.5-7.5-7.5h-27.2c-36.6,0-66.4-29.8-66.4-66.4v-2.8h55.5c5.4,0,10.4-2.4,13.7-6.7l9-11.4c0.5-0.6,1.2-1,2-1h14.3
				c0.8,0,1.5,0.3,2,1l9,11.4c3.3,4.2,8.3,6.7,13.7,6.7H373v2.8c0,29.5-19.8,55.8-48.2,63.8c-4,1.1-6.3,5.3-5.2,9.3s5.3,6.3,9.3,5.2
				c34.8-9.9,59.1-42.1,59.1-78.3v-52C388,116.9,355.9,84.9,316.5,84.9L316.5,84.9z M254.6,99.9h61.9c12.9,0,24.7,4.3,34.2,11.6
				H220.4C229.9,104.2,241.8,99.9,254.6,99.9L254.6,99.9z M373,190.5h-55.5c-0.8,0-1.5-0.3-2-1l-9-11.4c-3.3-4.2-8.3-6.7-13.7-6.7
				h-14.3c-5.4,0-10.4,2.4-13.7,6.7l-9,11.4c-0.5,0.6-1.2,1-2,1h-55.5v-34.2c0-10.9,3.1-21.2,8.6-29.8h157.7
				c5.4,8.7,8.6,18.9,8.6,29.8L373,190.5z"/>
			<path class="st0" d="M331.6,226.4c4.1,0,7.5-3.4,7.5-7.5s-3.4-7.5-7.5-7.5h-92c-4.1,0-7.5,3.4-7.5,7.5s3.4,7.5,7.5,7.5H331.6z"/>
			<path class="st0" d="M244,252.5h83.2c4.1,0,7.5-3.4,7.5-7.5s-3.4-7.5-7.5-7.5H244c-4.1,0-7.5,3.4-7.5,7.5S239.8,252.5,244,252.5
				L244,252.5z"/>
			<path class="st0" d="M487.2,407c6.1,2.8,7.9,3.2,8.1,2.8c0,0,0-0.3,0-1c0-0.5,0-0.7,0-1c-0.1-2.2,0.2-10.7,0.2-10.7
				c0-1.4,0-0.1,0.1-7.8c0.1-4.9,0.1-6.9,0-9.9c-0.1-1.9-0.1-3.4-0.2-4.5c0-8.3,0-16.7,0-25c0-28.9-23.6-52.5-52.5-52.5h-25.4V123.6
				C417.4,55.4,361.9,0,293.7,0h-16.3c-68.2,0-123.6,55.4-123.6,123.6v173.9h-5.6v-25c0-4.7-1.8-9.2-5.2-12.6s-7.8-5.2-12.5-5.2
				c0,0,0,0-0.1,0h-4.5c-3.3,0-6.5,0.9-9.1,2.6c-0.9-2.5-2.3-4.9-4.3-6.8c-3.4-3.4-7.8-5.2-12.5-5.2c0,0,0,0-0.1,0h-4.5
				c-5.1,0-9.7,2.2-13,5.7c-0.1-0.1-0.3-0.3-0.4-0.4c-3.4-3.4-7.8-5.2-12.6-5.2h-4.5c-9.2,0-16.8,7-17.7,16c-2.5-1.4-5.4-2-8.3-2.1
				h-4.5c-9.8,0-17.8,8-17.8,17.8v217.4c0,4.8,1.8,9.3,5.1,12.6c3.2,3.2,7.5,5,12,5h444c9.6,0,17.5-7.9,17.5-17.5V410
				c0-4.1-3.4-7.5-7.5-7.5s-7.5,3.4-7.5,7.5v84.5c0,1.4-1.1,2.5-2.5,2.5H310.3V319c39.2-1,73.4-22.7,92-54.5V305
				c0,4.1,3.4,7.5,7.5,7.5h32.9c20.7,0,37.5,16.8,37.5,37.5v25c0.2,6.5,0.3,12,0.3,16.5c0,10.5-0.3,16.9-0.3,17.3c0,0,0,0.2,0,0.5
				c0,0.4,0,0.6,0,0.7C480.5,410.2,482,409.7,487.2,407z M277.4,15h16.3c51.1,0,94.1,35.5,105.6,83.1c-18-25.7-47.9-42.6-81.6-42.6
				h-64.2c-33.7,0-63.6,16.8-81.6,42.6C183.4,50.5,226.3,15,277.4,15L277.4,15z M260.9,497h-113v-23c-0.1-23.2-0.1-32.9,0-33.4
				c0-0.3,0-0.5,0-0.9c0-0.5,0-0.7,0-0.7c-0.4-0.3-3.1,5-6.4,5.3c-3.8,0.4-7.9-5.9-8.5-5.4c-0.1,0.1-0.1,0.3-0.1,0.9
				c0,0.5,0,0.8,0,0.9c0.2,11.1-0.1,22.2,0,33.3c0.1,5.6,0.1,13.4,0,23H33.8c-0.6,0-1-0.2-1.4-0.5c-0.5-0.5-0.7-1.2-0.7-2V277.1
				c0-1.5,1.3-2.8,2.8-2.8H39l0,0c1,0,1.6,0.5,1.9,0.8c0.3,0.3,0.8,1,0.8,1.9v67c0,2,0.8,3.9,2.2,5.3s3.3,2.2,5.3,2.2l0,0h5.5
				c4.1,0,7.5-3.4,7.5-7.5v-80.9c0-1.5,1.3-2.8,2.8-2.8h4.5l0,0c1,0,1.6,0.5,1.9,0.8s0.8,1,0.8,1.9v81c0,2,0.8,3.9,2.2,5.3
				c1.4,1.4,3.3,2.2,5.3,2.2l0,0h5.4c4.1,0,7.5-3.4,7.5-7.5v-80.9c0-1.5,1.3-2.8,2.8-2.8h4.5l0,0c1,0,1.6,0.5,1.9,0.8s0.8,1,0.8,1.9
				v80.9c0,2,0.8,3.9,2.2,5.3s3.3,2.2,5.3,2.2h5.4c4.1,0,7.5-3.4,7.5-7.5v-71.4c0-1.5,1.3-2.8,2.8-2.8h4.5l0,0c1,0,1.6,0.5,1.9,0.8
				c0.3,0.3,0.8,1,0.8,1.9v93.1c0,3,1.8,5.8,4.7,6.9c2.8,1.2,6.1,0.5,8.2-1.7l11.7-12c1.7-1.7,4-2.6,6.4-2.6l0,0
				c2.4,0,4.6,0.9,6.3,2.6c3.5,3.5,3.4,9.1-0.1,12.6l-35.3,35.3c-1.4,1.4-2.2,3.3-2.2,5.3v27c0,0.1,0,0.3,0,0.5c0.2,2.8,3,7,7.5,7
				c4,0,7.4-3.3,7.5-7.5V415l33.3-33c9.4-9.4,9.4-24.5,0.1-33.9c-9-9-23.4-9.3-32.8-0.9v-34.7h13.1c4.1,0,7.5-3.4,7.5-7.5v-40.6
				c18.6,31.8,52.8,53.5,92,54.5C260.9,378.3,260.9,437.7,260.9,497z M295.3,497h-19.4V319h19.4V497z M402.4,209.1
				c0,52.4-42.6,95-95,95h-43.6c-52.4,0-95-42.6-95-95v-53.9c0-46.7,38-84.7,84.7-84.7h64.2c46.7,0,84.7,38,84.7,84.7L402.4,209.1
				L402.4,209.1z"/>
		</g>
	</g>
</g>
</svg>
