<?xml version="1.0" encoding="utf-8"?>
<!-- Generator: Adobe Illustrator 24.0.2, SVG Export Plug-In . SVG Version: 6.00 Build 0)  -->
<svg version="1.1" id="Capa_1" xmlns="http://www.w3.org/2000/svg" xmlns:xlink="http://www.w3.org/1999/xlink" x="0px" y="0px"
	 viewBox="0 0 85.4 85.4" style="enable-background:new 0 0 85.4 85.4;" xml:space="preserve">
<style type="text/css">
	.st0{fill:none;}
	.st1{fill:#1E407F;}
</style>
<circle id="Ciculo" class="st0" cx="42.7" cy="42.7" r="40.3"/>
<g>
	<g>
		<path class="st1" d="M58.8,11.4H39.9c-4,0-7.2,3.2-7.2,7.2v9.2c0,3.4,2.4,6.3,5.6,7v6.4c0,0.6,0.4,1.2,1,1.4
			c0.2,0,0.3,0.1,0.5,0.1c0.5,0,0.9-0.2,1.2-0.6l5.3-7.1h12.5c4,0,7.2-3.2,7.2-7.2v-9.2C66,14.7,62.8,11.4,58.8,11.4z M63,27.8
			c0,2.3-1.9,4.2-4.2,4.2H45.6c-0.5,0-0.9,0.2-1.2,0.6l-3,4.1v-3.2c0-0.8-0.7-1.5-1.5-1.5c-2.3,0-4.2-1.9-4.2-4.2v-9.2
			c0-2.3,1.9-4.2,4.2-4.2h18.9c2.3,0,4.2,1.9,4.2,4.2L63,27.8L63,27.8z"/>
		<path class="st1" d="M29.2,47.3c3.8,0,6.9-3.1,6.9-6.9c0-3.8-3.1-6.9-6.9-6.9c-3.8,0-6.9,3.1-6.9,6.9
			C22.3,44.2,25.4,47.3,29.2,47.3z M29.2,36.4c2.2,0,4,1.8,4,4c0,2.2-1.8,4-4,4s-4-1.8-4-4C25.3,38.2,27.1,36.4,29.2,36.4z"/>
		<path class="st1" d="M29.2,47.6c-5.5,0-9.9,4.4-9.9,9.9v9.1c0,0.8,0.7,1.5,1.5,1.5h16.8c0.8,0,1.5-0.7,1.5-1.5v-9.1
			C39.1,52.1,34.7,47.6,29.2,47.6z M36.2,65.2H22.3v-7.6c0-3.8,3.1-6.9,6.9-6.9s6.9,3.1,6.9,6.9L36.2,65.2L36.2,65.2z"/>
		<path class="st1" d="M41,21.4c-1.2,0-2.2,1-2.2,2.2c0,1.2,1,2.2,2.2,2.2c1.2,0,2.2-1,2.2-2.2C43.3,22.4,42.3,21.4,41,21.4z"/>
		<path class="st1" d="M49.4,21.4c-1.2,0-2.2,1-2.2,2.2c0,1.2,1,2.2,2.2,2.2c1.2,0,2.2-1,2.2-2.2C51.6,22.4,50.6,21.4,49.4,21.4z"/>
		<path class="st1" d="M57.7,21.4c-1.2,0-2.2,1-2.2,2.2c0,1.2,1,2.2,2.2,2.2c1.2,0,2.2-1,2.2-2.2C59.9,22.4,58.9,21.4,57.7,21.4z"/>
	</g>
</g>
</svg>
