<?xml version="1.0" encoding="utf-8"?>
<!-- Generator: Adobe Illustrator 24.0.2, SVG Export Plug-In . SVG Version: 6.00 Build 0)  -->
<svg version="1.1" id="Capa_1" xmlns="http://www.w3.org/2000/svg" xmlns:xlink="http://www.w3.org/1999/xlink" x="0px" y="0px"
	 viewBox="0 0 85.4 85.4" style="enable-background:new 0 0 85.4 85.4;" xml:space="preserve">
<style type="text/css">
	.st0{fill:#00A7B5;stroke:#00A7B5;stroke-miterlimit:10;}
	.st1{fill:#FCFCFC;}
</style>
<circle id="Ciculo" class="st0" cx="42.7" cy="42.7" r="40.3"/>
<g>
	<g>
		<path class="st1" d="M75.8,38.1L72,37.7c-0.4-1.5-1-3-1.8-4.3l2.4-2.9c0.6-0.7,0.5-1.7-0.1-2.4l-4.7-4.7c-0.6-0.7-1.7-0.7-2.4-0.1
			l-2.9,2.4c-1.4-0.8-2.8-1.4-4.3-1.8l-0.4-3.7c-0.1-0.9-0.8-1.6-1.8-1.6h-5.8v-5.3c0-1-0.8-1.8-1.8-1.8s-1.8,0.8-1.8,1.8v8.8h-6.6
			c-2.8,0-5.5,1.3-7.2,3.6l-7.2,9.5l-12.2,3.3c-3.2,0.9-5.3,3.7-5.4,7v4.7c0,4,3.3,7.2,7.3,7.2h0.9c1.3,4.9,6.4,7.8,11.3,6.5
			c3.1-0.9,5.6-3.3,6.5-6.5h12.7v14.6c0,1,0.8,1.8,1.8,1.8s1.8-0.8,1.8-1.8v-4.2h5.8c0.9,0,1.7-0.7,1.8-1.6l0.4-3.7
			c1.5-0.4,3-1,4.3-1.8l2.9,2.4c0.7,0.6,1.7,0.5,2.4-0.1l4.7-4.7c0.6-0.6,0.7-1.7,0.1-2.4L70.2,53c0.8-1.4,1.4-2.8,1.8-4.3l3.7-0.4
			c0.9-0.1,1.6-0.8,1.6-1.8v-6.7C77.4,38.9,76.6,38.2,75.8,38.1z M25.2,60.7c-3.1,0-5.7-2.5-5.7-5.7s2.5-5.7,5.7-5.7
			s5.7,2.5,5.7,5.7C30.9,58.2,28.3,60.7,25.2,60.7z M46.8,53.9H34.3c-0.6-5-5.2-8.6-10.2-8c-4.2,0.5-7.5,3.8-8,8h-0.7
			c-2.1,0-3.8-1.7-3.8-3.7v-4.6c0-1.7,1.1-3.2,2.8-3.6l12.8-3.5c0.4-0.1,0.7-0.3,0.9-0.6l7.6-10c1.1-1.4,2.7-2.2,4.4-2.2h6.6V53.9z
			 M50.3,35.7c4.1-1.4,8.6,0.9,9.9,5c1.4,4.1-0.9,8.6-5,9.9c-1.6,0.5-3.3,0.5-4.9,0V35.7z M73.8,44.9L73.8,44.9l-3.3,0.3
			c-0.8,0.1-1.4,0.6-1.5,1.4c-0.4,2-1.2,3.8-2.3,5.5c-0.4,0.7-0.4,1.5,0.1,2.1l2.1,2.6l-2.5,2.5l-2.6-2.1c-0.6-0.5-1.4-0.5-2.1-0.1
			c-1.7,1.1-3.5,1.9-5.5,2.3c-0.8,0.2-1.3,0.8-1.4,1.5l-0.3,3.4h-4.3v-10c6.1,1.4,12.2-2.5,13.6-8.6c1.4-6.1-2.5-12.2-8.6-13.6
			c-1.6-0.4-3.3-0.4-4.9,0v-10h4.2l0.3,3.4c0.1,0.8,0.6,1.4,1.4,1.5c2,0.4,3.8,1.2,5.5,2.3c0.7,0.4,1.5,0.4,2.1-0.1l2.6-2.1l2.4,2.4
			l-2.2,2.6c-0.5,0.6-0.5,1.4-0.1,2.1c1.1,1.7,1.9,3.5,2.3,5.5c0.2,0.8,0.8,1.3,1.6,1.4l3.4,0.3V44.9z"/>
	</g>
</g>
</svg>
