<?xml version="1.0" encoding="utf-8"?>
<!-- Generator: Adobe Illustrator 24.0.2, SVG Export Plug-In . SVG Version: 6.00 Build 0)  -->
<svg version="1.1" id="Capa_1" xmlns="http://www.w3.org/2000/svg" xmlns:xlink="http://www.w3.org/1999/xlink" x="0px" y="0px"
	 viewBox="0 0 85.4 85.4" style="enable-background:new 0 0 85.4 85.4;" xml:space="preserve">
<style type="text/css">
	.st0{fill:#00A7B5;stroke:#00A7B5;stroke-miterlimit:10;}
	.st1{fill:#FFFFFF;}
</style>
<circle id="Ciculo" class="st0" cx="42.7" cy="42.7" r="40.3"/>
<g>
	<g>
		<g>
			<path class="st1" d="M25.8,39v23h17.9V39H25.8z M41.1,59.5H28.3V41.5h12.8V59.5z"/>
		</g>
	</g>
	<g>
		<g>
			<path class="st1" d="M69.3,31.3v-5.1c0-0.3,0-0.5-0.1-0.8l-2.6-7.7c-0.3-1-1.3-1.8-2.4-1.8h-41c-1.1,0-2.1,0.7-2.4,1.8l-2.6,7.7
				c-0.1,0.3-0.1,0.5-0.1,0.8v5.1c0,1.4,1.1,2.6,2.6,2.6v30.7h-1.3c-0.7,0-1.3,0.6-1.3,1.3s0.6,1.3,1.3,1.3H68
				c0.7,0,1.3-0.6,1.3-1.3c0-0.7-0.6-1.3-1.3-1.3h-1.3V33.9C68.2,33.9,69.3,32.7,69.3,31.3z M64.2,18.5l2.1,6.4h-9.5l-1.6-6.4
				C55.1,18.5,64.2,18.5,64.2,18.5z M45,18.5h7.5l1.6,6.4H45V18.5z M45,27.5h9.5v3.8H45V27.5z M34.9,18.5h7.5v6.4h-9.1L34.9,18.5z
				 M32.9,27.5h9.5v3.8h-9.5V27.5z M23.2,18.5h9l-1.6,6.4h-9.5L23.2,18.5z M20.7,27.5h9.7v3.8h-7.2h-2.6V27.5z M59.1,64.6H48.8V54.3
				h2.6v-2.6h-2.6V41.5h10.2V64.6z M64.2,64.6h-2.6V39H46.3v25.6h-23V33.9h41V64.6L64.2,64.6z M64.2,31.3H57v-3.8h9.7v3.8H64.2z"/>
		</g>
	</g>
</g>
</svg>
