<?xml version="1.0" encoding="utf-8"?>
<!-- Generator: Adobe Illustrator 24.0.2, SVG Export Plug-In . SVG Version: 6.00 Build 0)  -->
<svg version="1.1" id="Capa_1" xmlns="http://www.w3.org/2000/svg" xmlns:xlink="http://www.w3.org/1999/xlink" x="0px" y="0px"
	 viewBox="0 0 85.4 85.4" style="enable-background:new 0 0 85.4 85.4;" xml:space="preserve">
<style type="text/css">
	.st0{fill:none;}
	.st1{fill:#1E407F;}
</style>
<circle id="Ciculo" class="st0" cx="42.7" cy="42.7" r="40.3"/>
<g id="surface1">
	<path class="st1" d="M19.3,58.6c0-0.1,0.8-6.4,3.6-8.4c0.7-0.5,1.5-0.9,2.3-1.3v7.9c-1.3,0.5-3,1.8-3,4.7v10.1
		c0,0.5,0.4,0.9,0.9,0.9h39.1c0.5,0,0.9-0.4,0.9-0.9V61.5c0-2.9-1.7-4.2-3-4.7V49c0.8,0.3,1.5,0.8,2.3,1.2c2.8,2,3.6,8.3,3.6,8.4
		l1.7,13l1.8-0.2l-1.7-13c0-0.3-0.9-7.1-4.4-9.6c-1.1-0.8-2.4-1.4-3.6-1.9c-0.1-0.1-0.2-0.1-0.2-0.1l-0.7-0.3
		c-1.1-0.4-2.3-0.9-3.5-1.2L54.8,45c-0.1,0-0.1,0-0.2-0.1c-1.9-0.6-3.6-1-4.5-1.3v-2c2.7-1.9,4.3-5.1,4.3-8.4v-1.6
		c0.3,0.1,0.6,0.2,1,0.2c1.5,0,2.7-1.2,2.7-2.7v-2.5c0-0.9-0.4-1.7-1.1-2.2c0.2-1.5,0.4-3,0.3-4.5c0-10.1-7-12.4-11.2-13
		C45,7,43.9,6.9,42.7,6.9c-1.3,0-2.6,0.1-4,0.3c-4,0.6-10.6,3.1-10.6,12.9c0,1.5,0.1,3,0.3,4.5c-0.7,0.5-1.1,1.3-1.1,2.2v2.5
		c0,1.5,1.2,2.7,2.7,2.8c0,0,0,0,0,0c0.3,0,0.6-0.1,1-0.2v1.6c0,3.3,1.6,6.4,4.2,8.3v2.1c-3.2,0.8-6.4,1.8-9.5,3h0
		c-1.4,0.5-2.7,1.2-3.9,2c-3.4,2.5-4.3,9.3-4.4,9.6l-1.7,13l1.8,0.2L19.3,58.6z M56.3,29.2c0,0.5-0.4,1-1,1c-0.5,0-1-0.4-1-1V29
		c0.9-0.5,1.5-1.2,1.9-2.1V29.2z M39.1,8.9c1.2-0.2,2.4-0.2,3.7-0.2c1.1,0,2.1,0.1,3.2,0.2c4.4,0.5,9.6,2.9,9.6,11.2
		c0,1.2,0,2.4-0.2,3.6c-12.4-5.1-22-1.6-25.1-0.1C30,22.4,30,21.2,30,20.1C30,12,34.9,9.6,39.1,8.9z M31.1,29.2c0,0.5-0.4,1-1,1
		c-0.5,0-1-0.4-1-1v-2.4c0.4,0.9,1,1.7,1.9,2.1V29.2z M30.5,25.4c2.4-1.2,12.1-5.2,24.4,0.1c-0.5,1.6-1.2,1.9-1.7,2.1
		c-1,0.3-2.8-0.1-4.6-0.6c-1.9-0.6-3.9-1-5.9-1c-2,0.1-4,0.4-5.9,1c-1.8,0.5-3.5,0.9-4.6,0.6C31.8,27.4,31,27,30.5,25.4L30.5,25.4z
		 M32.9,33.3v-3.9h0.2c1.4-0.1,2.8-0.4,4.2-0.8c1.8-0.6,3.6-0.9,5.4-1c1.8,0.1,3.7,0.4,5.4,1c1.4,0.4,2.8,0.7,4.2,0.8h0.2v3.9
		c0,4.7-3.8,8.5-8.6,8.6h-2.6C36.7,41.9,32.9,38.1,32.9,33.3L32.9,33.3z M48.3,42.7v1.4l-5.5,7.1l-5.6-7.1v-1.4
		c1.3,0.6,2.8,0.9,4.3,0.9H44C45.5,43.7,47,43.3,48.3,42.7L48.3,42.7z M31.9,46.5c1.7-0.5,3.2-0.9,4-1.1l6.8,8.6l6.8-8.6
		c0.8,0.2,2.3,0.6,4,1.2v10.3H31.9V46.5z M26.3,58.4c0.4-0.1,0.8-0.4,0.8-0.9v-9.3c1-0.4,2.1-0.8,3.1-1.1v10.7
		c0,0.5,0.4,0.9,0.9,0.9h23.4c0.5,0,0.9-0.4,0.9-0.9V47.1l3.1,1.1v9.2c0,0.4,0.3,0.8,0.8,0.9c0.1,0,2.2,0.3,2.2,3.2v9.1H24.1v-9.1
		C24.1,58.8,26.1,58.4,26.3,58.4L26.3,58.4z"/>
	<path class="st1" d="M40.3,38.9h4.9v1.6h-4.9V38.9z"/>
	<path class="st1" d="M40.3,38.9h4.9v1.6h-4.9V38.9z"/>
</g>
</svg>
