<?xml version="1.0" encoding="utf-8"?>
<!-- Generator: Adobe Illustrator 24.0.2, SVG Export Plug-In . SVG Version: 6.00 Build 0)  -->
<svg version="1.1" id="Capa_1" xmlns="http://www.w3.org/2000/svg" xmlns:xlink="http://www.w3.org/1999/xlink" x="0px" y="0px"
	 viewBox="0 0 85.4 85.4" style="enable-background:new 0 0 85.4 85.4;" xml:space="preserve">
<style type="text/css">
	.st0{fill:#00A7B5;stroke:#00A7B5;stroke-miterlimit:10;}
	.st1{fill:#FFFFFF;}
</style>
<circle id="Ciculo" class="st0" cx="42.7" cy="42.7" r="40.3"/>
<g>
	<g>
		<g>
			<path class="st1" d="M30.8,53.3c0.2,0.1,0.3,0.2,0.5,0.2c0.2,0,0.5-0.1,0.6-0.3c0,0,0.1-0.2,0.3-0.4c2.2-2.4,8.4-3.2,10.6-3.3
				c0.5,0,0.8-0.4,0.8-0.9c0-0.5-0.4-0.8-0.8-0.8c-6,0-8.9-3.5-9.6-4.6c-0.1-0.1-0.2-0.3-0.2-0.4c-0.3-0.4-0.8-0.5-1.1-0.3
				c-0.4,0.2-0.5,0.7-0.3,1.1c0,0,0.1,0.2,0.3,0.4c1.9,3.3,0.1,6.4-0.8,7.7c-0.1,0.1-0.2,0.3-0.3,0.5C30.3,52.5,30.4,53,30.8,53.3z
				 M34.2,46.6c0.9,0.7,1.9,1.3,3.3,1.8c-1.2,0.3-2.5,0.7-3.7,1.2C34.1,48.8,34.3,47.7,34.2,46.6z"/>
			<path class="st1" d="M63.2,46c-1.9-4.8-6.4-8.2-11.5-8.7c-2.9-0.4-5-2.5-5.8-3.4c-0.2-0.2-0.3-0.4-0.5-0.6
				c-0.1-0.1-0.1-0.2-0.2-0.3c-3.7-4.4-9.2-7-15-7c-2.4,0-4.8,0.4-7.1,1.3c-4.9,1.9-8.7,5.6-10.9,10.3c-1.5,3.3-2,6.9-1.5,10.4
				c-0.4,3.2,0,6.4,1.2,9.4c0.8,2.2,2,4.2,3.6,5.9C16,64,18.4,66.7,23,69c3.2,1.5,7.8,3.1,14,3.1c2.6,0,5.4-0.3,8.5-0.9
				c0.5-0.1,0.9-0.2,1.4-0.3c0.3-0.1,0.5-0.1,0.7-0.2c1-0.2,2-0.5,3-0.7c0,0,0.3-0.1,1-0.3c0.1,0,0.2-0.1,0.3-0.2
				c0,0,0.1-0.1,0.2-0.2c0.2-0.2,0.5-0.5,0.3-0.9c-0.1-0.3-0.4-0.3-0.6-0.4c-0.5-0.2-0.9,0-1.9,0.3c-0.4,0.1-0.8,0.2-1.2,0.3
				c-0.5,0.1-1.5,0.3-2.3,0.5c-0.1,0-0.7,0.1-1.4,0.3c0,0,0,0,0,0c-10.1,2.1-17.2,0-21.4-2c-4.4-2.2-6.7-4.8-6.9-5.1c0,0,0,0,0,0
				c-1.4-1.6-2.5-3.4-3.3-5.4c-0.3-0.7-0.5-1.5-0.7-2.3c0,0,0,0,0,0c0.1,0.2,0.2,0.3,0.2,0.5c0,0,0.1,0.1,0.1,0.1
				c0.1,0.1,0.1,0.2,0.2,0.3c0,0,0.1,0.1,0.1,0.1c0.1,0.1,0.2,0.3,0.3,0.4c0,0,0,0.1,0.1,0.1c0.1,0.1,0.2,0.2,0.2,0.4
				c0,0,0.1,0.1,0.1,0.1c0.1,0.1,0.2,0.2,0.2,0.3c0,0,0.1,0.1,0.1,0.1c0.1,0.1,0.2,0.3,0.3,0.4c0,0,0.1,0.1,0.1,0.1
				c0.1,0.1,0.2,0.2,0.2,0.3c0,0,0.1,0.1,0.1,0.1c0.1,0.1,0.2,0.2,0.3,0.4c0,0,0,0,0,0c0.5,0.6,2.9,3.3,7.5,5.6
				c0.1,0,0.2,0.1,0.3,0.1c0,0,0,0,0,0c3,1.5,7.4,2.8,13.1,2.9c0,0,0,0,0,0c0.2,0,0.4,0,0.6,0c0,0,0,0,0,0c0,0,0,0,0,0c0,0,0,0,0,0
				c0.2,0,0.3,0,0.5,0c0,0,0,0,0.1,0c0.2,0,0.3,0,0.5,0c0,0,0,0,0,0c1.7,0,3.4-0.2,5.3-0.5c0,0,0,0,0,0c0.2,0,0.3,0,0.5-0.1
				c0,0,0.1,0,0.1,0c0.1,0,0.3,0,0.4-0.1c0,0,0.1,0,0.1,0c0.1,0,0.3,0,0.4-0.1c0,0,0.1,0,0.1,0c0.1,0,0.3-0.1,0.4-0.1
				c0,0,0.1,0,0.1,0c3.1-0.5,6.3-1.4,9.5-2.6c0,0,0,0,0,0c0,0,0,0,0,0c0,0,0.1,0,0.1,0c2.4-1.1,4.4-2.4,5.8-4l0,0
				c0.1-0.1,0.1-0.2,0.2-0.3c0-0.1,0.1-0.1,0.1-0.2c0.1-0.1,0.1-0.2,0.2-0.3c0.1-0.1,0.1-0.1,0.2-0.2c0.1-0.1,0.1-0.2,0.2-0.3
				c0.1-0.1,0.1-0.1,0.1-0.2c0.1-0.1,0.1-0.2,0.2-0.3c0-0.1,0.1-0.1,0.1-0.2c-0.2,1.3-0.7,2.5-1.3,3.7c0,0,0,0,0,0
				c0,0.1-0.1,0.1-0.1,0.2c0,0,0,0,0,0l0,0c-0.3,0.6-0.7,1.2-1.2,1.7l0,0c-1.2,1.4-3,2.6-5.2,3.6c0,0,0,0,0,0c0,0,0,0,0,0
				c0,0,0,0,0,0L54.1,67c-1.4,0.5-2.8,1-4.1,1.4c-0.4,0.1,0,1.8,0.5,1.6c1.4-0.4,2.8-0.9,4.2-1.5l0.2-0.1c0,0,0,0,0,0c0,0,0,0,0,0
				c0,0,0.1,0,0.1,0c2.4-1.1,4.4-2.4,5.8-4l0,0c0.5-0.6,1-1.2,1.4-1.9c0,0,0-0.1,0-0.1c0,0,0-0.1,0.1-0.1c0,0,0-0.1,0-0.1
				c1.5-2.7,2-5.9,1.5-9C64.3,50.8,64.1,48.3,63.2,46z M13.9,38.4c1.9-4.4,5.5-7.7,9.9-9.5c2.1-0.8,4.2-1.2,6.4-1.2
				c5.3,0,10.3,2.3,13.7,6.4c0,0,0,0,0,0c0,0,0.1,0.1,0.1,0.1c0,0,0,0,0,0c0.2,0.2,0.3,0.4,0.5,0.6c0,0,0,0,0,0
				c0.9,1.1,3.4,3.6,6.9,4c0,0,0,0,0,0c4.5,0.4,8.5,3.4,10.1,7.6c0.8,2.1,1,4.4,0.6,6.5c0,0,0,0,0,0c-0.1,0.6-0.3,1.2-0.5,1.8
				c0,0,0,0,0,0c0,0.1-0.1,0.3-0.2,0.4c0,0,0,0,0,0c-0.1,0.1-0.1,0.3-0.2,0.4c0,0,0,0,0,0c-0.1,0.1-0.1,0.2-0.2,0.3c0,0,0,0.1,0,0.1
				c-0.1,0.1-0.1,0.3-0.2,0.4c0,0,0,0,0,0c0,0.1-0.1,0.1-0.1,0.2c0,0,0,0,0,0l0,0c-0.3,0.6-0.7,1.2-1.2,1.7l0,0
				c-1.2,1.4-3,2.6-5.2,3.6c0,0,0,0,0,0c0,0,0,0,0,0c0,0,0,0,0,0c-3.1,1.2-6.2,2-9.2,2.6c0,0,0,0,0,0c-0.1,0-0.1,0-0.2,0
				c-0.1,0-0.2,0-0.3,0.1c-0.1,0-0.1,0-0.2,0c-0.1,0-0.2,0-0.3,0.1c-0.1,0-0.1,0-0.2,0c-0.1,0-0.2,0-0.4,0.1c0,0-0.1,0-0.1,0
				c-0.1,0-0.3,0-0.4,0.1c0,0-0.1,0-0.1,0c-0.2,0-0.3,0-0.5,0.1c0,0,0,0,0,0c-1.4,0.2-2.7,0.3-4.1,0.4c0,0,0,0-0.1,0
				c-0.1,0-0.3,0-0.4,0c0,0-0.1,0-0.1,0c-0.1,0-0.2,0-0.3,0c0,0-0.1,0-0.1,0c-0.1,0-0.3,0-0.4,0c0,0,0,0-0.1,0c-0.2,0-0.3,0-0.5,0
				c0,0-0.1,0-0.1,0c-5.6-0.1-9.7-1.5-12.4-2.8c0,0,0,0,0,0c-0.1,0-0.2-0.1-0.2-0.1c-0.1-0.1-0.3-0.1-0.4-0.2
				c-3.7-1.9-5.8-4.2-6.4-4.8c-0.1-0.1-0.1-0.1-0.1-0.1c0,0,0,0,0,0c-1.3-1.5-2.4-3.2-3.1-5c-0.1-0.1-0.1-0.2-0.1-0.4
				c-0.1-0.2-0.1-0.3-0.2-0.5c0,0,0-0.1,0-0.1c0-0.1-0.1-0.3-0.1-0.4c0,0,0-0.1,0-0.1c0-0.1-0.1-0.3-0.1-0.4c0,0,0,0,0,0
				c-0.2-0.9-0.4-1.7-0.5-2.6c0,0,0,0,0-0.1C12,44.7,12.5,41.4,13.9,38.4z"/>
			<path class="st1" d="M18.1,56.3C18.1,56.3,18.2,56.3,18.1,56.3c0.1,0.1,2,2.5,6,4.5c0.2,0.1,0.4,0.2,0.6,0.3
				c3.7,1.8,7.8,2.7,12.2,2.7c1.9,0,3.9-0.2,6-0.5c0.6-0.1,1.3-0.2,1.9-0.4l0,0c2.9-0.5,5.9-1.3,8.8-2.5c0,0,0,0,0,0
				c1.5-0.7,2.8-1.5,3.8-2.4c0.2-0.2,0.4-0.4,0.6-0.6c0,0,0,0,0,0c0.4-0.4,0.7-0.9,1-1.4c0,0,0,0,0,0c0-0.1,0.1-0.1,0.1-0.2
				c0,0,0,0,0,0c1.4-2.6,1.6-5.7,0.6-8.5c-1.4-3.6-4.7-6.1-8.6-6.4c0,0,0,0-0.1,0c0,0,0,0,0,0c-4-0.5-6.8-3.2-8.1-4.7c0,0,0,0,0,0
				c-0.2-0.2-0.3-0.4-0.5-0.6c0,0,0,0,0,0l0,0c-3.1-3.7-7.6-5.8-12.4-5.8c0,0,0,0,0,0s0,0,0,0c-2,0-3.9,0.4-5.8,1.1
				c-8.3,3.2-12.4,12.5-9.2,20.8C15.9,53.2,16.9,54.9,18.1,56.3z M41.3,36.4L41.3,36.4L41.3,36.4C41.3,36.4,41.3,36.4,41.3,36.4
				C41.3,36.5,41.3,36.5,41.3,36.4c0.2,0.2,0.3,0.4,0.5,0.6c0,0,0.1,0.1,0.1,0.1c1.5,1.7,4.6,4.7,9.1,5.3c0,0,0.1,0,0.1,0
				c3.2,0.3,6,2.3,7.2,5.4c0.9,2.3,0.7,4.9-0.5,7.1c0,0.1-0.1,0.1-0.1,0.2c-0.2,0.4-0.5,0.8-0.8,1.1c-0.9,1-2.2,1.9-3.9,2.6
				c-2.5,0.9-5,1.7-7.5,2.2c-0.3,0.1-0.7,0.1-1,0.2l-0.1,0c0,0,0,0,0,0c0,0,0,0,0,0c0,0,0,0,0,0c0,0,0,0,0,0c0,0,0,0,0,0
				c-2.6,0.5-5.2,0.8-7.6,0.8c-2.7,0-5.3-0.4-7.7-1c-1.3-0.4-2.6-0.9-3.8-1.4c-0.8-0.4-1.6-0.8-2.3-1.3c0,0,0,0,0,0
				c-0.1-0.1-0.2-0.1-0.3-0.2c0,0,0,0,0,0c-0.1-0.1-0.2-0.1-0.2-0.2c0,0,0,0,0,0c-0.1-0.1-0.2-0.1-0.2-0.2c0,0,0,0,0,0
				c-0.1-0.1-0.2-0.1-0.2-0.2c0,0,0,0,0,0c-0.1-0.1-0.2-0.1-0.2-0.2c0,0,0,0,0,0c-0.1-0.1-0.1-0.1-0.2-0.2c0,0,0,0,0,0
				c-1.4-1.1-2.1-1.9-2.1-2c0,0-0.1-0.1-0.1-0.1c-1.1-1.3-2-2.8-2.7-4.4C13.9,43.4,17.6,35,25,32.2c1.7-0.6,3.4-1,5.2-1
				c0.1,0,0.3,0,0.4,0C34.8,31.3,38.7,33.2,41.3,36.4z"/>
		</g>
	</g>
</g>
<path shape-rendering="auto" color-rendering="auto" image-rendering="auto" class="st1" d="M54,8.3c-0.5,0.2-0.9,0.6-1.3,1.1
	c-0.6,0.9-0.7,2.2-0.2,3.2l10.3,21.1c-1.2,2.1-1,4.8,0.6,6.7c1.7,2,4.5,2.6,6.9,1.4c2.4-1.1,3.7-3.7,3.2-6.3
	c-0.5-2.4-2.4-4.3-4.9-4.6L58.2,9.8c-0.5-1-1.5-1.7-2.7-1.8C55,7.9,54.5,8,54,8.3L54,8.3z M54.5,9.4c0.3-0.1,0.6-0.2,1-0.2
	c0.7,0,1.3,0.5,1.6,1.1l0.3,0.6l-0.6,0.3c-0.8,0.4-0.2,1.5,0.6,1.2l0.6-0.3l0.6,1.2l-0.6,0.3c-0.8,0.4-0.2,1.5,0.6,1.2l0.6-0.3
	l0.6,1.2L59,15.8c-0.8,0.4-0.2,1.5,0.6,1.2l0.6-0.3l7.3,15c0.1,0.2,0.3,0.3,0.5,0.4c2,0.1,3.7,1.6,4.1,3.6c0.4,2-0.6,4-2.5,4.9
	c-1.8,0.9-4,0.4-5.4-1.1C63,38,62.8,35.7,64,34c0.1-0.2,0.1-0.4,0-0.6L53.6,12c-0.3-0.6-0.2-1.3,0.1-1.9C54,9.8,54.2,9.6,54.5,9.4
	C54.5,9.4,54.5,9.4,54.5,9.4z M59.1,18.9c-0.3,0.2-0.4,0.5-0.3,0.9L66,34.6c-0.9,0.8-1.2,2-0.6,3.1c0.6,1.3,2.2,1.8,3.4,1.2l0,0
	c1.3-0.6,1.8-2.2,1.2-3.4l0,0c-0.5-1.1-1.7-1.6-2.8-1.4L60,19.2C59.8,18.8,59.4,18.7,59.1,18.9C59.1,18.9,59.1,18.9,59.1,18.9z"/>
</svg>
