<?xml version="1.0" encoding="utf-8"?>
<!-- Generator: Adobe Illustrator 24.0.2, SVG Export Plug-In . SVG Version: 6.00 Build 0)  -->
<svg version="1.1" id="Capa_1" xmlns="http://www.w3.org/2000/svg" xmlns:xlink="http://www.w3.org/1999/xlink" x="0px" y="0px"
	 viewBox="0 0 85.4 85.4" style="enable-background:new 0 0 85.4 85.4;" xml:space="preserve">
<style type="text/css">
	.st0{fill:none;}
	.st1{fill:#23407F;}
</style>
<circle id="Ciculo" class="st0" cx="42.7" cy="42.7" r="40.3"/>
<g>
	<g>
		<g>
			<g>
				<path class="st1" d="M52.3,62.5L49,51.2c0,0,0,0,0,0l-1.2-4c0,0,0,0,0,0l-1.6-5.5c0,0,0,0,0,0l-2.6-8.8c1.1-0.4,2-1.5,2-2.8
					c0-1.7-1.3-3-3-3s-3,1.3-3,3c0,1.3,0.8,2.4,2,2.8l-5.4,18.4c0,0,0,0,0,0l-3.3,11.3c-0.1,0.4,0.1,0.9,0.6,1
					c0.4,0.1,0.9-0.1,1-0.6l0.5-1.7l7.7-5.1l7.7,5.1l0.5,1.7c0.1,0.4,0.4,0.6,0.8,0.6c0.1,0,0.2,0,0.2,0
					C52.2,63.4,52.5,62.9,52.3,62.5z M41.2,30c0-0.7,0.6-1.4,1.4-1.4c0.7,0,1.4,0.6,1.4,1.4s-0.6,1.4-1.4,1.4S41.2,30.8,41.2,30z
					 M42.6,35.1l1.8,6h-3.5L42.6,35.1z M40.4,42.7h4.5l1.1,3.9h-6.8L40.4,42.7z M35.6,58.8l1.8-6l3.7,2.4L35.6,58.8z M37.9,51.1
					l0.8-2.8h7.7l0.8,2.8l-4.7,3.1L37.9,51.1z M44.1,55.2l3.7-2.4l1.8,6L44.1,55.2z"/>
			</g>
		</g>
		<g>
			<g>
				<path class="st1" d="M38.7,26.1c0.3-0.3,0.3-0.8,0-1.2c-0.3-0.3-0.8-0.3-1.2,0c-2.8,2.8-2.8,7.3,0,10.1c0.2,0.2,0.4,0.2,0.6,0.2
					c0.2,0,0.4-0.1,0.6-0.2c0.3-0.3,0.3-0.8,0-1.2C36.6,31.8,36.6,28.3,38.7,26.1z"/>
			</g>
		</g>
		<g>
			<g>
				<path class="st1" d="M47.7,25c-0.3-0.3-0.8-0.3-1.2,0c-0.3,0.3-0.3,0.8,0,1.2c2.1,2.1,2.1,5.6,0,7.8c-0.3,0.3-0.3,0.8,0,1.2
					c0.2,0.2,0.4,0.2,0.6,0.2s0.4-0.1,0.6-0.2C50.4,32.3,50.4,27.8,47.7,25z"/>
			</g>
		</g>
		<g>
			<g>
				<path class="st1" d="M35.7,23.2c0.3-0.3,0.3-0.8,0-1.2c-0.3-0.3-0.8-0.3-1.2,0c-2.1,2.1-3.3,5-3.3,8c0,3,1.2,5.9,3.3,8
					c0.2,0.2,0.4,0.2,0.6,0.2s0.4-0.1,0.6-0.2c0.3-0.3,0.3-0.8,0-1.2C32,33.1,32,27,35.7,23.2z"/>
			</g>
		</g>
		<g>
			<g>
				<path class="st1" d="M52,23.1c-0.3-0.4-0.8-0.5-1.1-0.2c-0.4,0.3-0.5,0.8-0.2,1.1c2.6,3.7,2.4,8.6-0.6,12
					c-0.3,0.3-0.3,0.9,0.1,1.2c0.2,0.1,0.4,0.2,0.6,0.2c0.2,0,0.4-0.1,0.6-0.3c1.7-1.9,2.7-4.4,2.8-7C54.2,27.6,53.5,25.1,52,23.1z"
					/>
			</g>
		</g>
	</g>
	<g>
		<path class="st1" d="M23,61.7L15,59.8l1.9-8.1c0.2-0.8-0.3-1.6-1.1-1.8c-0.8-0.2-1.6,0.3-1.8,1.1l-2.3,9.6
			c-0.2,0.8,0.3,1.6,1.1,1.8l9.6,2.3c0.8,0.2,1.6-0.3,1.8-1.1C24.4,62.8,23.9,61.9,23,61.7z"/>
		<path class="st1" d="M63.6,61.2c-0.8-0.2-1.6,0.3-1.8,1.1l-1.9,8.1l-8.1-1.9c-0.8-0.2-1.6,0.3-1.8,1.1c-0.2,0.8,0.3,1.6,1.1,1.8
			l9.6,2.3c0.8,0.2,1.6-0.3,1.8-1.1l2.3-9.6C64.9,62.2,64.4,61.4,63.6,61.2z"/>
		<path class="st1" d="M21.8,24.2c0.8,0.2,1.6-0.3,1.8-1.1l1.9-8.1l8.1,1.9c0.8,0.2,1.6-0.3,1.8-1.1c0.2-0.8-0.3-1.6-1.1-1.8
			l-9.6-2.3c-0.8-0.2-1.6,0.3-1.8,1.1l-2.3,9.6C20.5,23.2,21,24,21.8,24.2z"/>
		<path class="st1" d="M72.6,22.9l-9.6-2.3c-0.8-0.2-1.6,0.3-1.8,1.1c-0.2,0.8,0.3,1.6,1.1,1.8l8.1,1.9l-1.9,8.1
			c-0.2,0.8,0.3,1.6,1.1,1.8c0.8,0.2,1.6-0.3,1.8-1.1l2.3-9.6C74,24,73.5,23.1,72.6,22.9z"/>
	</g>
</g>
</svg>
