<svg xmlns="http://www.w3.org/2000/svg" width="72.458" height="72.901" viewBox="0 0 72.458 72.901"><defs><style>.a,.b{fill:#1D4F91;}.a{stroke:#fff;stroke-width:2px;}.b{stroke:#1D4F91;}</style></defs><g transform="translate(-2465 -789)"><path class="a" d="M48.477,70.9H8.309A8.318,8.318,0,0,1,0,62.592V57.468A16.583,16.583,0,0,1,5.624,45.007,30.207,30.207,0,0,1,8.3,42.917a35.509,35.509,0,0,1,3.738-2.265,43.528,43.528,0,0,1,10.927-3.916,20.637,20.637,0,0,1-5.831-7.05A20.493,20.493,0,1,1,35.45,40.99c-15.221,0-23.372,5.719-26.17,8.178a11.044,11.044,0,0,0-3.741,8.3v5.124a2.773,2.773,0,0,0,2.77,2.77H44.875a15.867,15.867,0,0,0,3.6,5.539ZM35.45,5.539A14.956,14.956,0,1,0,50.406,20.495,14.973,14.973,0,0,0,35.45,5.539Zm29.5,39.184a15.933,15.933,0,0,0-10.5-.009A2.77,2.77,0,0,1,56.806,39.7a33.536,33.536,0,0,1,8.142,5.018Z" transform="translate(2466 790)"/><g transform="translate(2514.329 838.329)"><path class="b" d="M11.315,0A11.315,11.315,0,1,0,22.629,11.315,11.327,11.327,0,0,0,11.315,0Zm0,20.572a9.257,9.257,0,1,1,9.257-9.257A9.268,9.268,0,0,1,11.315,20.572Z"/><path class="b" d="M87.763,102.572l-5.819,5.819-2.667-2.667a1.029,1.029,0,1,0-1.455,1.455l3.394,3.394a1.029,1.029,0,0,0,.727.3h0a1.029,1.029,0,0,0,.727-.3l6.546-6.546a1.029,1.029,0,0,0-1.455-1.455Z" transform="translate(-72.206 -95.258)"/></g></g></svg>