<?xml version="1.0" encoding="utf-8"?>
<!-- Generator: Adobe Illustrator 24.0.2, SVG Export Plug-In . SVG Version: 6.00 Build 0)  -->
<svg version="1.1" id="Capa_1" xmlns="http://www.w3.org/2000/svg" xmlns:xlink="http://www.w3.org/1999/xlink" x="0px" y="0px"
	 viewBox="0 0 85.4 85.4" style="enable-background:new 0 0 85.4 85.4;" xml:space="preserve">
<style type="text/css">
	.st0{fill:#00A7B5;stroke:#00A7B5;stroke-miterlimit:10;}
	.st1{fill:#FFFFFF;}
	.st2{fill:#1E407F;}
</style>
<circle id="Ciculo" class="st0" cx="42.7" cy="42.7" r="40.3"/>
<g>
	<g>
		<g>
			<path class="st1" d="M42.4,26.7c-1.4-0.3-2.7,0.5-3.1,1.8s0.5,2.7,1.8,3.1c1.4,0.3,2.7-0.5,3.1-1.8
				C44.6,28.4,43.7,27.1,42.4,26.7z M41.6,29.9c-0.4-0.1-0.7-0.5-0.5-0.9c0.1-0.4,0.5-0.7,0.9-0.5c0.4,0.1,0.7,0.5,0.5,0.9
				C42.4,29.8,42,30,41.6,29.9z"/>
			<path class="st1" d="M43.3,22.9c-3.4-0.9-6.9,1.2-7.8,4.6c-0.9,3.4,1.2,6.9,4.6,7.8c3.4,0.9,6.9-1.2,7.8-4.6
				C48.9,27.3,46.8,23.8,43.3,22.9z M40.6,33.7c-2.5-0.6-4-3.2-3.3-5.7c0.6-2.5,3.2-4,5.7-3.3c2.5,0.6,4,3.2,3.3,5.7
				C45.6,32.8,43.1,34.3,40.6,33.7z"/>
			<path class="st1" d="M22.8,54c-3.7,2.2-8.4,0.9-10.6-2.7c-2.2-3.7-0.9-8.4,2.7-10.6c0.9-0.5,1.9-0.9,2.9-1c0.2,0,0.3-0.1,0.5-0.1
				c1.3-0.4,2.5-0.9,3.6-1.5c5-2.9,7-8,7.7-10.8c0-0.1,0-0.2,0.1-0.3c0.6-3.4,2.7-6.4,5.7-8.2c5.7-3.4,13-1.5,16.4,4.2
				c1.6,2.7,2.1,6,1.3,9.1c-0.8,3.1-2.8,5.7-5.5,7.3L25.3,52.5c-0.3,0.2-0.8,0.6-1.4,0.9C23.3,53.7,22.9,53.9,22.8,54
				c-1.3,0.6-3.2,2.1-3,2.5c0.2,0.4,2.6-0.2,3.9-0.9c0.1-0.1,0.6-0.4,1.2-0.7c0.5-0.3,1-0.6,1.3-0.8c7.4-4.4,14.8-8.7,22.2-13.1
				c3.2-1.9,5.4-4.9,6.3-8.4c0.9-3.6,0.4-7.3-1.5-10.4c-3.9-6.5-12.3-8.7-18.9-4.8c-3.4,2-5.8,5.5-6.5,9.4c0,0,0,0.1,0,0.1
				c-0.7,2.5-2.5,7.1-6.9,9.7c-1,0.6-2,1-3.1,1.3c-0.1,0-0.2,0-0.2,0c-1.3,0.2-2.5,0.6-3.6,1.2c-4.5,2.7-6,8.5-3.4,13.1
				c2.7,4.5,8.5,6,13.1,3.4C24.1,55.3,23.2,53.8,22.8,54z"/>
			<path class="st1" d="M46.1,10.9c-4.9-1.3-9.9-0.5-14.3,2c-4.7,2.8-7.9,7.4-8.9,12.7c-0.4,1.4-1.6,4.8-4.6,6.5
				c-0.5,0.3-1.1,0.6-1.7,0.8c-1.8,0.3-3.6,0.9-5.2,1.9c-6.9,4.1-9.2,13.1-5.1,20c2,3.3,5.1,5.7,8.9,6.7c1,0.2,1.9,0.4,2.9,0.4
				c4.4,2.1,9.6,1.9,13.8-0.6l24.7-14.6c4.3-2.6,7.4-6.6,8.6-11.5c1.3-4.9,0.5-9.9-2-14.3c-3-5.2-8.4-8.6-14.4-9.1
				C48,11.4,47,11.1,46.1,10.9z M7.8,53.9c-3.6-6.1-1.6-13.9,4.5-17.5c1.4-0.8,3-1.4,4.6-1.6c0,0,0.1,0,0.1,0c0.8-0.2,1.5-0.6,2.2-1
				c3.5-2.1,4.9-6,5.4-7.6c0,0,0,0,0-0.1c0.9-4.8,3.8-9,8.1-11.5c3.9-2.3,8.5-3,12.9-1.8c0.9,0.2,1.8,0.5,2.6,0.9c0,0,0,0,0,0
				c2,0.9,3.9,2.2,5.4,3.7c0,0,0,0,0,0c0.3,0.3,0.6,0.6,0.8,0.9c0,0,0,0,0.1,0.1c0.1,0.2,0.2,0.3,0.4,0.5c0,0,0,0.1,0.1,0.1
				c0.1,0.1,0.2,0.3,0.3,0.4c0,0,0,0,0.1,0.1c0.1,0.2,0.2,0.3,0.3,0.5c0,0,0.1,0.1,0.1,0.1c0.1,0.2,0.2,0.3,0.3,0.5c0,0,0,0,0,0
				c2.2,3.7,2.8,7.8,2.1,11.7c0,0,0,0.1,0,0.1c0,0.1,0,0.2-0.1,0.3c-0.1,0.3-0.1,0.5-0.2,0.8c-0.1,0.3-0.1,0.5-0.2,0.8
				c0,0.1-0.1,0.2-0.1,0.3c0,0,0,0.1,0,0.1c-1.1,3.3-3.3,6.4-6.3,8.5c0,0,0,0,0,0c-0.1,0.1-0.2,0.1-0.3,0.2c0,0-0.1,0-0.1,0.1
				c-0.1,0.1-0.2,0.1-0.3,0.2c0,0-0.1,0.1-0.1,0.1c-0.1,0-0.2,0.1-0.2,0.1c0,0-0.1,0.1-0.1,0.1L25.3,58.4c-0.1,0.1-0.2,0.1-0.4,0.2
				c0,0-0.1,0-0.1,0c-2,1.1-4.3,1.6-6.5,1.5c0,0,0,0,0,0c-0.9,0-1.8-0.2-2.7-0.4C12.3,58.9,9.5,56.8,7.8,53.9z M61.7,21.9
				c2.3,3.9,3,8.5,1.8,12.9c-1.1,4.4-3.9,8.1-7.8,10.4L31,59.8c-2.6,1.5-5.6,2.1-8.4,1.6c1-0.3,1.9-0.6,2.8-1.1c0,0,0,0,0,0
				c0.1-0.1,0.2-0.1,0.4-0.2c0,0,0.1,0,0.1-0.1c0.1-0.1,0.3-0.1,0.4-0.2L51,45.3c0.1-0.1,0.3-0.2,0.4-0.3c0,0,0,0,0,0
				c0.1-0.1,0.2-0.2,0.4-0.2c0,0,0,0,0,0c3.9-2.6,6.6-6.4,7.8-11c1.1-4.2,0.7-8.6-1.1-12.5c0,0,0,0,0,0c-0.1-0.1-0.1-0.2-0.2-0.3
				c0,0,0-0.1-0.1-0.1c0-0.1-0.1-0.2-0.1-0.2c0-0.1-0.1-0.1-0.1-0.2c0,0-0.1-0.1-0.1-0.1c-0.1-0.2-0.2-0.5-0.4-0.7
				c0,0-0.1-0.1-0.1-0.1c0-0.1-0.1-0.2-0.1-0.2c0-0.1-0.1-0.1-0.1-0.2c0-0.1-0.1-0.1-0.1-0.2c0-0.1-0.1-0.1-0.1-0.2
				c0-0.1-0.1-0.1-0.1-0.2c0-0.1-0.1-0.1-0.1-0.2c0-0.1-0.1-0.1-0.1-0.2c-0.2-0.2-0.3-0.5-0.5-0.7c0,0,0-0.1-0.1-0.1
				c-0.1-0.1-0.1-0.2-0.2-0.2c0,0,0-0.1-0.1-0.1c-0.1-0.1-0.1-0.2-0.2-0.2c0,0,0,0,0,0c-0.6-0.7-1.2-1.3-1.8-1.8
				C57.1,16.3,59.9,18.8,61.7,21.9z"/>
		</g>
	</g>
	<path class="st1" d="M24,52.7"/>
</g>
<g>
	<g>
		<g>
			<path class="st1" d="M81.7,50.6l-9.4-9.4c-0.1-0.1-0.2-0.2-0.3-0.2l-5.3-1.2c-0.2-0.1-0.5,0-0.6,0.2l-4.3,4.3
				c-0.2,0.2-0.2,0.4-0.2,0.6l1.2,5.3c0,0.1,0.1,0.2,0.2,0.3l9.4,9.4c0.1,0.1,0.3,0.2,0.5,0.2c0.2,0,0.4-0.1,0.5-0.2l8.4-8.4
				C82,51.3,82,50.9,81.7,50.6z M72.9,58.5L64,49.7L62.9,45l3.8-3.8l4.7,1.1l8.8,8.8L72.9,58.5z"/>
			<path class="st1" d="M69.1,43.8C68.7,43.3,68,43,67.4,43s-1.3,0.3-1.8,0.7c-1,1-1,2.6,0,3.6c0.5,0.5,1.1,0.7,1.8,0.7
				s1.3-0.3,1.8-0.7C70.1,46.4,70.1,44.8,69.1,43.8z M68.2,46.4c-0.2,0.2-0.5,0.3-0.8,0.3s-0.6-0.1-0.8-0.3c-0.5-0.5-0.5-1.2,0-1.7
				c0.2-0.2,0.5-0.3,0.8-0.3s0.6,0.1,0.8,0.3C68.7,45.2,68.7,46,68.2,46.4z"/>
			<path class="st1" d="M70.8,48l-1,1l0.5,0.5c-0.6,0.9-0.6,1.7,0,2.4c0.3,0.3,0.7,0.5,1.1,0.5h0c0.6,0,1.2-0.4,1.7-0.9
				c0.4-0.3,0.7-0.5,0.9-0.5c0.1,0,0.1,0,0.2,0.1c0.1,0.1,0.2,0.2,0.1,0.5c-0.1,0.2-0.2,0.4-0.4,0.6c-0.4,0.4-1,0.6-1.3,0.4
				l-0.2-0.1l-0.5,1.3l0.2,0.1c0.3,0.1,0.5,0.2,0.8,0.2c0.5,0,1-0.2,1.5-0.5l0.5,0.5l1-1l-0.5-0.5c0.5-0.7,0.7-1.7-0.1-2.5
				c-0.3-0.3-0.7-0.5-1.1-0.5c-0.6,0-1.2,0.4-1.8,0.9c-0.3,0.2-0.6,0.5-0.8,0.5c-0.1,0-0.1,0-0.2-0.1c-0.1-0.1-0.1-0.2-0.1-0.4
				c0.1-0.2,0.2-0.4,0.4-0.6c0.2-0.3,0.6-0.4,0.9-0.4c0,0,0.1,0,0.1,0l0.2,0l0.4-1.2l-0.2-0.1c-0.6-0.2-1.2-0.1-1.8,0.3L70.8,48z"/>
		</g>
	</g>
</g>
<path d="M67.3,45.2"/>
<path class="st1" d="M62.5,38.4c0-0.1,0.1-0.4,0.3-0.6c0.6-0.7,1.9-0.9,2-0.9c1.3-0.2,2.3,0.3,2.5,0.4c0.3,0.2,1.6,0.8,2.2,2.2
	c0.7,1.6,0.1,3-0.4,4.3c-0.2,0.4-0.7,1.9-1.3,1.8c-0.2,0-0.4-0.2-0.5-0.4c-0.1-0.4,0.3-0.8,0.4-0.9c0.8-0.9,1.2-2.4,1.2-3.4
	c-0.1-1.1-0.9-2.3-2.1-2.8c-1-0.4-2.4-0.4-2.9,0.1c-0.3,0.3-0.7,0.5-1,0.7c-0.1,0-0.2,0.1-0.3,0.1C62.5,39,62.5,38.6,62.5,38.4z"/>
<path class="st2" d="M73.4,37.8"/>
</svg>
